<svg xmlns="http://www.w3.org/2000/svg" xmlns:sodipodi="http://sodipodi.sourceforge.net/DTD/sodipodi-0.dtd" xmlns:inkscape="http://www.inkscape.org/namespaces/inkscape" version="1.1" viewBox="0 0 261.12 355.2" height="355.2" width="261.12" sodipodi:docname="CLUB-11-JACK.svg" inkscape:version="1.1-dev (60faa23, 2020-06-06)">
  <sodipodi:namedview pagecolor="#ffffff" bordercolor="#666666" borderopacity="1" objecttolerance="10" gridtolerance="10" guidetolerance="10" inkscape:pageopacity="0" inkscape:pageshadow="2" inkscape:window-width="774" inkscape:window-height="485" showgrid="false" inkscape:zoom=".283" inkscape:cx="1.6806" inkscape:cy="84.7862" inkscape:window-x="0" inkscape:window-y="0" inkscape:window-maximized="0" inkscape:current-layer="svg8"/>
  <g transform="matrix(1.16974 0 0 1.13915 -3111.8046 940.4364)">
    <rect y="-825.5587" x="2660.2444" height="311.811" width="223.2284" style="display:inline;opacity:1;fill:#ffffff;fill-opacity:1;stroke:none;stroke-width:1.00057;stroke-miterlimit:4;stroke-dasharray:none;stroke-opacity:1" rx="10.6776" ry="10.664"/>
    <path d="M2866.2577-563.7208c3.9272-.0887 5.6884-4.6889 2.7797-8.2611-.4218-.521-.4653-.8201.3073-.3196 1.9583 1.3624 5.7132.4667 5.9054-3.6982.2376-5.1318-6.6548-6.6104-7.9489-1.1536-.068.5758-.5181.5626-.4096-.2546.118-2.218.7838-4.2912 1.6989-6.3129h-4.6686c.9152 2.0217 1.5809 4.0948 1.699 6.313.1085.8171-.3413.8303-.4096.2545-1.2941-5.4568-8.1865-3.9782-7.949 1.1536.1923 4.165 3.9472 5.0605 5.9055 3.6982.7725-.5005.7291-.2015.3072.3196-2.9086 3.5722-1.1475 8.1723 2.7796 8.261 0 .0001 0 0 0 0zM2677.4603-775.5854c-3.9274.0887-5.6884 4.6888-2.7799 8.261.422.5212.4654.8202-.3071.3197-1.9584-1.3624-5.7132-.4668-5.9055 3.6982-.2375 5.1318 6.6549 6.6104 7.9489 1.1535.068-.5757.5182-.5626.4096.2547-.118 2.218-.7837 4.2912-1.699 6.3129h4.6688c-.9152-2.0217-1.5811-4.0948-1.6991-6.313-.1084-.8172.3414-.8303.4096-.2546 1.2941 5.4569 8.1866 3.9783 7.949-1.1535-.1922-4.165-3.9472-5.0606-5.9054-3.6982-.7727.5005-.7291.2014-.3073-.3196 2.9087-3.5723 1.1475-8.1724-2.7797-8.2611-.0009 0 0 0 0 0z" style="display:inline;opacity:1"/>
    <path d="M2677.3535-811.721v3.4543h3.3544s.081 3.3298.1105 10.3928c.026 6.8587.1659 10.2605-.2713 12.2142-1.1751 4.5017-7.6987 4.5266-8.9946 1.2898-.7534-1.883-.5529-3.347-.5876-5.243h-3.6064s.021.9546.026 2.1226c.021 5.0622 1.6971 7.4833 5.6197 8.4379 4.0332 1.0894 8.7491-.5722 10.4257-4.0186.9989-1.9641.8845-2.099.9089-13.9754.015-7.9232.135-11.2203.135-11.2203h3.0883v-3.4542h-10.2084zM2866.3616-527.5853v-3.4543h-3.3544s-.081-3.3298-.1105-10.3928c-.026-6.8587-.1659-10.2605.2713-12.214 1.1751-4.5019 7.6987-4.5268 8.9946-1.2899.7534 1.883.5529 3.3468.5876 5.243h3.6064s-.021-.9547-.026-2.1227c-.021-5.0622-1.6971-7.4833-5.6197-8.4378-4.0332-1.0895-8.7491.5722-10.4257 4.0185-.9989 1.9642-.8845 2.099-.9089 13.9754-.015 7.9232-.135 11.2203-.135 11.2203h-3.0883v3.4543h10.2084zm0 0" style="opacity:1"/>
  </g>
  <g style="display:inline">
    <path style="fill:#ffcd00;fill-opacity:1" d="M-1979.1029 1288.4696c-5.5071 7.8674-29.3704-47.0322-44.6879-88.6435-7.5248-20.4418-17.5855-37.2935-13.4336-42.6681 10.911-11.0315 39.1634-1.1598 59.7032 14.5945 21.9546 16.8396 37.4518 41.6027 37.4518 41.6027zm-192.5578-40.6985-.8716-32.2845c18.9105-17.0079 42.3954-37.8724 69.8823-69.6193l-70.1594.1319c-4.8661-398.8275-4.4066-1192.4955-3.8088-1192.4107 0 0 81.5642 82.5105 79.5805 82.809-.094.0142 2.3212 480.4015 2.6313 803.561.6423 1.5248-42.6517 1.603-45.4001 22.7471-1.8162 13.9723 45.3959 12.0423 46.141 12.9749-.097 145.2595.433 247.8009.433 247.8009l43.3707 1.4223zm254.8129-149.5504c-6.3076-12.5385-16.3421-60.7421-24.0246-59.5897-35.2665 11.6782-46.6309-40.3034-10.1368-42.9793 13.8202-1.0134 29.25 16.9709 37.9064 39.3479 4.158 11.7237-.1237 67.9135-3.745 63.2211zm7.9507-72.2925c-10.4059-16.9637-20.3588-78.9524-39.3149-75.4394-17.3032 3.9328-28.3802-11.2075-26.6919-24.4707 8.877-37.2518 72.2808-1.8598 88.9203 6.7232-8.2431 18.7064-19.8926 65.3466-22.9135 93.1869zm-133.8092-174.7677c14.5145-32.781 10.6113-59.709-1.697-92.6817 37.6484-16.099 71.275-33.7773 108.3867-53.0968 1.1559-3.723 7.1127 126.1396-6.9572 186.6163-4.2309 8.9746-19.4831 1.811-28.2905-2.5664-23.8322-11.2303-49.439-23.8645-71.442-38.2714zm668.2561-593.3881c-7.682-61.0415 9.3344-199.216 9.3344-199.216s90.9064 50.2511 97.215 54.1724c-17.1902 31.7965 6.3083 105.6875 3.7456 92.4543-6.0533 4.2256-108.2853 58.7565-110.295 52.5893zm-37.4929-253.3308c1.6366-3.9142 8.1617-49.608 10.1808-49.7824 6.6242-.572 16.3324 44.7463 33.215 59.7008 31.8728-3.6745 35.6086 17.893 29.3732 28.3175 1.5452 4.5769-10.2893 14.5231-21.3427 13.5696-27.4807-10.7191-64.5402-20.204-51.4263-51.8055zm-365.6882-78.0077s23.956-134.336 24.0643-134.166c59.2048-8.5444 116.274-18.3272 169.051-12.353-10.4157 139.6299-26.808 260.3795-71.7908 281.329l93.1962 74.839s103.4868-64.4092 97.5757-63.45c-2.552.69-4.5687 54.7934-6.0825 142.281 2.625 228.3375 134.2855 459.5 139.3969 457.1767 2.7894 1.8596-112.1597 10.8282-194.7936-24.6986l-3.7116 302.3619s40.9525 20.4063 48.5375 29.8445c15.1233 52.6031-25.6497 66.0453-50.0919 52.8921-11.4288 39.9779-28.8082 138.8136-29.4366 138.7767-55.1894 9.1103-112.2684 16.1775-168.7033 12.9642 9.4677-46.508 15.4612-81.8988 18.5103-128.6673 7.1255-69.7516 21.4426-135.8224 58.2023-151.525-6.5413 2.5913-91.3934-72.132-91.3934-72.132l-104.2636 63.9727c33.5169-217.5987-23.7758-428.9307-122.6522-599.8836 49.8238-5.7366 106.2431-3.0124 194.2857 23.2721 0 0-4.9481-302.9504-4.9833-301.266-97.4009-38.3231-44.2416-112.9225 5.0829-91.5684zm378.8019-27.12c.3624-3.0793 1.7801-37.2981 1.7801-37.2981 13.7845 16.15 24.8949 63.5026 27.6378 62.7026 0 0 17.6999-2.778 23.2056 3.0778 17.9571 19.099.3007 41.6502-17.6409 37.4321-17.8493-4.5821-37.473-35.0936-34.9826-65.9144zm183.0828 1027.1266s-3.8182-537.2612-3.7243-806.548c68.0901 1.0613 54.7238-36.7077-.9011-32.731l-.1864-248.282-36.8836-1.2841s69.425-72.3696 113.4386-118.5833l1.0091 23.5023-66.9858 72.159 69.36-.1174.2406 1191.3419zm-115.8279-1247.862c16.8034-3.656 34.3224 73.7173 63.4582 120.6708-33.1116 19.8194-85.3427-17.8757-97.0819-48.1199 7.6511-25.6284 34.1065-72.2773 33.6237-72.551z" transform="matrix(-.18125 0 0 -.17727 -169.6892 262.507)"/>
    <path transform="matrix(1.10155 0 0 1.07139 -1533.0235 324.7822)" d="M1423.1426-277.7266V2.9727h174.1523v-280.6993Zm57.3086 1.086 83.8437.0664c-1.1735 2.3741-2.2871 5.4414-2.2871 5.4414 2.5614 1.0327 4.549 4.8832 5.7793 8.1308 1.0796 2.85 2.9477 9.81 5.4082 13.2012-4.3034 2.4538-15.1224-3.0222-16.6641-10.4805l-3.6269 6.1954c-24.5563-4.7814-51.1245-1.3096-59.2559-.1778-3.9878-7.655-9.6694-14.4846-13.1972-22.377zm106.1465.8867c3.0973.005 5.9466.0175 8.041.043v9.8926l-21.9453 22.6015 8.6933.3711-.3008 38.9649c-3.1785.666-6.914 4.002-6.914 4.002l-14.7403-7.9102s3.8229-1.6098 3.7168-4.1778c-.1515-2.872-1.8636-5.2206-5.2597-4.3398-.7796.1133-1.1347-.2108-1.8867-1.9746-1.4384-3.3757-2.8599-7.0834-2.3047-6.9688 1.8086 1.452 1.5378 1.532 3.666 2.4922 3.9705 1.1002 6.387-2.6147 5.1328-5.621-1.169-2.7732-3.1146-2.9326-5.0645-2.6485-.2855-.0657-.528-.3806-.7207-.7442-.6196-1.2625-1.5581-3.5092-2.2929-6.9648-1.1326-5.3287-1.3872-11.9981-.5606-13.6758 1.1426-2.3192 2.7207-5.459 2.7207-5.459 3.0741 5.893 9.7745 11.056 17.3028 9.2286.2538-.159.3039-.9907-.037-1.4786-2.7748-4.4368-3.2436-8.2517-5.004-12.7285-1.8533-4.6873-3.2422-6.8214-5.414-8.5527l2.3652-4.3086s11.5149-.0573 20.8067-.043zm-160.7364.205h52.9942l13.6523 23.131c.2698.4572.6646.295.9629.7343l-4.0469 21.7324c-6.3715-2.95-11.7322 4.6808-8.2539 10.8633-19.6391 7.2124-42.2422 25.2324-42.2422 25.2324l-.1484-17.8847-12.918-13.4493zm169.4668 10.7852c-.7861 22.0382.3195-2.6095-.291 70.3145l.4297 139.0722c.7712 2.3263 1.095 3.2332.7969 5.5782l-13.6055-14.4473-.018-40.4258s-12.872-19.1154-15.8359-27.9433c-7.8468-19.5453-9.9043-30.9019-10.8555-46.9434l1.4258-2.2754-1.5898-2.0469-.01-5.4609 2.1191-2.166-1.9394-2.4707.539-5.0996 1.5118-1.3535c-1.3459-1.4978-.8887-3.6205-.6582-5.1036.3842-1.1624 1.0129-1 1.9453-.7734 4.8447 1.3138 9.7383 4.8219 14.2109 7.5371-.195 2.6544-3.4629 8.7057 1.0859 15.3809 1.6822 1.2668 6.5647.803 6.9922.9941l-.037 20.5586-3.4355.1992 2.5801-2.918-3.5059.2657 2.3789-2.4844-3.6504-.1484 2.6836-2.789-3.5879.0722 2.6524-2.6933-3.3848-.0977 2.2363-2.4649-3.7226.2871 2.7168-2.9472-3.9883.0723 3.0234-2.75-3.9785.0273 1.1934-1.3672-1.0586-.5352c-1.0826.5066-7.5293 3.9258-7.5293 3.9258.056.561 5.4594-1.4591 5.7031-1.3594 1.6275 7.2158 8.6436 23.1745 13.2715 27.8281l.3242-45.0976c.7079-.6595 1.8373-.3328 2.5586-.625 2.3468.1227 6.2676-3.8214 4.2187-4.6035-1.0713-.2377-7.003-1.258-7.0195-1.5547.3099-12.8407.4518-26.2129-.092-40.166-1.6586-.2476-7.0801-.5586-7.0801-.5586s19.8855-20.8636 20.2754-20.4434zm-76.7988 10.4551c2.7323.0009 4.4319.267 4.043.9707-.1016.3581.6426-.7441.6426-.7441 0-.4771 19.5481.4902 29.1894 2.3379.161 1.3314-.1767 1.9495-.07 4.4101-5.8925-.9835-10.188.9501-11.4824 5.1074-.7856 2.2534-.4179 4.2833.7813 10.3106 1.1646 5.8528 1.1771 5.2225 1.039 6.0137-.1625.9287-1.1594 1.9644-2.5918 3.1328-.7073.5768-.8691 1.793-.8691 1.793s.4739-.2467.7363-.5958c.6376-.8482 1.4637-.7604 2.4043-1.2539 2.2137-1.1614 2.1406-2.287.834-7.0937-.4719-1.9346-1.1404-3.823-1.3691-5.8028 0 0 .7585.5967 1.6621 1.2208 1.4111.8788 2.5553 1.8432 4.1836 2.1093-1.5824-1.6901-3.1948-2.3972-4.4336-4.1328 3.0823 1.071 6.6176.6383 8.4609-.2207 0 0-.3754 2.4274-.5234 5.6934-.3743 8.2597-2.3091 17.063-7.7735 22.1504-7.8224 7.2827-20.6762 2.3423-27.8086-4.4043l-.7714 1.1777c4.788 4.0406 13.0873 9.0826 21.1699 8.1035-3.3795 2.834-10.834 7.5274-10.834 7.5274-5.1126-3.7277-8.8843-7.446-14.4961-11.4825l-.9766.6504 15.4356 12.3067 16.6289-11.0254s-.6911 10.577-.9512 14.4433l7.2149-6.412-5.5645-8.2833 5.8984-6.1015s-.9979.1411.092-1.7422c3.3043-8.9532 3.7701-17.6013 4.6094-26.7383.5453 3.414 1.1884 5.2064 2.4453 8.3047 1.154 2.9848 1.6067 2.963 2.9082 2.5273 7.0555-.5956 3.8608 13.0903-4.4765 4.1387-.3665-.38-.9679-.8451-.9961-.7559-.1733.549 2.2115 7.7563 3.1347 9.418.9758 1.7557.9849 2.0036 2.4336 1.8535 2.7116-.281 3.6299.6904 3.9043 3.5606-.3606 5.4259-6.201 3.1344-9.9414 1.4668-.3383-.2607 1.7548 1.9164 2.5039 2.6836 1.0183 1.0427 1.1836 1.7109 1.1836 1.7109l-.2207 2.8789-5.7246 5.2539 4.7051 6.9863-.1953 2.4961-5.0293 6.0664 5.3594 5.8477.066 2.084-4.3555 5.8261 5.8359 4.7051.2832 1.877s-3.7473 6.969-3.6464 7.2226c.085.213 6.3261 4.545 6.3261 4.545l.627 2.9335-2.711 7.4395 6.4844 3.7227 1.1875 3.3613-1.8242 6.8926 6.7246 3.123 1.918 3.8828-1.2481 7.2442 7.5371 2.2441 2 3.1855-.2617 6.3692 1.9238.1914v1.8437l-2.1601-.287-.3262 8.787 2.4863.2149v1.6504h-3.1269l-1.2754-1.3047.6016-9.8809-9.6407-1.6172-.916-1.2421 1.6153-9.1563-9.0508-2.6328-1.2188-2.2168 2.5664-9.5254-9.1211-4.0332-.6015-1.7676 3.8711-8.455-8.3809-4.0938-.5254-2.0273 4.6543-8.7168-8.3047-6.0762.2442 1.543 6.7031 4.8125-3.8828 7.4394c.041 3.137 2.6736 10.3005 3.7539 13.6445l-12.793 8.6504c5.4808 3.3188 12.3987 3.2088 18.7481 4.4532 0 0 .2782.8884.7558 1.6855 1.8475 2.979 3.5088 6.7675 5.5703 10.6758-1.5188.7202-3.8066.9472-3.8066.9472-4.5101 13.6443-.7382 32.5122-8.4766 43.0293 0 0-.1633.067-.2675.0977-.7251.2492-1.2344-.9608-1.2344-1.7773 0-.921.6498-1.6902 1.5137-1.8653v-.957c-1.3921.1841-2.4688 1.372-2.4688 2.8223 0 .862.3826 1.633.9824 2.1562-.3513.1006-1.3652.5762-1.3652.5762l-2.3672-2.6035 5.2266-5.1817.01-1.7363c-2.2253 2.3254-6.6875 6.918-6.6875 6.918l2.8477 3.0097-1.4082.6602-2.3086-2.5527-5.1797 5.3515-1.3262-.9101c1.7445-2.3036 2.8809-3.0535 5.4922-5.7754-1.3389-1.5929-6.3571-6.4586-6.5449-6.6407l-.014 1.7383 5.1348 5.0059-5.2051 5.1445s-3.1702-1.003-4.4297-1.4707c1.7092 1.4142 4.7779 2.627 6.4453 3.8496 7.5562 4.4805.3798 13.7491-6.5898 11.4473-.1983-.7468-3.8164 21.916-3.8164 21.916s-22.9846 2.2721-27.9512 2.3184c.6858-3.2776 1.9063-15.125 1.9063-15.125 1.3545-11.5262 2.4006-26.0093 9.9648-30.7989 0 0-1.1588-1.2404-2.1582-1.873-.024.0163.8904.9457.9199 1.0547 0 .335-.194.5462-.416.7226-1.6026 1.3063-3.5569 4.015-3.4863 4.086-6.2427-5.451-16.012-10.1442-21.9004-8.1953-2.3231.4899-3.3534 2.7406-4.5859.914 4.1581-25.6922-1.6613-53.3072-8.4415-72.9531 2.1363-.7584 13.0997-8.1504 13.0997-8.1504-5.6732-3.4775-17.4429-2.7415-19.4161-4.086a2.5383 2.5383 0 0 0-1.2949 2.2188c0 1.399 1.1224 2.5332 2.5137 2.5332.261 0 .5131-.0394.75-.1133a438.0807 438.0807 0 0 1 1.2148 3.0293l-7.3847-3.2324 2.4062-8.123-.8066-1.8028-2.9356 10.5782 9.4239 4.0585.6386 1.877-3.9082 8.0254 8.4278 5.0195.3554 1.5977-4.5351 8.6152 8.1601 6.3027-5.9707 7.756 7.3477 6.205-.082 1.0293-6.0879 7.0469 6.2929 6.5039.1758 2.6328-6.8594 6.1308 5.9239 8.6504c-2.469 1.6673-3.8491 3.5713-5.4668 5.4668l-1.4453-.6367 5.2617-4.0078-5.6211-8.164-5.9278 5.3827 3.2129 5.2696-1.9589-.8946-1.795-2.8242.293-2.8847 5.8574-5.3614-5.0351-7.332-.041-1.3437s3.1311-3.6184 5.4101-6.3086l-6.3808-7.0782 5.2187-6.6972-6.5664-5.6192.1855 1.6856 4.8438 4.1093-3.7188 4.5293c-.2663 2.7297.3243 7.4146-1.0625 9.4708 2.2412 2.2058 1.0693 7.5199-.031 9.2421 2.1414 2.5487.9168 8.143-.4492 8.379 1.6347 2.0602.9832 6.2373-.3828 7.5956-.4376.2347 5.8359 2.5095 9.7929 5.2422-3.2926 6.161-2.5242 11.9578-3.5625 14.047-1.425-4.1336-3.2492-8.53-4.8242-11.6954-.166-.3283-.5146-.2544-1.0371-.2637-6.5432-.5855-5.9205-6.0094-1.0137-7.3984-4.8848-2.4035-11.2404-7.5834-14.8808-8.9629.7177-1.492 1.1313-4.0729 1.2383-6.3438.3638-3.3783-1.2598-8.5625-1.2598-8.5625l2.0722-1.287c.4124-1.784 2.7293-1.8208 2.9532-3.0919-.4896-5.4591-11.0918-26.3641-13.3301-28.7265-.8482 14.9176.7714 31.1097-.039 45.998-9.9945-.034-12.1298 5.3335-.053 6.1875-.2269 13.5086-.012 40.6446-.012 40.6446l7.1367.0507s-17.6385 18.4667-19.3008 20.0235c-1.5065-64.3452-1.4394-213.0645-1.4394-213.0645l13.4765 13.5567.1485 42.2421c4.5109 4.5952 7.0963 11.2961 9.7812 15.6368l7.3692 3.6015-1.7325 5.9531.7422 1.6934 2.3008-8.4238-8.0625-3.8516-.8535-1.7441 1.3574-7.9356-7.6308-2.6328-1.3223-1.8242.4785-7.752-1.6016-.4843v-1.5371l1.5918.1347.5664-8.7011-2.1582-.6368v-2.998c1.6465.9285 2.9031 1.8623 4.1309 3.375l-.7598 9.664 9.6719 1.9493.7188 1.0234-1.7774 9.6602 10.1543 3.123c-1.0421-2.5783-2.4243-4.991-3.5742-7.5293 1.3947-.4061 2.8519-.4965 4.2637-.8008.3808-13.0486-.06-26.6261.3437-38.8984 3.6285-1.0228 5.4136-3.406 7.8945-4.086.9256 0 1.6758.7569 1.6758 1.6876 0 .8432-.6181 1.5343-1.4218 1.6582v.8496c1.269-.1307 2.2636-1.1969 2.2636-2.5078a2.5338 2.5338 0 0 0-1.1562-2.1309l1.4082-.5078 2.4648 2.8027-4.9804 4.8028v1.4511l6.2539-6.289-2.7657-3.211 1.6465-.8593 2.5235 2.6738s5.4337-5.5911 5.0957-5.6934c-4.752-6.0784-.086-13.5306 7.1171-10.707 1.6227-7.7289 3.1696-14.7033 4.4454-22.709-1.698-.2042 15.7972-2.5983 23.9941-2.5957zm13.334 6.0078c-3.2377-.0605-7.3469 1.5821-9.8965 2.8438-2.3435 1.047-1.8945 1.681-.4277 1.2304 2.1246-.564 4.381-1.1324 6.4433-1.5312 2.2097-.4354 5.4299-.0348 7.1114.7969 1.2418.6146 1.6767.2519 1.1308-.9414-.7897-1.713-2.4187-2.3622-4.3613-2.3985zm16.4512 2.5762c1.4387.0433 2.8763.6475 3.9433 2.0781l-.059 1.3203c-2.5746-2.269-6.9372-1.4901-9.3867-.1797.7026-1.8059 3.1041-3.2908 5.502-3.2187zm-20.3536 1.3652c-2.1694.018-4.2448.4114-5.8457 2.0274 3.1277-1.277 7.7058-1.3987 11.041-.0898.672.2414 1.795 1.1054 1.795 1.1054l-.4512.295s-.9677-.0313-1.8125-.3301c-3.0382-1.0748-6.7853-1.2631-10.1855.2793-.8703.3899-1.5813.898-2.4629 1.1973l.02 1.0449c1.2997.0214 2.5186.6964 3.3945 1.1914 2.9802 1.6529 4.4337 1.486 7.2696 1.4687.6594-.004 1.4979-.2148 1.498-.2148 0 0-1.1276.8763-1.9473 1.1484-2.1246.9299-3.6251 1.05-5.6132 2.1817 3.0159-.2426 7.3674-1.4535 9.9043-3.293 1.7414-1.364 2.2176-1.7046 1.4804-2.248-.6755-.4977-1.1943-.5155-.2676-1.4688.3301-.3398.8919-1.0514.8907-1.1895-.01-.6834-4.1291-2.8767-6.5196-3.0293-.7297-.0466-1.4644-.082-2.1875-.0762zm19.5528 1.4512c1.6268-.0649 3.1458.3936 4.5429 1.996l-.072.7462c-3.1415-2.4485-6.8457-1.5161-9.7246-.5195.7864-1.036 2.4238-1.751 3.5918-2.006.5653-.115 1.1199-.195 1.6621-.2167zm-21.2383 2.834.6894.0156c.6381 3.417 3.2494 2.6417 3.836.205l.8125.2344c-.677 1.765-1.6566 2.4793-2.5918 2.5176-1.3668.056-2.6389-1.331-2.7461-2.9726zm-.877.0117c.1687.9422.9202 2.3344 1.1582 2.5527-.121-.0283-1.5094-.355-1.957-.5488-1.7617-.7626-1.9452-1.063-1.0449-1.541.6107-.3243 1.1906-.4373 1.8437-.463zm20.4297.6054c.1991.0134.3579.055.4141.0918.4494 2.7626 2.5346 2.1881 3.043.3497.239-.0228.5402.0149.9472.1601-.7429 1.4696-1.7868 2.1876-2.7402 2.1875-1.0804 0-2.0472-.923-2.3242-2.7148.2217-.0727.4611-.0876.6601-.0742zm-13.5508.0195s1.1292.4864 1.3868.8887c.1758.3983-.2341.7076-1.1094.9863-.4002.1275-1.5664.1563-1.5664.1563.6706-.6575.8272-1.1022 1.289-2.0313zm11.836.086c.091-.003.1737.003.2422.0214.3007 1.6912.7718 1.9287 1.1797 2.584-1.2516.0946-3.3007-.8744-3.3945-1.3437l.01-.3164c.2182-.409 1.3183-.921 1.961-.9453zm6.7851.7636.9141.4727-.123.6914c-.7226.3347-1.4805.5602-2.2872.6426.4877-.3401.9964-1.1074 1.4961-1.8067zm-16.3398 8.9551c-.5883.0355-1.5395.6995-2.1914 1.5879-2.5773 3.5127.2582 7.0614 3.8301 5.0332.8046-.4569 1.9278-.5942 2.7441-1.1348 1.7263-1.1975.109-2.1927-1.0898-1.9433-.4903.1125-1.0587.3578-1.6875.7773-2.1615 1.4422-3.3604 1.231-3.5645-.5156-.2206-1.8875 2.6722-2.7382 2.4024-3.6153-.091-.1427-.2472-.2013-.4434-.1894zm-4.1113 10.1309c-.2914.0876-.5743 1.0923-1.1953 2.7402-.4261 1.049-.5582 1.9254-.1329 1.92.1417-.002.3478-.1032.6231-.3263.7964-.5315 2.0423-1.2443 5.0488-.414 1.6527.5462 3.5062.0689 4.586-.2364.8416-.2379 2.0484-.4708 3.0136-.0273.9431.4557 1.9768 1.1464 1.7852.4336-.048-.1813-.1062-1.2258-.1192-1.8457-.031-1.4582-.1306-2.6733-1.1777-1.5293-.4533.4956-1.0002.4987-2.0254.0918-.7311-.29-1.2443-.4858-1.8105-.1132-.8024.528-1.4946.6607-2.9766.1562-.7028-.2393-1.4408-.2612-2.3301.289-1.4781.9146-2.4154.0255-2.9824-.91-.1123-.1853-.2095-.2578-.3066-.2286zm-45.6875 1.9336-5.8067 5.9726 5.5801 5.8574v-1.4023l-4.1758-4.3985 3.9961-4.084c.5821-.802 2.071-.6283 2.5391-.6835-.3232-.9988-1.2167-.8753-2.1328-1.2618zm-.2266 3.5605c-1.283.117-2.293 1.1887-2.293 2.5098 0 1.321 1.01 2.3946 2.293 2.5117v-.8496c-.8169-.1122-1.4492-.8094-1.4492-1.6621 0-.8527.6323-1.55 1.4492-1.6622zm47.5566.121c-.1185-.009-.2023.006-.25.047-.3973.3434 1.0013 1.6877 2.3399 1.9394 1.0265.193 2.3514.0348 2.3515.1954-.56.1387-1.2209.4332-1.5097.6367-.062.4206.246.8546.6113.914.3926.064.7006-.3493.9981-.4687.2507-.0952.5961-.0364.8691-.0371.8751-.002 1.9618.621 2.2012.5078.2739-.1296.3221-.7767.1679-.9648-.5303-.4195-1.2004-.5902-1.8769-.7696 0 0 .7863-.1705 1.0879-.2422.444-.1046.8017-.1329 1.084-.537.1757-.2516.191-.69-.1094-.6856-1.7461.026-3.9628.7477-6.0527.043-.8956-.3222-1.5567-.5526-1.9122-.5781zm17.7676 2.3067-5.7344 4.9336 4.9063 7.1856 6.2617-5.0567-4.0312-6.2148zm-72.209 1.164-5.9179 6.297 6.164 6.2207 5.9805-6.0137zm72.0489 3.2677c.8697 0 1.5742.7133 1.5742 1.5879 0 .8745-.7045 1.582-1.5742 1.582-.8698 0-1.5782-.7075-1.5782-1.582 0-.8746.7078-1.588 1.5782-1.588zm-71.9102 1.6035c.8697 0 1.5781.7114 1.5781 1.586 0 .8745-.7083 1.582-1.5781 1.582-.8697 0-1.5742-.7075-1.5742-1.582 0-.8746.7045-1.586 1.5742-1.586zm64.5527 1.0957 4.334 6.375-5.2402 4.5195c.084-1.0604.1419-1.9176.1953-2.6992 1.1753-.3498 2.0371-1.4453 2.0371-2.7402 0-1.149-.6775-2.1376-1.6504-2.5918.078-.819.1798-1.7243.3242-2.8633zm-72.1191 1.1582v1.7012l4.8145 4.9843-4.8125 5.047.098 1.6171 6.4121-6.5762zm14.3125.377-5.9746 6.334 5.9746 6.2324v-2.0098l-4.0937-4.3262 4.0937-4.2265zm97.6367.459c.9145-.0306 1.9082.0654 3.043.2753-.5211 2.0639 1.6599 3.1753 1.9746 2.7188.04-.007.2075-.3677 0-.3926-1.5642-.1928-1.4407-2.068-1.2559-2.0762 1.7292.054 2.8525.0246 3.0293.7989.1089.477-.1678 1.2138-1.1757 2.043-1.1836.9524-6.6329.9316-6.6329.9316-.021-.008.012 1.557-.5351 2.455-.4807.7887-1.1469 1.6649-.6895 2.0274.7859.366 1.3175 1.2526 1.4297 2.2754.2123 2.1435-.1231 7.3022-.047 7.3574-.9176.0872-1.9693.1866-2.9825.1855-1.6886-.002-3.264-.2927-3.9062-1.4218-2.5863-3.4827-1.8431-10.6377-.053-13.0977 3.0184-2.7547 5.0533-3.9887 7.7969-4.08zm-26.4726.9882-.1133 1.4531c-1.2523.2982-2.1836 1.4306-2.1836 2.7813 0 1.1964.7306 2.218 1.7676 2.6426l-.1582 2.043-3.625-5.1133zm-13.7754.9317c.4785.3456.7929.9047.7929 1.541 0 .728-.4094 1.3613-1.0078 1.6797.078-1.2132.1336-2.2108.2149-3.2207zm-57.3887 1.418c-1.1887.2276-2.0977 1.2324-2.0977 2.4863 0 1.2537.9087 2.2826 2.0977 2.4843v-.8633a1.6721 1.6721 0 0 1-1.25-1.621c0-.7834.5312-1.4376 1.25-1.627zm-14.248.0956c-.04.336.013.6115 0 .8496.9256 0 1.6757.7588 1.6757 1.6895s-.7501 1.6816-1.6757 1.6816c-.028.3528.022.6946 0 .8477 1.3913 0 2.5195-1.1303 2.5195-2.5293s-1.1282-2.539-2.5195-2.539zm85.2226.0371-.2617 3.3653a1.8994 1.8994 0 0 1-.8945-1.6133c0-.7888.4761-1.4638 1.1562-1.752zm-6.7305 2.4766-6.207 6.2148 6.0059 6.6543 5.4922-5.961zm-71.0937.625-5.9238 6.3555 6.0527 6.2207 6.1348-6.1387zm70.8516 4.2617c.8697 0 1.5781.7134 1.5781 1.5879s-.7084 1.582-1.5781 1.582c-.8699 0-1.5743-.7075-1.5743-1.582s.7045-1.5879 1.5743-1.5879zm-70.7129.6192c.8697 0 1.5742.7094 1.5742 1.584 0 .8745-.7045 1.582-1.5742 1.582-.8698 0-1.5782-.7075-1.5782-1.582 0-.8746.7078-1.584 1.5782-1.584zm63.0312 1.4843.02 1.582 5.2969 5.584-4.9629 5.8184.1133 1.705 6.3516-7.6112zm-70.5176.5645c-.089.519-.09 1.0422-.1152 1.5644l4.9902 5.0645-4.7109 4.8906-.1836 1.9082 6.5352-6.6387zm14.1973.8242-5.7383 5.9492 5.7383 5.8164v-1.7969l-3.959-4.0507 3.959-4.0645zm70.2383 1.6875.031 1.4023a2.8613 2.8613 0 0 0-1.7168 2.627 2.8455 2.8455 0 0 0 1.8262 2.6621l.029 1.4434-3.7949-4.0137zm-110.793.6621 1.8516 2.25a2.5382 2.5382 0 0 0-.5039 1.5195c0 1.3991 1.1281 2.5293 2.5195 2.5293.3971 0 .7709-.095 1.1055-.2597l2.2519 2.7363-7.6972-1.4629zm26.2422.7129v.8476c.9113.0162 1.6484.7611 1.6484 1.6817s-.7371 1.6655-1.6484 1.6816v.8477c1.3771-.0162 2.4902-1.1404 2.4902-2.5293 0-1.389-1.1131-2.513-2.4902-2.5293zm70.6523.1777v.998c.7299.2641 1.2559.9653 1.2559 1.7891 0 .8236-.5265 1.5202-1.2559 1.7832v.998c1.2615-.2912 2.2071-1.4248 2.2071-2.7812 0-1.3563-.9455-2.4947-2.2071-2.787zm-56.3398.3008c-1.1165.259-1.9492 1.2623-1.9492 2.4649 0 1.2026.8327 2.2057 1.9492 2.4648v-.8848c-.6441-.2343-1.1055-.8502-1.1055-1.58 0-.73.4614-1.3459 1.1055-1.5801zm70.291.623.066 3.1387a1.8869 1.8869 0 0 1-.8535-1.586c0-.6374.3088-1.2072.7871-1.5526zm-108.4297 1.1172 1.9961 2.4317c-.1711.0589-.3546.0879-.5449.0879-.9256 0-1.6777-.751-1.6777-1.6817 0-.3042.087-.5912.2265-.8379zm102.6231 1.6602-5.7012 6.7227 6.3555 4.9316 4.916-6.2813zm-71.1953.1133-6.0879 6.2422 4.3242 4.752-2.1387-.2032c-.9021-1.034-1.8949-2.6785-3.5527-3.5566l.164 1.2402c.085-.0588 2.0122 1.824 1.7071 2.1308l-1.7012-.125c-.1369.0372-.066.629-.066.629 4.5568.4408 9.223 1.3355 14.0742 3.0117l-.1269-.8711-.7598-.334s.4767-.5773.875-1.0234v-1.5683l-2.0215 2.3027-.9765-.3613 2.998-3.0625v-1.1582l-3.9707 3.92-1.9375-.5372 5.2812-5.2285zm71.0879 4.3242c.8698 0 1.5742.7075 1.5742 1.582 0 .8746-.7044 1.586-1.5742 1.586-.8697 0-1.5723-.7114-1.5723-1.586 0-.8745.7026-1.582 1.5723-1.582zm-71.252.4531c.8697 0 1.5781.7095 1.5781 1.584 0 .8746-.7084 1.582-1.5781 1.582-.8693 0-1.5742-.7074-1.5742-1.582 0-.8745.7049-1.584 1.5742-1.584zm-35.5664.3067-.6387 7.9004 7.8789 2.6464 1.3106-8.7129zm-3.1914.496.6035.1348-.2207 4.2188-.3828-.0684zm102.3184 1.4727.1171 1.6856 5.543 3.9824-4.2168 5.6465.3594 1.996 5.7812-7.6581zm-87.5684.7871 1.7793 2.9727c-.4842.4624-.7871 1.1116-.7871 1.836 0 1.399 1.1224 2.5331 2.5136 2.5331.2822 0 .5554-.0488.8086-.1347l1.6192 2.705-7.5488-2.3847zm101.625.2676.166 1.2363a2.8649 2.8649 0 0 0-1.209 2.3418c0 1.237.7836 2.2832 1.877 2.6797l.1386 1.0547-4.0371-3zm-109.0762.4238c.87 0 1.5742.7095 1.5742 1.584 0 .8746-.7042 1.582-1.5742 1.582-.8697 0-1.5722-.7074-1.5722-1.582 0-.8745.7025-1.584 1.5722-1.584zm109.3965 1.9707.3594 2.709c-1.0465-.9263-.9844-1.6583-.3594-2.709zm-13.9355.2559.123.9687c.9218.127 1.6367.9157 1.6367 1.877 0 .795-.4899 1.4655-1.1797 1.748l.1231.9766c1.1593-.3602 2.0078-1.4417 2.0078-2.7246 0-1.5318-1.205-2.7743-2.7109-2.8457zm-85.7774.8047 1.6289 2.7305c-.114.0246-.2341.041-.3555.041-.9255 0-1.6699-.755-1.6699-1.6856 0-.415.1495-.7917.3965-1.086zm94.0762 2.0879-4.627 7.0586 6.5137 4.5508 4.0371-7.0528zm-107.5137 2.2851 5.2559 1.8926-.8379 5-1.0293-1.6016c.3203-.4243.5156-.9516.5156-1.5253 0-1.3991-1.1341-2.5352-2.5254-2.5352-.1887 0-.3741.019-.5508.0586zm8.2949 1.6133-1.6054 8.3047 7.7968 3.541 2.1895-8.7734zm99.8985.2344c.8698 0 1.5781.7075 1.5781 1.582 0 .8746-.7083 1.582-1.5781 1.582-.8696 0-1.5742-.7074-1.5742-1.582 0-.8745.7046-1.582 1.5742-1.582zm-106.8614.2324c.016-.0005.031 0 .047 0 1.4673.0281 2.0874 1.2415 1.5059 2.4238zm137.795 1.7442-.022 1.8515-2.2012.3867zm-24.2598 1.084.3437 1.6132c-.7363.5169-1.2187 1.3702-1.2187 2.3418 0 1.3984.9952 2.5608 2.3145 2.8067l.3554 1.6718-4.4472-3.0879s1.437-3.4854 2.6523-5.3457zm-103.1992 1.0077c.87 0 1.5781.7075 1.5781 1.582 0 .8746-.7081 1.588-1.5781 1.588-.8696 0-1.5742-.7135-1.5742-1.588s.7046-1.582 1.5742-1.582zm127.4844.834s-.01 1.2884 0 1.8535l-1.2539-.3632zm-23.7149.8301.6426 3.0254a1.8973 1.8973 0 0 1-1.1348-1.7422c0-.4945.185-.9445.4922-1.2832zm-13.6933 2.125c-.1023 0-.1966.0265-.295.0391.1155.3956.2071.6302.295.918 1.0436 0 1.8925.853 1.8925 1.9023 0 .778-.4764 1.4253-1.1425 1.7188l.2207.957c1.0912-.3982 1.8732-1.441 1.873-2.6758 0-1.5775-1.2749-2.8593-2.8437-2.8593zm-80.1368.379c.3683.833.8743 1.656 1.3321 2.7753-.1361.0358-.1767.0625-.3243.0625-.9256 0-1.6718-.749-1.6718-1.6797 0-.61.182-.8617.664-1.1582zm88.4102 1.6698-3.6817 8.252 7.3536 4.3476 3.3984-7.916zm-101.168 3.0606c-.3103.002-.5878.0336-.8359.0918-.7257.9778.3025 4.7267 2.2324 4.6816.7047-.4544 1.1232-1.3368 1.1231-2.2402 0-1.399-1.1283-2.5418-2.5196-2.5332zm6.8281.5586-2.0918 7.9824 7.5743 4.246 2.8945-7.8026zm-6.8281.289c.9245.0434 1.6757.7549 1.6758 1.6856a1.6854 1.6854 0 0 1-.623 1.3125c-1.447 1.0915-1.6597-3.1403-1.4258-2.9219.104-.055.2273-.083.373-.0762zm102.7266.9825c.8697 0 1.5739.7133 1.5742 1.5879 0 .8745-.7045 1.582-1.5742 1.582-.8698 0-1.5723-.7075-1.5723-1.582 0-.8746.7025-1.588 1.5723-1.588zm6.6738 2.6582.6289 2.0215c-.4283.5009-.6894 1.149-.6894 1.8613 0 1.3318.9068 2.446 2.1328 2.7617l.5508 1.7676-4.7774-2.8067zm-99.7168.5996c.8696 0 1.5723.7075 1.5723 1.582s-.7027 1.582-1.5723 1.582c-.8699 0-1.5742-.7075-1.5742-1.582s.7043-1.582 1.5742-1.582zm8.1445 1.1992.92 3.082c-.6662.4566-1.1055 1.222-1.1055 2.0938 0 1.3886 1.1113 2.5164 2.4883 2.5332l.7715 2.5762-6.1758-3.5586zm92.5801 1.4316.6895 2.209a1.9028 1.9028 0 0 1-.8067-1.5566c0-.2296.043-.4484.1172-.6524zm-13.9394.7051 6.2832 3.3125c-.8807 2.3793-1.6343 4.028-2.9199 6.3809-.4794-.8706-.8392-1.781-1.168-2.7149.7532-.513 1.25-1.378 1.25-2.3613 0-1.5201-1.184-2.7669-2.6738-2.8555-.056-.003-.3184-.041-.3184-.041zm-93.0567 1.1016.6016 1.5605 5.916 3.4336-2.5371 6.1914.5371 1.8106 3.4863-8.5567zm15.5977.7129.8594 2.8789c-.7861-.1385-1.3828-.8237-1.3829-1.6543 0-.4835.1999-.9167.5235-1.2246zm78.3379.9257c.9986.0511 1.6152.8604 1.6152 1.877 0 .5622-.2461 1.063-.6328 1.4102zm8.2383.7696-3.3321 8.2265 8.336 3.7696 2.2968-8.1758zm-100.1719 1.4004c-2.5289.0579-1.2398 5.089 0 5.0683 1.3914 0 2.5195-1.1341 2.5195-2.5332 0-1.399-1.129-2.5868-2.5195-2.5351zm0 .8496c.9256 0 1.6777.7548 1.6777 1.6855s-.7521 1.6856-1.6777 1.6856c-.7347-.3093-.9322-3.2762 0-3.3711zm7.3183.791-3.4961 7.9043 6.9825 4.9277 4.1133-8.1738zm94.9258 1.5293c.8698 0 1.5723.7075 1.5723 1.582 0 .8746-.7026 1.582-1.5723 1.582s-1.5742-.7074-1.5742-1.582c0-.8745.7045-1.582 1.5742-1.582zm6.9668 2.7305.5703 1.1894c-.2764.4411-.4414.96-.4414 1.5195 0 1.4737 1.1105 2.6868 2.5352 2.8399l.6992 1.4531-4.6836-2.1406zm-99.7597.5683c.8697 0 1.5742.7075 1.5742 1.582 0 .8746-.7045 1.588-1.5742 1.588-.8698 0-1.5782-.7134-1.5782-1.588 0-.8745.7078-1.582 1.5782-1.582zm7.5644 1.6817s.3519 1.374.7969 3.2207c-.8532.4063-1.4453 1.2784-1.4453 2.291 0 1.399 1.1281 2.5332 2.5195 2.5332h.031c.2361 1.108.4457 2.1761.5957 3.0762l-6.0039-4.3165zm93.3164.082.9922 2.0683c-.6125-.3131-1.056-.952-1.0332-1.6914.01-.2116.024-.216.041-.377zm-14.1562 1.127 7.3886 3.2519-2.1015 7.3847-1.6914-2.9629c.6977-.5199 1.1504-1.351 1.1504-2.291 0-1.5775-1.2752-2.8594-2.8438-2.8594-.235 0-.4596.0338-.6777.088zm-93.2891 1.1894.4981 1.7265 5.1874 3.8262-3.0175 5.5606.3203 2.0624 4.2656-8.082zm15.1309 1.6758c.2328.981.4774 2.0498.7109 3.1113-.8521-.0791-1.5176-.7963-1.5176-1.6738 0-.6096.3253-1.141.8067-1.4376zm80.0605.6152c1.0435 0 1.8926.853 1.8926 1.9023 0 .5549-.2394 1.0537-.6172 1.4004l-1.5371-3.2832a1.8904 1.8904 0 0 1 .2617-.0195zm8.1914.0879-1.9375 9.1719 8.1758 2.7304 1.7227-8.6816zm-102.041 1.9746c-1.9024.4628-.8807 4.8608 0 5.0664.6621.1545 1.2947-.269 1.748-.709a2.5377 2.5377 0 0 0 .7715-1.8242c0-1.399-1.1281-2.5332-2.5195-2.5332zm.334.8418c.7584.0885 1.3418.877 1.3418 1.6914 0 .9307-.7502 1.6855-1.6758 1.6855-1.0433-.3202-.6902-3.2626 0-3.371a1.2459 1.2459 0 0 1 .334-.006zm6.5508 1.0976-4.0215 6.9083 6.4433 4.9726 4.6778-6.3125zm-28.9629.006.8672.6485-.8731.9746zm126.8242.7852c.8697 0 1.5742.7075 1.5742 1.582 0 .8746-.7045 1.588-1.5742 1.588-.8699 0-1.5742-.7134-1.5742-1.588 0-.8745.7043-1.582 1.5742-1.582zm7.0801 1.5195c.084.3176.3804.8933.7773 1.5782-.2273.4112-.3594.881-.3594 1.3847 0 1.5776 1.2691 2.8535 2.8379 2.8535.076 0 .1525-.004.2266-.01.4719.6993.8125 1.1954.8125 1.1954l-5.291-1.5567zm-133.9043.3164 1.6777.836-1.7187 1.4199zm30.4785 2.129c.8699 0 1.5801.7074 1.5801 1.582 0 .8745-.7096 1.584-1.5801 1.584-.8696 0-1.5723-.7095-1.5723-1.584 0-.8746.7027-1.582 1.5723-1.582zm104.8301.1718c.4554.7348.9495 1.4984 1.4082 2.1914-.829-.2001-1.4434-.95-1.4434-1.8457 0-.1184.015-.2331.035-.3457zm-135.3399.963 2.3555.3847-1.9941 2.539 3.5136-.1601-2.4121 2.6308 3.8887.0898-3.0332 2.588 4.0918.0487-3.041 2.547 4.4804-.2052-3.2089 2.7715 4.4277-.0195-3.3027 2.7871 4.332.0586-2.8145 2.504 3.7813.0448-4.2735 3.0176c-1.8257-.8022-4.275-1.2575-6.7382-1.3105zm38.125 1.162.2891 2.2852c-.9704.3525-1.666 1.2852-1.666 2.3828 0 1.3169 1.0001 2.3971 2.2773 2.5195l.334 2.6719-5.5371-4.5332zm83.877 1.0176 7.0547 2.08-1.3731 7.295s-.8274-1.3374-1.7734-2.8125a2.843 2.843 0 0 0 .8222-2.0059c0-1.5775-1.2741-2.8593-2.8437-2.8593-.2884 0-.5658.0425-.8281.123-.3703-.7027-1.0586-1.8203-1.0586-1.8203zm9.7285 1.9492-1.0234 8.3145 8.6171 1.6093s.409-5.2058.6387-7.7109zm-93.209.1914.3965 3.1543c-.7576-.161-1.3262-.8341-1.3262-1.6445 0-.6606.3798-1.2328.9297-1.5098zm85.3672.5117c1.0436 0 1.8926.855 1.8926 1.9043 0 .4445-.1515.8507-.4063 1.1739-.6299-.9985-1.2843-2.0747-1.8359-3.047.1138-.0214.23-.0311.3496-.0311zm-27.627.2032v.5234l1.4512.375-1.4687 1.7676-.014 1.6758 2.7832-2.998 1.0293.2382-3.8223 3.9629-.014 1.6719 5.1113-5.2578 1.5371.3515-5.3731 5.5117 5.9493 6.2149 6.3711-6.504-4.5-4.7011 2.4882.2754 3.3457 3.4297v-1.3477l-1.6269-1.871 1.6309.0565v-.4199l.051.008c-5.2378-1.3081-11.1525-2.3545-14.9297-2.9629zm-71.8906.3222c-.4671.1907-.5613 4.414.098 5.086 1.3913 0 2.5254-1.1303 2.5254-2.5293 0-1.3991-1.1341-2.539-2.5254-2.539-.034-.0255-.067-.0304-.098-.0177zm.041.8672c.017-.0109.036-.011.057 0 .9256 0 1.6816.7588 1.6816 1.6895s-.756 1.6816-1.6816 1.6816c-.1399-.707-.3081-3.2078-.057-3.371zm110.7481 1.5508c.8699 0 1.5781.7114 1.5781 1.586 0 .8745-.7082 1.584-1.5781 1.584-.8696 0-1.5742-.7095-1.5742-1.584 0-.8746.7046-1.586 1.5742-1.586zm-103.8945.082-4.5235 5.6367 5.7109 6.334 5.1934-6.2773zm111.0371 1.2578.7714 1.1953v3.463l-.9628-.1563zm-38.6641 2.2266c.8697 0 1.5742.7075 1.5742 1.582s-.7045 1.584-1.5742 1.584c-.8698 0-1.5723-.7095-1.5723-1.584s.7025-1.582 1.5723-1.582zm-71.4473.8222c.87 0 1.5782.7075 1.5782 1.582 0 .8746-.7082 1.5821-1.5782 1.5821-.8697 0-1.5722-.7075-1.5722-1.582 0-.8746.7025-1.582 1.5722-1.582zm78.9356 1.123-6.7051 6.9747 6.6641 6.8379v-1.67l-5.1563-5.1425 5.1875-5.2461zm-14.9414.5665-.014 1.6875 4.8203 4.875-4.9004 5.043-.012 1.5195 6.2734-6.5195zm34.1972 1.418 7.5586 1.2207-.4257 7.834s-1.606-1.7216-2.1504-2.4258c.4257-.4988.6894-1.1409.6894-1.8496 0-1.5776-1.2749-2.8594-2.8437-2.8594-.4518 0-.8749.1097-1.2539.2988-.2916-.4353-1.5743-2.2187-1.5743-2.2187zm-90.7754.0117v2.787c-.9874.3434-1.6972 1.2888-1.6972 2.3985 0 1.1113.7136 2.0478 1.7031 2.3887v2.6016l-4.8066-4.8086zm-13.4628 1.4785 3.8046 4.2187-3.5839 4.2305-.051-1.9648c1.0806-.2853 1.8828-1.2716 1.8828-2.4473 0-1.2224-.8657-2.2418-2.0117-2.4805zm84.9707.6523c-1.346.1946-2.3809 1.3893-2.3809 2.8067 0 1.4112 1.0255 2.5573 2.3633 2.787v-.9648c-.8119-.211-1.4141-.9388-1.4141-1.8222 0-.8869.607-1.621 1.4238-1.8301zm-14.959.0977-.01.961c.8504.1862 1.4902.9452 1.4902 1.8554 0 .9209-.6541 1.6854-1.5195 1.8594l-.01.959c1.3948-.182 2.4786-1.3667 2.4786-2.8184 0-1.4348-1.0584-2.6128-2.4297-2.8164zm37.0547.6348c1.0436 0 1.8925.8549 1.8925 1.9043 0 .4002-.1231.7684-.3339 1.0742l-2.211-2.8594a1.8568 1.8568 0 0 1 .6524-.1191zm-93.5996.8515.01 2.9395a1.6798 1.6798 0 0 1-.8594-1.4688c0-.6293.3419-1.1806.8497-1.4707zm-13.4043.1992c.6667.2235 1.1464.857 1.1464 1.6016 0 .7119-.4373 1.322-1.0586 1.5684zm77.5722 2.3829-5.9961 6.3652 5.666 5.7656 6.0118-6.2265zm-71.5351.1816-5.1524 6.2969 5.0742 6.8457 6.2676-6.2813zm-32.1446.1465s4.6783.0206 6.3047 1.2031c1.7034 3.1249 2.8628 9.8635.3614 13.5625-.8743 1.1086-2.1562 1.6375-3.6309 2.8125-1.1368.9058-2.7041 1.3476-4.0684 1.3496-1.365.002-2.5318-.4492-2.8886-1.3457-.2799-.5037-.4295-.9388-.8379-1.127-.7961-.3668-1.878-.1131-1.9297.1563-.094.0013 1.2699.1318 1.5019.3418 1.0663.9656.8864 1.572-.6269 1.4512-.4874-.0221-1.8502-.0421-1.8809-.5781-.3026-1.8477 2.1425-3.201 5.2696-2.9532 2.2305.3706 2.2407-.4926 2.3964-1.6894.098-.393.44-1.0288.7188-1.5313.7888-1.4219 1.0504-1.2233.5-1.7734-.5333-.6993-1.2253-1.5671-1.2149-2.3828zm103.3809 4.1348c.8701 0 1.5723.7114 1.5723 1.5859s-.7022 1.584-1.5723 1.584c-.8696 0-1.5781-.7095-1.5781-1.584s.7085-1.586 1.5781-1.586zm-70.8262.8574c.8696 0 1.5742.7075 1.5742 1.582s-.7046 1.5879-1.5742 1.5879c-.8699 0-1.5722-.7134-1.5722-1.5879s.7023-1.582 1.5722-1.582zm78.4297.8828-6.6328 7.1015 6.6211 6.8829.01-1.6524-5.254-5.2305 5.254-5.4843zm31.9902.1562v2.3633l-2.3203-2.3418zm-47.0019.082-.016 1.8633 4.9238 5.1192-5.0059 4.998-.016 1.7246 6.4902-6.6972zm-69.8399 3.0372 3.4707 5.0097-4.1796 3.9239.1679-2.166c1.1886-.2035 2.0996-1.2394 2.0996-2.4922 0-1.1113-.7164-2.0525-1.707-2.3946zm13.5547.5156-.2734 2.9902c-1.1758.2142-2.0664 1.2518-2.0664 2.4961a2.528 2.528 0 0 0 1.6191 2.3633l-.2617 2.8496-4.3496-5.8906zm56.252.3965-.01.955c.9667.0845 1.7305.8933 1.7305 1.8868 0 1.0036-.7791 1.8133-1.7598 1.8828l-.01.957c1.5096-.067 2.7187-1.3054 2.7187-2.8398 0-1.5176-1.1834-2.7496-2.6699-2.8418zm46.9531.0176v18.5117l13.3574 14.1406V.543h-52.5097l-15.3926-25.877c.9251-6.779 3.3223-19.9004 3.3223-19.9004 1.4129.343 6.1794.7939 8.7539-2.918 1.2283-1.7708 1.8851-4.1844.2285-7.9902-.2357-.4523-.6231-1.1035-.6231-1.1035s.4194-.11.7129-.3027c20.1817-7.506 41.7733-24.2287 42.1504-24.7207zm-31.9219.086c-1.3374.2318-2.3554 1.3991-2.3554 2.8105 0 1.4059 1.0178 2.5656 2.3476 2.8027v-.9805c-.8005-.2194-1.3984-.9467-1.3984-1.8222 0-.8798.596-1.6148 1.4023-1.832zm-85.0586 1.75a1.684 1.684 0 0 1 .9297 1.5097 1.6813 1.6813 0 0 1-1.1777 1.6074zm13.42 1.6347-.2832 3.0703a1.6774 1.6774 0 0 1-.8575-1.4688c0-.7446.4751-1.3781 1.1407-1.6015zm63.9824.6035-5.9707 6.205 5.8574 6.0391 6.0723-6.1738zm-96.6445 2.5078 12.9941 7.2285.9355.4805s-.3588.1028-1.1211.6055c-1.4693.9688-2.0291 3.351-1.3613 5.1406 1.0916 2.9254 3.3447 2.3978 5.2227 2.4043 1.5602 1.2112 2.8949 5.2628 3.9902 7.9668.5063 1.1746.9913 2.0744 1.1172 2.7558.1164.6297.1113 1.1797.1113 1.1797s-.2522-.078-.6211-.8379c-2.0699-4.3845-6.9068-6.5032-9.4765-2.3574-1.3021 2.5421-.4025 5.4442 1.7851 6.2559.6695.2484 2.9453-.0157 2.9453-.0157.1328-.08 1.6513 2.1529 3.795 9.4883.8804 3.0299 1.1101 9.6019.2714 10.5469-1.4199 1.7327-1.7846 4.1677-2.9863 5.916-.1465.2949-.4394.8106-.4394.8106-2.3295-4.9364-9.0968-9.206-13.6758-8.8301-3.3251.273-4.3625 1.2879-3.5742 2.2539 1.8291 1.8786 3.0249 4.5167 3.625 6.8262 1.3968 5.3753 2.879 10.1695 6.6347 14.3476l-2.1562 4.2461-27.7246-.1816V-9.746l21.3652-22.84-8.2383-.1035.088-39.1757c2.2583-.9438 4.4114-2.408 6.4942-3.8223zm96.582 2.0488c.8697 0 1.5742.7075 1.5742 1.582 0 .8746-.7045 1.586-1.5742 1.586-.8698 0-1.5742-.7114-1.5742-1.586 0-.8745.7044-1.582 1.5742-1.582zm-71.9766 2.0723c.8698 0 1.5782.7075 1.5781 1.582 0 .8746-.7077 1.588-1.5781 1.588-.8697 0-1.5742-.7134-1.5742-1.588 0-.8745.7045-1.582 1.5742-1.582zm15.8047.6289c5.7448-.1256 11.8897 3.1454 18.4395 8.2383-4.3422 12.0948-4.8172 24.895-4.9746 25.3672 0 0-2.3248-.2893-3.0567-.7032-1.6222-.9274-3.4676-1.4854-5.2402-1.582-1.6498-.0899-1.916-.0918-1.916-.0918 2.2084-1.4848 4.7985-1.7031 6.705-2.6035 0 0-.7028-.3493-1.9257-.2383-2.6245.2383-5.1582 1.287-7.8457 3.084-1.8614 1.2443-1.9297 1.2453-1.4297 2.8066.1204.3758.3733.9397-.5137 1.2676-.9198.3402-.7903.7171-.2676 1.1367.1283.103.4591.1272.5918.2325.1658.1308-.011.7174-.01.7968 3.1787 2.7035 8.6339 2.9314 13.3515.5078.3116-.16 1.1152-.4824 1.1152-.4824l-.1113 1.164c-2.7503 1.8189-6.5186 2.331-9.373 2.3692-1.7111.0278-2.0461-.1908-4.6231-.9824-1.0596-.3255-1.6515-.412-1.748-.25-.2192.3684.162 1.4658.9765 2.0527 2.7516 1.9828 6.7589 1.8267 12.2286-.3554.6487-.2589 2.4218-1.1778 2.4218-1.1778-.093 1.8964-.4873 3.8286-.7461 5.418-.2625 1.6117-.6347 3.1914-.6347 3.1914-.5886.3364-26.2403-.9273-29.7344-3.0976-.3508-.333-.073-.7756-.01-1.7032.1019-1.4908.211-2.4258.211-2.4258s.8533.4187 1.3476.6368c2.5829 1.1389 6.2351.1426 8.4375-2.2598 2.7772-3.0302 2.8654-6.1474 1.1309-12.3047-1.9808-6.9254-1.9326-7.8399.4433-9.2558 1.642-1.1168 2.5569-3.6728 2.3438-3.7793-.9653 1.0624-1.9602 1.6971-2.9102 2.2753-2.7583 1.8973-3.6224 2.8655-2.3554 6.3692 1.2509 3.4577 2.2592 6.837 1.7383 7.0469-.2491.1002-1.2007-1.0235-1.7891-1.3633-1.2057-.6958-4.2324-1.9434-4.2324-1.9434s.1987.275 1.4394 1.0938c3.3199 2.192 4.6802 4.1777 1.4766 2.9218-2.4899-.8712-4.6121-.0579-6.4512.8106 0 0-.1143-1.4854-.1211-2.0234-.053-2.876.312-5.5997.5567-8.1036.6065-6.2304 1.6621-11.4804 4.3847-14.8613 3.9851-4.9488 8.2115-7.1015 12.6797-7.1992zm48.7422 3.1777-.01.9551c.9002.1464 1.5918.9273 1.5918 1.873 0 .956-.7068 1.7364-1.6211 1.8692l-.01.957c1.4435-.1355 2.5801-1.3395 2.58-2.8261 0-1.47-1.111-2.6695-2.5312-2.8282zm-49.1562 1.873c-.2855-.0285-.7918.142-1.1485.4473-.8417.7203-3.126.5337-4.416-.0566-.5659-.259-.6297.8178.045 1.0547.6541.2297 1.6172.5078 1.6172.5078s-1.0392.3677-2.1777.7402c-.669.219-.7135 1.3534.053 1.0918 1.7292-.5908 4.1048-1.3813 6.7813-.5918 2.103.6454 1.6002-.9437-.6836-1.1425-.7286-.0635-1.9493-.209-1.9493-.209s1.037-.4632 1.7071-1.0938c.5218-.491.4573-.7195.1719-.748zm-1.752 4.877c-.8755-.0097-1.8487.2306-2.9336.7051-1.5222.666-3.025.8765-4.4844-.3574-.8502-.7187-.8038-.1733-.5859 1.3144.244 1.6633.4152 2.571.875 2.5176.1798-.0208.4037-.19.6933-.5176.3049-.3454.7936-.2511 2.0313-.1757 1.3251.0806 1.662.0446 2.5352-.2735.9953-.3626 1.0167-.3615 1.707-.0664 1.0791.4617 1.7548.5154 2.7461.2324 1.2168-.347 1.9841-.2521 2.7344.1192.7598.3758 1.0011.2988 1.2656-.3946.1109-.2908.6508-1.4186.9004-1.8027.8119-1.2485.6146-1.4577-1.086-.9316-1.1686.3613-3.3223.5899-4.9257-.0782-.4571-.1904-.9473-.2852-1.4727-.291zm2.3223 7.4434c-1.7944-.0317-3.2034 1.2162-5.168 1.7617-.9706.2546-.744 1.514-.1231 2.0606.7979.7024 2.0237.2642 3.6661-1 3.2224-2.4804 3.9967 2.2878 1.0586 3.1308-.4552.1306-.246 1.1873.7109.918 1.842-.5184 2.6979-2.1187 2.582-3.9043-.094-1.4442-.8387-2.6206-1.9297-2.8692a3.8879 3.8879 0 0 0-.7968-.0976zm-24.9649 1.2402c1.5468-.0923 3.1837.8918 4.4727 3.0137 1.6382 2.6954 2.0898 4.3283 2.1426 6.039-.1484 3.5917.053 5.5138-.1817 9.1231-2.2773-3.5283-2.6791-8.7033-5.1016-11.5059-4.4816.8387-6.6028-3.3989-2.832-6.2207.4794-.2676.9844-.4184 1.5-.4492zm10.9297 13.3477c1.0873-.1076 2.1775.8625 2.7168 2.625l-.7871-.0586c-.8251-2.2455-2.7529-2.1803-3.4961-.2324l-.7051.0059c.5809-1.5213 1.4257-2.2562 2.2715-2.3399zm2.332.3867s1.6936.099 2.3203.3418c.4257.165.7981.409.8516.6914.054.2836-.2402.6453-.6953.7793-.4118.1212-.845.1843-1.2539.289-.2016-.7517-.7014-1.5578-1.2227-2.1015zm16.9239.168c.9881.018 1.9647.8753 2.4863 2.6543l-.9922.0761c-.7207-2.456-2.3337-2.8-3.3008-.2265l-.7519-.125c.5702-1.577 1.5705-2.397 2.5586-2.379zm-21.3379.0625c-.3394.3526-.7664 1.0865-.9629 1.582l-.6211-.1719.07-.9531c.4846-.2907 1.126-.457 1.5137-.457zm18.3613.1308c.1784-.0085.3692-.0043.5801.0098-.162-.0162-1.0535 1.259-1.0879 2.0157 0 0-.804-.2055-1.0176-.4493-.3428-.4272-.4323-.7763.021-1.0644.5438-.344.9694-.4864 1.5039-.5117zm5.3672.254c1.3406.2528 2.1354.8264 3.0723 1.8242l-1.7832.3105c-.5418-.7301-.6518-1.369-1.2891-2.1348zm5.5058 2.6015-.1328 1.2246c-2.8197 1.4347-9.2532 2.9144-13.4687.4649-.3499-.3948-.1289-.9551-.1289-.9551 5.9488 2.1448 9.7471.9866 13.7304-.7344zm-30.8359.2578c2.6819 1.7154 6.0918.9825 9.3965.0176-3.084 2.9737-7.3905 2.0878-9.5137 1.209zm9.0371 1.6992c-2.2284 3.5671-5.5339 3.9387-9.2656 2.1914l.055-1.5761c3.132 1.6957 6.5717 1.0517 9.2109-.6153zm-28.4433 7.7403c.3224-.011.6449-.006.9668.0136 5.5805.3386 11.0078 5.1577 12.9238 10.5137l4.0801-7.0351c18.2442 2.4463 33.9445 3.5929 59.7597-.3653L1540.0352.9766l-85.1875.5488c.8867-1.7394 1.7822-3.1503 2.455-5.1817 0 0-4.7882-5.015-6.539-11.6074-.977-3.6787-2.3803-7.1215-4.8418-9.5703-.038-.0875.087-.198.2363-.3008.9472-.3356 1.9136-.51 2.8809-.543z" style="fill:#004c97;fill-opacity:1;stroke-width:0.165"/>
    <path style="fill:#c8102e;fill-opacity:1" d="m-1479.9206 1316.4697-504.6906.01 65.7596-131.4403c122.686 18.5738 243.631 16.2552 363.193-2.6597l75.738 134.0921zm-689.9602-106.516-1.0571-63.0139 65.3697 1.4443zm551.8071-423.7096.7145-191.248c26.0695 18.394 52.1314 36.8261 78.9584 51.4328l-1.0355 197.8862zm-219.9924-41.8416c-4.6316-108.1502-20.3867-150.3695-30.6027-205.1934l93.5895-60.4896.2706 222.0096zm-255.8618-189.7121.5306-266.3542c86.0308 123.7286 140.3808 249.4053 155.3743 419.0633-23.3915 9.4318-46.2101 19.8456-70.1959 28.2586-24.5116-66.8766-53.7464-126.7479-85.709-180.9677zm874.6727 111.1903c-79.4995-101.0004-130.447-237.092-155.4717-402.8733l72.7778-35.3313c24.1571 58.5293 52.7505 128.3095 83.3071 176.884zm-314.2008-180.1586.2948-222.718 62.1368-40.3449c3.8711 78.2966 16.2866 151.4479 30.6444 205.6845zm-163.542-117.2812c-22.986-17.2905-46.9177-33.1987-73.4556-45.2979l3.8779-197.5943 70.1422 54.0075zm493.0179-556.731s43.7467-44.4286 59.9767-58.8544l.3584 60.3228zm-550.8778-28.7651-81.5702-139.1952 511.2996-4.2907-70.7979 143.9704c-135.4051-24.7576-246.1526-17.3836-358.9315-.4845z" transform="matrix(-.18125 0 0 -.17727 -169.6892 262.507)"/>
    <path style="fill:#000000;stroke-width:0.165" d="m1452.9824-276.7227 13.7285 24.0938c18.2651-4.0553 40.0701-3.3425 59.7598-.1016 1.0544-1.4249 2.2105-4.3245 3.3184-6.4218 2.7481 7.435 11.537 12.2347 17.1992 10.168 0 0 .055-.3548-.8945-2.0274-2.7598-4.824-3.3981-9.945-5.8379-15.1153-1.2146-2.829-3.9493-5.0218-4.5606-5.1836l3.0391-5.412zm2.4512 1.2735h2.8125l10.4629 17.414 14.1172-1.6035-4.6504-15.8105h4.1953l4.166 15.4433c7.8807-.32 15.3991-.4098 21.9531.1192l2.2207-15.5625h4.0039l-2.5351 15.539 13.2461 1.7032 7.1855-17.2422h4.1387c-2.6712 4.5311-9.3416 19.0334-10.5879 20.4746-31.55-4.0773-44.3927-2.0226-58.8769-.082zm5.6465 0h14.414l4.8418 14.4375-10.2832 1.2265zm23.5625 0h24.0429l-1.9824 13.3867c-6.3101-.3797-12.4764-.0304-18.6719.166zm32.9765 0h12.7715l-6.4062 15.205c-3.6409-.5148-5.8188-1.0488-8.9864-1.1289zm18.7188 5.496s.5384.0432.9062.4298c1.5884 1.668 3.1337 4.7384 4.5176 9.039 1.018 3.1637 2.2298 6.5065 3.5664 9.2813.7213 1.4675.654 1.5417-1.4609 1.5722-4.5314.0655-8.3082-2.1027-11.6621-6.6972-1.0672-1.4637-1.4803-2.1234-1.4766-2.7383.113-.7107 1.5176-2.9844 1.5176-2.9844s.8144 2.2573 1.0078 3.3496c1.2182-4.5116 1.7035.7169 2.1719 2.0957 1.4869-4.3585 2.2879 1.6319 2.2129 3.248 2.0227-2.7949 1.8926 1.7958 2.8789 2.6485.024-2.422 1.4418-.7646 3.2773-.248-.9599-1.354-2.8299-2.2638-.4433-2.5625-2.3806-1.6531-3.5725-1.4004-1.2618-2.3125-1.7807-.988-4.7119-2.1762-1.4707-2.8262-1.9807-1.2556-5.167-1.783-1.7421-2.9824-2.5868-1.5915-6.0297-1.4778-1.1856-2.7559-1.755-1.032-4.8482-1.4179-1.3867-2.3144-.535-.2406-1.4629-.8672-1.4629-.8672zm32.8203 4.0509-22.0332 22.4003 8.3008.2461v40.4805s.9121.2315 1.791.2832c4.1747.2457 5.306.5871 5.3203 1.5938.018 1.2463-1.8749 2.7898-3.4453 2.8125-.3554.005-.9492.3593-.9492.3593l.5039 132.5567 9.8574 10.3808-.041 3.297-12.1465-12.9278-.457-132.4864-.461.2149-.033 44.4941c-6.2254-9.3611-9.7173-18.639-13.1797-27.916 0 0-1.2253.4237-1.2753.4492-.01.0103.4375.1563.4375.1563 3.5323 11.8567 8.002 20.4542 13.7988 29.4277l-.084 43.1211c-14.8431-21.0832-22.0185-40.0448-25-67.373l7.5117-3.7715.7285-.9805 5.6739-2.8516.5449.9102 3.4394-2.3945c-2.6569-4.6623-2.5584-11.363-.3925-14.9121l-.9317-.584c-.064-.2567-3.566 7.2572.3496 14.8984l-2.5625 1.586c-3.697-7.685-1.9797-15.9629-.2383-18.0957-3.5647-2.1985-7.5568-4.6049-11.0546-5.7618-1.544-.6314-2.5249.1108-2.5196.127l-.75 4.291 1.1914 1.6348-1.3886 1.125-.6329 6.5683 1.4922 1.5157-1.5332 1.707-.209 6.2597 1.6817 1.3106-1.2988 2.1719.09 5.5449.3906.2695c3.238 39.6952 22.5634 63.1507 25.5879 68.4707l.4258.6934c.2079 13.469.1416 26.9978 0 40.6953l14.2363 15.2266-.082-5.5723-.6973-.5059V-80.121l.5918-.0332s.1816-6.8209.1348-11.5059l-.8457-.0234.053-17.4316.7188-.086-.041-11.2929-.7832.002s-.1801-11.8413.1015-17.5996l.5821-.0351-.039-11.2266-.6582-.0508-.047-16.0547.8145-.125-.2207-10.5976-.6661-.0391c-.2394-6.5485-.125-17.8692-.125-17.8692l.7618-.0352-.1875-10.5234-.5489-.0352.1621-18.4746.4961-.0586-.1914-10.9121-.5332-.0488.092-9.0742.3692-.0625.092-3.3946-.3926-.8984-.025-12.0899.2988-.1328zm-1.1348 2.0605.059 3.8437-12.9433 12.7793 13.0429.1993-.031 2.6015-19.0098-.1894zm-.1113 5.8574.086 9.873-10.2031-.164zm-75.5527 3.539c-8.8948.0127-17.8378 1.026-24.7617 2.5645 0 0-3.3401 15.9443-4.5313 22.713-1.1254-.6488-2.1257-.9322-3.1387-.9102-7.834.8563-7.1632 11.6584-3.125 11.961.5405-.008.7751.084 1.1309.455.4951.5162 1.0891.8619 1.4043.8164.4254-.0615.6197.0161.623.2441 0 .1867-.1864.2166-.8847.1543-.4252-.0379-1.3223.6367-1.3223.6367l-.01 48.6446c-3.8031-1.5861-9.4886-2.4984-13.8574-3.0196l-.2929-43.3574s-6.4089 3.376-8.7364 4.7246l-.084 38.8106-4.539.498 7.1699 14.6504c1.0064-.7783 15.1164.5463 18.6406 2.8516l-12.8769 8.08c1.3083 4.0112 2.4978 7.8442 3.5918 11.9063.034.1245.2713.1118.3047.2363.2649.991.4549 1.4378.7031 2.4356.046.1862-.03.489.023.6738 2.7739 9.6094 4.6683 22.3424 5.0528 33.7422-.041.1078-.4512.0156-.4512.0156l.082 6.9649.457-.3067-.045 3.1524-.4648.461c-.011.6108-.053 1.7636-.053 1.7636l.5957.375-.3086 5.2812-.6132.0899-.336 8.3594 16.3067-10.6133s10.6421 7.6628 15.2968 11.6367c-5.1214 3.5016-6.481 10.328-7.75 15.9941-1.298 5.6067-1.7247 10.2361-2.0917 14.9278-.405 5.1709-1.3811 11.9891-2.0626 15.248 5.5357.2296 18.2557-.2179 28.5391-2.459.8656-7.544 2.1905-14.3949 3.7539-21.705 0 0 .1745.613 2.7246.5761 7.4631-.1079 10.0772-8.4486 3.836-12.1406-.5886-.3515-1.5892-1.0236-2.5762-1.545-.2837-.1475-3.8613-2.2597-3.8613-2.2597l4.2871 1.9395.3105-50.045s8.9412 2.7008 14.836 2.9551l-.062 43.3926 8.2324-4.4668.375-38.7969 4.5097-.291s-1.7083-3.6557-2.0878-4.4238c-.7624-1.5384-2.6805-4.9574-3.9903-7.1192-.4641-.7644-1.5488-2.4667-1.5488-2.4667-6.0092-.1604-12.1582-1.0672-17.7461-3.5645l12.9336-8.4629c-5.4017-15.305-12.1383-37.7004-8.3848-73.8476l-.9062.578-.2481 3.8946-16.1015 11.1426-19.8614-16.084s1.4427.0392 1.7657.0527c5.0655.1796 8.6317-5.031 9.8554-9.3809 2.1571-7.6672 2.4402-9.5588 3.4336-21.7167.3929-4.808 1.34-9.4458 2.3047-14.0274.5086-2.3028.4336-2.5332.4336-2.5332a113.6777 113.6777 0 0 0-3.8027-.0566zm.7168.375 1.9414.047c-2.8251 14.0593-2.8384 26.092-5.8535 37.1758-1.4925 5.4946-5.3004 9.4044-8.9961 9.3925-8.2046-1.0214-6.0316-9.6763-2.5723-11.4746 4.7087-2.205 8.4803 2.2373 5.4727 6.7383-2.2065 3.3022-6.4031 1.1176-4.7813-2.502.9134-2.0384 2.8067-1.7995 2.7891.2618-.6761 1.9597-.056 1.2619.4726.5703 1.6594-2.1712-1.6891-4.475-3.4101-2.332-1.0563 1.3153-1.2776 2.877-.916 4.125.6173 2.131 3.0639 3.3768 5.832 1.4043 3.3073-3.9883 5.0739-9.148 6.0508-14.92 2.079-12.2841 2.1854-25.2085 3.9707-28.4863zm-1.2578.0392c-.8551.5743-1.9512 17.6707-3.6582 28.6328-.1358.889-2.0237 9.6327-3.0762 9.1035-.1663-.1734-1.1563-2.5445-1.2793-3.0332 2.0473-2.9615 2.6261-7.822 2.9433-11.5039 1.1554-10.4351 2.3565-23.0349 2.8809-23.1504zm-3.2969.1387c-1.0906 3.7-1.5934 14.0342-2.6738 22.6914-.6301 4.3819-1.3175 10.4061-2.9239 11.289l-1.3652-.8808c1.4731-4.4153 2.0167-9.6235 2.6191-14.664.7287-6.097 1.3712-12.3732 2.2539-18.3595zm-3.1426.1718c-.4762 3.4444-1.3788 11.1165-2.1484 18.1739-.8937 8.195-2.2977 14.3925-2.6758 14.1933l-1.752-1.0195c.6187-2.4636 1.3512-5.1638 1.7129-7.748.8042-5.7454 1.1207-12.7157 2.9707-23.4395zm-2.8516.1465c-1.0045 4.666-2.1555 15.6286-3.0585 23.3574-.525 4.4872-1.6122 7.654-1.877 7.5664 0 0-1.5046-.8533-1.6953-.953 1.1368-4.5273 1.6917-8.7338 2.2519-12.838.7556-5.5351 1.3164-10.92 2.3594-17.0039zm-3 .2305c-.6104 4.2579-1.4488 10.9862-2.3261 16.9375-.994 6.7419-1.9218 12.4884-2.2422 12.5234l-2.4414-1.1347c.3008.0522.8756-1.6395 1.4375-4.2793 1.7121-8.0432 3.4103-23.8965 3.6875-23.8907zm-3.1777.4219c.1524-.2244-1.7455 15.315-3.3125 23.164-.5353 2.6816-1.3233 4.4223-1.4726 4.332l-1.8555-1.121c.1613.118.8318-1.8792 1.1582-3.2696 1.6713-8.0229 2.4259-15.0575 3.459-22.8398zm-3.1289.3261c-.846 7.9108-2.0475 16.4075-3.7715 24.1504-.2382 1.04-.7576 1.6024-.7793 1.625l-1.9883-.9902c2.1633-6.1566 2.3638-12.0451 4.4375-24.4024zm-3.0566.4805c-1.1769 6.5407-1.787 14.103-3.3731 20.0645-.3362 1.2635-.5237 2.6835-.9648 3.7832l-2.2383-.9024 4.6855-22.5937zm56.0703 8.211s-1.1065 10.8993-1.4414 15.248c-.6367 6.664-1.5427 10.9817-4.1075 16.2656 2.1382 1.2405 4.4278 2.2128 6.7305 3.1055.9146.3546 1.8762.3599 2.7832.955.6258.4229 1.3416.6043 2.0625.59 2.1635-.0434 4.3602-1.8448 4.1914-4.1466-.2049-2.7944-1.8514-4.0385-4.5605-3.7578-1.4487.1501-1.411.1718-2.3867-1.584-.8777-1.5799-3.1943-8.3258-3.209-9.3476 1.1125 1.4845 3.7123 4.2419 6.1093 4.127 2.5746-.1884 4.7412-2.6424 2.795-6.1173-1.035-1.7042-2.876-2.037-4.7481-1.4746-2.8006-4.3817-3.3281-8.7705-4.2187-13.8633zm31.9004 1.043-.1094 39.5292-2.252-.4766-.01-39.0488zm5.2461.371c.8697 0 1.5781.7075 1.5781 1.582 0 .8746-.7084 1.586-1.5781 1.586s-1.5723-.7114-1.5723-1.586c0-.8745.7026-1.582 1.5723-1.582zm-37.0157 2.7402c.266-.1528 1.0906 7.021 3.9727 10.2657 3.5102-1.6805 6.5401 2.2624 4.1465 4.9726-4.6729 4.0405-8.7661-4.589-8.7676-7.3515-.026-3.0928.6484-7.8868.6484-7.8868zm38.9805.9102c.8697 0 1.5723.7113 1.5723 1.586 0 .8744-.7026 1.582-1.5723 1.582s-1.5781-.7076-1.5781-1.582c0-.8747.7084-1.586 1.5781-1.586zm-4.0977.0977c.8697 0 1.5723.7075 1.5723 1.582 0 .8747-.7026 1.588-1.5723 1.588-.8696 0-1.58-.7133-1.58-1.588 0-.8745.7104-1.582 1.58-1.582zm2.0567 3.7168c.8697 0 1.5723.7075 1.5723 1.582 0 .8746-.7026 1.582-1.5723 1.582s-1.5801-.7074-1.5801-1.582c0-.8745.7104-1.582 1.5801-1.582zm4.7969 1.754v3.7772l-8.7422 8.416v-4.0995zm-108.5 3.7538a4.5172 4.5172 0 0 1 .7187.002c.2794.0228.5658.072.8574.1484-.193-.0613-2.7935 1.7082-4.1425 4.3145-1.4577 2.8793-.1391 5.7086-.5723 5.7187-2.6846-.8056-2.0676-6.054-.9785-7.5468 1.0779-1.4776 2.4746-2.5091 4.1172-2.6368zm3.5019.9082c.4144-.008.7253.141 1.0684.4766.4325.4226.8438.5654-.2578.957-3.0867.81-5.2654 3.7078-4.7442 7.0742.062.8186.8274 2.9836-.5332 1.957-3.0027-2.043-1.3996-8.421 2.7754-9.998.7578-.293 1.277-.4586 1.6914-.4668zm104.9981.379v4.08l-8.7422 8.3965v-4.1797zm-102.4786 1.246c.5319-.0493.9922.0297 1.3926.2031.8934.3875.5856.446-1.0957 1.3301-2.6781 1.4084-4.2608 4.3345-3.8554 7.5684.152 1.2131.639 1.5365.2929 1.539-.8897-.0124-1.5789-.6975-1.8926-1.4043-1.1977-4.3935.2218-7.962 5.1582-9.2363zm59.5313.2461c.1804-.0419.4865.82.9473 2.2852 2.5499 8.109 3.2235 9.6627 4.9961 9.2578 1.0088-.2306 2.0604-.27 2.748.1113 2.2465 1.246 2.4522 5.4239-.8281 6.2227-2.5926.5675-4.2618-1.7493-5.1875-3.2637-1.6207-2.6493-3.2018-6.4712-3.3418-8.879-.055-1.593.2588-3.5496.5273-5.3788.033-.2261.079-.3415.1387-.3555zm-127.7832 1.1816v216.287s14.7234-15.1256 21.6367-22.6308l-7.2246-.1016v-40.957c-2.3535-.318-6.2736-.0065-7.8184-1.582-.9592-1.427 2.7537-4.2317 4.8438-3.6426 1.3937.3787 2.9746.0781 2.9746.0781v-45.6386c.071-.295 8.0883 12.4112 12.7988 28.0332-1.4299.9998-2.8991 1.77-3.1445 1.9394 1.8964 4.5995 3.2081 11.8319.5605 18.1348l-1.8261-1.0938c1.4744-4.051 1.8442-9.551-.3555-14.791l-.5039.5293c1.8191 4.0863 2.4101 8.9447.02 14.8008 5.3713 2.188 9.3768 5.5757 14.0078 7.8652.3308.0944.7872.5332.7872.5332-1.8026 1.0101-3.5214 2.3244-3.5118 4.0996.061 2.6832 1.4878 3.729 4.6075 3.5528.628-.0355 1.1093.0176 1.1093.0176 1.9401 4.0463 3.6731 8.204 5.2618 12.375 1.1055-5.3058 1.873-10.567 4.0878-15.0606-.1427-.127-2.6258-1.2862-3.789-1.7676-4.5357-1.877-6.5991-3.0353-5.8985-3.3144.4872-.1947.6643-.5354.7871-1.5059.2286-1.7885.1407-3.7812.1407-3.7812l-.7617-1.6367 1.1757-.9493s.1512-.7294.2696-2.1992c.2024-2.5214.066-4.125.066-4.125l-1.1309-1.457 1.1504-1.4395.2637-6.6035-1.5528-1.1836 1.4512-1.4394-.5176-6.0215s.1905-.5575.4414-.834c-2.4567-25.4687-11.7742-51.1355-25.9941-68.6289v-41.8398zm71.4609.0352c1.243-.0653 1.3903.5761-.1543 1.4825-2.958 1.735-4.4936 5.1266-3.6386 7.8203.4101 1.288.7992 1.8221.3984 1.8496-.7533-.0648-1.337-.7322-1.6953-1.2969-1.8663-2.6941-.3154-8.364 3.5039-9.539.6358-.1957 1.1716-.2947 1.5859-.3165zm2.7871 1.1895c.3865.0323.8363.1491 1.4707.4394.4259.0141-.1913.4181-.9921.8829-2.8431 1.6498-4.7285 4.594-4.2344 7.3574.3058 1.71.8224 2.661.4531 2.67-.1933.005-.6274.0702-1.0371-.3302-1.5699-1.5339-1.8184-5.8349-.3105-7.961.707-.9967 2.9043-2.81 3.5585-2.992.3816-.0473.7053-.0988 1.0918-.0665zm-72.4472.9687 11.7578 12.2481V-78.787l-2.4609.1094v-131.5216l-9.2911-9.8848zm75.5176.4317c.6883.0384 1.0954.4433.9023.9531-2.6004 1.085-5.0519 3.8916-4.7949 7.7305.099 1.3465.5455 2.079.2812 2.1191-.1808.0274-.8078-.2435-1.2226-.746-2.4287-2.9429-.4557-7.9556 3.3613-9.6739.5465-.2973 1.0596-.4058 1.4727-.3828zm3.0761 1.582c.8286.0361 1.4816.3124 1.4883.7852.01.3677-.076.4674-.4375.4726-2.8878-.0222-5.9576 4.0131-5.1074 8.3106.105.6463.2997 1.5034.076 1.5351-.1726.0247-.4433-.139-.8125-.4863-2.5776-2.5513-1.1784-8.3024 2.2539-9.959.7064-.489 1.7104-.6942 2.539-.6582zm46.1172 2.7656c.3682.1468.8756 1.5812 1.8906 4.047.2307.7976 2.5598 4.4131 2.1153 4.4296-3.2691-1.295-5.3577-3.2479-4.7617-6.4238.2621-1.1947.4376-2.1796.7558-2.0528zm39.7559 3.7715c.8696 0 1.5781.7114 1.5781 1.586 0 .8745-.7085 1.584-1.5781 1.584-.8698 0-1.5742-.7095-1.5742-1.584 0-.8746.7043-1.586 1.5742-1.586zm-41.6114.959c.1704.4602.1683.6383.5196 1.1895l-.8828-.422zm-55.5878 1.5488c2.1334-.0308 2.8372.642 3.2343 3.1016.2765 1.7072.4484 1.7962 3.2852 1.7168 3.6184-.1013 3.9026.1182 4.2949 3.293.3355 2.726.7921 3.0073 3.9023 2.416 2.2623-.43 3.4602.5725 3.754 3.1328.3295 2.873.4568 2.9777 3.666 3.0918 3.2159.1143 4.1109.6833 4.1386 2.627.043 3.0112.4208 3.284 4.375 3.164 1.9194-.0582 3.884-.0237 5.0137.0937 2.3956.249 2.3836.2612 2.6231-2.0527.3577-3.4574.8623-3.7765 5.4101-3.4395 1.8997.1408 2.034.0528 2.1641-1.4004.1627-1.8196.8331-2.9406 1.3476-2.2539.2688.3587.2711.3912 0 3.0547-.3019 2.9806-.3361 3.0038-4.2011 2.705-2.6183-.2023-2.4918-.298-2.7715 2.0938-.3403 2.9105-.289 3.5802-3.7188 3.6133-3.2417-.0213-5.723-.1986-9.0703-.2012-2.4437.0663-3.2412-.768-3.2851-3.4218-.04-2.3597-.031-2.3529-3.1016-2.4824-3.702-.1564-4.6802-1.1112-4.7305-4.627-.02-1.369-1.1193-1.9078-3.2754-1.5996-3.3981.4854-4.0588.0176-4.4531-3.1582-.3277-2.6503-.1503-2.514-3.2637-2.4922-3.3479.0234-4.096-.5403-4.1347-3.1328-.022-1.5045-.3877-1.9571-1.6817-2.0742-1.3831-.1252-1.9782-.8378-1.2949-1.545.1243-.1286.7639-.208 1.7735-.2226zm-64.2579.4258c.1472-.008.4473 1.1295.5528 1.2324.1106.108 1.2892.416 1.2968.5704.01.1471-1.1314.4472-1.2343.5527-.108.1106-.4161 1.2882-.5703 1.2969-.1472.008-.4453-1.1314-.5508-1.2344-.1106-.108-1.2882-.416-1.2969-.5703-.01-.1472 1.1295-.4453 1.2324-.5508.108-.1106.4161-1.2882.5703-1.2969zm163.3692 1.1875c.8696 0 1.5742.7076 1.5742 1.582 0 .8746-.7046 1.586-1.5742 1.586-.8697 0-1.5742-.7114-1.5742-1.586 0-.8744.7043-1.582 1.5742-1.582zm-4.3028.1133c.8697 0 1.5723.7075 1.5723 1.582 0 .8746-.7026 1.588-1.5723 1.588-.8696 0-1.58-.7134-1.58-1.588 0-.8745.7104-1.582 1.58-1.582zm-161.0019 2.0625c.1472-.008.4472 1.1295.5527 1.2324.1106.108 1.2863.416 1.295.5703.01.1472-1.1295.4473-1.2325.5528-.1079.1106-.416 1.2882-.5703 1.2968-.1472.008-.4472-1.1314-.5527-1.2343-.1106-.108-1.2882-.416-1.2969-.5703-.01-.1472 1.1314-.4453 1.2344-.5508.1079-.1106.416-1.2883.5703-1.2969zm4.2793 0c.1472-.008.4472 1.1295.5527 1.2324.1106.108 1.2882.416 1.2969.5703.01.1472-1.1314.4473-1.2344.5528-.1079.1106-.416 1.2882-.5703 1.2968-.1472.008-.4453-1.1314-.5508-1.2343-.1106-.108-1.2882-.416-1.2968-.5703-.01-.1472 1.1294-.4453 1.2324-.5508.1079-.1106.416-1.2883.5703-1.2969zm59.957 1.1387 34.2774 26.4883 14.5547-10.332-.129 3.7597-14.5722 10.17-34.2715-26.5626zm99.2227.7597c.8697 0 1.5742.7075 1.5742 1.582 0 .8746-.7045 1.5821-1.5742 1.5821s-1.5742-.7075-1.5742-1.582c0-.8746.7045-1.582 1.5742-1.582zm-31.3731.297c1.5654.3113 3.1569 1.3609 4.5977 2.0898l2.9707 5.6796-3.416 2.9532 3.4668 4.0449-3.6348 4.33 3.6445 2.5723-3.9765 6.1485-4.4981 2.084 4.9649-7.4688-3.9121-2.6367 3.705-5.0078-3.8554-4.6621 3.8808-3.3477zm-.8691.248 3.2598 6.3652-3.8594 3.414 3.9551 4.8497-3.7364 5.0644 3.8789 2.7403-5.4101 7.914-.1035-3.9453 1.9297-2.9395-2.1582-1.873h-.01l-.01-4.6484 2.252-2.4512-1.9551-2.6836.6348-4.9922 1.6582-1.2578-1.1758-2.373.3769-2.916zm-129.2813 1.5293c.1472-.008.4473 1.1314.5528 1.2343.1106.108 1.2891.416 1.2968.5703.01.1472-1.1314.4473-1.2343.5528-.108.1106-.4161 1.2862-.5703 1.295-.1472.008-.4453-1.1296-.5508-1.2325-.1106-.108-1.2882-.416-1.2969-.5703-.01-.1472 1.1295-.4473 1.2324-.5528.108-.1106.4161-1.2882.5703-1.2968zm166.1582.6484v3.4473l-8.9804 8.4785v-3.6387zm-161.207 1.2656v4.164l-7.7558 7.3907v-4.2305zm161.207 3.334v3.7168l-8.9804 8.504v-3.836zm-161.207 2.0117v3.375l-7.7558 7.6113v-3.496zm57.5567.2149 12.1972 9.1367-.027 30.6562c-3.869-2.6558-7.6128-5.3633-12.0586-7.787zm13.1972 9.9941 2.4219 1.9063.066 31.2246-2.2422-2.0078zm85.834.5547c.8697 0 1.5723.7075 1.5723 1.582 0 .8746-.7026 1.588-1.5723 1.588s-1.5742-.7134-1.5742-1.588c0-.8745.7044-1.582 1.5742-1.582zm-160.8828 1.752c.8697 0 1.5742.7074 1.5742 1.582 0 .8745-.7045 1.5879-1.5742 1.5879-.8704 0-1.5723-.7134-1.5723-1.588 0-.8745.7019-1.582 1.5723-1.582zm78.459 1.332 6.3789 6.6035-6.4258 6.4785-.1777-3.1348 3.6699-3.1523-3.3535-3.5371zm84.3203.7636c.8697 0 1.5742.7075 1.5742 1.582 0 .8746-.7045 1.5821-1.5742 1.5821s-1.5781-.7075-1.5781-1.582c0-.8746.7084-1.582 1.5781-1.582zm-4.2422.0156c.8697 0 1.5742.7075 1.5742 1.582 0 .8746-.7045 1.586-1.5742 1.586s-1.5781-.7114-1.5781-1.586c0-.8745.7084-1.582 1.5781-1.582zm-76.0918 1.5704 3.7383 2.7441-.8145.9238s-2.4528-2.7229-3.2851-3.5996zm-80.1309.2949c.8705 0 1.5743.7075 1.5743 1.582s-.7038 1.582-1.5743 1.582c-.8696 0-1.5742-.7075-1.5742-1.582s.7046-1.582 1.5742-1.582zm107.9434.084c-.1776-.094 1.1901 21.51 4.8945 33.0312l-14.5722 9.6895-.01-35.8008zm-112.1387.1289c.8704 0 1.5723.7075 1.5723 1.582s-.7019 1.582-1.5723 1.582c-.8696 0-1.5742-.7075-1.5742-1.582s.7046-1.582 1.5742-1.582zm162.7481 1.959c.8697 0 1.5742.7133 1.5742 1.5879 0 .8745-.7045 1.582-1.5742 1.582s-1.5742-.7075-1.5742-1.582c0-.8746.7045-1.588 1.5742-1.588zm-73.9668.9648 5.9648 4.6563-.01 3.207-6.7286-6.9473zm-86.9004.9531c.8697 0 1.5742.7075 1.5742 1.582 0 .8746-.7045 1.5821-1.5742 1.5821-.8704 0-1.5723-.7075-1.5723-1.582 0-.8746.7019-1.582 1.5723-1.582zm85.4922.5274 6.7871 7.1719-6.9141 7.078-6.7871-7.0722zm51.2304.7578-6.914 3.4082c3.3074 26.9932 11.0025 41.9607 19.0351 55.039l-.049-33.041c-4.714-8.1054-9.5536-16.2848-12.0723-25.4062zm28.7793.125v3.418l-8.8515 8.6113v-3.6895zm-161.207 1.3457v3.6953l-7.7558 7.752v-3.8516zm81.0899.5664-4.4161 4.3047 4.3789 4.4941 4.4083-4.3867zm8.3496 1.2227 1.7929 1.248-.1347 36.4063-1.4746.7187zm-9.8926 1.709h2.8808v2.8788h-2.8808zm81.6601.0331v3.3067l-8.8515 8.6699v-3.7832zm-130.7089.9785c15.1327-.205 29.3494 5.8304 38.3476 13.2833 4.6896 3.8773 8.4994 8.6102 13.1387 15.502 8.9291 14.0044 24.658 20.7663 39.3047 20.9237l1.2129 1.8985-2.4473-.082s-.247 1.7602-.2793 4.7539c-.036 3.371-.017 3.9633.2461 4.0605 1.7736.2074 7.1235.0968 6.9668-.1308l1.0996 1.9785c-17.4612 1.8103-34.6441-4.301-45.5195-14.1172-8.4576-7.3586-14.9547-18.5277-22.0899-24.7715-2.8854-2.5143-9.9423-6.4414-13.75-7.6484-4.3289-1.3723-7.696-1.9344-12.041-2.0117-3.4305-.0611-3.4453-.0801-3.4453-.0801l-1.4531-2.5977 2.4004.0332.1582-9.164c-2.5432-.124-5.0346.0158-7.4922.3222l-.8867-1.668c2.1866-.298 4.3674-.455 6.5293-.4843zm-30.4981.336v3.748l-7.7558 7.9844v-3.9238zm88.5176 1.002.043 3.4863-3.7442 3.4082 3.8125 4.0078-.078 2.6953c-2.4394-2.007-4.5221-4.4777-6.7188-6.7559zm-52.6152.5937c-.6829.0003-1.1351.106-1.17.3789-.1713 1.8546-.2807 6.2212-.3047 7.705-.06.4977.056.968.5508 1.0274 3.1053.373 6.5605 1.1921 8.211 1.25.6082-.0183.6133-.6662 1.08-2.7715.1011-.4565.4244-1.6791.7149-2.7187.8806-3.1515.9921-3.2097-1.7266-3.752-1.1805-.1772-5.3068-1.12-7.3554-1.1191zm38.3222.0664 6.0469 6.1894-6.0625 5.9082.012-2.744 2.9102-2.9669-2.9199-3.1953zm-69.5742.0117c14.0335 20.0791 22.2441 43.5499 24.6797 65.793 0 0-7.4186 3.2998-11.0762 5.4414-3.9282-9.222-2.4809-10.469-13.6035-29.1797zm36.248 1.75 1.1758 1.2422 1.4395.0273-.5274 1.9629.9297.8945-1.3515.668-.1094 1.752-1.4453-.8712-1.2891 1.2696-.7031-1.5176-1.4805.496.01-1.8144-1.3203-.8379 1.5918-.7363.1406-2.207 1.6133.5zm-13.5292.125 1.332.6543 1.4609-.543-.2226 1.8047 1.1289.9023-1.1426 1.0547.053 1.3262-1.3418-.457-1.9843-3.377zm21.4316.8965c-.4407.0323-.5586.3442-.6738.7968-.082.3198-.4477 1.5378-.8536 2.8633-1.4201 4.6419-1.847 4.4238.2676 5.129.7285.2425 3.0174 1.017 4.459 1.6855 1.4279.6621 2.0743 1.2491 2.5332 1.2402 1.0137-.7309 3.7662-5.9756 4.2383-7.1289 0-.278-1.3277-1.1232-2.9863-1.9023-1.4138-.6642-6.0014-2.5144-6.4239-2.6172-.2304-.0563-.4136-.0772-.5605-.0664zm1.7715 2.2539 1.5508.9277 1.1777-.5137.8574 1.6075 1.836.0742-1.002 1.746.9434 1.379-1.3301.0879-1.0332 1.875-1.3477-1.1309-1.1289.6816-.6504-1.164-1.6211-.2266.7266-1.7793-.9531-1.373 1.582-.295zm30.582 1.871 7.0742 7.504-6.541 6.1933-7.3476-7.0879zm-19.5371 1.7383c-.2295-.0106-.394.1088-.5566.3536-4.6344 6.9615-4.8304 6.7257-2.9961 8.084 1.8647 1.4338 4.0427 3.5688 5.5312 4.3027.6273.3092.7366.117 1.3828-.4434 1.5114-1.2988 4.7358-5.0456 4.7305-5.664-.01-.6164-4.4657-4.492-7.1484-6.213-.4211-.2697-.7139-.4093-.9434-.4199zm95.1445.338c.8698 0 1.5801.7113 1.5801 1.5859 0 .8745-.7103 1.582-1.5801 1.582-.8696 0-1.5722-.7075-1.5722-1.582 0-.8746.7026-1.586 1.5722-1.586zm-75.5625.789-4.0039 3.8613 4.2442 4.5059 4.1093-3.8906zm-73.1093.1816v32.1856c4.5482 7.2386 7.9924 15.9572 11.4804 24.6172l6.584-2.7149c-2.5189-22.9453-9.2545-40.145-18.0644-54.0879zm-12.2618.5332c.8697 0 1.5743.7134 1.5743 1.588 0 .8745-.7046 1.582-1.5743 1.582s-1.5781-.7075-1.5781-1.582c0-.8746.7084-1.588 1.5781-1.588zm66.6621.8047 1.4532 1.4727 1.6679-.1406-.094 1.6425 1.4746.7168-.9355 1.0801.5859 1.4766-1.7637-.2793-1.0078 1.3828-1.2363-1.1055-1.4746.3867-.3321-1.4648-1.4218-.5273.7636-1.4903-.1054-1.877 1.4316.2676zm17.4043 1.1563h2.8789v2.8789h-2.8789zm74.3946.6406c.8697 0 1.5742.7075 1.5742 1.582s-.7045 1.586-1.5742 1.586-1.5742-.7115-1.5742-1.586.7045-1.582 1.5742-1.582zm4.6133.0156c.8697 0 1.5722.7075 1.5722 1.582 0 .8746-.7024 1.586-1.5722 1.586-.8697 0-1.5743-.7114-1.5743-1.586 0-.8745.7046-1.582 1.5743-1.582zm-160.9551 1.6484c.8697 0 1.5742.7134 1.5742 1.588 0 .8745-.7045 1.582-1.5742 1.582s-1.5742-.7075-1.5742-1.582c0-.8746.7045-1.588 1.5742-1.588zm-4.3399.0664c.8697 0 1.5782.7095 1.5782 1.584 0 .8746-.7085 1.582-1.5782 1.582s-1.5742-.7074-1.5742-1.582c0-.8745.7045-1.584 1.5742-1.584zm95.0899.6465-.043 2.8243-3.5898 3.4394 3.4882 3.584.014 2.0918-6.1758-5.9942zm-39.3789.4785 2.5586 1.338-14.3711 9.1894-.877-2.67zm107.414.959c.8697 0 1.5723.7075 1.5723 1.582 0 .8746-.7026 1.584-1.5723 1.584s-1.5742-.7094-1.5742-1.584c0-.8745.7044-1.582 1.5742-1.582zm-80.2675.006 4.4589 4.4883-.5605.6094zm-4.6563.4102a.4556.4556 0 0 0-.1523.0137c-.252.064-.5505.3292-1.0371.8183-1.0315 1.178-4.8125 4.4027-4.7032 5.2657.2085.9877 1.5076 2.1108 4.7344 6.498.4293.5527.6822.8078.9707.8125.2251.004.4692-.1426.8242-.4238.3226-.2547 1.1105-.8056 1.752-1.2246 2.3621-1.5432 4.365-2.9912 4.4531-3.205.1822-.442-2.1865-3.55-5.4766-7.2774-.7071-.8013-1.0175-1.2493-1.3652-1.2774zm-76.1074 1.5703c.8697 0 1.5723.7134 1.5722 1.5879 0 .8745-.7025 1.582-1.5722 1.582s-1.5801-.7075-1.5801-1.582.7104-1.5879 1.5801-1.5879zm165.5058.336v3.6953l-8.6796 8.3046v-3.6562zm-88.6953.9667.8809 1.6973 1.8516-.0293-.2598 1.6328 1.291 1.0898-1.4082.838-.1973 1.4882-1.2148-.1054-1.2637 1.3847-.9472-1.7812-1.4356.2441.1875-1.6367-1.2168-.961 1.1973-1.664-.1582-1.1836 1.4082.3203zm38.8438 1.3203.6211 1.7344-19.6387 12.752-1.5605-1.1817zm-111.3555.2032v4.0683l-7.7558 7.3106v-3.8906zm81.7266.4941 6.332 6.2832-1.8574 1.834-5.1621-7.4258zm-21.8906.168 1.7128 1.9785-20.5351 13.25-.7832-2.4004zm101.371 1.7637v4.0859l-8.6796 8.2812v-3.955zm-98.1836.8906-.1269 38.3672-1.6172-.7793-.066-36.7266zm.6016 1.416.8652.7559-.705.709zm-63.625.6035v4.3535l-7.7558 7.6895v-4.7578zm65.332.8594 5.7071 7.6484-.25.209-6.7285-6.496zm14.8301.0508c-.559.0683-1.4519.6665-3.4375 2.0996-3.858 2.7845-3.8399 2.3714-.2929 6.9746 2.0404 2.6496 3.0148 4.276 3.8515 4.2168.6518-.046 1.3182-.8212 2.582-2.1719 1.2402-1.3255 2.7029-2.882 3.0157-3.1035.9782-.6925.9304-.8594-.7715-2.7812-.5173-.5841-1.4938-1.776-2.1699-2.6524-.6762-.8764-1.7548-1.9736-1.9688-2.1992-.2591-.2732-.4731-.4238-.8086-.3828zm-24.1855 1.3613-.1348 36.463-9.625 6.2714c-1.1071-12.59-1.875-21.3043-5.1094-33.1758zm32.4804.7754.061 2.668-1.459-1.291zm-24.7832.2031 6.5645 6.582-6.6699 6.586-.059-2.793 3.7519-3.5234-3.6992-3.879zm16.2793.3399 1.0743 1.2676 1.2675-.1485-.043 1.543 1.2929.7383-.914 1.0039-.027 1.7285-1.8828.0703-.9121.8594-.9531-1.3184-1.6153.1035.2383-1.5527-.8593-.6309.8378-1.1758.068-1.4843 1.334.3183zm34.7539 1.4043.8555 2.3515-12.5566 8.2696-2.3867-1.2246zm-42.7382 4.6406 2.3164 3.0195-2.545-2.746zm84.9375.4297c.8697 0 1.5781.7075 1.5781 1.582s-.7084 1.582-1.5781 1.582-1.5743-.7075-1.5743-1.582.7046-1.582 1.5743-1.582zm-68.5157.166c-.5818.0457-1.2508.9042-3.2011 2.8652-2.0353 2.0465-3.291 2.6206-2.4981 3.6993 1.9288 1.6624 3.5103 2.8771 5.6016 4.4667 1.3817 1.0359 2.0927 1.5284 2.5703 1.5215.4214-.006.6638-.397 1.0293-1.1484.1541-.3167 1.0527-2.0031 1.8808-3.3086 1.8693-2.943 1.8701-2.793.01-3.9453-.7912-.4889-2.6145-1.9952-4.1797-3.418-.5431-.4936-.8599-.7598-1.209-.7324zm-17.5879.373 7.2657 7.1856-6.6153 6.6465-7.2695-7.1621zm-74.9746 1.3848c.8697 0 1.5743.7075 1.5743 1.582 0 .8746-.7046 1.586-1.5743 1.586-.8704 0-1.5722-.7114-1.5722-1.586 0-.8745.7018-1.582 1.5722-1.582zm92.8633.4531.9649.9317 1.8808-.127.3008 1.6133.8145.6426-.6329 1.0683.4629 1.422-1.6113.1112-.9785 1.1075-1.1953-.8907-1.4043.6055-.1016-1.662-1.2773-.633.8047-1.1776-.4864-1.5489 1.3828-.0449zm-18.123.9141-4.0059 4.1387 4.5508 4.4883 4.2871-4.2247zm84.0761.877c.8698 0 1.5723.7074 1.5723 1.582 0 .8745-.7024 1.586-1.5723 1.586-.8696 0-1.5742-.7115-1.5742-1.586 0-.8746.7046-1.582 1.5742-1.582zm4.5293.0508c.8697 0 1.5743.7074 1.5743 1.582 0 .8745-.7046 1.582-1.5743 1.582s-1.5722-.7075-1.5722-1.582c0-.8746.7025-1.582 1.5722-1.582zm-161.2519 1.6601c.8697 0 1.5742.7076 1.5742 1.582 0 .8746-.7045 1.582-1.5742 1.582s-1.5781-.7074-1.5781-1.582c0-.8744.7084-1.582 1.5781-1.582zm-4.2266.1602c.8697 0 1.5723.7075 1.5723 1.582s-.7026 1.582-1.5723 1.582-1.5781-.7075-1.5781-1.582.7084-1.582 1.5781-1.582zm75.6953.039h2.8809v2.881h-2.8809zm28.0059.8926c-.46.0575-.7125.4862-1.209 1.3399-.441.7572-1.2763 2.616-1.8613 3.58-1.4591 2.4066-1.4995 2.2898 1.1816 3.588 1.5776.7643 2.533 1.0772 5.8496 2.4296.9219.3759 1.5117.6323 1.9493.625.8354-.0138.9446-1.5673 1.8496-4.5058 1.2627-4.1003 1.3517-3.7213-1.0703-4.5762-1.0787-.3804-3.1411-1.08-4.2325-1.5957-1.3298-.6284-1.997-.9422-2.457-.8848zm59.4629 1.1407c.8697 0 1.5742.7094 1.5742 1.584 0 .8745-.7045 1.582-1.5742 1.582s-1.5723-.7075-1.5723-1.582c0-.8746.7026-1.584 1.5723-1.584zm-77.1758.1308 2.2266 2.047.1289 31.2089-2.3125-1.7871zm-1.0273.1094.1152 3.1992c-1.2509 1.1186-2.7422 2.393-3.8418 3.6563l3.8223 3.9218.01 2.4512-6.5859-6.6074zm-15.1329.041 7.2774 6.7871-7.3418 7.2774.2148-3.3653 3.8789-3.8574-4.1269-4.0293zm34.8497.6758 1.3359.9414 1.416-.5137.3926 1.0586 1.4492.705-.5254 1.1661.7227 1.5742-1.6582.127-.8535 1.6875-1.1622-.7324-1.3046.5468-.2618-1.412-1.4277-.5567.4063-1.3887-.629-1.041 1.2168-.2363zm-102.75.832c.8696 0 1.5742.7095 1.5742 1.584s-.7046 1.582-1.5742 1.582c-.8705 0-1.5743-.7075-1.5743-1.582s.7038-1.584 1.5743-1.584zm113.748 1.1914c-1.0672-.0332-.8503.5089-1.2656 1.6934-.5166 1.4796-.7969 2.7918-1.4395 4.9043-.5878 1.9347-.3184 1.9966 3.4727 2.709 2.6212.4924 5.3415.8607 6.4648.8613.3745.0002.6001-.0322.6426-.1035.096-.1627.042-1.608.3594-6.8399.1162-1.9175.2494-1.9255-1.3496-2.1191-1.3424-.0463-4.3456-.8195-6.3438-1.0567-.2105-.028-.3885-.044-.541-.0488zm51.6543.2031v3.7696l-8.1348 7.7129v-3.7657zm-77.8496.213c4.5768 3.4604 8.2502 5.5236 11.7226 7.2773l-.4687 32.4082-11.3008-8.8457zm29.1445 1 .9141 1.166 1.3301.0449-.072 1.6582.8633.7324-1.0313.9297.1328 1.4687-1.6386-.2754-1.0352 1.2051-.707-1.168-1.6973-.2812.2969-1.1895-.8633-1.2265 1.0625-.8008-.037-1.4785 1.3281.0469zm-112.3203.1992v3.9687l-7.7558 7.8887v-4.164zm123.1934 1.623 2.3886 4.7012-1.5546-.6328-1.1875.793-.3633-1.7442-1.0469-.6914 1.0645-.7363.047-1.1329zm-51.8789 1.5781 7.0605 6.7305-7.3926 7.2402-6.8261-6.787zm89.7109.006v4.082l-8.1348 7.6583v-3.8399zm-161.0254 2.086v3.5937l-7.7558 7.5723v-3.6074zm70.959.6504-4.2168 4.2597 4.2461 4.2715 4.3516-4.2715zm-1.3711 2.8203h2.8789v2.8789h-2.8789zm9.084 2.3965.057 3.127-3.9511 3.83 3.9707 4.1406-.2852 2.1563-6.8926-6.4805zm-15.0332.3203 6.5312 6.3183-1.0586 1.0508-5.4609-4.1914zm93.2051 4.0547c.8697 0 1.5742.7114 1.5742 1.5859 0 .8746-.7044 1.582-1.5742 1.582-.8697 0-1.5723-.7074-1.5723-1.582 0-.8745.7026-1.586 1.5723-1.586zm-161.2266 1.6992c.8697 0 1.5742.7094 1.5742 1.584 0 .8745-.7045 1.5859-1.5742 1.5859s-1.5723-.7114-1.5723-1.586c0-.8745.7026-1.584 1.5723-1.584zm32.4277.9785-5.414 7.1523 4.4804 3.0938-4.25 4.6035 3.8125 5.0254-3.9472 3.1016 4.2715 7.043-.2793.3398-4.086-2.1641-3.8828-6.3457 3.875-2.8281-3.5273-4.5352 3.8047-3.9199-4.1817-2.6719 3.9102-5.4765zm42.9473.2656 4.8477 5.3652-5.7481-4.2675zm-41.5625.1738.055 3.5157-1.9024 2.3047 2.1817 1.5097.01 4.8399-2.2187 2.3496 2.0332 2.0644-.3633 5.293-1.9355 1.541 1.5976 2.2031-.5742 3.1914c-.1207-.2177-.5081-.2986-.6953-.5898-1.2747-1.9834-3.584-5.5078-3.584-5.5078l4.0449-3.2266-3.7148-4.9043 4.6406-4.7402-4.7402-3.2441s2.9414-4.5257 5.166-6.5997zm129.7598.9864c.8697 0 1.5742.7094 1.5742 1.584 0 .8745-.7044 1.5859-1.5742 1.5859-.8697 0-1.5743-.7114-1.5743-1.586 0-.8745.7046-1.584 1.5743-1.584zm-98.6035.0234c.5263-.0414 1.0464.2387 1.4374.5371 10.6826 8.5081 21.6153 16.7585 32.4454 25.0938l-.062 2.5156-28.7657-21.6387s-2.6563-2.0106-3.4179-2.496c-1.615-1.0295-1.937-.6165-3.5489.496-3.6343 2.1703-12.4316 8.1895-12.4316 8.1895l.07-3.1172s8.8496-6.6582 13.7481-9.42c.1738-.0964.3495-.1463.5254-.16zm93.9902.0606c.8697 0 1.5742.7075 1.5742 1.582s-.7045 1.582-1.5742 1.582-1.5723-.7075-1.5723-1.582.7026-1.582 1.5723-1.582zm-156.3867 1.375c.8697 0 1.5722.7075 1.5722 1.582s-.7025 1.582-1.5722 1.582-1.5743-.7075-1.5743-1.582.7046-1.582 1.5743-1.582zm-4.4844.1914c.8697 0 1.5742.7133 1.5742 1.5879 0 .8745-.7045 1.582-1.5742 1.582s-1.5723-.7075-1.5723-1.582c0-.8746.7026-1.588 1.5723-1.588zm163.2012 2.2441c.8697 0 1.5781.7134 1.5781 1.5879s-.7084 1.582-1.5781 1.582-1.5743-.7075-1.5743-1.582.7046-1.5879 1.5743-1.5879zm4.5293 3.377v4.3086l-8.545 8.1074v-4.5781zm-161.4356 1.0546v4.006l-7.7558 7.5995v-4.045zm54.9688.3165c.926-.0397 2.3156.1432 2.9707.33.3314.0946 2.4017.145 4.8535.1192 5.9059-.0625 5.9675-.0758 5.9629 4.0957 0 1.7557.3813 2.1324 3.4726 2.039 3.8784-.1171 3.6747-.2213 4.334 4.461.2298 1.623.3584 1.685 3.5684 1.6386 3.4982-.0505 4.2938-.1014 4.0879 2.8633-.1872 2.6947.4664 3.4015 3.3847 2.7188 3.1086-.7273 3.7027.6 4.0059 3.0097.2806 2.2319.4689 1.673 1.9531 1.7891 1.6443.1286 1.4525 1.99-.293 2.1621-.2983.0294-.567.0675-.8125.0762-1.7193.0607-2.2517-.7555-2.541-3.3809-.1982-1.8026-.5833-1.9704-3.4023-1.4941-2.9761.5028-3.9726-.31-4.1856-3.4082-.1682-2.4579-.1478-2.4378-3.5332-2.461-3.3321-.0228-3.6892-.3613-4.0722-3.7949-.2846-2.551-.1898-2.4798-3.4668-2.4355-3.63.049-3.956-.221-4.2012-3.4492-.1993-2.6167-.37-2.7853-2.6621-2.5957-2.2459.1858-6.3894.207-7.1641.037-1.9314-.4235-2.0103-.3436-2.4258 2.2755-.5469 3.4483-1.2264 3.8792-5.4414 3.453-2.0723-.2094-2.312-.1671-2.6054 1.6661-.3922 2.4448-.8799 3.1605-.8809 1.043 0-5.3493.368-5.5982 3.918-4.6465 2.6666.7149 2.7091.1659 2.9883-2.416.2454-2.2757.6282-3.2083 1.4609-3.5723.1616-.0707.4179-.1098.7266-.123zm106.4668 3.953v3.9356l-8.545 8.0742v-4.0742zm-100.5293.4825s13.0935 10.1946 19.4218 15.1172l-3.0332.83-16.3711-12.2831-15.4961 10.4277.094-3.8047zm-60.9063.459v3.3789l-7.7558 7.8965V-77Zm157.1367 9.9883c.1472-.0083.4473 1.1294.5528 1.2324.1105.108 1.2882.416 1.2968.5703.01.1472-1.1314.4472-1.2343.5527-.108.1106-.4161 1.2882-.5703 1.297-.1472.0082-.4473-1.1315-.5528-1.2345-.1106-.1079-1.2862-.416-1.2949-.5703-.01-.1472 1.1295-.4453 1.2324-.5508.1079-.1105.4161-1.2882.5703-1.2968zm-155.8007 2.0937 2.5371.088v39.6952h-2.5371zm-5.5176.0527c.8703 0 1.5742.7095 1.5742 1.584 0 .8746-.7039 1.586-1.5742 1.586-.8697 0-1.5723-.7114-1.5723-1.586 0-.8745.7026-1.584 1.5723-1.584zm159.3828 1.2168c.1472-.0083.4453 1.1295.5508 1.2325.1105.1079 1.2882.416 1.2968.5703.01.1472-1.1294.4472-1.2324.5527-.1079.1106-.416 1.2882-.5703 1.2969-.1472.0083-.4472-1.1314-.5527-1.2344-.1106-.108-1.2882-.416-1.2969-.5703-.01-.1472 1.1314-.4472 1.2344-.5527.1079-.1106.416-1.2863.5703-1.295zm4.2793 0c.1472-.0083.4472 1.1295.5527 1.2325.1106.1079 1.2882.416 1.2969.5703.01.1472-1.1314.4472-1.2344.5527-.1079.1106-.416 1.2882-.5703 1.2969-.1472.0083-.4453-1.1314-.5508-1.2344-.1106-.108-1.2882-.416-1.2969-.5703-.01-.1472 1.1295-.4472 1.2325-.5527.1079-.1106.416-1.2863.5703-1.295zm-79.5039 2.4512c4.2778-.068 7.2713 5.4118 4.1972 9.58-2.7767 3.7651-7.1241 3.7163-8.4433-.0937-1.0902-3.1484 2.413-7.1006 5.209-5.873 1.9428.8537 1.4465 4.3731-.7364 5.2012-.9043.343-1.669-.8108-1.2226-1.8457.3514-.8148.3891-1.3246-.088-.9786-1.9737 1.3991-.4869 4.7332 1.9629 3.4864 3.2682-1.6634 2.7179-6.5522-.5742-6.7656-4.1666-.4114-7.3811 4.748-9.4395 14.5468-2.258 10.9663-1.6967 20.7845-3.8613 29.3946l-1.918.0332c.2602-5.2542 1.3547-8.928 1.6895-15.1407.4145-7.588 1.7107-17.0354 5.1054-24.871 1.1434-2.6391 3.2568-5.1164 6.2207-6.2852.6497-.2562 1.2874-.379 1.8985-.3887zm-81.9512.5371c.8697 0 1.5723.7075 1.5723 1.582 0 .8746-.7026 1.588-1.5723 1.588s-1.5742-.7134-1.5742-1.588c0-.8745.7045-1.582 1.5742-1.582zm-4.4336.0918c.8697 0 1.5742.7095 1.5742 1.584s-.7045 1.582-1.5742 1.582-1.5723-.7075-1.5723-1.582.7026-1.584 1.5723-1.584zm33.9629.877c1.7625.0362 3.4424 1.6627 5.0234 4.873 2.4851 5.046 3.1664 8.7933 1.9649 10.8125-.05.084-.1091.1242-.1797.1192-.376-.0271-1.0462-1.3662-2.0977-4.168-1.0137-2.7016-2.6506-6.108-2.998-6.2363-.107-.0396-.5683.123-1.0234.3632-3.4517 1.8216-5.8812-3.347-2.4786-5.2695.6052-.3418 1.2016-.5062 1.7891-.4941zm129.582.0156c.1472-.0083.4473 1.1314.5528 1.2344.1105.108 1.2882.416 1.2968.5703.01.1472-1.1314.4472-1.2343.5527-.108.1106-.4161 1.2863-.5703 1.295-.1472.0083-.4473-1.1295-.5528-1.2325-.1106-.1079-1.2862-.416-1.2949-.5703-.01-.1472 1.1295-.4472 1.2324-.5527.1079-.1106.4161-1.2882.5703-1.2969zm-70.5761 1.6465c.4034.0893 1.1864.9046 1.7363 1.9902 1.2235 2.4153-1.0332 7.086-4.1133 8.5117-.6451.2986-1.3587.4356-1.9746.4493-1.355.03-2.248-.5258-.9512-1.2149 4.126-2.1923 5.86-5.34 5.0703-9.2129-.062-.3035-.024-.4671.084-.5156.04-.0182.091-.0206.1485-.0078zm-53.4004.8516c.6659.0546 1.8618.558 2.3437 1.078.9928 1.0719 1.3088 3.4689.6387 4.84-.1967.3998-.3392.6303-.4942.619-.9151-2.2229-1.8581-4.3984-2.9316-6.4257.058-.0973.2214-.1296.4434-.1113zm-37.1368.4472c.8704 0 1.5743.7114 1.5743 1.586 0 .8745-.7039 1.584-1.5743 1.584-.8685 0-1.5722-.7095-1.5722-1.584 0-.8746.7037-1.586 1.5722-1.586zm93.752.25c.2996-.056.7485.3643 1.3496 1.2637 2.0716 3.0993-2.0822 9.8046-5.4707 9.955-.4161.0185-.8201-.0617-1.1992-.2597-.8935-.4652-.763-.8083.6074-1.6172 1.4128-.8336 1.9691-1.3563 2.7813-2.5918 1.2665-1.9266 1.4807-2.668 1.4824-5.1504 0-1.0115.1496-1.5436.4492-1.5996zm2.8359 1.8223c.1059-.0343.2626.0493.4883.2226 3.0241 2.322-.2175 10.4238-4.3144 10.7813a5.3103 5.3103 0 0 1-.3242.0195c-1.534.0376-1.7468-.741-.375-1.705 2.6173-1.8382 4.3663-5.076 4.3242-8.0196-.012-.855.025-1.2417.2011-1.2988zm2.5411.7558c.167.0254.4569.289.9394.791 2.0717 2.1556.6111 8.0064-3.4043 10.1954-.5455.2887-1.0753.4088-1.5.4043-.9344-.01-1.355-.6124-.2637-1.3028 2.6633-1.6833 4.2657-4.8958 4.1094-8.248-.094-1.2654-.1593-1.8822.1192-1.8399zm2.7363 1.3418c.2153.0192.5851.215 1.1914.6524 1.7042 1.4224 1.3634 5.118-.4453 7.6543-1.1147 1.565-3.4245 2.96-4.8067 2.9765-.2562.0031-.4791-.037-.6621-.1289-.7272-.365-.4598-.4176.8731-1.373 2.3649-1.695 3.534-4.1874 3.8086-6.9707.1321-1.339-.6051-2.8679.041-2.8106zm-23.5703.2227c.02-.0058.032.0136.035.0566.2496 1.1263.9579 2.0388 1.5 2.9297-2.2575 6.1753-3.1685 11.7947-3.748 17.086-.6771 6.1824-.8683 11.9167-1.7188 17.5703l-2.1894.0664c.1743-.8143.206-1.6818.3554-2.6777.8633-5.7528 1.3749-14.1512 2.2598-20.7325 1.1706-8.706 3.2085-14.2117 3.5059-14.2988zm-74.3184.123v3.9454l-7.7558 7.7656v-3.8535zm101.0293 1.3555c.08-.0075.171.01.2402.0137.5682.0947.9178.6973 1.0821 1.207 1.8857 3.7867-1.6007 9.5368-5.3008 9.6777-.3828.0146-.7636-.0365-1.1426-.1562-.9258-.2924-.5856-.314.9746-1.3555 2.9747-1.9856 3.88-3.9305 4.0117-7.9062.038-.5987-.086-1.0946-.035-1.3457.021-.0952.09-.1273.1699-.1348zm2.9414 2.2129c.134.0117.3804.2302.8262.6367 3.0362 4.2715-1.3384 9.4632-4.8594 9.4375-1.5721-.0206-2.3268-.4881-1.2851-.9043 3.4533-1.3796 4.9878-3.5776 5.1777-7.4199.01-1.2141-.083-1.7695.1406-1.75zm-27.3008.1563 1.7813 1.084c-2.9503 9.7353-3.7341 22.2655-5.0195 32.6288l-1.8457.0782c.072-1.8614.8064-10.4576 1.6835-17.9844.9889-8.4863 3.0125-15.8066 3.4004-15.8066zm-76.6699 1.1132v3.2735l-7.7558 8.1367v-3.3848zm79.5567.4883 1.7402.6055c-1.1638-.3663-4.0302 22.3906-4.543 31.2324l-2.0879.205c.3096-4.4507 1.0576-11.4465 1.8946-17.7558 1.0119-7.6279 2.3359-14.3877 2.9961-14.287zm2.7089 1.2852c.3156.0136.8343.462 1.9063 1.0605-1.8635-.265-3.3589 20.9328-4.4219 29.3164l-1.9219.0977c.7486-12.3113 2.5427-23.4727 3.6036-28.2637.3279-1.4445.4363-2.0693.7089-2.1894a.2783.2783 0 0 1 .125-.0215zm-54.9179.6191c-2.2608.1396-4.4753 2.38-3.4082 5.3067.6838 1.8758 2.4198 2.155 4.6211 1.7812 0 0 .9488.6776 2.0644 4.0762 1.3208 4.0235 3.3926 8.164 3.3926 8.164.1311-5.047 1.3115-10.3014-.8945-14.4296-1.63-2.9994-2.8798-4.1002-4.3164-4.6739-.324-.1294-.6646-.2022-1.0079-.2246a3.555 3.555 0 0 0-.4511 0zm.3437.4102c3.2658.1963 6.4065 6.0098 6.0528 12.211-.1115 1.9534-.4317 3.4823-.4317 3.4823-1.4613-3.0458-1.7702-5.3377-3.1875-8.0976-.6203-1.2047-1.1758-2.2383-1.1758-2.2383-4.6281 2.188-6.4094-3.3228-2.6562-5.082.4618-.2165.9319-.3035 1.3984-.2754zm57.3379.3925 1.9531.9141c-.5346-.1757-1.9243 5.664-2.3945 12.2695-.4094 5.7508-1.4409 12.0066-1.7461 15.4727l-2.1289.2578c1.3632-9.3205 1.493-20.2114 4.3164-28.914zm2.9063 1.4356 1.9941 1.0176c-1.0468-.3169-2.8735 18.9572-3.9844 25.8027l-2.0117.3164c.7768-3.2912.777-8.142 1.3594-12.1875.721-5.009 1.4903-15.1826 2.6426-14.9492zm3.0097 1.3945 1.8985 1.0117c-.7394 3.0824-2.6167 13.563-3.6563 23.9141l-2.0254.2774c.9749-7.5254 2.7397-25.072 3.7832-25.2032zm2.8809 1.5508 2.0781.9434s-1.4414 7.0739-2.125 12.043c-.6747 4.9047-.7795 5.6048-.9941 6.8827-.4744 2.8186-.6055 2.9239-.6055 2.9239l-1.7324.289c.839-8.272 1.6251-16.6496 3.3789-23.082zm-97.8848 3.6387c.8703 0 1.5742.7133 1.5742 1.5879 0 .8745-.7039 1.582-1.5742 1.582-.8696 0-1.5722-.7075-1.5722-1.582 0-.8746.7026-1.588 1.5722-1.588zm2.0723 3.7324c.8697 0 1.5801.7134 1.5801 1.5879s-.7104 1.582-1.5801 1.582-1.5723-.7075-1.5723-1.582.7026-1.5879 1.5723-1.5879zm-4.3184.0684c.8697 0 1.5723.7075 1.5723 1.582s-.7026 1.582-1.5723 1.582-1.5781-.7075-1.5781-1.582.7084-1.582 1.5781-1.582zm2.3281 3.6816c.8703 0 1.5743.7114 1.5743 1.586 0 .8745-.704 1.582-1.5743 1.582-.8685 0-1.5722-.7075-1.5722-1.582 0-.8746.7037-1.586 1.5722-1.586zm-3.7792 5.0742h18.0136l-18.0136 19.0801v-3.2969l11.6816-13.0234h-11.6816zm0 4.2363h8.8457l-8.8457 9.2461zm23.6386.7305c-1.0788.0267-2.1273.2506-3.1054.707-.4139.1735-.7376.393-.7403.6114 2.275 2.0849 3.4711 5.6567 4.2461 8.5879 1.7382 4.619 3.0293 10.1921 7.0235 12.6484l-2.7579 5.5234h86.7813l-14.4453-25.4199c-16.4484 3.2143-39.6312 4.883-59.4746-.209 0 0-3.4131 6.373-4.2696 8.0762 0 0-.5007-1.5634-1.0351-2.6504-2.3244-4.4031-7.5479-7.9908-12.2227-7.875zm-.1797.4824c.253-.0103.5115-.006.7735.0118 4.5415.3075 10.2838 4.7167 11.8965 8.8203-.2493.488-1.3516 2.539-1.3516 2.539-.5751-1.1288-.1437-2.244-.5215-3.2578-.093-.432-1.0351 2.92-1.0351 2.92s-.9103-1.4875-1.0215-4.3497c-.017-.4413-1.1836 1.92-1.1836 1.92-1.4671-1.9859-1.3848-5.4297-1.3848-5.4297-1.6533 2.0176-.6219 3.1734-3.1758-1.9688-.2949.5348-.1507 1.1016-.5371.9512-1.1222-.4368-2.6996-1.2271-3.2734-1.0684.7489.9437 2.2007 1.4415 2.5996 2.6934 0 0-1.1515-.0976-1.2266-.041 1.3057.7138 2.5591 1.3296 3.5391 2.7011-.2918.108-1.473-.0944-1.4219.0313 1.7671 1.6048 4.4191 2.9014.584 2.539 2.4928 1.7632 5.2713 2.981.9414 2.8497 3.0886 1.4669 3.9211 2.372 3.3457 2.621-.3241.1404-1.2484-.4185-2.7207.0547 2.482 1.0177 3.505 1.4832 3.6035 1.8184.1194.4063-1.059.6295-1.8672 1.5098 0 0 .9991-.2291 1.4356.2363 0 0-.4844 1.4059-.8574 2.2168-3.1603-2.883-4.4035-6.9648-5.2227-9.5918-.4116-1.3592-.832-2.6913-.9316-2.9629-1.5145-4.1266-2.1359-5.4896-3.125-6.8613-.1634-.2266-.2132-.2005.025-.3945.6409-.3151 1.3543-.4768 2.1132-.5079zm76.4922 3.9825L1511.8242.5082h-2.6152l-9.8672-17.6562-14.6563 1.4687 4.0508 16.1875h-3.873l-4.0059-15.7676-22.6836.1211c-.7343 5.282-2.1582 15.6465-2.1582 15.6465h-4.1894l2.791-16.041-13.3984-1.6914-7.7422 17.7324h-3.6348l11.166-21.8867c21.5361 3.3682 32.9269 3.7873 58.3203-.2324zm-56.7597 6.4238 9.2812 1.248-2.5332 14.4473h-13.1191zm55.0527.2363 8.3516 15.459h-14.3028l-4.1074-14.5234zm-18.6035 1.8672 3 13.5918h-23.086l1.3223-13.4453z" transform="matrix(1.10155 0 0 1.07139 -1503.6498 324.7824)"/>
  </g>
  <path style="opacity:1;fill:#000000;stroke-width:1.06667" d="M1565.1926 300.1467c10.4261-.2265 15.1013-11.9651 7.3796-21.0808-1.1199-1.3296-1.2354-2.0927.8156-.8155 5.1987 3.4765 15.1671 1.191 15.6776-9.4372.6307-13.0953-17.6671-16.8685-21.1026-2.9436-.1814 1.4692-1.3753 1.4357-1.0875-.6497.3132-5.6602 2.0809-10.9505 4.5106-16.1094h-12.3949c2.4295 5.1589 4.1972 10.4492 4.5105 16.1094.2879 2.0854-.9061 2.119-1.0875.6497-3.4356-13.9249-21.7332-10.1517-21.1026 2.9436.5103 10.6282 10.4788 12.9137 15.6777 9.4372 2.051-1.2772 1.9354-.5141.8155.8155-7.7217 9.1157-3.0465 20.8543 7.3796 21.0808h.011z" transform="matrix(1.10155 0 0 1.07139 -1533.0221 -3.6199)"/>
  <path style="opacity:1;fill:#000000;stroke-width:1.06667;stroke-miterlimit:4;stroke-dasharray:none" d="M1455.2504 38.1382c10.4261.2263 15.1013 11.965 7.3796 21.0808-1.1199 1.3296-1.2354 2.0926.8156.8154 5.1987-3.4764 15.1671-1.191 15.6777 9.4371.6305 13.0955-17.6671 16.8686-21.1027 2.9437-.1814-1.4691-1.3754-1.4356-1.0875.6498.3132 5.6602 2.0809 10.9505 4.5106 16.1092h-12.3949c2.4295-5.1587 4.1972-10.449 4.5105-16.1092.2879-2.0854-.9061-2.119-1.0875-.6498-3.4356 13.925-21.7332 10.1518-21.1026-2.9437.5103-10.6281 10.4789-12.9135 15.6777-9.4371 2.051 1.2772 1.9353.5142.8156-.8154-7.7218-9.1158-3.0466-20.8545 7.3794-21.0808h.011z" transform="matrix(1.10155 0 0 1.07139 -1533.0221 -3.6199)"/>
  <path d="M1838.2431-150.8472c4.1703-.0943 6.0406-4.9855 2.9518-8.7837-.4479-.554-.4941-.872.3263-.3398 2.0796 1.4485 6.0669.4963 6.271-3.9321.2523-5.4564-7.0668-7.0286-8.441-1.2265-.072.6121-.5502.5982-.4349-.2708.1253-2.3584.8323-4.5627 1.804-6.7122h-4.9576c.9719 2.1495 1.6788 4.3538 1.8042 6.7122.1152.869-.3624.883-.435.2708-1.3742-5.802-8.6933-4.23-8.4411 1.2265.2042 4.4284 4.1916 5.3806 6.2711 3.9321.8204-.5322.7743-.2142.3262.3398-3.0886 3.7982-1.2185 8.6893 2.9517 8.7837zM1637.7578-376.1133c-4.1705.0943-6.0405 4.9855-2.952 8.7837.4482.554.4943.872-.3261.3398-2.0796-1.4486-6.0669-.4963-6.2711 3.9321-.2522 5.4564 7.0669 7.0286 8.441 1.2265.072-.6121.5503-.5982.435.2708-.1253 2.3584-.8322 4.5626-1.8042 6.7122h4.9578c-.9718-2.1496-1.6789-4.3538-1.8042-6.7122-.1152-.869.3625-.883.4349-.2708 1.3742 5.802 8.6934 4.23 8.4411-1.2265-.2041-4.4284-4.1916-5.3807-6.271-3.9321-.8205.5321-.7742.2142-.3263-.3398 3.0888-3.7982 1.2185-8.6893-2.9518-8.7837-.0009 0 0 0 0 0z" style="display:inline;opacity:1;stroke-width:1.06258" transform="matrix(1.10155 0 0 1.07139 -1783.9358 459.8864)"/>
  <path d="M1637.6444-414.5346v3.6728h3.5621s.086 3.5404.1173 11.0502c.028 7.2925.1762 10.9095-.2881 12.9868-1.2478 4.7865-8.1753 4.813-9.5514 1.3713-.8-2.002-.5871-3.5585-.624-5.5745h-3.8296s.022 1.015.028 2.2568c.022 5.3824 1.8021 7.9566 5.9676 8.9716 4.2829 1.1583 9.2907-.6084 11.0711-4.2728 1.0607-2.0883.9393-2.2317.9652-14.8593.016-8.4245.1433-11.9301.1433-11.9301h3.2795v-3.6728h-10.8404zM1838.3534-112.426v-3.6727h-3.562s-.086-3.5405-.1174-11.0502c-.028-7.2926-.1761-10.9096.2881-12.9867 1.2479-4.7866 8.1753-4.813 9.5515-1.3714.8 2.002.5871 3.5585.6239 5.5745h3.8297s-.022-1.015-.028-2.2568c-.022-5.3825-1.8022-7.9567-5.9676-8.9716-4.2829-1.1584-9.2907.6084-11.0711 4.2727-1.0608 2.0885-.9393 2.2318-.9652 14.8594-.016 8.4244-.1433 11.93-.1433 11.93h-3.2795v3.6729h10.8403zm0 0" style="opacity:1;stroke-width:1.06258" transform="matrix(1.10155 0 0 1.07139 -1783.9358 459.8864)"/>
  <g transform="translate(-317.0593 154.0562)" sodipodi:insensitive="true">
    <rect style="opacity:1;vector-effect:none;fill:#006614;fill-opacity:1;stroke:none;stroke-width:1.74801;stroke-linecap:butt;stroke-linejoin:miter;stroke-miterlimit:4;stroke-dasharray:none;stroke-dashoffset:0;stroke-opacity:1" width="1659.9126" height="794.398" x="-356.4728" y="-1029.6816" rx="144.4816" ry="124.6822"/>
    <text y="-935.8134" x="472.1945" style="font-style:normal;font-variant:normal;font-weight:normal;font-stretch:normal;font-size:42.6667px;line-height:125%;font-family:Carlito;-inkscape-font-specification:'Carlito, Normal';text-align:center;letter-spacing:0px;word-spacing:0px;writing-mode:lr-tb;text-anchor:middle;fill:#ffffff;fill-opacity:1;stroke:none;stroke-width:1.06667px;stroke-linecap:butt;stroke-linejoin:miter;stroke-opacity:1" xml:space="preserve"><tspan style="font-style:normal;font-variant:normal;font-weight:normal;font-stretch:normal;font-size:48px;line-height:125%;font-family:Carlito;-inkscape-font-specification:'Carlito, Normal';text-align:center;writing-mode:lr-tb;text-anchor:middle;fill:#ffffff;fill-opacity:1;stroke-width:1.06667px" y="-935.8134" x="472.1945" sodipodi:role="line">Single Playing Card from:</tspan><tspan style="font-style:normal;font-variant:normal;font-weight:normal;font-stretch:normal;font-size:48px;line-height:125%;font-family:Carlito;-inkscape-font-specification:'Carlito, Normal';text-align:center;writing-mode:lr-tb;text-anchor:middle;fill:#ffffff;fill-opacity:1;stroke-width:1.06667px" y="-875.8134" x="472.1945" sodipodi:role="line">Standard Edition - Color Set - Bordered </tspan><tspan style="font-style:normal;font-variant:normal;font-weight:normal;font-stretch:normal;font-size:48px;line-height:125%;font-family:Carlito;-inkscape-font-specification:'Carlito, Normal';text-align:center;writing-mode:lr-tb;text-anchor:middle;fill:#ffaaaa;fill-opacity:1;stroke-width:1.06667px" y="-762.48" x="472.1945" sodipodi:role="line">Copyright 2011, 2020 - Chris Aguilar - conjurenation@gmail.com</tspan><tspan style="font-style:normal;font-variant:normal;font-weight:normal;font-stretch:normal;font-size:48px;line-height:125%;font-family:Carlito;-inkscape-font-specification:'Carlito, Normal';text-align:center;writing-mode:lr-tb;text-anchor:middle;fill:#ffffff;fill-opacity:1;stroke-width:1.06667px" y="-649.1467" x="472.1945" sodipodi:role="line">https://totalnonsense.com/open-source-vector-playing-cards/</tspan><tspan style="font-style:normal;font-variant:normal;font-weight:normal;font-stretch:normal;font-size:48px;line-height:125%;font-family:Carlito;-inkscape-font-specification:'Carlito, Normal';text-align:center;writing-mode:lr-tb;text-anchor:middle;fill:#ffaaaa;fill-opacity:1;stroke-width:1.06667px" y="-535.8133" x="472.1945" sodipodi:role="line">Licensed under:</tspan><tspan style="font-style:normal;font-variant:normal;font-weight:normal;font-stretch:normal;font-size:48px;line-height:125%;font-family:Carlito;-inkscape-font-specification:'Carlito, Normal';text-align:center;writing-mode:lr-tb;text-anchor:middle;fill:#ffaaaa;fill-opacity:1;stroke-width:1.06667px" y="-475.8133" x="472.1945" sodipodi:role="line">LGPL 3.0</tspan><tspan style="font-style:normal;font-variant:normal;font-weight:normal;font-stretch:normal;font-size:48px;line-height:125%;font-family:Carlito;-inkscape-font-specification:'Carlito, Normal';text-align:center;writing-mode:lr-tb;text-anchor:middle;fill:#ffaaaa;fill-opacity:1;stroke-width:1.06667px" y="-415.8133" x="472.1945" sodipodi:role="line">https://www.gnu.org/licenses/lgpl-3.0.html</tspan><tspan style="font-style:normal;font-variant:normal;font-weight:normal;font-stretch:normal;font-size:48px;line-height:125%;font-family:Carlito;-inkscape-font-specification:'Carlito, Normal';text-align:center;writing-mode:lr-tb;text-anchor:middle;fill:#ffffff;fill-opacity:1;stroke-width:1.06667px" y="-302.4799" x="472.1945" sodipodi:role="line">Each Card Measures (63mm x 88mm)</tspan></text>
  </g>
</svg>
