<svg xmlns="http://www.w3.org/2000/svg" xmlns:sodipodi="http://sodipodi.sourceforge.net/DTD/sodipodi-0.dtd" xmlns:inkscape="http://www.inkscape.org/namespaces/inkscape" version="1.1" viewBox="0 0 261.12 355.2" height="355.2" width="261.12" sodipodi:docname="CLUB-7.svg" inkscape:version="1.1-dev (60faa23, 2020-06-06)">
  <sodipodi:namedview pagecolor="#ffffff" bordercolor="#666666" borderopacity="1" objecttolerance="10" gridtolerance="10" guidetolerance="10" inkscape:pageopacity="0" inkscape:pageshadow="2" inkscape:window-width="774" inkscape:window-height="485" showgrid="false" inkscape:zoom=".283" inkscape:cx="25.0535" inkscape:cy="26.1481" inkscape:window-x="0" inkscape:window-y="0" inkscape:window-maximized="0" inkscape:current-layer="svg8"/>
  <g transform="matrix(1.17499 0 0 1.1428 -2407.4121 1243.7963)">
    <rect ry="10.6299" rx="10.6299" style="display:inline;opacity:1;fill:#ffffff;fill-opacity:1;stroke:none;stroke-width:0.996734;stroke-miterlimit:4;stroke-dasharray:none;stroke-opacity:1" width="222.2322" height="310.8137" x="2048.884" y="-1088.3696"/>
    <path style="display:inline;opacity:1" d="M2211.5312-1055.3647c-9.7745.2122-14.1574 11.2172-6.9184 19.7633 1.0499 1.2465 1.1582 1.9618-.7645.7645-4.8739-3.2592-14.2193-1.1166-14.6979 8.8473-.5911 12.2769 16.5629 15.8142 19.7838 2.7596.17-1.3773 1.2895-1.3459 1.0195.6092-.2937 5.3064-1.9509 10.2661-4.2287 15.1025h11.6203c-2.2777-4.8364-3.935-9.7961-4.2287-15.1025-.2699-1.9551.8495-1.9865 1.0195-.6092 3.2209 13.0546 20.3749 9.5173 19.7838-2.7596-.4785-9.9639-9.824-12.1065-14.6979-8.8473-1.9227 1.1973-1.8144.482-.7645-.7645 7.239-8.5461 2.8561-19.5511-6.9183-19.7633 0-.0001 0 0-.01 0zM2108.4604-1055.3647c-9.7745.2122-14.1574 11.2172-6.9184 19.7633 1.0499 1.2465 1.1582 1.9618-.7646.7645-4.8738-3.2592-14.2191-1.1166-14.6978 8.8473-.591 12.2769 16.5629 15.8142 19.7838 2.7596.17-1.3773 1.2894-1.3459 1.0195.6092-.2937 5.3064-1.9509 10.2661-4.2287 15.1025h11.6203c-2.2777-4.8364-3.935-9.7961-4.2287-15.1025-.2699-1.9551.8495-1.9865 1.0195-.6092 3.2209 13.0546 20.3749 9.5173 19.7838-2.7596-.4785-9.9639-9.824-12.1065-14.6979-8.8473-1.9227 1.1973-1.8144.482-.7645-.7645 7.239-8.5461 2.8561-19.5511-6.9183-19.7633 0-.0001 0 0-.01 0zM2211.5312-809.7317c-9.7745-.2122-14.1574-11.2172-6.9184-19.7633 1.0499-1.2465 1.1582-1.9618-.7645-.7645-4.8739 3.2592-14.2192 1.1166-14.6979-8.8473-.591-12.277 16.5629-15.8142 19.7838-2.7596.17 1.3773 1.2895 1.3459 1.0195-.6092-.2937-5.3064-1.9509-10.266-4.2287-15.1025h11.6203c-2.2777 4.8364-3.935 9.796-4.2287 15.1025-.2699 1.9551.8495 1.9865 1.0195.6092 3.2209-13.0546 20.3749-9.5173 19.7838 2.7596-.4785 9.964-9.824 12.1065-14.6979 8.8473-1.9227-1.1973-1.8144-.482-.7645.7645 7.239 8.546 2.8561 19.551-6.9183 19.7633h-.01zM2108.4604-809.7317c-9.7745-.2122-14.1574-11.2172-6.9184-19.7633 1.0499-1.2465 1.1582-1.9618-.7646-.7645-4.8738 3.2592-14.2191 1.1166-14.6978-8.8473-.591-12.277 16.5629-15.8142 19.7838-2.7596.17 1.3773 1.2894 1.3459 1.0195-.6092-.2937-5.3064-1.9509-10.266-4.2287-15.1025h11.6203c-2.2777 4.8364-3.935 9.796-4.2287 15.1025-.2699 1.9551.8495 1.9865 1.0195.6092 3.2209-13.0546 20.3749-9.5173 19.7838 2.7596-.4785 9.964-9.824 12.1065-14.6979 8.8473-1.9227-1.1973-1.8144-.482-.7645.7645 7.239 8.546 2.8561 19.551-6.9183 19.7633h-.01zM2159.996-1005.9179c-9.7745.2122-14.1573 11.2172-6.9184 19.7633 1.0499 1.2465 1.1583 1.9618-.7646.7645-4.8737-3.2592-14.2191-1.1166-14.6977 8.8472-.5911 12.277 16.5628 15.8143 19.7836 2.7597.1701-1.3773 1.2895-1.346 1.0196.6092-.2937 5.3064-1.9509 10.266-4.2287 15.1025h11.6202c-2.2776-4.8365-3.9349-9.7961-4.2286-15.1025-.2699-1.9551.8495-1.9865 1.0195-.6092 3.2209 13.0546 20.3749 9.5173 19.7838-2.7597-.4785-9.9638-9.824-12.1064-14.6979-8.8472-1.9227 1.1973-1.8144.482-.7645-.7645 7.239-8.546 2.8561-19.5511-6.9183-19.7633 0-.0001 0 0-.01 0zM2211.5312-956.4714c-9.7745.2122-14.1574 11.2172-6.9184 19.7633 1.0499 1.2465 1.1582 1.9618-.7645.7645-4.8739-3.2592-14.2193-1.1166-14.6979 8.8473-.591 12.277 16.5629 15.8142 19.7838 2.7596.17-1.3773 1.2894-1.3459 1.0195.6092-.2937 5.3064-1.9509 10.266-4.2287 15.1025h11.6203c-2.2777-4.8365-3.935-9.796-4.2287-15.1025-.2699-1.9551.8495-1.9865 1.0195-.6092 3.2209 13.0546 20.3749 9.5173 19.7838-2.7596-.4785-9.964-9.824-12.1065-14.6979-8.8473-1.9227 1.1973-1.8144.482-.7645-.7645 7.239-8.546 2.8561-19.551-6.9183-19.7633h-.01zM2108.4604-956.4714c-9.7745.2122-14.1574 11.2172-6.9184 19.7633 1.0499 1.2465 1.1582 1.9618-.7646.7645-4.8738-3.2592-14.2191-1.1166-14.6977 8.8473-.5911 12.277 16.5628 15.8142 19.7837 2.7596.17-1.3773 1.2894-1.3459 1.0195.6092-.2937 5.3064-1.9509 10.266-4.2287 15.1025h11.6203c-2.2777-4.8365-3.935-9.796-4.2287-15.1025-.2699-1.9551.8495-1.9865 1.0195-.6092 3.2209 13.0546 20.3749 9.5173 19.7838-2.7596-.4785-9.964-9.824-12.1065-14.6979-8.8473-1.9227 1.1973-1.8144.482-.7645-.7645 7.239-8.546 2.8561-19.551-6.9183-19.7633h-.01zM2253.9779-827.3692c3.9097-.0884 5.663-4.6738 2.7674-8.2347-.4201-.5193-.4634-.8174.3058-.3185 1.9496 1.358 5.6877.4652 5.8791-3.6864.2365-5.1154-6.6252-6.5893-7.9135-1.1499-.068.574-.5158.5609-.4078-.2538.1175-2.211.7803-4.2775 1.6915-6.2927h-4.6479c.9111 2.0152 1.5739 4.0817 1.6914 6.2927.108.8147-.3398.8278-.4078.2539-1.2883-5.4395-8.1499-3.9656-7.9135 1.1498.1914 4.1516 3.9296 5.0444 5.8792 3.6864.7691-.499.7258-.2008.3058.3185-2.8956 3.5609-1.1424 8.1463 2.7673 8.2347.001 0 0 0 0 0zM2066.0229-1038.5561c-3.9097.088-5.663 4.6739-2.7674 8.2347.42.5194.4633.8175-.3058.3186-1.9497-1.358-5.6877-.4653-5.8791 3.6863-.2365 5.1154 6.6252 6.5893 7.9134 1.1499.068-.5739.5159-.5608.4079.2538-.1176 2.211-.7803 4.2775-1.6915 6.2927h4.6479c-.9111-2.0152-1.5739-4.0817-1.6915-6.2927-.1079-.8146.3398-.8277.4079-.2538 1.2882 5.4394 8.1499 3.9655 7.9134-1.1499-.1914-4.1516-3.9295-5.0443-5.8791-3.6863-.7691.4989-.7258.2008-.3059-.3186 2.8957-3.5608 1.1424-8.1462-2.7672-8.2347z"/>
    <path style="opacity:1" d="M2060.9729-1041.6852c2.1606-11.4366 4.4606-20.0224 10.4994-29.3406h-12.2747v4.011h-3.2588v-7.5612h17.9538l2.2144 3.5502c-6.4138 7.0105-12.2837 29.6721-11.2444 29.3406zM2259.025-824.24c-2.1606 11.4364-4.4606 20.0224-10.4994 29.3405h12.2747v-4.011h3.2588v7.5613h-17.9539l-2.2143-3.5503c6.4138-7.0104 12.2837-29.6721 11.2444-29.3406zm0 0"/>
  </g>
  <g transform="translate(-262.0892 104.0812)" sodipodi:insensitive="true">
    <rect style="opacity:1;vector-effect:none;fill:#006614;fill-opacity:1;stroke:none;stroke-width:1.74801;stroke-linecap:butt;stroke-linejoin:miter;stroke-miterlimit:4;stroke-dasharray:none;stroke-dashoffset:0;stroke-opacity:1" width="1659.9126" height="794.398" x="-356.4728" y="-1029.6816" rx="144.4816" ry="124.6822"/>
    <text y="-935.8134" x="472.1945" style="font-style:normal;font-variant:normal;font-weight:normal;font-stretch:normal;font-size:42.6667px;line-height:125%;font-family:Carlito;-inkscape-font-specification:'Carlito, Normal';text-align:center;letter-spacing:0px;word-spacing:0px;writing-mode:lr-tb;text-anchor:middle;fill:#ffffff;fill-opacity:1;stroke:none;stroke-width:1.06667px;stroke-linecap:butt;stroke-linejoin:miter;stroke-opacity:1" xml:space="preserve"><tspan style="font-style:normal;font-variant:normal;font-weight:normal;font-stretch:normal;font-size:48px;line-height:125%;font-family:Carlito;-inkscape-font-specification:'Carlito, Normal';text-align:center;writing-mode:lr-tb;text-anchor:middle;fill:#ffffff;fill-opacity:1;stroke-width:1.06667px" y="-935.8134" x="472.1945" sodipodi:role="line">Single Playing Card from:</tspan><tspan style="font-style:normal;font-variant:normal;font-weight:normal;font-stretch:normal;font-size:48px;line-height:125%;font-family:Carlito;-inkscape-font-specification:'Carlito, Normal';text-align:center;writing-mode:lr-tb;text-anchor:middle;fill:#ffffff;fill-opacity:1;stroke-width:1.06667px" y="-875.8134" x="472.1945" sodipodi:role="line">Standard Edition - Color Set - Bordered </tspan><tspan style="font-style:normal;font-variant:normal;font-weight:normal;font-stretch:normal;font-size:48px;line-height:125%;font-family:Carlito;-inkscape-font-specification:'Carlito, Normal';text-align:center;writing-mode:lr-tb;text-anchor:middle;fill:#ffaaaa;fill-opacity:1;stroke-width:1.06667px" y="-762.48" x="472.1945" sodipodi:role="line">Copyright 2011, 2020 - Chris Aguilar - conjurenation@gmail.com</tspan><tspan style="font-style:normal;font-variant:normal;font-weight:normal;font-stretch:normal;font-size:48px;line-height:125%;font-family:Carlito;-inkscape-font-specification:'Carlito, Normal';text-align:center;writing-mode:lr-tb;text-anchor:middle;fill:#ffffff;fill-opacity:1;stroke-width:1.06667px" y="-649.1467" x="472.1945" sodipodi:role="line">https://totalnonsense.com/open-source-vector-playing-cards/</tspan><tspan style="font-style:normal;font-variant:normal;font-weight:normal;font-stretch:normal;font-size:48px;line-height:125%;font-family:Carlito;-inkscape-font-specification:'Carlito, Normal';text-align:center;writing-mode:lr-tb;text-anchor:middle;fill:#ffaaaa;fill-opacity:1;stroke-width:1.06667px" y="-535.8133" x="472.1945" sodipodi:role="line">Licensed under:</tspan><tspan style="font-style:normal;font-variant:normal;font-weight:normal;font-stretch:normal;font-size:48px;line-height:125%;font-family:Carlito;-inkscape-font-specification:'Carlito, Normal';text-align:center;writing-mode:lr-tb;text-anchor:middle;fill:#ffaaaa;fill-opacity:1;stroke-width:1.06667px" y="-475.8133" x="472.1945" sodipodi:role="line">LGPL 3.0</tspan><tspan style="font-style:normal;font-variant:normal;font-weight:normal;font-stretch:normal;font-size:48px;line-height:125%;font-family:Carlito;-inkscape-font-specification:'Carlito, Normal';text-align:center;writing-mode:lr-tb;text-anchor:middle;fill:#ffaaaa;fill-opacity:1;stroke-width:1.06667px" y="-415.8133" x="472.1945" sodipodi:role="line">https://www.gnu.org/licenses/lgpl-3.0.html</tspan><tspan style="font-style:normal;font-variant:normal;font-weight:normal;font-stretch:normal;font-size:48px;line-height:125%;font-family:Carlito;-inkscape-font-specification:'Carlito, Normal';text-align:center;writing-mode:lr-tb;text-anchor:middle;fill:#ffffff;fill-opacity:1;stroke-width:1.06667px" y="-302.4799" x="472.1945" sodipodi:role="line">Each Card Measures (63mm x 88mm)</tspan></text>
  </g>
</svg>
