<svg xmlns="http://www.w3.org/2000/svg" xmlns:sodipodi="http://sodipodi.sourceforge.net/DTD/sodipodi-0.dtd" xmlns:inkscape="http://www.inkscape.org/namespaces/inkscape" version="1.1" viewBox="0 0 261.12 355.2" height="355.2" width="261.12" sodipodi:docname="CLUB-6.svg" inkscape:version="1.1-dev (60faa23, 2020-06-06)">
  <sodipodi:namedview pagecolor="#ffffff" bordercolor="#666666" borderopacity="1" objecttolerance="10" gridtolerance="10" guidetolerance="10" inkscape:pageopacity="0" inkscape:pageshadow="2" inkscape:window-width="774" inkscape:window-height="485" showgrid="false" inkscape:zoom=".283" inkscape:cx="255.5886" inkscape:cy="121.0883" inkscape:window-x="0" inkscape:window-y="0" inkscape:window-maximized="0" inkscape:current-layer="svg8"/>
  <g transform="matrix(1.17499 0 0 1.1428 -2096.9509 1243.7963)">
    <rect ry="10.6299" rx="10.6299" style="display:inline;opacity:1;fill:#ffffff;fill-opacity:1;stroke:none;stroke-width:0.996734;stroke-miterlimit:4;stroke-dasharray:none;stroke-opacity:1" width="222.2322" height="310.8137" x="1784.6588" y="-1088.3696"/>
    <path style="display:inline;opacity:1" d="M1947.3062-1055.3647c-9.7745.2122-14.1574 11.2172-6.9184 19.7632 1.0499 1.2466 1.1582 1.9619-.7646.7646-4.8738-3.2592-14.2192-1.1167-14.6978 8.8472-.5911 12.277 16.5629 15.8143 19.7837 2.7597.1701-1.3773 1.2896-1.3459 1.0196.6092-.2937 5.3064-1.9509 10.266-4.2287 15.1025h11.6202c-2.2776-4.8365-3.9349-9.7961-4.2286-15.1025-.2699-1.9551.8495-1.9865 1.0195-.6092 3.2209 13.0546 20.3749 9.5173 19.7838-2.7597-.4785-9.9639-9.824-12.1064-14.6979-8.8472-1.9227 1.1973-1.8144.482-.7645-.7646 7.239-8.546 2.8561-19.551-6.9183-19.7632 0-.0001 0 0-.01 0zM1844.2354-1055.3647c-9.7745.2122-14.1574 11.2172-6.9184 19.7632 1.0499 1.2466 1.1582 1.9619-.7646.7646-4.8738-3.2592-14.2192-1.1167-14.6977 8.8472-.5912 12.277 16.5628 15.8143 19.7836 2.7597.1701-1.3773 1.2895-1.3459 1.0196.6092-.2937 5.3064-1.9509 10.266-4.2287 15.1025h11.6202c-2.2777-4.8365-3.9349-9.7961-4.2286-15.1025-.2699-1.9551.8495-1.9865 1.0195-.6092 3.2209 13.0546 20.3749 9.5173 19.7837-2.7597-.4784-9.9639-9.8239-12.1064-14.6978-8.8472-1.9228 1.1973-1.8144.482-.7645-.7646 7.239-8.546 2.8561-19.551-6.9183-19.7632 0-.0001 0 0-.01 0zM1947.3062-809.7317c-9.7745-.2123-14.1574-11.2173-6.9184-19.7633 1.0499-1.2465 1.1582-1.9619-.7646-.7645-4.8738 3.2592-14.2191 1.1166-14.6978-8.8473-.591-12.277 16.5629-15.8142 19.7837-2.7596.1701 1.3773 1.2896 1.3459 1.0196-.6092-.2937-5.3064-1.9509-10.266-4.2287-15.1025h11.6202c-2.2776 4.8364-3.9349 9.796-4.2286 15.1025-.2699 1.955.8495 1.9865 1.0195.6092 3.2209-13.0546 20.3749-9.5173 19.7838 2.7596-.4785 9.964-9.824 12.1065-14.6979 8.8473-1.9227-1.1973-1.8144-.482-.7645.7645 7.239 8.546 2.8561 19.551-6.9183 19.7633h-.01zM1844.2354-809.7317c-9.7745-.2123-14.1574-11.2173-6.9184-19.7633 1.0499-1.2465 1.1582-1.9619-.7646-.7645-4.8738 3.2592-14.2192 1.1166-14.6977-8.8473-.5912-12.277 16.5628-15.8142 19.7836-2.7596.1701 1.3773 1.2895 1.3459 1.0196-.6092-.2937-5.3064-1.9509-10.266-4.2287-15.1025h11.6202c-2.2777 4.8364-3.9349 9.796-4.2286 15.1025-.2699 1.955.8495 1.9865 1.0195.6092 3.2209-13.0546 20.3749-9.5173 19.7837 2.7596-.4784 9.964-9.8239 12.1065-14.6978 8.8473-1.9228-1.1973-1.8144-.482-.7645.7645 7.239 8.546 2.8561 19.551-6.9183 19.7633h-.01zM1947.3062-956.4714c-9.7745.2122-14.1574 11.2172-6.9184 19.7632 1.0499 1.2466 1.1582 1.962-.7646.7646-4.8738-3.2592-14.2192-1.1167-14.6978 8.8472-.591 12.277 16.5629 15.8143 19.7837 2.7597.1701-1.3774 1.2895-1.346 1.0196.6092-.2937 5.3064-1.9509 10.266-4.2287 15.1025h11.6202c-2.2776-4.8365-3.9349-9.7961-4.2286-15.1025-.2699-1.9551.8495-1.9866 1.0195-.6092 3.2209 13.0546 20.3749 9.5173 19.7838-2.7597-.4785-9.9639-9.824-12.1064-14.6979-8.8472-1.9227 1.1973-1.8144.482-.7645-.7646 7.239-8.546 2.8561-19.551-6.9183-19.7632 0-.0001 0 0-.01 0zM1844.2354-956.4714c-9.7745.2122-14.1574 11.2172-6.9184 19.7632 1.0499 1.2466 1.1582 1.962-.7646.7646-4.8738-3.2592-14.2192-1.1167-14.6977 8.8472-.5912 12.277 16.5628 15.8143 19.7836 2.7597.1701-1.3774 1.2895-1.346 1.0196.6092-.2937 5.3064-1.9509 10.266-4.2287 15.1025h11.6202c-2.2777-4.8365-3.9349-9.7961-4.2286-15.1025-.2699-1.9551.8495-1.9866 1.0195-.6092 3.2209 13.0546 20.3749 9.5173 19.7837-2.7597-.4784-9.9639-9.8239-12.1064-14.6978-8.8472-1.9228 1.1973-1.8144.482-.7645-.7646 7.239-8.546 2.8561-19.551-6.9183-19.7632 0-.0001 0 0-.01 0zM1989.7529-827.3692c3.9097-.0884 5.663-4.6738 2.7673-8.2347-.42-.5194-.4633-.8174.3059-.3185 1.9495 1.358 5.6877.4652 5.8791-3.6864.2365-5.1154-6.6252-6.5893-7.9135-1.1499-.068.574-.5158.5608-.4078-.2538.1175-2.211.7803-4.2775 1.6914-6.2927h-4.6478c.9111 2.0152 1.5739 4.0817 1.6914 6.2927.108.8146-.3398.8277-.4078.2538-1.2883-5.4394-8.1499-3.9655-7.9135 1.1499.1914 4.1516 3.9296 5.0444 5.8791 3.6864.7692-.499.7259-.2009.3059.3185-2.8957 3.5609-1.1424 8.1463 2.7673 8.2347.001 0 0 0 0 0zM1801.7979-1038.5561c-3.9098.088-5.6631 4.6738-2.7674 8.2347.42.5194.4633.8174-.3059.3185-1.9495-1.358-5.6877-.4652-5.8791 3.6864-.2364 5.1154 6.6252 6.5893 7.9135 1.1499.068-.5739.5158-.5608.4078.2538-.1175 2.211-.7803 4.2775-1.6914 6.2927h4.6478c-.9111-2.0152-1.5739-4.0817-1.6914-6.2927-.108-.8146.3398-.8277.4078-.2538 1.2883 5.4394 8.15 3.9655 7.9135-1.1499-.1914-4.1516-3.9296-5.0444-5.8791-3.6864-.7692.4989-.7259.2009-.3059-.3185 2.8957-3.5609 1.1424-8.1463-2.7672-8.2347-.001 0 0 0 0 0z"/>
    <path style="opacity:1" d="M1792.1502-1051.8017c-.4045-2.7685-.3943-9.9256-.064-12.0428 1.0201-6.4861 3.4942-9.4543 7.6386-10.4229 4.0255-.9437 9.6803.1071 10.9206 5.528l-3.365.065c-1.8201-3.6653-6.4254-2.6863-9.0198-1.0912-2.0696 1.27-3.0054 6.5735-2.6047 6.8998 0 0 3.9141-2.903 7.0001-2.6889 6.5942.6879 9.3141 6.4143 9.0837 11.8209-.2099 6.5043-2.2694 11.706-9.2591 12.0519-6.6455-.2572-9.6905-3.8846-10.3304-10.1201zm16.3896-1.7178c.036-4.5124-2.0095-7.8945-5.8838-8.2652-3.8706-.3733-7.7758 3.4095-7.5057 8.0094.2701 4.6195 2.0556 8.5054 6.7505 8.4845 5.0493-.02 6.6147-5.0163 6.639-8.2287zM1999.3976-814.1239c.4045 2.7686.3942 9.9257.064 12.0429-1.0201 6.486-3.4942 9.4542-7.6386 10.4228-4.0255.9438-9.6803-.107-10.9206-5.528l3.365-.0647c1.8201 3.6652 6.4253 2.6862 9.0198 1.0912 2.0696-1.27 3.0053-6.5735 2.6047-6.8999 0 0-3.9141 2.903-7.0001 2.689-6.5942-.688-9.3141-6.4143-9.0837-11.8209.2099-6.5044 2.2693-11.706 9.2591-12.052 6.6455.2573 9.6905 3.8847 10.3304 10.1201zm-16.3896 1.7178c-.036 4.5125 2.0095 7.8946 5.8838 8.2653 3.8706.3733 7.7757-3.4095 7.5057-8.0094-.2701-4.6195-2.0556-8.5054-6.7505-8.4845-5.0494.0199-6.6147 5.0163-6.639 8.2286zm0 0"/>
  </g>
  <g transform="translate(-374.9559 94.467)" sodipodi:insensitive="true">
    <rect style="opacity:1;vector-effect:none;fill:#006614;fill-opacity:1;stroke:none;stroke-width:1.74801;stroke-linecap:butt;stroke-linejoin:miter;stroke-miterlimit:4;stroke-dasharray:none;stroke-dashoffset:0;stroke-opacity:1" width="1659.9126" height="794.398" x="-356.4728" y="-1029.6816" rx="144.4816" ry="124.6822"/>
    <text y="-935.8134" x="472.1945" style="font-style:normal;font-variant:normal;font-weight:normal;font-stretch:normal;font-size:42.6667px;line-height:125%;font-family:Carlito;-inkscape-font-specification:'Carlito, Normal';text-align:center;letter-spacing:0px;word-spacing:0px;writing-mode:lr-tb;text-anchor:middle;fill:#ffffff;fill-opacity:1;stroke:none;stroke-width:1.06667px;stroke-linecap:butt;stroke-linejoin:miter;stroke-opacity:1" xml:space="preserve"><tspan style="font-style:normal;font-variant:normal;font-weight:normal;font-stretch:normal;font-size:48px;line-height:125%;font-family:Carlito;-inkscape-font-specification:'Carlito, Normal';text-align:center;writing-mode:lr-tb;text-anchor:middle;fill:#ffffff;fill-opacity:1;stroke-width:1.06667px" y="-935.8134" x="472.1945" sodipodi:role="line">Single Playing Card from:</tspan><tspan style="font-style:normal;font-variant:normal;font-weight:normal;font-stretch:normal;font-size:48px;line-height:125%;font-family:Carlito;-inkscape-font-specification:'Carlito, Normal';text-align:center;writing-mode:lr-tb;text-anchor:middle;fill:#ffffff;fill-opacity:1;stroke-width:1.06667px" y="-875.8134" x="472.1945" sodipodi:role="line">Standard Edition - Color Set - Bordered </tspan><tspan style="font-style:normal;font-variant:normal;font-weight:normal;font-stretch:normal;font-size:48px;line-height:125%;font-family:Carlito;-inkscape-font-specification:'Carlito, Normal';text-align:center;writing-mode:lr-tb;text-anchor:middle;fill:#ffaaaa;fill-opacity:1;stroke-width:1.06667px" y="-762.48" x="472.1945" sodipodi:role="line">Copyright 2011, 2020 - Chris Aguilar - conjurenation@gmail.com</tspan><tspan style="font-style:normal;font-variant:normal;font-weight:normal;font-stretch:normal;font-size:48px;line-height:125%;font-family:Carlito;-inkscape-font-specification:'Carlito, Normal';text-align:center;writing-mode:lr-tb;text-anchor:middle;fill:#ffffff;fill-opacity:1;stroke-width:1.06667px" y="-649.1467" x="472.1945" sodipodi:role="line">https://totalnonsense.com/open-source-vector-playing-cards/</tspan><tspan style="font-style:normal;font-variant:normal;font-weight:normal;font-stretch:normal;font-size:48px;line-height:125%;font-family:Carlito;-inkscape-font-specification:'Carlito, Normal';text-align:center;writing-mode:lr-tb;text-anchor:middle;fill:#ffaaaa;fill-opacity:1;stroke-width:1.06667px" y="-535.8133" x="472.1945" sodipodi:role="line">Licensed under:</tspan><tspan style="font-style:normal;font-variant:normal;font-weight:normal;font-stretch:normal;font-size:48px;line-height:125%;font-family:Carlito;-inkscape-font-specification:'Carlito, Normal';text-align:center;writing-mode:lr-tb;text-anchor:middle;fill:#ffaaaa;fill-opacity:1;stroke-width:1.06667px" y="-475.8133" x="472.1945" sodipodi:role="line">LGPL 3.0</tspan><tspan style="font-style:normal;font-variant:normal;font-weight:normal;font-stretch:normal;font-size:48px;line-height:125%;font-family:Carlito;-inkscape-font-specification:'Carlito, Normal';text-align:center;writing-mode:lr-tb;text-anchor:middle;fill:#ffaaaa;fill-opacity:1;stroke-width:1.06667px" y="-415.8133" x="472.1945" sodipodi:role="line">https://www.gnu.org/licenses/lgpl-3.0.html</tspan><tspan style="font-style:normal;font-variant:normal;font-weight:normal;font-stretch:normal;font-size:48px;line-height:125%;font-family:Carlito;-inkscape-font-specification:'Carlito, Normal';text-align:center;writing-mode:lr-tb;text-anchor:middle;fill:#ffffff;fill-opacity:1;stroke-width:1.06667px" y="-302.4799" x="472.1945" sodipodi:role="line">Each Card Measures (63mm x 88mm)</tspan></text>
  </g>
</svg>
