<svg xmlns="http://www.w3.org/2000/svg" xmlns:sodipodi="http://sodipodi.sourceforge.net/DTD/sodipodi-0.dtd" xmlns:inkscape="http://www.inkscape.org/namespaces/inkscape" version="1.1" viewBox="0 0 261.12 355.2" height="355.2" width="261.12" sodipodi:docname="CLUB-5.svg" inkscape:version="1.1-dev (60faa23, 2020-06-06)">
  <sodipodi:namedview pagecolor="#ffffff" bordercolor="#666666" borderopacity="1" objecttolerance="10" gridtolerance="10" guidetolerance="10" inkscape:pageopacity="0" inkscape:pageshadow="2" inkscape:window-width="774" inkscape:window-height="485" showgrid="false" inkscape:zoom=".4002" inkscape:cx="61.345" inkscape:cy="141.1054" inkscape:window-x="0" inkscape:window-y="0" inkscape:window-maximized="0" inkscape:current-layer="svg8"/>
  <g style="display:inline;opacity:1">
    <rect y="370.2756" x="260.433" height="311.811" width="223.2284" style="display:inline;fill:#ffffff;fill-opacity:1;stroke:none;stroke-width:1.00057;stroke-miterlimit:4;stroke-dasharray:none;stroke-opacity:1" rx="10.6776" ry="10.664" transform="matrix(1.16974 0 0 1.13915 -304.64 -421.8)"/>
  </g>
  <path style="display:inline;opacity:1" d="M1683.0812-1055.3648c-9.7745.2123-14.1574 11.2173-6.9184 19.7633 1.0499 1.2465 1.1582 1.9619-.7646.7645-4.8738-3.2592-14.2192-1.1166-14.6978 8.8473-.5911 12.2769 16.5629 15.8143 19.7837 2.7597.1701-1.3774 1.2895-1.346 1.0196.6091-.2937 5.3064-1.9509 10.2661-4.2287 15.1025h11.6202c-2.2777-4.8364-3.9349-9.7961-4.2286-15.1025-.2699-1.9551.8495-1.9865 1.0195-.6091 3.2209 13.0546 20.3749 9.5172 19.7837-2.7597-.4784-9.9639-9.8239-12.1065-14.6978-8.8473-1.9228 1.1974-1.8144.482-.7645-.7645 7.239-8.546 2.8561-19.551-6.9183-19.7633 0-.0001 0 0-.01 0zM1580.0104-1055.3648c-9.7745.2123-14.1575 11.2173-6.9184 19.7633 1.0499 1.2465 1.1582 1.9619-.7646.7645-4.8738-3.2592-14.2192-1.1166-14.6978 8.8473-.5911 12.2769 16.5629 15.8143 19.7837 2.7597.1701-1.3774 1.2894-1.346 1.0196.6091-.2937 5.3064-1.9509 10.2661-4.2287 15.1025h11.6202c-2.2777-4.8364-3.9349-9.7961-4.2286-15.1025-.2699-1.9551.8495-1.9865 1.0195-.6091 3.2209 13.0546 20.3749 9.5172 19.7837-2.7597-.4784-9.9639-9.8239-12.1065-14.6978-8.8473-1.9228 1.1974-1.8145.482-.7646-.7645 7.2391-8.546 2.8561-19.551-6.9182-19.7633 0-.0001 0 0-.01 0zM1683.0812-809.7318c-9.7745-.2122-14.1574-11.2172-6.9184-19.7632 1.0499-1.2466 1.1582-1.962-.7646-.7646-4.8738 3.2592-14.2192 1.1167-14.6978-8.8472-.5911-12.277 16.5629-15.8143 19.7837-2.7597.1701 1.3773 1.2895 1.346 1.0196-.6092-.2937-5.3064-1.9509-10.266-4.2287-15.1025h11.6202c-2.2777 4.8365-3.9349 9.7961-4.2286 15.1025-.2699 1.9551.8495 1.9865 1.0195.6092 3.2209-13.0546 20.3749-9.5173 19.7837 2.7597-.4784 9.9639-9.8239 12.1064-14.6978 8.8472-1.9228-1.1973-1.8144-.482-.7645.7646 7.239 8.546 2.8561 19.551-6.9183 19.7632 0 .0001 0 0-.01 0zM1580.0104-809.7318c-9.7745-.2122-14.1575-11.2172-6.9184-19.7632 1.0499-1.2466 1.1582-1.962-.7646-.7646-4.8738 3.2592-14.2192 1.1167-14.6978-8.8472-.5911-12.277 16.5629-15.8143 19.7837-2.7597.1701 1.3773 1.2894 1.346 1.0196-.6092-.2937-5.3064-1.9509-10.266-4.2287-15.1025h11.6202c-2.2777 4.8365-3.9349 9.7961-4.2286 15.1025-.2699 1.9551.8495 1.9865 1.0195.6092 3.2209-13.0546 20.3749-9.5173 19.7837 2.7597-.4784 9.9639-9.8239 12.1064-14.6978 8.8472-1.9228-1.1973-1.8145-.482-.7646.7646 7.2391 8.546 2.8561 19.551-6.9182 19.7632 0 .0001 0 0-.01 0zM1631.5458-956.4715c-9.7745.2123-14.1574 11.2173-6.9184 19.7633 1.0499 1.2465 1.1582 1.9619-.7646.7645-4.8738-3.2592-14.2192-1.1166-14.6978 8.8473-.5911 12.277 16.5629 15.8143 19.7837 2.7597.1701-1.3774 1.2894-1.346 1.0196.6091-.2937 5.3064-1.9509 10.266-4.2287 15.1026h11.6202c-2.2777-4.8365-3.9349-9.7962-4.2286-15.1026-.2699-1.955.8495-1.9865 1.0195-.6091 3.2209 13.0545 20.3749 9.5172 19.7837-2.7597-.4784-9.964-9.8239-12.1065-14.6978-8.8473-1.9228 1.1974-1.8144.482-.7646-.7645 7.2391-8.546 2.8561-19.551-6.9182-19.7633h-.01zM1725.5278-827.3692c3.9097-.0884 5.663-4.6739 2.7673-8.2347-.42-.5194-.4633-.8175.3059-.3186 1.9495 1.358 5.6877.4653 5.8791-3.6864.2365-5.1154-6.6252-6.5892-7.9135-1.1498-.068.5739-.5158.5608-.4078-.2538.1175-2.211.7803-4.2776 1.6914-6.2928h-4.6478c.9111 2.0152 1.5739 4.0818 1.6914 6.2928.108.8146-.3398.8277-.4078.2538-1.2883-5.4394-8.1499-3.9656-7.9135 1.1498.1914 4.1517 3.9296 5.0444 5.8791 3.6864.7692-.4989.7259-.2008.3059.3186-2.8957 3.5608-1.1424 8.1462 2.7673 8.2347.001 0 0 0 0 0zM1537.5728-1038.5562c-3.9098.088-5.663 4.6739-2.7674 8.2347.42.5194.4633.8175-.3058.3186-1.9496-1.358-5.6877-.4653-5.8791 3.6864-.2365 5.1153 6.6251 6.5892 7.9135 1.1498.068-.5739.5158-.5608.4077.2538-.1174 2.211-.7803 4.2776-1.6914 6.2927h4.6479c-.9111-2.0151-1.574-4.0817-1.6914-6.2927-.108-.8146.3397-.8277.4077-.2538 1.2884 5.4394 8.15 3.9655 7.9136-1.1498-.1915-4.1517-3.9296-5.0444-5.8792-3.6864-.7691.4989-.7258.2008-.3058-.3186 2.8956-3.5608 1.1424-8.1462-2.7673-8.2347-.001 0 0 0 0 0z" transform="matrix(1.17499 0 0 1.1428 -1786.4862 1243.796)"/>
  <path style="opacity:1" d="m1527.2177-1050.1972 3.2204-.031c.6143 1.9854 1.9736 4.0035 3.8194 4.5635 5.2144 1.2493 8.5692-1.7231 9.6738-5.1496 1.3401-4.1563-.03-9.9926-3.6198-12.0642-2.9745-1.7178-7.3942-.2689-9.4241 3.4057l-2.2553-1.4072 1.2108-13.6958h14.7334v3.2373h-11.9393l-.1894 5.7057c2.5702-1.8406 6.5201-1.821 9.0888-.53 4.8651 2.3667 7.1255 7.7474 6.1809 14.0888-1.3106 6.3075-4.2007 9.8816-10.7195 10.392-7.2509.067-9.8109-5.0178-9.7801-8.5149zM1735.8799-815.7277l-3.2204.0309c-.6144-1.9856-1.9737-4.0036-3.8194-4.5636-5.2144-1.2493-8.5692 1.723-9.6738 5.1496-1.3401 4.1564.03 9.9925 3.6197 12.0642 2.9746 1.7179 7.3943.269 9.4242-3.4057l2.2553 1.4072-1.2108 13.6958h-14.7334v-3.2373h11.9393l.1894-5.7058c-2.5702 1.8406-6.5201 1.8211-9.0889.53-4.8651-2.3666-7.1254-7.7473-6.1809-14.0886 1.3107-6.3076 4.2008-9.8816 10.7196-10.3921 7.2509-.0668 9.8108 5.0178 9.7801 8.5149zm0 0" transform="matrix(1.17499 0 0 1.1428 -1786.4862 1243.796)"/>
  <g transform="translate(-338.3035 149.0818)">
    <rect style="opacity:1;vector-effect:none;fill:#006614;fill-opacity:1;stroke:none;stroke-width:1.74801;stroke-linecap:butt;stroke-linejoin:miter;stroke-miterlimit:4;stroke-dasharray:none;stroke-dashoffset:0;stroke-opacity:1" width="1659.9126" height="794.398" x="-356.4728" y="-1029.6816" rx="144.4816" ry="124.6822"/>
    <text y="-935.8134" x="472.1945" style="font-style:normal;font-variant:normal;font-weight:normal;font-stretch:normal;font-size:42.6667px;line-height:125%;font-family:Carlito;-inkscape-font-specification:'Carlito, Normal';text-align:center;letter-spacing:0px;word-spacing:0px;writing-mode:lr-tb;text-anchor:middle;fill:#ffffff;fill-opacity:1;stroke:none;stroke-width:1.06667px;stroke-linecap:butt;stroke-linejoin:miter;stroke-opacity:1" xml:space="preserve"><tspan style="font-style:normal;font-variant:normal;font-weight:normal;font-stretch:normal;font-size:48px;line-height:125%;font-family:Carlito;-inkscape-font-specification:'Carlito, Normal';text-align:center;writing-mode:lr-tb;text-anchor:middle;fill:#ffffff;fill-opacity:1;stroke-width:1.06667px" y="-935.8134" x="472.1945" sodipodi:role="line">Single Playing Card from:</tspan><tspan style="font-style:normal;font-variant:normal;font-weight:normal;font-stretch:normal;font-size:48px;line-height:125%;font-family:Carlito;-inkscape-font-specification:'Carlito, Normal';text-align:center;writing-mode:lr-tb;text-anchor:middle;fill:#ffffff;fill-opacity:1;stroke-width:1.06667px" y="-875.8134" x="472.1945" sodipodi:role="line">Standard Edition - Color Set - Bordered </tspan><tspan style="font-style:normal;font-variant:normal;font-weight:normal;font-stretch:normal;font-size:48px;line-height:125%;font-family:Carlito;-inkscape-font-specification:'Carlito, Normal';text-align:center;writing-mode:lr-tb;text-anchor:middle;fill:#ffaaaa;fill-opacity:1;stroke-width:1.06667px" y="-762.48" x="472.1945" sodipodi:role="line">Copyright 2011, 2020 - Chris Aguilar - conjurenation@gmail.com</tspan><tspan style="font-style:normal;font-variant:normal;font-weight:normal;font-stretch:normal;font-size:48px;line-height:125%;font-family:Carlito;-inkscape-font-specification:'Carlito, Normal';text-align:center;writing-mode:lr-tb;text-anchor:middle;fill:#ffffff;fill-opacity:1;stroke-width:1.06667px" y="-649.1467" x="472.1945" sodipodi:role="line">https://totalnonsense.com/open-source-vector-playing-cards/</tspan><tspan style="font-style:normal;font-variant:normal;font-weight:normal;font-stretch:normal;font-size:48px;line-height:125%;font-family:Carlito;-inkscape-font-specification:'Carlito, Normal';text-align:center;writing-mode:lr-tb;text-anchor:middle;fill:#ffaaaa;fill-opacity:1;stroke-width:1.06667px" y="-535.8133" x="472.1945" sodipodi:role="line">Licensed under:</tspan><tspan style="font-style:normal;font-variant:normal;font-weight:normal;font-stretch:normal;font-size:48px;line-height:125%;font-family:Carlito;-inkscape-font-specification:'Carlito, Normal';text-align:center;writing-mode:lr-tb;text-anchor:middle;fill:#ffaaaa;fill-opacity:1;stroke-width:1.06667px" y="-475.8133" x="472.1945" sodipodi:role="line">LGPL 3.0</tspan><tspan style="font-style:normal;font-variant:normal;font-weight:normal;font-stretch:normal;font-size:48px;line-height:125%;font-family:Carlito;-inkscape-font-specification:'Carlito, Normal';text-align:center;writing-mode:lr-tb;text-anchor:middle;fill:#ffaaaa;fill-opacity:1;stroke-width:1.06667px" y="-415.8133" x="472.1945" sodipodi:role="line">https://www.gnu.org/licenses/lgpl-3.0.html</tspan><tspan style="font-style:normal;font-variant:normal;font-weight:normal;font-stretch:normal;font-size:48px;line-height:125%;font-family:Carlito;-inkscape-font-specification:'Carlito, Normal';text-align:center;writing-mode:lr-tb;text-anchor:middle;fill:#ffffff;fill-opacity:1;stroke-width:1.06667px" y="-302.4799" x="472.1945" sodipodi:role="line">Each Card Measures (63mm x 88mm)</tspan></text>
  </g>
</svg>
