<svg xmlns="http://www.w3.org/2000/svg" xmlns:sodipodi="http://sodipodi.sourceforge.net/DTD/sodipodi-0.dtd" xmlns:inkscape="http://www.inkscape.org/namespaces/inkscape" version="1.1" viewBox="0 0 261.12 355.2" height="355.2" width="261.12" sodipodi:docname="CLUB-13-KING.svg" inkscape:version="1.1-dev (60faa23, 2020-06-06)">
  <sodipodi:namedview pagecolor="#ffffff" bordercolor="#666666" borderopacity="1" objecttolerance="10" gridtolerance="10" guidetolerance="10" inkscape:pageopacity="0" inkscape:pageshadow="2" inkscape:window-width="774" inkscape:window-height="485" showgrid="false" inkscape:zoom=".283" inkscape:cx="-41.4412" inkscape:cy="31.1768" inkscape:window-x="0" inkscape:window-y="0" inkscape:window-maximized="0" inkscape:current-layer="svg8"/>
  <g transform="matrix(1.17499 0 0 1.1428 -4270.1781 1243.7962)">
    <rect ry="10.6299" rx="10.6299" style="display:inline;opacity:1;fill:#ffffff;fill-opacity:1;stroke:none;stroke-width:0.996734;stroke-miterlimit:4;stroke-dasharray:none;stroke-opacity:1" width="222.2322" height="310.8137" x="3634.2344" y="-1088.3695"/>
    <path style="display:inline;opacity:1" d="M3839.3284-827.3692c3.9098-.0884 5.6631-4.6739 2.7674-8.2347-.42-.5194-.4633-.8174.3059-.3185 1.9495 1.358 5.6877.4652 5.8791-3.6864.2365-5.1154-6.6252-6.5893-7.9135-1.1499-.068.574-.5158.5608-.4078-.2538.1175-2.211.7803-4.2775 1.6914-6.2927h-4.6478c.9111 2.0152 1.5739 4.0817 1.6914 6.2927.108.8146-.3398.8277-.4078.2538-1.2883-5.4394-8.15-3.9655-7.9135 1.1499.1914 4.1516 3.9296 5.0444 5.8791 3.6864.7692-.499.7259-.2009.3059.3185-2.8957 3.5608-1.1424 8.1463 2.7673 8.2347.0009 0 0 0 0 0zM3651.3735-1038.5561c-3.9098.088-5.663 4.6738-2.7674 8.2347.42.5194.4633.8174-.3058.3185-1.9496-1.358-5.6877-.4652-5.8792 3.6864-.2364 5.1154 6.6252 6.5893 7.9136 1.1499.068-.574.5157-.5609.4077.2538-.1174 2.211-.7803 4.2775-1.6914 6.2927h4.6479c-.9111-2.0152-1.574-4.0817-1.6914-6.2927-.1081-.8147.3397-.8278.4077-.2538 1.2884 5.4394 8.15 3.9655 7.9136-1.1499-.1915-4.1516-3.9296-5.0444-5.8792-3.6864-.7691.4989-.7258.2009-.3058-.3185 2.8956-3.5609 1.1424-8.1463-2.7673-8.2347z"/>
    <path style="opacity:1" d="M3652.1674-1045.3048h3.3049l-4.8549-12.146-3.7094 5.1307.026 7.0153h2.6048v3.618h-9.1799v-3.618h3.0245v-26.1206l-3.0245.012v-3.1625h9.3143v3.2695h-2.5703l-.055 12.7307 8.1304-12.8377h-2.8697v-3.1625h9.9096v3.1625h-2.6149l-6.6944 10.491 6.5548 15.623h2.9094l.015 3.618h-10.1899l-.031-3.6232zM3838.5316-820.6203h-3.3049l4.855 12.146 3.7093-5.1307-.026-7.0153h-2.6048v-3.618h9.18v3.618h-3.0246v26.1206l3.0246-.012v3.1624h-9.3144v-3.2695h2.5703l.055-12.7307-8.1305 12.8378h2.8697v3.1624h-9.9095v-3.1624h2.6148l6.6944-10.491-6.5548-15.623h-2.9094l-.015-3.618h10.1899l.031 3.6232zm0 0"/>
    <g style="display:inline">
      <g style="display:inline">
        <path transform="matrix(.15308 0 0 .15451 3060.0971 -1025.8378)" d="m4797.4688-237.3125-533.75 2.5938L4331.5-106.3125c138.7237-12.4766 260.2925-1.3815 386.9375 2.75zm-364.5313 451.4688c-.5561.7476-22.2055 6.3381-20 11.25 56.5244 120.9997 81.7691 219.4557 105.375 343.8125 11.9315-9.6832 31.2334-9.2934 31.2334-9.2934-9.5215-46.1804 48.7026-51.939 49.0826-3.6253 11.1766 2.592 22.6723 2.6308 32.7618 13.9192 4.534-135.8966 56.1777-280.1054 119.1624-377.5325-71.7792 28.4034-179.9606 102.7985-179.9606 102.7985s-87.6369-36.1905-137.6546-81.329zm436.2813 14.4687c-95.5282 90.6645-130.171 334.1889-126.0626 345.8125-123.135-4.1075-160.4547 131.6033-53.7187 204.7813-4.2182 14.1932-14.6423 25.7415-22.7187 38.2812 11.0078 6.3022 23.027 7.6483 35.0312 8.9688 9.1143 10.796 18.0729 23.2552 27.9688 24.2812 10.7378-6.7635 18.3692-16.6607 27.3124-25.2188 11.158-2.8377 22.2248-5.9788 32.8126-10.8125-9.3785-13.081-20.4956-26.308-20.7813-38.5625 92.8029-65.4041 80.0666-154.3456-3.5937-199.875 12.3783-156.2646 58.5767-246.8552 103.4687-313.5zm-657.9063 115.7188c-12.1357 5.9198-18.7564 18.4144-27.5625 28.2187-12.0898.55-23.7331 4.6794-35.25 9.8125 0 0 27.6823 38.225 25.9688 40.2813-89.7597 58.768-89.0264 144.6674-2.8438 201.25 14.6 122.2508-89.315 315.716-94.5625 310.0937l-.1875 40c73.9562-80.7996 116.1936-226.7451 120.4062-344.5938 147.6917-9.829 152.9237-152.4712 51.25-206.125-7.8163-7.165 25.5626-40.3125 25.5626-40.3125-8.4741-8.3412-22.649-9.2875-35.0626-10.3125-7.8315-9.3548-14.6596-18.6823-27.7187-28.3125zm730.0865 106.2657c9.3867 16.5784 35.148 29.9775 37.851-1.1408-4.3956-23.3774-19.7921-28.5593-80.875-18.375-35.9959 15.991-31.7989-26.079-49.5062-9.5963-57.4174 53.4468 91.344 47.5929 92.5302 29.112zm-34.5789 60.2124c-17.1255-.0156-20.0384 66.9244-19.7889 87.0218-49.584 78.2762 101.7143 69.378 36.2836-15.8944 2.8487-8.793-7.3989-25.4222-8.0483-37.3438-5.3616-.6821-7.7163-30.9066-8.4464-33.7836zM4021.25 611.7812c-1.569 20.2468 13.2753 81.6909 18.7848 79.6074 19.3882-31.2121 17.0826-57.9094 15.078-88.3921 46.1814-88.8266-111.5394-52.3694-33.8628 8.7848zm287.875 14.2813c-6.8906 130.7433-38.9346 259.0222-111.5421 370.2652 62.5005-29.1214 123.1573-66.695 181.8546-98.859l137.1657 84.876c7.944-3.4465 13.4442-5.1426 18.7093-10.3447-63.21-92.4206-82.7732-225.4444-110.3125-345.7812-10.48 7.426-30.1875 11.1562-30.1875 11.1562-1.4086 41.7388-45.2022 55.266-54.1467.8297zm-331.0625 102c-14.6312.9262-25.6336 37.137 15.8125 42.5 29.2486 4.1354 66.7028-10.2598 85.2812-3.5938 21.6011 34.445 40.993-16.259 12.125-24.5312-31.0111-8.8863-94.1697 14.2952-101.1562-5.4063-3.5911-6.727-7.9658-9.228-12.0625-8.9687zm248.7813 566.3125-82.75 146.125 529.0624-3.1875L4604 1297.9375c1.1823-1.5461-231.0696 27.6061-377.1562-3.5625z" style="fill:#ffcd00;fill-opacity:1"/>
        <path style="fill:#c8102e;fill-opacity:1;stroke-width:0.164046" d="M2045.1582-254.7754c-8.8598.0711-18.0367.9902-27.7187 3.1113l1.7128 3.1348c20.234-3.365 36.168-3.8902 57.1016.1914l1.9102-3.2637c-10.7477-1.9546-21.6147-3.2653-33.0059-3.1738zm-6.6191 45.6777s-1.337 3.0268-2.0137 4.6387l17.6582 11.5293s8.4563-6.0307 12.0605-8.582l-2.1875-3.2442c-7.4677 16.6148-20.5957 3.4759-25.5175-4.3418zm52.2421 1.1778-5.248 3.1953c-12.0872 18.1425-20.3446 40.9916-19.6855 70.873 4.4662-5.1565 10.0122-8.4667 17.7207-8.0039.9796-21.6066 8.4033-40.8196 20.2929-58.1289zm-1.3261 6.5508c.7815-.0538 1.6627.1676 2.5273.75 1.998 1.3456 1.9099 4.6019-.2734 5.205-1.7633.4872-1.8088.953-.2598.877 2.7792-.1365 3.5186 3.6056 1.541 5.4355-2.2735 2.1038-5.1728.6131-5.4375-2.0253-.1213-.746-.2772-.735-.5215-.3125-.7015 1.2173-.7654 2.7995-.6289 4.2324l-4.1074-2.5703c1.4619-.7303 2.3534-1.1715 3.4102-2.2793.138-.1445.2415-.2514.2402-.3145 0-.1126-.4562.039-1.293.127-2.4806.2609-4.3896-1.362-3.8808-3.7188.4329-2.0052 1.4621-2.8793 3.1816-2.918 1.2236-.0262 1.9006.45 2.5157 1.707.6943 1.4193.9601 1.069.5136-.7011-.484-1.9188.7533-3.3757 2.4727-3.4941zm-121.6465 17.0293s-8.855 6.6932-12.9688 9.9257l.1993 59.5782c1.2363-.4516 3.0615-2.0576 4.1211-2.6407-2.4622-2.1955-1.8267-3.8825-2.3145-5.5039-1.1053-1.714-.094-2.9894-.2773-4.0644-.27-7.5999 1.1004-8.6008 7.2031-9.2871-1.2865.4688-4.5391-9.5132 4.2558-9.463zm111.709 3.3222c3.3132-.0486 6.0378 2.6206 6.0859 5.9649.048 3.3442-2.5989 6.094-5.9121 6.1425-3.3132.0486-6.0398-2.6225-6.0879-5.9667-.048-3.3443 2.6009-6.0921 5.9141-6.1407zm.055 1.082c-2.6529.039-4.769 2.2384-4.7305 4.916.038 2.6778 2.2182 4.8202 4.8711 4.7813 2.6528-.0389 4.7749-2.2442 4.7363-4.9219-.039-2.6776-2.2241-4.8142-4.8769-4.7753zm.125 1.5372c1.7989-.0264 3.2805 1.4225 3.3066 3.2382.026 1.8158-1.414 3.3135-3.2129 3.3399-1.7989.0264-3.2746-1.4284-3.3008-3.2441-.026-1.8158 1.4081-3.3077 3.2071-3.334zm-119.0957 2.4882c.244-.004.5023.0327.7656.1172 1.4951.4796 2.0188 1.809 1.209 3.0684-.6361.9892-.5646 1.0738.5488.6562.8757-.3284 1.3232-.225 2.0137.4649 2.0703 2.0684-1.0126 5.5461-3.0391 3.4394-1.0037-1.0433-1.0983-.736-.4023 1.0567.2252.5802.5976 1.4824.5976 1.4824l-2.9707-.0449s.4607-1.1945.6738-1.7578c.5141-1.3588.531-1.5577-.541-.7031-2.4173 1.9272-5.1577-1.3711-2.9336-3.5274.4524-.4385 1.1778-.4572 2.1875-.0566.7357.2918.8261.0894.2735-.6113-1.2022-1.5242-.091-3.5535 1.6172-3.584zm119.1699.0586a.8478.8478 89.7528 0 0-.8477.8477.8478.8478 89.7528 0 0 .8477.8477.8478.8478 89.7528 0 0 .8476-.8477.8478.8478 89.7528 0 0-.8476-.8477zm-57.7832 4.5313c-1.2081 7.9842.034 19.9385.01 25.9258 3.2212.6195 3.2571 2.833 3.7519 5.586 1.5658-.551 4.9903 1.7834 5.459 1.578.37-7.7234-3.8699-28.5908-9.2187-33.0898zm53.6367 8.752c4.573.37 3.6961 3.9339 2.334 5.3984-.6451.7512-.5251 1.0884.1836.6562 1.9314-1.1777 3.4634-.3256 4.0859 1.7032 1.0635 3.4658-3.4501 6.4508-5.4629 3.3398-.6819-1.054-1.0987-.8158-.9316.2871.1028 1.063 1.1308 3.2656 1.1308 3.2656l-4.4863-.4062s1.3706-2.3022 1.6113-2.9219c.4997-1.2861.2359-1.6285-.7226-.5918-2.806 2.5917-6.6946-.7261-4.8828-4.1621.8932-1.694 2.5409-2.2419 4.3203-.8926 1.1987.7902 1.4567.4464.3848-.5117-2.0035-1.7906-.257-5.382 2.4355-5.164zm46.5234 1.4394c-5.03 5.246-3.4512 2.1458-1.1191 6.1445 1.2534 6.8734-.2994 6.9808-.1055 10.2598.3868 4.408-3.7113 5.1365-7.3437 5.871.588-.039 5.6193 9.3458-3.7696 10.0802l.1075 38.1484 14.7207-10.955-.062-59.549zm-161.1777 1.3867c.3843.007.7878.1157 1.1895.3438 1.1148.6328 1.4197 1.8811.7207 2.9668-.402.6247-.2838 1.0175.1836.6093.6257-.5465 2.0062-.1816 2.5449.67 1.3837 2.1871-1.3187 5.0476-3.0449 3.2265-.762-.8038-1.0552-.8365-.9668-.3086.2482.9908.8945 2.6817.8945 2.6817l-3.1074.0547s.6713-1.7776.8203-2.6797c.1144-.7137-.1681-.609-.9082.2344-.7198.8201-1.3733.9049-2.291.291-2.2647-1.515-.4516-5.4046 1.9101-4.0977.8136.4502.9269.1902.291-.6582-1.1356-1.5151.024-3.2524 1.6114-3.33.051-.002.1003-.005.1523-.004zm50.7051 18.7559c-3.715 2.97-9.754 9.656-17.4102 8.0254-.8922 23.8019-8.6309 42.2284-19.6699 58.0644 3.8113 2.2745 8.0064 5.0041 11.9043 6.754 3.2956-1.7159 5.1447-2.431 8.3789-5.1173 13.2711-20.6922 17.4797-43.312 16.7969-67.7265zm34.6543 4.3535c.745 12.224 2.7156 23.7989 9.0156 33.086l.4277-25.9786c-2.245-.5426-4.0851-2.0066-4.7402-6.1601zm-45.5293 7.211 4.209.0995s-.9538 1.9204-1.3672 2.9942c-.5022 1.3122-.2645 1.58.6953.668 1.2493-1.1872 3.2413-1.2977 4.2891-.2383 2.782 2.813-.1274 7.3977-3.418 5.3867-1.4088-.861-1.6453-.5722-.5274.6465 2.1746 2.0366-.095 4.9696-2.6367 4.9824-1.8376-.008-3.0294-1.4896-3.1738-3.123-.071-1.0277.4406-2.0594 1.3242-2.5606.9213-.5226.2626-.8619-.7383-.3184-3.2677 1.7745-5.454-2.7836-2.9882-5.377 1.4217-1.4953 2.9257-1.357 4.371.0704 1.0092.9966 1.3708.9092 1.086-.2696-.2868-1.3268-1.125-2.9609-1.125-2.9609zm113.6347 3.5761 3.0157.004c-.2967.7533-.6792 1.521-.92 2.2656-.2592.811-.07.9153.7286.1309 2.079-1.4089 4.2965.0007 3.8457 2.2324-.3111 1.5398-1.5889 2.2957-3.0645 1.627-1.301-.5896-.8824-.3378-.1426.5605.8801 1.0687.6558 2.315-.5078 3.1406-2.0584 1.4605-4.7758-.9661-3.414-3.084.8028-1.2593.4342-1.1227-.2969-.5136-1.0974.8102-2.7565-.3357-2.7891-1.9258-.1266-2.2873 2.1625-3.5756 3.7754-1.957.7681.6527.9583.5744.6113-.375-.3178-.6897-.4195-1.4296-.8418-2.1055zm3.3223 16.5996s-.044.2446-.5312 1.168c-.5723 1.0852-.4843 2.2072.1132 1.4453 1.0083-1.2858 3.1497-.9271 3.8516.6445.8178 1.8311-.7771 3.853-2.4316 3.084-1.0754-.4998-1.1483-.392-.4336.6504.6952 1.0141.3876 2.2603-.7422 2.9883-2.2199 1.4302-4.8826-1.4246-3.0332-3.252.4951-.4892.3406-.7278-.2598-.3984-2.4508 1.3444-4.2598-1.9977-2.1406-3.955.9023-.8335 1.5925-.7751 3.0762.2597.4617.322.5515-.0106.2187-.8281-.567-1.393-.8496-1.7696-.8496-1.7696zm-120.5078 2.0371c3.5182-.0516 6.4079 2.7828 6.459 6.334.051 3.5512-2.7552 6.4738-6.2735 6.5254-3.5182.0516-6.4137-2.7867-6.4648-6.3379-.051-3.5512 2.7611-6.47 6.2793-6.5215zm.072 1.1485c-2.8903.0424-5.2002 2.4381-5.1582 5.3554.042 2.9173 2.4203 5.2494 5.3105 5.207 2.8902-.0423 5.2002-2.444 5.1582-5.3613-.042-2.9173-2.4203-5.2435-5.3105-5.2011zm.061 2.0293c1.7792-.0261 3.2398 1.4052 3.2656 3.2011.026 1.796-1.3926 3.2767-3.1718 3.3028-1.7793.026-3.2457-1.4112-3.2715-3.207-.026-1.796 1.3985-3.2709 3.1777-3.297zm.041 2.5273a.8478.8478 0 0 0-.8476.8477.8478.8478 0 0 0 .8476.8476.8478.8478 0 0 0 .8477-.8476.8478.8478 0 0 0-.8477-.8477zm-8.0488 13.0508 3.6777 1.8144s-1.7395 1.4282-2.4316 2.164c-.8846.948-.8234 1.393.3711.9395 2.2777-.8647 4.5588.4302 4.6016 2.8165.057 3.1845-3.6749 4.716-5.4668 2.3046-.5328-.7169-1.1692-1.0133-.92-.4277.6066 1.4253.2362 3.2194-.8203 3.957-.8457.5906-2.3933.764-3.1738.3555-2.6845-1.4046-2.8253-4.5264-.2578-5.7598 1.2907-.62 1.334-1.2021.064-.8828-2.6436.665-4.184-2.5628-2.2773-4.7812 2.0237-2.3546 5.3227-1.8687 5.6875 1.6152.065.6198.483.172.6699-.7773.2246-.7055.2754-3.338.2754-3.338zm34.2793 5.2383-13.0566 8.0605 2.9843 4.1738c6.6813-15.2804 22.683-2.6258 25.2461 5.1758.556.3457.6496.248 1.2539.5215.057-.5506 1.168-5.9707 1.168-5.9707zm34.5273 56.1816c-22.0474 5.6765-56.9429.6405-56.6015.2402l-2.1699 3.1192c-.7494.3215 33.5728 6.1878 60.6445.2285z" transform="matrix(.9375 0 0 .9375 1833.0748 -804.1692)"/>
        <path style="fill:#004c97;fill-opacity:1;stroke-width:0.164046" d="M1952.6953-277.7266V2.9727h174.1524v-280.6993Zm139.6524 1.8301-16.1622 27.9258c.1548-1.4721-31.4202-5.984-57.2265-.4785l-14.0488-27.1074zm31.1503.457.5118 113.9961 1.0703 59.752-15.1074 11.1055-.2207-38.2774s-2.1639-1.0428-2.7305-1.1133c-.2129-.0166-.4884.4633-.1035.711.5551.357 1.9218.8574 1.9218.8574l.3204 37.9375c-12.288 8.9009-27.6395 15.1018-39.3184 20.0059-.9564-3.1856-10.4029-10.6276-21.0234-5.3672-.972.3637-2.1744.679-2.9864 1.248-4.0466.746-5.3798 5.1134-5.9922 9.3594-.021.1671.3203.13.3321.1465.044.061.963-4.075 1.3281-4.8574.7797-1.6713 1.7626-2.6724 2.2832-2.8301.2373-.0406.4452.3333.123.9218-.6396 1.1698-1.161 3.6558-1.3164 4.7774-.1388 1.035-.1655 1.8666.025 1.9023.034.0328.9398-3.134 1.3477-4.252 1.0632-2.9138 1.7336-4.1206 2.7578-4.7421 1.0503-.6374 1.299-.5466 1.0918.1309-1.5629 3.0758-2.2075 5.4016-2.5137 8.6777-.047.6532.2821.672.541-.4102.8561-3.4393 2.0304-8.0917 4.8067-9.4804 1.1847-.5405 1.711-.5148 1.584-.129-3.3057 4.214-4.1328 8.8937-4.0938 10.4044.013.504.2147.4057.6387-.6856 1.1196-4.1533 2.7802-7.687 4.75-9.42.7622-.6705 1.6841-.8543 2.457-.951 2.3345-.2924 2.4147.5792.3828 1.7734-2.3143 1.3601-4.9919 6.3095-5.289 10.0253-.1029 1.286.3473 1.4257.666-.289 1.3727-7.386 7.6472-12.2676 12.6758-10.0059 2.2624 1.0176 2.6725 2.4316.7031 1.8028-3.9868-1.273-8.4131 1.5779-10.2383 5.5566-1.6501 3.597-1.6155 5.4856-.4551 10.3027.7912 4.4494 2.3331 10.1346 1.8243 14.4922-.5482.8472-2.2798-.3476-4.3243-.6015-1.2332-.233-2.7397-.2923-4.0273.205-1.1225.4336-1.7589.543-1.9668-.0664-.067-.1966.8658-1.157 1.2812-1.6875.2894-.3695.4356-.7949.4356-.7949s-.5598.2128-1.0879.7324c-.4582.4508-1.443 1.5055-1.7129 1.5606-.5912.1207-.6139-.5517-.1367-2.2637 1.6741-6.6472 1.2249-6.759-1.6465-8.1055-2.8453-1.0937-1.9449-1.6465-3.2051-2.7343-.888.7002 1.1596 3.913 3.4766 4.6152 1.8953.5743 1.6639 1.5525.834 4.1836-.8419 3.6825-2.2784 8.5576-1.4473 11.8281 1.7461 6.8713 8.6588 6.7304 13.9531 3.9531l.6446 1.752c-4.476 1.8292-28.0668 3.3929-36.0176 2.4707-.6144-2.1685-.6769-2.7266-.9258-5.2793 0 0 4.9115 2.2387 7.3633 2.627 3.0607.4846 7.7754.507 8.9824-2.338.3696-.8338-.01-1.5379-1.0664-1.0546-1.9415.8881-5.2606 1.544-7.9414 1.377-2.2505-.1403-5.4572-1.0517-6.8438-1.8946-.659-.4006-1.2155-1.184-.6992-2.168.4575-.1024 1.0581.4073 1.4141.5918 4.0606 2.068 6.3412 2.6277 8.9375 1.6778 1.7237-.6307 3.658-1.4986 4.0469-3.4102-1.5022.7625-2.8873 2.1247-4.4825 2.5625-3.1897.8755-6.6011-.4555-9.9199-2.625-1.0243-.897-.5571-1.551.6973-.834 4.9713 2.5257 7.0459 4.201 11.8027.6563 1.0627-.7952 1.6551-.6925 2.2793-.211 2.4699 2.2327 2.4616.9777.6524-1.3418-.4111-.527-.7831-1.2632-1.0293-2.0488-.182-.5807-.2233-1.1629-.5528-1.545-.5611-.6507-1.5717-.9657-2.7265-1.4784-1.0652-.473-1.8301-.332-1.8301-.332s.3953.334.8398.5527c2.155 1.06 3.2039 2.1966.5274 1.584-2.4291-1.0966-6.4848-.4824-8.7793 1.125-1.8016.8865-2.5943 1.8356-3.0196-.17-.8903-4.186-.023-9.865-1.2167-17.1699-.2277-1.3926-.5075-2.2763-.2188-2.4668.3706-.2445 1.2966.6584 2.4434 2.2832.5225.7405 1.5601 2.1656 1.5547 1.8692.039-1.547-2.3451-4.45-4.3126-5.5938-1.0802-.6283-1.8147-3.5337-.5781-2.8945.9545.469 5.9215 4.8765 6.8672 6.4472.4393.7297.8105.2643.3457-.5937-.2789-.5149-1.4461-2.027-2.5801-3.1445-2.012-1.983-2.2457-1.8906-1.8593-2.297.7644-.804 2.3997.2326 5.3164 2.8966.7483.9532 1.7388 1.8133 1.6172 1.3398.2983-.742-2.6213-3.9108-4.3536-4.7598-.3239-.2046-.368-.4206-.3378-.8144.164-1.4966 3.5167.7016 6.2988 3.2676 1.042.961.1775-.8475-1.0293-2.0762-.9486-.9657-2.4787-2.1661-3.5156-2.5781-1.0301-.4288-1.0931-1.3343-.2852-1.7149 2.7888-.1188 5.6667 2.7564 7.3828 5.0176.4737.6211.9088 1.0995.416-.0762-1.5894-3.5404-4.8956-5.535-7.1855-5.9394-1.8602-.3285-1.8187-2.0218-.07-1.8301 1.9231.211 5.0708 1.9625 7.7402 4.6738.7766.7888 2.0837 2.5782 1.8145 1.5274-.01-.2862-.8253-1.406-1.7715-2.4864-2.1838-2.1889-4.7223-4.1248-7.4141-4.7011-1.2583-.3592-4.9932.3686-5.0156-.2852-.01-.4826.3905-.7724 1.5801-1.1719 4.6165-1.5504 11.3721 2.4532 15.0683 8.6075.2646.4404.7664.6284.7969.5293-1.7838-5.0293-7.3282-9.59-11.7383-10.3711-2.9995-.4856-6.0231.288-7.4609 2.328-1.6179 2.2957-.9861 5.3653 1.4433 5.1192 1.2749-.1189 1.1741-.8474 1.1504-.871-.087-.0866-.827.2645-1.2851.1738-1.6614-.3292-1.4887-3.3617.9433-3.0625 2.7967.344 3.1919 4.7945.066 5.7304-2.8844.864-3.9413-.4656-4.7304-2.043-1.1558-2.3102.085-6.0347 2.123-7.4628 5.7032-3.9973 12.9162-.6476 16.9922 3.3164 2.0166 1.9611 3.4885 4.2926 4.4141 6.8066.2377.5844.7468.5248.5136-.0761-5.7378-14.7882-22.8725-16.5124-25.3789-5.0313-4.1476-6.5628-7.779-7.0205-13.3359-4.1562-5.6681 2.3665-8.4564 4.2957-13.6992 6.7773l-11.8887-6.4434c-.7007-11.9207-.3014-23.8768-.2539-35.8125.034-.2784-2.5754.189-6.9219.877-11.5578 2.3285-10.5661-3.9237-12.0762-4.2383-.8073-.1631-.7488.1863-.9687-21.8164-.064-6.3906-.1881-17.6248-.2813-24.9668-.093-7.342-.1172-13.4586-.053-13.5879.065-.1293.7129-.6915 1.461-1.2265 2.8161-2.0144 4.3994-3.2346 10.5625-7.9805 1.3956-1.0748 1.746-1.2559 1.746-1.2559.7075 13.2195.074 27.1025.4219 38.4668l.5196.002-.2012-38.1601c-1.0631-.2814 24.3011-15.263 38.2012-20.123.2605-.0912.9101.201.9101.201 7.9778 9.8684 28.9702 6.8815 30.6621-5.1327 3.478 7.3237 18.7564 21.5542 25.7383 4.4004 0 0 2.5301 4.9288 4.7012 5.2539 4.8792.6537 5.4207-.1236 16.1601-5.3809-12.2791 18.8032-19.0492 38.7117-19.916 62.8223-1.6792-2.4447-5.2083-2.3388-5.5039-2.1582.023-2.2974-.3864-5.4142-3.8223-5.748-3.4909-.2668-5.2837 4.3819-3.9589 6.3495-2.1547-.9027-5.3868 1.3597-5.3868 1.5723-.2751.009-2.7434 6.5964 4.7286 6.9355.6801 3.1093 1.844 4.6134 4.2324 5.8926l.059 25.377.8437 1.1523.074-26.5957c3.824-.1709 4.2973-4.5871 4.0137-5.6055 1.6985.0747 3.2399-.2694 4.5391-1.2695l.4472 4.334s.8969-1.5285.6993-2.3398c-1.6639-24.9239 7.2693-51.8864 18.996-69.3633.627-.7336.8184-1.6088 1.129-1.6153 2.8597-1.555 4.666-2.6015 4.666-2.6015 4.716 2.2873 13.1367 7.8066 13.1367 7.8066l.1367 35.5156c-.1307-.3493 15.6906-1.781 15.4531-1.3496 0 0-1.385-.548-1.4062-1.4824l-.4121-83.1074-6.9219-4.5645s-5.6915 3.7545-7.2832 5.0371l.1738 48.9278-12.2597-7.248s.1949-1.7314.2128-2.293c.5197-5.6543-3.4209-8.8835-9.6269-6.9356-.8286.2655-1.4057.4982-1.8105.1563-2.6033-7.6814-3.773-27.8674-3.7696-27.8672l17.4492-29.836zm-168.3418.5352h47.5489l16.0332 28.9746s.9413 1.8111.3789 3.705c-.6138 2.0669-1.1411 2.9841-1.6934 4.0391.055-.6018-4.6197-1.1983-4.2285 2.8418.2648 2.7347 3.693 4.28 6.2461 2.1524.4081-.0344.4056.348.3164 1.0156-.2357 1.5668-1.8831 6.5393-3.0137 6.8692-5.7557-4.7637-7.8104 3.9354-3.9296 5.6699 2.2465 1.004 5.7015.1753 7.3164-2.5508 1.2352-2.0854 1.0989-1.7418 1.4882.789.1448.9412.3497 2.033.4551 2.5235.3296 1.5339-.0006 1.8313-2.5586 2.5273-2.0583.8093-4.1448 1.2553-6.2676 1.7188-3.8794.6421-5.8623 3.5968-5.9589 7.1914-.021.777.01 1.1363-.1582 1.3672-16.4131 6.2875-33.6795 15.0857-51.9747 30.1094zm156.3965 21.502s3.3688 2.2459 4.9942 3.3691l.023 3.6094-4.8691-3.209zm-1.7695.541c1.0448 3.3211 1.0364 10.442.6445 13.6132-.6547 2.0653-.9458 11.2567-.2031 15.9336.5921 3.7283.4822 9.8945-.076 12.8457-.2182 1.1531-.049 6.5573.3614 11.5567.3136 3.8209.2228 7.295-.2344 9.2832-.3603 1.5668-.235 7.1803.1758 9.334.6043 3.1684.7082 13.3474.4375 13.9004-.7185.8211-6.3397.9363-5.9629.6562l-.1602-83.7676s3.3454-2.244 5.0176-3.3554zm-61.0918 4.4648c4.7239-.0286 7.9271.1146 7.8965.166.4522 1.824.626 3.6486.8027 5.4727 0 0-4.2935-2.1265-6.5332-2.834-3.4503-1.0674-8.9047.1047-9.8711 2.1035-.5479 1.1334-.2616 1.889 2.0567.629 3.7941-2.0622 11.5424-.4912 14.2734 1.6952.6292.5038.5973.6144.6094 1.2051.018.9006.071.9517-1.1719.2813-6.5119-3.3604-12.0763-2.9703-13.9961 1.4414-.4421-.1348-2.1308-.4278-2.1308-.4278l1.8144 2.707.3438 2.8321c1.8023.9362 2.3461 1.2354 5.3925 2.666 0 0-1.0097-.977-2.0879-1.7344-1.4485-1.0174-.2953-1.3445.6602-.955 1.9656.455 4.8382 1.0336 8.1641-1.0977 1.033-.662 3.3984-.0888 3.4355.211 0 0 .3144 2.478.627 7.6464.1478 2.445.4458 5.6381.6152 6.9492.5118 3.961.6588 4.1864-1.4063 2.2872-.6928-.6373-1.8459-1.6939-1.8593-1.6309-.2619 1.2283 2.7828 3.3846 3.4922 4.125 1.0765 1.1236 1.9408 4.0013 1.5097 4.1719-.273.108-3.1673-2.3697-5.4453-4.5977-.8534-.8346-2.1238-1.9542-2.1601-1.916-.471.3167 1.4429 2.4958 3.2343 4.125 2.0905 1.9012 2.3317 2.0728 1.6289 2.3594-1.2975.529-2.4649-.1289-5.6152-2.7578-.3067-.256-1.4999-1.1103-1.5566-1.0489-.2873.387 2.6191 3.1635 3.2793 3.4024 1.2259.4436 1.5782 1.6382.6113 2.1074-.6454.3131-3.0504-1.017-4.9785-2.7031-.3455-.3022-1.3036-.8151-1.3672-.7461-.3825.248 1.7734 2.1289 3.8301 3.3789 2.0135 1.2238 2.3354 1.5253 1.8222 2.543-.4781 1.0478-4.8966-1.378-7.1074-3.877-.4704-.5317-.8437-.7614-.75-.582.9627 2.6935 4.1313 4.624 6.4883 5.3925.4207.1391 1.0319.311 1.3066.5313.6712.5382.5217 1.0986-.205 1.414-2.5135.7119-6.4772-2.3612-9.3126-5.58-.3278-.1372-.1331.2845-.047.4238 2.3648 3.8094 6.8939 6.707 9.6211 6.166 1.5945-.3163 2.8761.1691 2.8886.709.01.4425-.8691 1.1462-2.5839 1.2695-3.8795.279-9.9409-4.0036-13.4864-9.459-.1105-.17-.2414-.234-.25-.1308-.096 1.1564 2.1079 3.993 3.7989 5.6152 5.0237 4.8199 9.7739 6.4496 13.4785 3.7344 2.0885-1.6339 4.1077-5.2067.9961-6.4004-1.6478-.6321-2.6906 1.6573-1.2813 1.004 1.8517-.225 2.2722.7674 2.0313 1.6991-.4716 1.6-2.0434 1.8543-3.3203 1.1817-2.2228-1.215-1.7505-5.3799 1.1269-6.1074 2.5929-.632 4.8557 1.5868 5.1523 3.6914.4617 3.269-3.1909 6.8056-6.121 7.6855-9.9949 3.0015-17.8026-11.0149-17.8477-11.332-.5015-.9739-1.104-1.4908-1.4844-.3555-.4092 1.6441-2.6643 6.4666-3.8711 6.4375.3756-1.7009 1.9561-4.56 1.5723-7.0644-.6672 2.0567-2.0728 6.444-4.7637 8.7812-.6973.6411-2.7448 1.398-1.3359-.252 1.7009-2.4135 3.9276-5.7135 3.4668-8.8124-.4515.6963-.6988 2.459-1.2149 3.623-1.2919 2.9146-4.1149 6.3735-5.9785 6.9336-1.3761.4136-1.2468-.0552.1621-1.5527 1.5105-1.6055 4.1844-6.3193 4.0078-8.3516-.076-.8975-2.7743 7.762-7.8457 10.1328-1.3694.5054-2.1464-.1308-2.1464-.1308 1.9936-1.1585 7.5004-6.6384 6.9804-12.8633 0 0-.295.9223-.7285 2.3047-1.867 5.9413-5.8776 9.8484-9.0039 10.1718-2.4958.2583-4.2382-.7581-3.6191-1.207 3.2359.024 5.895-1.1056 7.9726-4.289 2.1116-3.2356 2.8987-8.4352 1.6192-13.9376-1.154-4.9622-1.4078-9.4233-1.8106-14.1933 3.5453 1.2222 7.1123 2.0354 10.5645.6738-.3463 1.4214-.9241 1.5962-1.834 2.67-.2335.2755-.3028.5449-.3027.5449 1.2783-.4232 3.7949-2.3008 3.7949-2.3008s-.3122 1.7647-1.0625 4.6816c-1.122 4.3617-.8315 4.6748 3.3203 6.3184.7746.3066 1.0647.607 1.3359.9336.1269.1528.8085 1.39.8731 1.4336.1516.1022.1115-1.2624.027-1.6075-.2228-.9163-.7134-1.6038-1.1426-1.875-.8148-.7575-1.9902-.8254-2.7441-1.1738-1.1233-.5263-1.5508-.5149-1.3359-1.752.1414-.8143 1.291-6.2957 1.8378-8.414 1.6377-6.3435.099-9.8594-4.539-11.2774-3.1434-.961-5.8501-.473-9.0528 1.2461l-.5761-1.7949c8.3915-2.2157 20.4882-2.7394 28.3613-2.787zm63.2656.0625 4.5332 3.0957.047 3.9258-4.5664-3.0586zm-54.0215.164 2.0059.2286s.7534 2.904 1.5645 10.752c.402 3.8904.8211 11.979 1.1562 15.6972.5065 5.5247 2.9797 14.3578 4.5117 16.5879 2.4985 3.6368 7.5215 1.2852 5.8418-3.0332-.8715-2.2405-4.2454-1.8777-3.7773.4473.01.4146.3187-.2974.8125-.7344 1.4583-.5575 3.1004.9756 2.2441 2.8203-1.0633 2.3552-4.2102 1.2791-5.2539-1.6894-1.2467-3.5462 2.9554-6.2038 6.0977-4.041 3.5004 2.4092 3.5067 8.5156.6875 10.4433-4.7446 1.7466-7.9707-1.7426-9.5196-5.3067-.6216-1.0147-2.609-6.3434-3.1543-8.5663-1.4246-10.7783-1.6947-23.5726-3.2168-33.6055zm3.3184.5997 2.084.1308c.8303 4.362 1.1908 9.3198 1.5215 14.291.1057 7.6653 1.0429 15.75 2.8261 21.0489l-1.5312 1.621c-2.6085-6.072-2.8146-15.6497-3.3965-22.1327-.2549-7.2915-1.4442-14.9122-1.5039-14.959zm3.0078.289 1.8301.1993c.5567 5.1789 1.4115 8.6931 1.7363 14.3984.4202 7.3791 1.6869 13.4394 2.4746 19.2031l-1.3711.459c-.9177.4267-2.4381-6.3844-3.1152-20.1914-.2049-4.1786-.9068-8.8779-1.5547-14.0684zm2.7695.1934 2.1856.3965c.9665 13.1095 2.4925 25.4215 4.0918 32.4766l-1.9004.3906c-2.3571-10.083-2.5092-22.0146-4.377-33.2637zm3.1563.4649 2.0098.3515c2.4162 29.9803 3.9069 29.593 4.373 30.7715l-2.1738.8906c-2.3503-8.6152-2.8258-20.7607-4.209-32.0136zm2.877.5566 2.3964.246c-.078.0533 1.6996 24.5838 3.8457 28.6446-.3433 1.0099-1.1581.9158-2.0468 1.0196-.9951-2.7553-1.575-6.0384-1.9922-9.254-.9164-7.0632-1.2482-13.6858-2.2031-20.6562zm-45.3106 2.539c3.1583.154 5.7789 1.5857 6.0313 3.6797.057.471-.3127.241-.7403-.0898-2.7162-2.101-5.8086-2.7557-9.541-1.4003-.8133.2953-1.4783.7615-1.8418.6972-.3265-.2105-.4274-.7213-.1777-1.1426.8705-1.4686 4.7066-1.8203 6.2695-1.7441zm84.2598.5313 4.5625 3.1445-.029 3.4024-4.8574-3.2754zm-91.8594.9727s.2703 1.8741.2773 2.7011c.068 3.302-.7288 5.1218-2.4453 5.8848-2.0716.9209-4.7283-1.0498-3.4375-3.2559.976-1.6679 2.653-1.1664 2.9727.586zm6.5254 1.0664c.2223-.007.4442-.006.666.004a9.3952 9.3952 0 0 1 3.0625.6582c2.3931.9565 3.2727 2.125 3.3613 2.6445-.1382.3871-.3776.1238-2.125-.8281-2.6909-1.6658-6.1995-1.9389-9.2812.1758-.7681.1532-.8461-.2859-.076-1.1211 1.2842-1.0151 2.8361-1.4831 4.3926-1.5332zm21.9023.0254c2.1055-.0671 4.6223.4723 6.7481 1.5488.9401.476 1.7837.7731 2.3965 1.3203.49.2579.5286 1.3802.1699 1.4649-.3203.0454-.8448-.2073-1.6289-.7598-5.0514-3.3106-8.6865-2.9032-11.6074-.8652-.162.1125-.6629.2299-.8614.2148-.5568-.0424-.586-.2736-.3535-.5781 1.3518-1.5419 3.3728-2.2846 5.1367-2.3457zm63.1231 2.3828 4.8672 3.4336v3.375l-5.1758-3.6309zm-87.8672 1.371.7109.0216c1.6568 4.052 3.7343 1.9623 4.5977.3398l.8652.1426c-1.3548 5.4274-6.8684 2.5875-6.1738-.5039zm27.3887.295.5703.1836c-.1501 2.3137-4.01 4.7797-5.8418-.0391l.7656-.0566c2.0984 3.2226 3.3097 1.3155 4.5059-.088zm-28.5977.246c.8045.0977.776 1.015 1.0273 1.6837.5631 1.4943-1.5723.2311-1.9374-.1328-.6197-.6582.2613-1.4832.9101-1.5508zm30.5449.2052c.2249.004.6755.1668 1.0899.336 1.1477.4683 1.0875.8121-.1836 1.3827-2.0329.9125-2.7395 1.0312-2.1309-.2578.3504-.5896.5821-1.3724 1.2246-1.461zm-8.2031.4218c.071-.0108.1494.0102.2305.0703.5115.3795.8472.7996.9062 1.4825.042.4813-1.5458-.073-1.5429-.8399.038-.3656.1935-.6804.4062-.7129zm-13.834.254c1.0429.3899.9178.8909.1914 1.3457-1.3046.7339-1.863.5894-1.0195-.5645.3891-.5323.4732-.7702.8281-.7812zm80.2422 1.6992 5.2715 3.7402-.047 3.4336-5.2676-3.625c-.245-1.4713-.013-2.4592.043-3.5488zm-.1426 4.6816 5.2676 3.879.023 3.412-5.2246-3.627c-.2063-1.5203-.116-2.605-.066-3.664zm-69.4922.4277c-.8043.0457-.6786.5971.4727 1.0313 1.6163.6095 1.7789 2.3422.3555 3.123-1.671 1.139-4.4084-1.7539-6.4161-1.5097-.9592.2894-1.5738 1.196-1.0253 2.3027.428.7761 1.8716 1.2458 2.457.7363.538-.5328.7005-.5482 1.7344-.1543 3.2393 1.2344 5.8248-1.1106 5.0605-3.5761-.2768-.8929-1.4894-1.8613-2.2363-1.9395-.1526-.016-.2875-.0202-.4024-.0137zm-21.4668.2051c.2499.006.3477.8394.4063 2.0586.097 2.0272-1.9469 4.8518-4.0137 5.8242-2.4891 1.1712-5.155-.4724-4.709-2.9062.4112-2.2432 3.57-2.3361 3.6895-.2637-.307.5451.1225 1.0029.2988.955.8121-.22 2.727-1.9587 3.5059-3.9042.3035-.7582.4879-1.538.7051-1.7148.042-.0343.082-.0497.1171-.0488zm29.7403 3.4512c-1.1037.0126-2.4308.6054-2.6992 1.3183-.3982.6752-.072 1.886.7441.8555 2.0989-2.4658 5.1381.6194 3.5117 2.5801-1.476 1.7795-3.2912 1.2066-7.1269-.2715-2.7943-1.0767-3.2351-.7094-3.9239.0684-.5671.6403-.2775 1.9294.4571 1.914 2.2643.5188 4.2244 1.0237 6.5683 1.5157 4.9543 1.0258 7.9769-5.4144 3.4512-7.7812-.2706-.1416-.6145-.2035-.9824-.1993zm61.5664 1.0703 4.9531 3.5313-.029 3.2851-4.8008-3.4941zm-84.1543.3262c-.705-.0203-1.4483.2211-1.9766.664-1.9316 1.7482-.348 6.3436 2.4961 6.754.5956.0858 1.4848.0595 2.4942-.2344 1.9902-.5796 4.1835-1.7668 4.2734-2.459.4083-3.1452-4.2315-.324-4.8457.0488-1.4628.8963-3.0114.7794-3.791-.2852-1.7571-2.3993 1.3937-5.152 3.3066-2.2168.1242.1906.3164.459.3164.459s-.1402-1.1927-.5312-1.8261c-.3717-.602-1.0373-.884-1.7422-.9043zm84.5254 4.4824 4.6894 3.4043.08 3.414-4.9199-3.2695c.096-1.2291.1181-2.3843.1504-3.5488zm-26.2891 1.961c4.1224.0683 6.4495 6.2172 4.2754 8.7753-.6468.7611-1.1641.9653-1.457.6817-.063-.0611.042-.7503.084-1.5274.134-2.4781-.3893-4.1742-2.1856-6.0566-1.3474-1.412-1.8564-1.8493-.7168-1.873zm-49.2695.5898c-.5089-.01-.9693.2012-1.4961.3906-.7788.28-1.6023.8471-2.2402.707-.6301-.1383-.9311.1772-1.1778.6758-.9438 1.9077-.6517 2.5246 1.2188 1.4414.8877-.514 1.1985-.3294 3.5742.123 1.6977.3234 2.8518.2916 4.3457-.0995 1.857-.4863 2.9647-.5242 3.9043-.006.9396.5184 1.5814 1.2321 1.6055.6504-.1046-.681-.6925-2.4234-.8282-3.002-.065-.2784-.5276-.032-.9648 0-1.5394.1127-3.3752-1.2857-4.5645-.5469-.9518.5914-1.0788.7459-2.3847-.0273-.3647-.2159-.6869-.3007-.9922-.3066zm46.2637.1386c.6992-.02 1.3586.2255 1.8984.6797 2.7915 2.353 3.5072 4.4393 3.2363 6.1524-.1385 1.246-.2315 2.623-1.4414 3.373-.2229.1075-.5547.175-.8633.2207.9386-3.5393-.1687-6.71-4.1152-10.0918.4306-.215.8656-.322 1.2852-.334zm-61.0684.6739c.781-.0245.7386 1.2397.5781 1.9082-.1292.538-.6888.0697-1.1308-.9473-.3283-.5538.016-.9593.5527-.961zm58.0527.7636c.7229-.05 1.6858.3303 2.1211.6231 2.6025 1.7637 4.0995 6.3738 2.502 8.9941-.1737.3216-.3872.5063-.668.6797-.5371.3403-.8536.6137-.9629.375-.083-.1807.2157-.9616.2461-1.2187 1.1372-5.3727-4.0114-8.9546-4.1152-8.7871.096-.4515.4432-.636.8769-.666zm-60.6308.2325c1.0191-.0212 1.4071.9213 1.582 1.6718.149.6398-.041 2.5486-.582 1.8829-.1299-.4045-.682-1.7098-1.125-2.0489-.9867-.7551-.89-1.4847.125-1.5058zm92.8086.207 4.8418 3.504.01 3.75-5.0703-3.4395c.113-1.3122.1717-2.5688.2188-3.8145zm-95.6778.7402c.149-.004.3402.0155.5723.0547 1.5912.269 2.8097 2.825 2.4394 4.2754-.8414 1.56-1.1537.5082-1.4316-.9062-.2173-.5864-.8681-1.506-1.2676-1.9805-.829-.985-.958-1.425-.3125-1.4434zm60.8282.0332c3.8618-.0656 6.3252 6.237 4.5429 9.3418-.4589.492-1.8588 1.4984-1.9043 1.0313 0-.3856.2553-1.6023.3145-2.1973.2288-2.2998-.8373-4.6353-2.7227-6.461-1.5822-1.532-1.7278-1.6893-.2304-1.7148zm-63.9766.7461c2.3729-.041 4.4005 2.7882 3.6523 5.4727-.9275 2.7996-5.5482 2.2018-4.7812-.5899.2206-.8029 1.07-1.3893 1.8808-.8867 1.1712.726 1.0425-.4556.2989-.875-1.1477-.6472-2.7246-.2554-3.0762 1.0547-1.2257 4.5672 4.59 6.1246 7.7559 1.4063 1.157-1.7245 2.4159-3.5704 3.1113-4.3575.6248-.707.7572-.6323.6562.2793-.4034 4.2436-3.334 9.546-8.832 9.2559-5.3433-.5122-7.0139-6.2332-2.9785-9.8047.754-.5752 1.4902-.9409 2.3125-.955zm28.3144.2305c-1.9553.9557-3.7276 1.3164-5.6523.4707-1.4227-.6251-1.3996.0541-.7812.6113 1.7874 1.536 5.037.8412 6.4296-.0234.4508-.2798.6004-1.0887 0-1.0586zm32.7325.0234c1.439.0858 3.7372 1.9333 4.4316 3.754.7832 2.043.9796 4.1549-.123 6.4648-.7669.4955-1.9602 1.4908-2.3145 1.3496-.1912-.1138.01-.4856.2402-1.3672.8774-3.2961.3259-5.8688-1.7871-8.293-1.1772-1.3506-1.6204-1.5871-1.0039-1.832.1634-.065.3511-.0884.5567-.0762zm37.4258 3.1758 5.2109 3.584.016 3.412-5.4082-3.6581c-.085-.8163 0-2.0567.1817-3.3379zm0 4.7226 5.1503 3.4239.1348 3.3808-5.0039-3.1308zm.3593 4.7442 4.9199 3.4336.07 3.6914-4.875-3.2363zm-119.8789 3.8594c-.052-.2575-3.5527 10.041-3.5527 10.041l3.3476 2.3672 3.5528-2.3164-3.6563-4.8926s.3606-4.9418.3086-5.1992zm120.084 1.246 4.7402 3.2891.072 3.4082-4.9258-3.4375zm-.1934 4.1739 4.8614 3.543.096 3.623-5.5078-3.705zm-108.6679 2.1719c-.052-.2575-3.5547 10.041-3.5547 10.041l3.3476 2.3691 3.5528-2.3164-3.6563-4.8926s.3626-4.9437.3106-5.2011zm-22.4727.8046c-.052-.2574-3.5527 10.041-3.5527 10.041l3.3457 2.3673 3.5547-2.3165-3.6563-4.8906s.3606-4.9437.3086-5.2011zm130.5078 1.6036 5.7051 4.039.047 3.8457-5.5293-3.7383zm.3828 5.3125 5.2559 3.8203.064 3.3691-4.8008-3.4492zm-96.539 4.3672c-.052-.2576-3.5528 10.041-3.5528 10.041l3.3477 2.3691 3.5527-2.3164-3.6562-4.8926s.3606-4.9437.3086-5.2011zm97.375 1.0234 4.4531 3.08-.033 3.459-4.3848-2.9648zm-91.3438 2.8926c.069 2.4429.226 27.4782.1875 27.6406-3.0704.3577-3.9273 2.4548-4.205 5.2715-2.3956-.1813-3.954 1.2742-4.002 1.5156-.8845-1.2262-.2254-3.031-.9238-4.3105-2.1224 7.4916 2.0067 11.9724 5.6093 11.5547.5782 7.1929 8.4272 8.4944 8.1602-.2305 9.4961-.5626 6.2776-9.375-.1465-8.209.045-3.802-1.9374-4.7767-3.5781-5.5469 0 0-.2759-24.0945-.2402-24.8144 0 .1051-.4189-2.6093-.4668-2.7696 0 .002-.3928-.1057-.3926-.1015zm91.336 1.7226 4.3593 3.1211-.053 1.4961-4.3476-.0879zm-131.3106 1.42c-.051-.2575-3.5527 10.041-3.5527 10.041l3.3457 2.3691 3.5527-2.3164-3.6562-4.8926s.3625-4.9437.3105-5.2012zm135.7168 8.834c-9.5739.4502-18.1702 1.1245-17.8457 14.2265-1.3772 5.561.9549 10.5126 7.6367 8.9824 1.4629-1.3189.4996-3.23.3203-4.1484-.5708-2.5276.088-4.1695.2715-5.3535.5687-3.6624 3.2284-7.0626 3.5176-1.3223.4661-.7205.2462-.826 1.0156-1.125 1.835-.6676 1.8329 1.204 1.4571 1.959-.2415.388-.607.356-.9805.3125-.5337-.0646-1.2307-.2654-1.2422-.463-.1437.596.972 1.7047.8555 2.2638-.1474.5308-.2429.4882.2441.1367 2.3029-1.6622 3.7463 2.0513.4141 1.627 1.6417.8844-.7884 3.4747.9082 4.8007 5.1699.3971 9.0166-3.1472 7.3691-5.6914 1.9254-5.1795.7407-10.5376-2.0332-12.8125-.4218-.506.9838-1.001 1.5235-1.871-1.652.4411-2.5362-.3998-3.4317-1.5216zm-5.7207 1.8593c.8843.001 1.114.1715 1.0508.8926.3441 1.7744.7842 2.598 3.0762 2.4121 2.3097-.3034 3.0437-.45.7187.959-1.1738.522-1.5557.6244-2.9472.498-1.4028-.1273-1.2967-.2702-2.0977.213-.4475.2699-.9366.5993-1.3008.666-.5392.0985-1.4883.3085-1.4883.3085-.5399 2.7553-1.3613 4.1419-2.4922 5.4512-1.6004 1.8354-2.4132 2.157-.4511 2.0195.7255.0454.351-.3218.6679 2.6485.111 1.0403.3025 2.2455.4551 2.6504.5101 1.3532.5783 2.027-1.3613 2.123-4.8408.3698-5.9706-4.3847-5.3262-6.8145.2862-1.4553.3446-2.892.2539-4.2246.1104-4.5309 1.1752-5.7264 5.1602-8.6718 1.2021-.8885 3.3612-1.0707 4.9668-1.0899.4539-.0233.8204-.0414 1.1152-.041zm3.1367.2852c2.2347-.0466 4.3934 1.037 3.3164 1.7402-.6961.4544-3.2102.2668-3.9082-.2344-.9009-.6468-.5624-1.4818.5918-1.5058zm4.834 3.1132c1.4472.2925 1.5044 1.6247 1.1367 2.4454-.8088 1.8048-6.2226 2.6788-6.2226 2.6796-.044-.775.063-1.5225-.5-2.3945 0 0 3.6064-.9524 4.3691-1.6543.5093-.4687.8166-1.0609 1.2168-1.0762zm-104.5273.8301c-.026-.1286-1.7938 4.917-1.7938 4.917l-.2802 6.1693 1.8669 1.322 3.5528-2.3165-3.6543-4.8926s.3606-4.9417.3086-5.1992zm97.2871 2.2324c.4435-.033 1.0278.3698 1.1445.92.084 1.6425-2.1045 1.2735-2.1738.2363-.049-.7366.6128-1.1252 1.0293-1.1563zm8.3125 1.043c.5246.007.8034.3913.9453 1.1719.067.4183-.088.7735-.4258 1.2305-1.3752 1.5074-5.2396 2.553-6.6348 2.1699-.099-.1307.1393-1.7196.2403-2.4258 1.8581.0566 4.9877-1.6066 5.875-2.1465zm-64.4121 2.6602c1.1832.0386 2.3036.7335 2.8105 1.9336.2685.8303.3482 1.7851.051 2.6113-.2485.6893-.7031.793-.7031.793l-2.377-2.0508-2.3261 2.1777s-1.4242-1.4484-.6426-3.455c.7582-1.4304 2.0043-2.0484 3.1875-2.0098zm64.2558 1.6035c1.5224-.0971.7348 1.6715-1.5175 2.8691-1.4135.7516-2.5844.9633-3.0918.6914-.278-.8301-.043-1.587.1308-1.9238.961-.4977 3.6011-1.3716 4.4785-1.6367zm-98.2832 3.33c1.6903-.0414 3.1547 1.1735 3.209 3.3262.022.8771-.4238 1.748-.4238 1.748l-2.8242-2.1015-2.1582 2.3223c-.3679.1298-1.6899-1.5336-.7813-3.3438.6605-1.316 1.822-1.9227 2.9785-1.9511zm97.8653.1075c.4094-.0007.5132.157.6308.543.3336 1.095-.5139 2.1983-1.9765 2.5468-1.3517.3222-1.2232.4806-1.8633-.7383-.5015-.955-.6346-.9146.1504-1.2168.9487-.3109 1.9636-.6735 3.0586-1.1347zm-58.2032.6797c.4046-.0168.8114.0353 1.1739.2011 2.3759 1.0872 2.7892 4.4408.4785 5.7325-1.0981.6138-2.8262.9548-3.6348-.2871l2.334-2.5684-2.6797-2.2773c-.079-.0793 1.1143-.7503 2.3281-.8008zm-10.9531.4218c.978.0224 1.7576.3788 1.582.543 0 0-1.6844 1.7282-2.4218 2.4512l2.5371 2.6719c.1223.3246-2.9274 1.7183-4.5313-.3829-1.0413-1.364-.4546-3.9593 1.0235-4.8496.5662-.341 1.2237-.447 1.8105-.4336zm5.2168.2403c1.4974-.022 2.7264 1.1838 2.7481 2.6953.022 1.5115-1.1726 2.7573-2.67 2.7793-1.4975.022-2.7322-1.1877-2.7539-2.6992-.022-1.5115 1.1783-2.7535 2.6758-2.7754zm58.8203.207c.6722.042 1.2642.491 1.2793 1.2266.021 1.0433-1.1644 1.3867-2.0918.8008-.7188-.442-.7637-1.2676-.3769-1.6387a1.7004 1.7004 0 0 1 1.1894-.3887zm-58.8301 2.1367a.5217.5217 0 0 0-.5214.5215.5218.5218 0 0 0 .5214.5215.5218.5218 0 0 0 .5215-.5215.5217.5217 0 0 0-.5215-.5215zm-27.8476 1.3145c.3794-.008.7559.051 1.0801.2148 1.7124.865 2.5912 3.9754.6738 5.6133-1.5256 1.3033-3.8547.2197-3.9004.0664l2.3926-2.6426-2.5391-2.4629c-.024-.1506 1.155-.7664 2.293-.789zm-11.082.3418c.6319-.003 1.2158.2023 1.8691.6074l-2.4316 2.5703 2.6308 2.8887s-2.0829.3428-2.8222.2031c-3.581-.6764-3.2306-4.9142-.461-6.0351.4383-.1552.8358-.2323 1.2149-.2344zm5.3808.6035c1.4459-.0212 2.6353 1.144 2.6563 2.6035.021 1.4595-1.1341 2.6585-2.5801 2.6797-1.4459.0212-2.6353-1.144-2.6563-2.6035-.021-1.4595 1.1341-2.6585 2.5801-2.6797zm-48.9531.5273c-.6902.0277-1.4566.1422-2.3047.3496 0 0 .4785 5.4452.916 7.3047-.2881 2.1223-1.6477 3.5654-2.2597 5.7442-.326.9695-1.5525 2.2739-1.7891.9082-.8845-1.6873-.038-3.773-.7695-4.9746-.5598-1.133-.2607-1.77-.5079-2.9453-.6877-.9718-1.0144-1.4107-.9003-2.2735-.145-3.8492-1.0963-3.0861-2.7891-2.7715-6.5666.571-6.5645 4.3872-6.1602 9.2325-.9322 4.5426.7862 3.4678.7305 4.2851-.088 1.2957.1212 3.111.5078 3.3106 2.3422 2.7098 2.457 4.5883 5.5039 4.123 5.1558.4066 13.3483-.3663 15.1192-6.711 1.0008-8.108 1.3752-15.8493-5.2969-15.582zm-.047.8614c.9745-.012 2.1218.1935 3.0664 1.1074 2.0236 1.958 1.5759 3.688 1.2149 11.2676-.2134 4.4796-4.0522 6.7933-8.3438 7.8242-1.0486.2603-1.9603.2653-2.6699.2598-.7661-.006-1.2127-.3636-1.2695-1.0118.1686-1.7544-1.6071-1.9254-2.6348-1.8261-1.8325.0734-2.0201.2687-.877-.625 1.3046-1.02 4.312-1.035 4.8829-.4375 1.1726-1.185 2.3959-1.324 3.8925-1.5-.2217-.3287-.7592-1.6423-.4043-2.4864.7752-1.3754 2.0803-3.8028 3.4493-4.7129 1.3542-1.7872.2034-.9778-.6368-.9472-.48.0174-.4378-.1426-.5156-.4668-.3344-1.3926-.8163-3.9968-.8203-5.5469 0-.747.6914-.8865 1.666-.8984zm85.1094.248c1.9769 2.4072.2815 5.2735-2.3711 5.4531-2.1972.1106-4.0062-2.2627-3.1777-4.627.4534-.64.6485-.5487.6484-.5487l2.502 2.2558zm-36.1367.498a.5217.5217 0 0 0-.5215.5215.5218.5218 0 0 0 .5215.5215.5217.5217 0 0 0 .5234-.5215.5217.5217 0 0 0-.5234-.5214zm-58.4805.918c.3159-.0288.6405.0566.8809.2637.5292.4749.5226 1.1374-.033 1.6309-.6359.5643-1.8986.2533-1.9297-.8086.053-.6698.5554-1.038 1.082-1.086zm-2.373.17c.2285.012.4441.0665.5761.1933-.1801.6918.058 1.3825.088 1.7188-.4354.313-2.2906.8595-3.2851 1.3535-.6911.2397-1.1914-.4154-1.0957-1.0137.2618-1.1145 1.8865-1.8423 3.0664-2.1875.182-.045.4219-.0765.6504-.0645zm101.7832 1.7695-3.5547 2.3183.053.0703-.053.0332 3.6504 4.8829c-.013.1817-.3028 5.1054-.3028 5.1054l.01-.0117-.01.1153 2.5165-10.9s-1.335-.9237-2.3094-1.6137zm-38.4571 1.1113c1.6531 3.7197-.2509 5.422-2.2773 5.377-2.2356-.0496-4.6196-2.1871-2.5352-5.2168l2.5918 2.1328zm-62.3418.502c.6687-.0814.4718 1.3888.2207 2.1406-.2493.5375-.9862.5157-1.6484.5547-1.1702.0689-2.644 1.4303-3.2773 1.211-.2097-.098-.3606-.6576-.3829-1.0138.1373-1.963 3.3687-2.6832 5.0879-2.8925zm2.2618.0762c1.187-.052 1.8208 1.155 1.2734 1.9687-.2234.3288-.942.4868-1.543.3203-.9826-.272-1.1318-1.6945-.2695-2.1836.1904-.0636.3695-.098.5391-.1054zm-1.4688 3.4257c.6372.1166.3221 2.0881.2148 2.1485-.5239.1952-2.785.4932-3.7363 1.3027-2.0266 1.6025-2.8899.6249-1.9512-1.2949.8888-1.1163 4.1553-2.133 5.3321-2.1543.051-.01.098-.01.1406-.002zm2.4375.1075c.9035-.0853 1.5357.924.9844 1.8847-.7484.7022-2.0599.1878-2.0547-.8066 0-.625.5061-1.0453 1.0703-1.0781zm-2.0918 3.2304c.9232.003-.063 1.4336.7598 2.4512.1239.5226-.057.3604-1.0059.6426-.5229.1555-1.3452.5072-2.2012.9433-1.2555.6397-1.6068.985-2.0527.9122-.3541-.0781-.7635-.2336-.873-.5957-.4373-1.4469.7313-2.9207 3.4511-3.9336.5656-.2107 1.5755-.3812 1.9219-.42zm2.3672.2735c1.3147-.0193 1.5599 1.743.5762 2.0527-2.3028.601-2.1069-2.0545-.5762-2.0527zm-3.4395 6.2226c.9048-.0177 1.5209-.0206 1.8164.2657.37.3582.4219.946.01 1.252-.7595.3782-3.6757.0565-3.6953-.7696-.011-.5448.9615-.73 1.8671-.748zm134.4864.1973-3.5547 2.3184 3.6562 4.8906s-.3606 4.9437-.3086 5.2012c.052.2575 3.5528-10.041 3.5528-10.041zm-141.5723 5.6191c1.439 1.7115 2.207 2.834 4.6133 3.7246.5562 25.0934.4609 82.5938.4609 82.5938l7.0762 4.8555 7.4492-5.4024c-.076-18.0994-.1477-30.5848-.2187-47.3418l10.916 6.0508s.3337.488.2832 2.752c-.7542 6.2532 5.2379 10.3125 9.2129 7.8437 1.5337-.6504 1.6577-.7662 1.9824-.2773.8938 1.3454 1.9018 7.1061 2.0703 10.7812.2538 5.5374 1.6969 16.8266 2.0449 16.9024L1983.2811.4863h-28.123zm107.7832 1.4493-3.5527 2.3183 3.6543 4.8906s-.3606 4.9437-.3086 5.2012c.052.2575 3.5527-10.041 3.5527-10.041zm-89.6641 1.3359.625 82.2695s-3.456 2.5048-4.5605 3.2246c-.5804.2198-.8622.2595-1-.3007-.1693-.6885.1029-1.9901.3437-4.1446.2226-1.992.2208-2.1042-.1074-4.9433-.3429-2.9653-.3833-3.0898-.1054-7.004.3099-4.3656.3701-8.606.027-11.2304-.3255-2.495-.3218-8.185-.072-11.3613.3053-3.889.2057-7.3016-.2988-10.123-.8996-5.0306-1.0467-6.7622-.1094-10.547.3507-1.4163.5239-2.1694.4512-4.541-.081-2.6368-.1292-3.4988-1.0645-9.3379-.538-3.3613-.5805-3.8217-.076-9.1406.1018-1.0732.1358-1.7922.541-2.1328.4732-.3977 5.4062-.6875 5.4062-.6875zm-6.9707.9746c-.4146 1.6975-.5064 2.9888-.5488 4.2168l-4.7715-3.164-.051-.9942zm-5.2929 2.2285 4.7246 3.1113c.01 1.3133-.093 2.5666.096 3.879l-4.7871-3.207zm.01 4.9375 5.0547 3.4883c.1971 1.3585.6095 2.7321.7676 3.9531l-5.7305-3.914zm163.4551 1.375.2637 100.416h-50.3145l-15.9474-30.918s.1622-2.8452.5566-4.2968c.4767-1.7548.6047-2.1377 1.2734-2.2207 1.7902.9357 3.7838-.3083 4.3946-1.6778.7521-1.6862-.7702-4.238-3.1074-4.791-1.0307-.2475-2.1566.2193-3.295 1.0957-.6613.5572-.8075.6193-.9394.1348-.2969-1.0914.6621-4.0585 2.3789-6.6055.9549-1.4166 1.2144-1.824 1.5234-1.2851 1.2496 2.1793 3.9285 1.7292 4.9453.498 1.2304-1.49.9748-4.8868-1.8125-5.787-5.4535-1.7615-7.9568 3.7617-7.8886 3.748l-1.168-6.623c6.565-1.6236 10.3548-2.1963 12.4394-4.2052 1.6409-1.581 2.4234-4.3149 2.2208-6.746 0 0 18.2353-7.4785 26.7695-12.1212 14.6949-7.994 27.707-18.6152 27.707-18.6152zm-26.957.7656-3.5527 2.3184 3.6562 4.8906s-.3606 4.9437-.3086 5.2012c.052.2575 3.5527-10.041 3.5527-10.041zm-22.9512.9825-3.5527 2.3183 3.6543 4.8907s-.3606 4.9436-.3086 5.2011c.052.2575 3.5527-10.041 3.5527-10.041zM1961.26-96.3008l5.7929 4.0293c.1266 1.3086.2929 2.4743.1192 3.957l-6.0977-4.0703zm-.1016 5.1465 5.9922 4.0059c.023 1.2371.081 2.4033-.3457 3.2773l-5.6543-3.662zm124.6621.334-3.5527 2.3164 3.6562 4.8926s-.3606 4.9437-.3086 5.2012c.052.2575 3.5528-10.041 3.5528-10.041zm-124.6504 4.332 5.1953 3.8516c.075.0553-.2896 1.7571-.207 2.7207l-4.9434-3.0742zm.1406 4.7637 4.8438 3.3594c.011 1.2736.098 2.471.2969 3.5547l-5.2598-3.4453zm-.084 4.8535 5.6015 4.0235.2949 3.2343-5.9335-3.7656zm44.4296 1.1367c.5355-.0489 1.1012.0153 1.6817.211 5.3756 2.0227 10.4146 12.3395 10.2598 25.6972-.1074 9.2735 2.6688 22.5105 2.6171 22.3575 0 0-1.5588.2105-2-.1387-2.0247-6.809-2.7-14.0032-3.0195-19.9375-.2623-4.9486-.5428-9.8054-.8535-10.9395-.8834-3.9909-1.842-8.6463-4.3691-11.6797-1.9692-2.2872-4.213-2.6856-5.5547-.1171-1.0989 2.1038 1.2137 5.585 3.1347 4.4277.4642-.2633.7415-.71.1328-.6973-1.9939.2984-3.3321-2.4857-2.0703-3.8125 2.2221-2.3366 6.1101 2.8692 4.3067 5.7344-.7943 1.2391-2.8725 1.4588-4.5352 1.002-3.6976-1.8045-4.6242-6.2219-3.3867-9.1329.7079-1.665 2.05-2.8278 3.6562-2.9746zm-4.8222 1.5371c.4249-.1032.1398.8335-.2637 2.1016-.9512 3.0395.8324 7.7604 3.3027 8.7012.7413.5092.7018.7038.2071.9844-1.6128.9147-4.5398-1.8289-5.3125-4.8848-.559-2.211-.4222-4.8203.6308-5.9277.377-.516.9194-.8492 1.4356-.9747zm-3.5723 1.7422c.4436-.014.2777.7362.1543 2.1055-.286 3.1709.6893 5.4763 2.9082 7.3906.936.8075 1.192 1.0607.7891 1.4844-.5719.6015-2.2122-.2037-3.4981-1.5566-2.3544-2.477-3.1335-7.1532-1.2988-8.8477.4026-.3719.7129-.5688.9453-.5762zm-36.0937.0508 5.9824 3.9453c.2782 1.2314.1556 2.5439-.031 3.8692l-5.9882-4.211zm102.623.5c2.5559-.1003 4.7118.9004 4.9492 4.0527.3475 4.6154-3.9124 7.1381-6.8847 4.4883-2.664-2.6603.037-6.8242 3.125-4.873 1.5526.9885-.3006 3.241-1.5567 2.0762-.5665-.5254-.8166-.1985-.414.4082 1.2156 1.8315 3.6107.3084 3.4394-1.3047-.3369-3.1717-4.1983-3.1306-5.6523-1.8887-1.9896 1.6995-3.7434 4.2017-5.0508 6.0254-1.0706 1.5823-1.3007 1.5407-1.1426-.414.4178-5.166 5.2002-8.414 9.1875-8.5704zm-69.6035 1.0078c.4071-.0148.2444.575.2754 2.0938.1642 3.8991 1.7938 6.327 3.8594 7.6855.6921.7716-.1955 1.3186-1.4981.9453-2.9676-.9225-5.9956-7.358-3.4804-10.125.3526-.3883.6305-.5918.8437-.5996zm-2.8867 1.2793c.4112-.0263.1799.8363.2187 2.463.082 3.4234 1.1302 5.0667 3.6524 7.1562.8219.6808.9242.605.5996.9824-.8638 1.0041-3.7893-.4184-5.0371-2.4688-1.4849-2.4402-1.7039-6.1209-.3223-7.5117.3863-.389.6734-.6073.8887-.621zm-2.8692 1.6485c.3405.0018.1508.6212.2032 2.0996.1272 3.5847.9377 5.3593 3.1914 7.0175 1.4161 1.042 1.7611.7285 1.3281 1.1407-.7584.722-2.8343.1032-4.3906-1.2227-2.3329-1.9875-2.9862-6.8914-1.0899-8.5703.3381-.2994.5794-.4658.7578-.4648zm-27.1621.5078 5.7481 4.0195-.1621 3.3965-5.7188-3.9063zm97.9981 1.5898c.1294.0246.2755.1702.4258.4863.3443 1.3386 1.2297 3.1944 2.4394 3.5547.487.1451.08.827-.3672.7344-2.3404-.4837-3.2259-2.188-2.9414-4.1191.059-.4033.2277-.6973.4434-.6563zm-47.8223.7676c2.6388 6.704 2.5917 14.031 3.0293 20.9531.5816 9.201 2.1938 15.397 2.7207 16.4414 0 0-2.5765.031-2.707-.3457 0 0-2.4308-12.2025-2.0645-18.2363.026-6.7523-1.2763-12.6882-2.0722-15.3555-.841-2.3633-.8778-.8016 1.0937-3.457zm27.7735 1.1894c-1.1882.0214-3.636.675-3.627 1.1172 0 .2031.7999.3726 2.0469.0684 1.3842-.3376 2.7629-.2773 3.8261.0176 1.131.3134 1.2571-.0533.2344-.504-.4987-.2196-1.2926-.7205-2.4804-.6992zm18.1717.4141c.1697-.0128.3791.1515.5977.5625.1348.2504.5559.812.9316 1.252.7115.8331.9116.8392.5879 1.1796-.7454.784-2.3105-.3515-2.4785-1.8007-.091-.6615.079-1.172.3613-1.1934zm-48.9121.8477c2.5821 3.7146 2.9627 12.4263 3.0156 18.6191.048 5.5769 1.9176 15.7939 2.0684 15.75-.532.3164-1.2481.2048-1.9199-.0566-.664-.8732-1.0707-3.3198-1.8418-9.9473-.199-1.7099-.5899-7.1497-.6778-11.5293-.078-3.8638-2.2148-12.2266-2.2148-12.2266s.8301-.594 1.5703-.6093zm23.5625.164c-.2604.016-.1743.9078.024 1.9824.065 2.467.3793 1.4634 1.2421 1.0704.6501-.0559 1.1805.3023 2.3887.75 1.5385.57 1.4011.76 2.4824.2246.667-.3303 1.1986-.4432 1.5176-.1817 1.2643 1.0366 2.8945.453 3.8125-.3867.7165-.3775 1.4989-.1714 2.1055-.1152.8749.081.648-.482.7558-1.5977.096-.9906-.2798-1.0782-1.2949-.7441-1.0388.3418-2.0691.391-2.9707.1133-2.3056-.7103-3.9936-.2498-5.1367-.0684-2.6995.4283-2.8431.154-3.4551-.2363-.4565-.2912-1.2102-.8267-1.4707-.8106zm-70.8047.004 5.5293 3.6464c-.078 1.2486-.09 2.4975-.074 3.7461l-5.4199-3.8711zm44.3672.7597c2.3539 5.3008 2.7359 10.5642 2.8418 16.9512.1002 6.0414 1.4307 13.1189 1.9336 16.2421-.7946.0832-1.6336.1502-1.9668-.2109-1.3418-4.4153-1.7442-11.7667-2.1172-17.0547-.4603-7.4474-.5788-9.2912-1.625-13.0039-.5934-2.1058-.8031-2.0617-.3554-2.4668.3405-.3081.9922-.463 1.289-.457zm50.582.0723c.1584.0652.2924.3506.5606.703.5978.786.7724 1.1573.2715 1.2305-1.3257.1937-1.656.0523-1.6094-.7792.037-.6631.1821-.9222.6055-1.1407.064-.033.1191-.0354.1718-.0136zm-53.3574 1.1835c1.9461 1.979 2.4408 13.0808 2.6621 15.4708.7016 12.95 1.9188 14.8112 1.293 15.7832-.7366-.0125-.9937.2612-1.4746-.3887-1.6656-4.7438-1.5684-9.6175-1.8379-14.5664-.3807-6.5545-1.0258-10.1053-1.9395-13.3535-.6068-2.1597-.5997-2.1958.4961-2.7891.1944-.1052.6258-.1624.8008-.1563zm-3.3847 1.3887c.2308-.0059.4867.043.7636.1719.6852 1.5732 2.0631 8.724 2.25 14.8965.1484 4.9008 1.3068 14.4828 1.5215 14.5351-.708.065-1.5564-.0816-1.9004-.623-2.1228-9.4469-1.4463-18.6038-3.9004-28.1035.1096-.3454.5732-.8594 1.2657-.877zm49.9824.2813c-.8646-.0616-1.8302.137-2.877.6093-3.2374 1.2683-4.0757 2.3101-3.5664 3.2247.429.7702 1.7173.4993 5.166-.9532 2.5776-1.0856 3.3869-.6112 3.9102 1.0274-.026 2.42-2.3427 2.662-3.6641 2.3672-.2106-.047-.4531-.1524-.4531-.1524s.1187.5545.5742.9414c2.5947 2.204 5.9422-2.018 4.3106-4.6386-.7981-1.4963-1.9594-2.3233-3.4004-2.4258zm-20.7207.7793c-.8578-.0297-1.6699.1719-2.4785.8125-2.6711 2.116-1.7172 5.928.5058 6.5.6187.3172 1.5408.1676 1.9024-.0743.3335-.223.331-.5866-.3516-.7011-2.0638-.3464-3.2358-1.8745-2.2383-3.4239.9681-1.5034 2.7609-1.2146 6.209.2852 2.9812 1.2966 4.2875.8964 4.6387-.6602.1551-.6873-.033-1.3312-1.4629-1.3847-2.7347-.1023-4.8376-1.2882-6.7246-1.3535zm-67.3887.2773 5.7344 4.1504.1211 3.541-5.8516-4.1914zm101.4551 3.1621c1.821.0892 2.9781 1.2407 3.0293 2.543.1151 2.9298-3.3489 2.9597-3.8223.666-.1773-1.0972-1.9442.0285-3.1152 1.9727-1.152 1.9125-1.2714 2.185-1.5059.1992-.3496-2.9612 2.696-5.2774 4.5957-5.3516.286-.0333.5582-.042.8184-.0293zm-101.582 1.459 6.0722 4.209s.2052 2.2565.074 3.4687l-6.0976-3.9375zm79.6777 1.0176c-.1841.0123-.3798.0657-.584.168-.4408.2206-.7715.4298-1.709.1953-1.423-.3007-3.1308-.6222-4.4668.0332-2.641 1.8078-1.0896 5.1072.7578 5.4785 1.9476.3914 2.0845-.98.1485-1.3848-1.0352-.4103-1.3001-1.4057-.8965-2.1738.9234-1.5248 2.6318-.5379 3.625-.0625 2.2039 1.0583 3.3451 1.4467 4.041.7148 1.0821-1.138.3725-3.0552-.916-2.9687zm-79.627 3.9883 5.9746 4.127-.1836 3.6503-5.6074-4.1543zm.1231 5.0156 5.6191 4.041c-.083 1.5423-.045 2.158.016 3.1406l-5.6816-3.703zm99.3594.7773c4.5059.4445 3.013 5.67-.1329 4.2598-.8391-.637-1.0912-.5864-2.0234 1.705-1.1923 2.931-1.4841 2.693-1.3203-.6933.12-3.3155 1.629-5.2457 3.4766-5.2715zm-10.2852.5723c1.2346.0505 2.4915 1.1636 3.4844 3.539l-1.3633.082c-1.2226-2.9666-2.9526-3.411-4.4199-.4804l-1.0567-.3066c.9082-1.8728 2.1209-2.8845 3.3555-2.834zm-3.3281.1543c.6972-.0426.6066.2818-.1192 1.2832-.6309.8706-.7839 1.0083-1.4179.5332-1.0399-.7792.6882-1.7586 1.5371-1.8164zm-18.6758.0137c1.1375-.0348 2.227.7326 2.8027 2.746l-.8047.1172c-1.2162-2.7341-3.7434-2.109-4.5234.4297l-1.1113-.127c.631-1.7509 2.1741-3.1213 3.6367-3.166zm-3.209.0566c.1064.0027.1927.0197.2461.0625.3043.3447-.6101 1.7077-1.3848 2.5078-.5711.3782-1.958-.6427-1.6211-1.1406.3936-.4847 2.0335-1.3554 2.7598-1.4297zm28.3418.0176c.1333.008.2888.0204.4648.0644 1.4047.3505 2.0484 1.023 1.3594 1.8848-.4294.5372-.8461.7484-1.1289.3887-.9476-1.5773-1.473-2.3851-.6953-2.338zm-22.1055.5293c.3565-.0424.8083.1613.8848.4043.147.587-.313 1.0039-.8262.5156-.209-.1989-.3911-.5375-.3652-.7871.08-.0763.1878-.1187.3066-.1328zm-70.1543 2.4219 5.7774 4.1875c.1897 1.4751.2276 2.5941.2187 3.6015l-5.9472-3.9765zm82.4668.4101c.3396-.0024 1.1371.4362 1.7403.8574 3.3274 2.3012 7.2292 2.2712 9.6699.25.5455-.4517 1.0204-.4713 1.0293-.037-.3475 1.6131-4.59 3.6822-7.9043 2.5097-1.8207-.6441-3.317-1.2834-4.5117-3-.2663-.4192-.2267-.5786-.024-.58zm.1485 1.963c.049-.0064.1112-.0008.1836.0175 4.8635 4.2345 8.7298 3.0572 11.6601.9219.4326-.1091.4388.2845.5352 1.0156.1235.9367-.6469 1.3984-2.7539 2.0351-4.0737 1.2312-8.8521-.1156-9.7129-2.873-.088-.4744-.259-1.0732.088-1.1172zm-82.6367 2.5526 5.8574 4.0547-.1875 3.0996-5.7051-3.8925zm.094 4.748 5.5293 3.7833-.018 2.5644-5.3789-3.8671zm96.8691 1.1153 14.5332 28.7696-87.5859.119c5.7198-9.3503 10.4787-19.5749 16.3418-28.8007 23.5876 5.3861 40.3056 2.83 56.7109-.0879z" transform="matrix(.9375 0 0 .9375 1833.0748 -804.1692)"/>
        <path transform="matrix(.15308 0 0 .15451 3060.0971 -1025.8378)" d="M4255.875-243.0938c15.4599 26.5608 27.6507 54.0007 41.5634 81.1711l2.2284 1.4298 3.3326 6.2859.3709 3.0566 8.2498 13.1942-.053 2.8332 34.9955 65.0918c28.864-10.7748 265.9605-30.175 353.75 1.5625l12.7861-21.6703 3.0594-.0213 22.5478-39.5536-.3591-3.3273 7.588-8.6514 1.1018-3.9404 24.8801-38.9345.088-6.2767 31.1205-51.8745zm536.8438 7.4688s-16.23 31.2014-24.5938 43.8125c-6.7681-5.3382-26.3896-1.714-25.2188 18.9688-31.9866-12.1164-39.6997 26.0365-14.9687 34.625-12.6914 11.0802-24.8203-1.4518-34.4425-9.9496-9.4118 2.3314-28.9517 9.2465-40.0168-11.1035 0 0 4.6252 2.497 9.2406 5.2093 26.1637 7.9537 28.2733-27.3455 8.8124-33.125-2.4503-.6442-7.0624-.9063-7.0624-.9063 6.5415-27.1454-35.4554-36.622-36.25-4 0 0-4.9929-.8155-8.7813-.125-22.2629 4.0578-17.1619 36.884 5.5937 35.3125 3.1358-.2165 5.9376.3438 5.9376.3438-.371 5.2573-27.9108 15.3028-47.75-2.7813-9.4088 7.1658-24.3016 16.148-43.7188-1.7187 12.7697-.5195 25.0149-4.153 24.875-18.625-.091-9.4227-8.565-17.8335-20.7812-18.2813-.6929-10.5278-8.5332-20.5729-18.7188-21.3437-12.4314.7255-18.7885 10.7536-18.875 21.3438-10.5706 1.0918-20.4606 10.4078-18.1875 21.0937 3.101 14.5781 14.3342 16.3715 27.1563 13.5938-15.5962 25.068-40.9879 11.9923-48.8126 4-9.3227 8.6963-25.5757 20.4716-45.5937 4.375 10.6686-1.8254 22.5331-8.083 20.5313-22.9688-1.5777-11.7314-14.7467-15.2142-20.4688-14.5938-.013-7.7511-5.868-20.5398-19.6875-19.2187-15.0793 1.4415-14.1777 20.506-14 20.6563-12.4527-1.0265-21.4892 13.619-17.9375 22.9687 4.3222 11.3779 13.3719 14.9154 30 11.8438-19.4006 18.2044-31.723 11.1384-42.3125 7.3125-9.373 9.822-21.8881 12.99-34.7187 4.2812 28.7001 1.3677 24.1347-49.365-9.9063-30.9688-24.2096-28.4807-23.771-15.8252-45.4687-57.7187zm-267.4688 50c1.388-.0578 2.8637.2304 4.3125.9688 4.4887 2.2838 5.3299 6.2692 2.5937 12.1562-.9619 2.0678-2.3508 4.4399-2.125 6.625 31.604 58.2794 101.2857 32.2333 107.8438 5.1563.4159-1.7173-.3817-3.597-1.2812-5.4375-2.6785-4.4546-2.3247-8.103 1.1562-11.1563 7.4156-6.5046 18.0542 1.1725 13.75 9.9375-1.1362 2.3125-2.332 4.8454-1.4688 7.9375 17.891 40.6166 53.5124 43.6684 83.4063 27.5938-13.7712 24.6529-67.1481 39.7684-89.5625-19.5938-35.7744 48.3609-92.5455 47.4477-118.3125-7.1563-23.1743 55.852-93.0848 57.1737-118.5313 10.7813-23.1621 53.0728-76.879 41.0317-92.0937 7.8125 49.8995 36.1086 82.7788-1.5856 88.6875-17.6563 0 0-1.1593-1.8763-2.75-3.4375-6.3848-6.2659-6.2095-13.637.4062-16.5625 8.4751-3.7476 16.4127 4.3885 12.0626 12.375-1.2186 2.2372-2.3 2.7276-1.5 4.6563 15.5297 36.1903 92.0081 46.7053 107.5-4.0625.5249-2.9005.2251-5.5813-1.0938-7.7813-3.635-6.0634.9855-12.906 7-13.1562zm-223.25 20.5c12.063.6848 8.6982 11.0564 6.2812 11.8438zm447.9375 6.4688c.082.1949-7.4375 13.4375-7.4375 13.4375-3.9821-6.358-2.9485-14.2736 7.4375-13.4375zM4709.1562-91.75s-7.7028 17.0375-10.25 18.4688c-142.8859-36.6001-342.2531-4.7763-347.1562-1.25l-8.7812-16.5313c125.2838-25.0289 250.1985-19.6828 366.1874-.6875zm-241.375 253.1875c-13.7945 53.2079-47.1918 58.622-87.5312 65.0938-49.9628 8.0157-82.5231-10.1866-97.75-38 0 0-71.4557 26.9996-97.5312 42.6875 54.2156 24.8376 125.8443 79.8343 166.5624 142.2812 14.5063 19.0412 13.7739 14.7332 13.75 56.5-.057 90.5746.1563 124.25.1563 124.25 22.3689 3.3513 23.5943 18.7329 22.375 36.0097 17.9542-7.9282 35.2297 1.7736 35.153 18.7155-.1409 31.14-30.7383 22.6797-37.0926 19.248 9.9514 27.4474-1.7295 38.8121-13.6536 40.1602-14.7008 1.662-31.5639-5.4056-26.6482-36.8198-36.4205 8.6753-38.2335-25.7704-39.9149-56.0323 39.6385-74.577-10.1214-135.2154-56.8437-155.1563 0 0 13.2185-27.3285 30.3125-35 1.7389-.5244-10.3652-18.2748-30.7188-14.4063-9.3672.1935-7.1875.1293-16-11.3125-17.4196-22.618-25.621-24.1678-42.5937.0312-7.4711 10.6522-9.257 10.9426-18.0937 11.125-9.7355.201-24.6746 7.192-27.875 13.4375-.7328 1.4287 3.0847 2.888 8.1562 8.8125 7.2971 8.5246 18.5571 20.2341 16.7812 32.1563-38.4764 15.6525-102.3011 84.3387-35.1874 172.2813l-48.5313.625-2.3125-313.0625-33.75 18.7812 1.5 245.2188-9.625-3.1875c.7393-78.2177-.4405-156.3833-2.9062-234.5625l-89 64.8437 3.9687 367.6875 9.4687 2c7.0234 50.0986 106.2681 15.0605 112.0626 19.4063l1.1874 204.3125-4.3437 10.125 78.9687 43.1562 72.4376-37.5625s9.7769-1.759 13.4374-3.6875c30.0365-15.826 52.4208-12.2759 68.75 10.9375 10.074 14.3208 11.7813 16.4375 11.7813 16.4375 6.106-41.3183 42.7452-56.5463 78.2813-45.75 26.1377 7.941 61.8518 33.9849 72.7812 65.7813 0 0 1.9651 4.7849 3.9062 6.9375l1.5.6563c-.093-.8285-1.7252-4.7914-2.3437-6.7188-36.653-84.1742-139.9418-97.0836-155.875-28.3126l-14.625-20.5 76.9063-47.1562 105.0937 69.1562s-4.9396 24.3106-5.5 34.8126l1.8125.8438c.7261-12.7186 4.5335-27.2559 10.5625-38.0314 2.4879-4.442 5.3692-8.0573 8.5937-10.75 6.2766-3.6454 12.0982-3.2717 18.4688-9.25l-15.3438-11.4687-.3437-36.8125 30.8437 43.1875c9.6979-2.2432 47.4712-13.514 69.875-1.0312 2.5297.7828 35.3871-8.5834 55.8438 37.2499 36.1358-15.2037 76.4444-31.157 104.8438-45.375-98.2182-36.2418-197.3876-164.5609-187.8438-166.625 0 0-.2905-13.1668.4688-45.4687.7951-36.0062.3622-72.7622.9687-108.89-33.4259-10.6714-25.1164-37.61-25.1164-37.61-20.0923 4.4075-23.2959.5056-28.3836-3.0312l-3.4687-34.0938c12.049-10.2514 19.2783-11.206 34.1874-7.9375 0 0-7.2287-14.8125-.6562-27 5.5343-9.6396 20.2679-15.7242 32.0312-8.9375 14.7956 9.6903 12.3315 28.962 8.4943 34.5748-.095.1169-.2215.361-.2605.5059 15.7684-6.9313 35.0982.886 39.8288 16.4506 2.3667-46.2108 6.3833-97.9442 15.6562-138.25 17.0989-72.7474 45.0922-148.9318 80.1562-208.8438 9.2729-15.665 18.591-27.527 27.0626-43.1563 0 0-7.4994 4.1297-15.4376 6.3438-11.4151 3.0953-20.0098 6.0418-21.3124 7.3438-8.3496 7.0279-19.3036 12.2357-28.25 16.125-31.5467 12.2764-52.7539-6.032-65.8515-33.9933-7.2909 35.5116-39.8357 65.5595-87.8328 46.8866-27.1184-14.3915-35.6438-23.5937-61.0033-61.1433-2.1297-3.8383-7.625-8.25-7.625-8.25zm1.0454 5.804c17.9465 35.479 44.8116 60.6167 70.9265 70.6654 46.6264 15.2837 77.3838-14.5665 86.0561-41.991l8.9982 15.236-70.5972 50.1209-106.5278-67.72c1.7815-1.6324 11.3079-25.493 11.1442-26.3114zm320.5796 2.446-31.625 18.625s-21.0059 33.8933-28.0624 46.6563c-36.8948 65.159-64.5894 136.0477-79.0313 206.375-12.9154 58.2424-17.6648 130.3165-16.2813 179.375l2.4688 2.6875s-3.8762 6.8006-6.6562 12.5312c-7.5526 15.5733-9.3978 24.381-8.9376 42.4375 1.0529 41.5501 26.3133 81.3229 62 97.5313 2.0109.9132 4.6876 2.0937 4.6876 2.0937s-6.117 16.5398-17.2188 28.1875c-7.4057 7.7685-8.9931 8.1482-6.375 11.9688 3.6412 5.3165 15.3971 9.9332 30 9.7187 5.1682-.0758 5.1362-.0892 14.6875 10.3125 18.6465 20.3068 24.2519 19.8897 41.2187-3.125 5.0435-6.8413 7.9139-8.4801 15.2813-8.6563 10.8376-.2585 30.6179-9.005 30.5313-13.0937-13.344-5.9086-28.8022-36.366-26.3438-36.6875 72.965-38.6062 88.4264-118.6274 35.1348-177.4688l50.8964-.8125 1.875 319.2188c9.9656-6.6147 32.5-20.8438 32.5-20.8438l-.7452-248.4028c3.4999.6638 7.0658 3.1708 13.8702 4.2778l2 236.5321s65.3953-46.0947 96.5-70.157L4999.875 457h-7.4375l1.1875 361.7813-86.4062 63.0937-.5626-224.8438s6.8259-1.0183 9.375-1.375c25.2898-3.5385 37.0042-35.786 20.2188-56.8437-5.9582-7.4746-1.7307-6.9455 10.9375-9.375 22.4671-1.9801 34.9082-18.9608 28.375-31.0625-2.8026-5.191.8455-4.6304 3.2187-9.5625 1.5565-3.879 1.2641-8.6896.5938-12.5-.88-5.0006 1.1708-7.2144 2.4375-10.4063 1.9841-4.9998.059-10.6482-3.25-15.3437-3.4925-4.9555-2.529-10.2749-2.5625-13.5625-.1518-7.3513-2.811-8.401-10.5938-15.5-5.888-5.3707-1.1622-6.542 7.5-11 13.6286-7.0138 14.5669-31.8349-3.5624-42.4063-22.7107-9.2614-58.1762.8177-97.0313 4.6563 0 0-.1274-141.521-1.125-214.4688zm0 5s77.5815 45.3851 76.9688 46.6563c-26.055 35.6847-123.2358 177.8748-123.9375 349.8125-71.2639-8.9429-100.4424 46.7739-103.9063 46.5625-9.3656-210.457 76.0496-361.0308 119.8126-424.9375zm-51.0426 23.1369.1328 11.603-15.5664 24.7077-.5977-26.035zm-21.6448 12.5506.5624 37-31.5 24.0625-.8868-38.5938zm-291.9688 8.4688 16.1875 11.1875-.5625 36.7187L4416 222.4062Zm443.125 12.375.125 26.5625c-62.1062 87.6016-94.6944 187.659-104.6562 314.375l-15.125-.5c4.002-126.0043 46.4229-240.972 119.6562-340.4375zm-420.625 2.7187 38.3125 25.0313-1.6563 41.875-34.7812-22.3125-3.25-8.5625zm231.9375 1.7813-.1563 38.9375-29.5937 21.9687-1.375-38.6563zM4320.5 245.9063c4.3898.053 7.8966 3.2498 8.7188 9.3125 3.2493 25.8793 22.941 18.4095 27.625 26.1875 1.7716 2.6536-2.4276 4.9591-15.9063 3.875-24.7125-1.8485-42.7258-21.8356-30.0937-35 3.2466-2.983 6.6527-4.4113 9.6562-4.375zm170.7812 16.6875L4524 283.4375l-.094 43-32.0624-19.5625zm149.2813.125 2.5313 38.0312-35.8126 23.8125L4606 286.7812Zm68.1563.1562-20.5626 43.7813-119.9687 86.3125L4468.625 328.5l-18.4688-42.25 116.1563 75.7813zm-323.5313 17.375c31.8803-.3908 56.3456 33.4463 64.7187 63.0938 6.0878 19.6037 7.0136 26.6589 7.6563 57.7812.6572 31.7034 1.6518 37.1769 7.5937 41.6563 3.6608 2.7585 4.725 2.0139 5.1876-3.5938 1.0328-12.4574 15.9254-4.781 16.1874 8.3438.2888 14.5777-15.7604 19.2616-27.625 8.0625-6.3183-5.9628-6.3997-5.9056-8.375 5.8125-1.316 7.8493-10.4637 56.9902 12.9063 69.2187 4.4002.4165 5.4544-3.1121 2.1875-7.2188-6.558-8.2376 6.5409-17.744 17.2188-12.5 12.9049 6.3392 11.5979 27.1375-2.1876 34.5313-15.7691 8.459-36.1607-1.1545-45.6874-21.5313-6.9909-14.958-6.9604-35.6972.125-66.5 3.2655-14.1967 4.7023-23.2372 5.4374-34.125.2414-3.5743.6649-7.4665.9376-8.6562.7605-3.3184-.8768-3.4754-6.5313-.625-15.4304 7.7786-32.2599 2.2502-36.4063-11.9688-4.9573-17.0004 13.9907-34.5644 25.6876-23.8125 4.4403 4.0808 3.9014 8.134-1.4063 10.75-9.1984 4.5316-6.0568 16.453 3.7187 14.0938 32.2294-9.6449 2.7626-100.082-33.5312-106.3438-23.9958-4.14-42.8339 23.1927-25.4688 37.8125 6.8031 5.7277 13.7067 2.6542 12.2188-5.4375-2.072-11.287 12.9223-10.0674 18.4688 1.5 9.0233 18.8237-14.273 34.1444-36.0313 23.7188-39.0498-23.1885-12.3553-73.3512 23-74.0625zm144.5313 7.1875 32.1562 21.5938.2812 41.9687-31.9374-18.9375zm70.8437 3.625.1563 38.5313-31.0313 22.5625v-41zm83.5937 25.25-15.875 44.2188-100.1562 68.5-82.625-51.8125-14.2188-40.9063 97.3438 63.0625zm-650.0312 3.2188-.031 223.8437c-32.4536 1.3813-51.0851 33.4812-26.7813 63.8125 0 0-4.2353.571-9.1875 1.25-21.9544 3.0108-36.6608 14.6473-33.75 28.75.8915 4.3207-.011 8.6856-1.25 10.8438-1.9542 5.7958-1.4376 10.2225 1.1875 15.2187 2.0609 3.9238 1.7182 5.5008.5625 8.4063-2.4902 6.2555-1.895 11.0759 1.0312 15.8437 3.6154 3.5374 2.6114 6.3934 2.125 12.0625-.5793 8.0066.8596 11.2277 5.9063 14.3438 6.5055 4.0167 8.9298 10.6038 1.5313 10.0625-3.6722-.2687-16.5938 12.1875-16.5938 12.1875l-1.219-359.2188zm175.9688 28.7187c5.8077-.0148 11.7883 7.2809 20.375 19.5938 5.1907 8.8186 5.281 7.6224 17.1562 7.1562 12.1291.8835 19.5164 4.0865 22.6875 7.75 1.1982 1.387-1.983 1.7486-9.6563 9.5313-7.9551 8.0708-9.0591 11.28-14.3437 20.3125-1.9031 3.2567-6.0556 3.5641-8 .5937-1.571-2.4035 2.4529-10.221 10-19.4375 10.6471-10.2763 8.4101-11.3121-7.0625-9.6875-10.8694 1.1413-12.0304.5984-16.1562-6-12.3056-24.4638-18.8427-23.6378-30.625.75-3.2139 6.825-1.9365 6.3865-15.875 5.3125-10.9764-.8456-13.6915 1.9235-7.5 7.6875 9.67 7.938 13.4374 26.6652 12.9062 26.4375l-7.4688.6875s-2.282-4.2172-3.2812-6.875c-2.0245-5.3801-7.4671-13.4637-13.375-19.8438-8.368-9.0395-3.7711-13.9842 14.9062-16 10.4091-1.1233 10.6466-1.267 15.4376-8.2812 8.4372-12.3564 14.0672-19.6726 19.875-19.6875zm454.3124 22.2813-10.7812 38.1875-85.4375 59.9062-69.5-46.375-9.2187-35.9063 79.8437 50.5625zm-294.5624 30.25s24.6961 48.1084 33.6562 79.2812c7.7945 27.119 18.6324 105.6364 15.7812 110.4688-6.0705-8.3307-26.1335-6.4517-26.4062-6.375 1.6987-9.1983-5.7348-27.7373-22.8438-31.4063zm281.0937 17.5937-8.5313 37.5938-72.75 52.5937-60.0312-41-7.875-36.3438 66.4375 44.375zM4228 420.4688l9.4375 3.2812 1.7813 67.9063L4312 503.75l1.6562 11.625-84.2812-13.5938c-.8836-28.959-1.375-81.3125-1.375-81.3125zm-36.9375 2.0312 2.0313 78.9688c-.7872-.2625-60.6727 8.2727-83.5938 14.2812l1.3438-10.8125s41.6287-9.0534 71.7812-12.5313c0-22.0823-.1734-45.3075-.2188-67.8125zm677.125 14.5313s9.904.9208 31.0937-2.8125c54.6275-9.5576 69.4233-5.6847 76.4063 11.1562 7.6301 26.1135-20.9999 26.7454-26.1011 10.1683-3.2456-10.7436-14.9776-8.391-54.1489.8942-33.5006 7.941-54.7277 1.5837-54.3195-17.3942.4196-19.5125 22.6477-21.2382 27.0695-2.012zM4419.25 422.75c6.7549-.0981 12.3394 5.3076 12.4375 12.0625.098 6.755-5.3076 12.3081-12.0625 12.4063-6.7549.098-12.3081-5.2764-12.4062-12.0313-.099-6.755 5.2763-12.3394 12.0312-12.4375zm-177.4688 2.1563 8.625 2.5937s1.2714 51.5113 1.5313 51.5938c18.5609 4.091 57.5313 11.4062 57.5313 11.4062l2.0624 10.1875c-16.3125-3.8292-68.3124-12.3438-68.3124-12.3438-1.6225-22.3389-1.4376-63.4375-1.4376-63.4375zm-62.9687.9687s.033 41.105-.6563 63.1875c.2902-.1934-44.1272 7.0718-66.6874 11.75l1.75-8.25c17.8404-4.0279 37.258-8.0682 56.9062-12.1875-.3896-16.1681-.375-51.625-.375-51.625zm31.7187 8.8438c5.4237-.0788 9.9213 4.295 10 9.7187.079 5.4237-4.2951 9.8587-9.7187 9.9375-5.4236.0788-9.8587-4.2326-9.9375-9.6563-.079-5.4236 4.2326-9.9212 9.6562-10zm739.125 25.6562c6.0435 8.953 11.1087 8.6859 17.0626 7.8125-1.4998.4412-8.5273 4.5964-8.125 5.9688.2011.6862-2.9651 12.0044 1.8437 12.4687 18.128 1.7501 8.9547 20.5749 11.125 23.4688 4.9011 5.585 8.4863 9.1283 5.125 16.0937-2.9812 6.1827-7.2633 5.9871-3.9375 11.2813 7.2234 10.8577-2.7558 13.1094-1.875 20.5.6071 4.462 2.1772 10.5593.5312 14.0312-4.9623 10.466-22.4881 16.4343-41.9687 17.25-2.7758.1242-.67-4.4117-1.9687-7.2813-4.8162-3.0449-2.1798-8.1745-.5626-11.5312 1.5978-4.4565 1.6117-4.46-1.375-6.7188-8.3134-5.1656-7.8859-7.5475-7.2187-11.2812 1.8219-11.036.1079-12.1162-3.2187-13.75-4.2625-2.0934-3.6793-6.7488-1.7813-12.7188 1.3099-4.127.3826-5.1606-1.625-8.9062-1.1815-2.2018-1.5334-3.3987-1.5625-4.8125.5989-5.6992-4.5079-5.6792-11.6562-.0937-6.0616 10.4448-8.1424 24.1523-11.9376 32.8125-2.9363 6.652-3.4018 13.6017.094 28.9375 6.7098 23.4407 1.7271 27.349-24.6562 22.3438-19.8408-4.88-25.7015-26.0525-20.1876-51.9688.8923-4.192.6476-8.2458.25-11.5313-2.159-17.8408 2.4528-34.9775 14.9063-46.6875 20.7857-19.5447 31.0626-22.522 74.0313-19.7812 16.816 1.1893 18.0937 2.25 18.0937 2.25s.073-8.0918.5937-8.1563zm-309.4687 5.375-5 36.3438-41.0204 28.2006c-18.0606-16.6825-37.2108-11.1487-46.3546 6.3306-10.5888-5.3686-31.75-20-31.75-20l-5.4063-41.2188 58.6563 40.6875zm-428.7813 8.625c5.4225-.0788 9.8588 4.2638 9.9376 9.6875.079 5.4237-4.2339 9.89-9.6563 9.9688-5.4237.0788-9.9212-4.2326-10-9.6563-.079-5.4237 4.295-9.9212 9.7187-10zm422.0313 37.2188-2.2187 35-14.3438 10.7812-18.4974-.9325c1.7106-8.9031-1.015-21.167-.835-21.2852zm-422.2813.2812c5.4237-.0788 9.9213 4.295 10 9.7188.079 5.4236-4.2951 9.8587-9.7187 9.9375-5.4236.0788-9.8587-4.2326-9.9375-9.6563-.079-5.4237 4.2326-9.9212 9.6562-10zm39.5626 1.0938c5.4222-.0788 9.8587 4.2325 9.9374 9.6562.079 5.4237-4.234 9.89-9.6562 9.9688-5.4237.0788-9.8886-4.264-9.9688-9.6875-.079-5.4237 4.2638-9.8588 9.6876-9.9375zm-78.6563 1.875c5.4236-.0788 9.89 4.2638 9.9687 9.6875.079 5.4236-4.2326 9.89-9.6562 9.9687-5.4236.0788-9.9212-4.2638-10-9.6875-.08-5.4236 4.2639-9.89 9.6875-9.9688zm730.5937 1.5937c2.7677-.2235 6.8659 3.8812 4.875 10.0313-2.6672 7.0188-.7935 9.4052 3.6563 15.0937 3.765 4.813 3.0998 5.4809 2.5313 8.5625-.8659 20.2056 12.1513 11.4735 6.5 26.1563-1.2299 3.195.4 7.7572.9687 11.5312-1.2714-3.4558-25.2168-3.1395-27.25.375-3.4073-.5082-7.7234-23.002-4.2813-25.9688.4429-.009 2.9369 3.8573 4.2188 6.0313 3.2162 5.4546 3.908 5.2554 2.9062-1.0625-3.9773-25.0759-1.5953-50.5958 5.875-50.75zm-612.2812 1.75c5.4236-.0788 9.89 4.2638 9.9688 9.6875.079 5.4237-4.2639 9.8587-9.6876 9.9375-5.4236.0788-9.8587-4.2326-9.9374-9.6563-.079-5.4236 4.2326-9.89 9.6562-9.9687zM4131.25 520c5.4237-.0788 9.8578 4.2639 9.9375 9.6875.079 5.4237-4.2325 9.8587-9.6563 9.9375-5.4227.0788-9.9212-4.2326-10-9.6563-.079-5.4236 4.2961-9.89 9.7188-9.9687zm385.25 2.8438 29.4375 19.0937c.4044 5.3103-1.1698 7.087 1.6875 17.5625-19.2119-1.7909-28.9366 9.1557-28.9375 9.1563zm-209.6875 30.5312-2.2813 10.375c-58.002-14.9284-122.8325-15.7147-184.7812.6875l-4.8125-10.9063c62.5688-18.9746 129.0512-19.6716 191.875-.1562zm-274.625-.6563c8.4464-.1465 17.078 3.0001 23.1563 9.8125 11.4198 12.7943 5.9243 36.521-10.2188 44.0625-24.1564 11.2861-49.3202-12.847-39.0625-37.7187 4.2592-10.3272 15.2654-15.9678 26.125-16.1563zm597.8437 3.0313-.375 10.4063-7.3437-6.125zm-153.7187.4688c10.6502-.1547 19.4078 8.3811 19.5625 19.0312.1547 10.65-8.3498 19.4078-19 19.5625-10.6494.1547-19.4078-8.35-19.5625-19-.1547-10.65 8.3506-19.439 19-19.5938zm-443.5937.625c-2.5952.0368-6.9143 1.097-8.875 2.9062-5.1404 4.7434.023 4.8778 6.8124 6.125 12.0566 2.2149 15.3783 12.597 14.2813 23.8125-.997 10.1929 2.4276 10.0342 5.1875 6.25 11.2362-15.4026 1.6441-37.8492-17.4062-39.0938zm178.5312 11.1875c14.4288-.298 15.9423 23.4288 3.1875 49.9375-3.8347 7.9696-5.7918 6.9777-10-5.0625-10.373-29.6783-8.1196-44.5667 6.8125-44.875zm33.375.6875c2.7825-.1407 5.4794.9212 7.6875 3.4375 7.7574 8.8428 1.791 23.156-18.875 45.1875-5.024 5.3558-7.6247 7.3994-9.4687 7.4375-5.1737.1068-5.1513-.7528.7187-19.875 3.8206-11.2562 5.7079-35.5256 19.9375-36.1875zm-46.75 41.5312c1.5842 4.6067 2.6355 8.9891 2.375 9.7188-1.2745 3.537-10.4854-1.2717-17.0625-8.9063-13.244-15.3757-18.5245-28.7501-15.7865-35.9309 4.0158-5.7503 15.279-9.0642 19.0249-3.2745 7.0933 10.9637 7.0649 25.4213 11.4491 38.3929zm85.8125-35.625c13.961 8.2333-2.1227 27.0304-33.4063 42.625-13.3848 6.6727-12.429 3.6672-2.2812-9.5 3.8838-5.0393 9.085-13.2403 11.625-18.25 5.6153-11.0753 11.2366-22.1553 24.0625-14.875zm-139.375.0625c4.4324-.0362 8.9674 4.7047 17.375 16.875 6.062 9.0876 16.8663 18.341 20 26.0313-1.4426 8.5329-44.9926-18.4987-48.125-29.875-1.0764-6.9377 4.3827-13.1422 10.75-13.0313zm623.3125 24.75c7.8535 16.1513 8.5297 26.1921 2.0312 29.8438-9.2313 5.1885-21.1039-2.7239-21.3437-14.2188-.08-3.8618-4.0516-17.3382-7.6875-26.0938-2.9939-7.2051-3.4024-11.652-.9408-12.0085 9.6271 1.5408 23.8755 14.8894 27.9408 22.4773zm-52.125-12.25c-4.4607 11.4435-5.0241 26.2144-8.4062 35.3438-6.337 17.1056-26.8448 3.0283-19.9063-14.125 6.259-15.4655 22.1859-31.5639 28.4611-32.097 4.293-.3646.2826 9.5252-.1486 10.8782zm12.7117-8.8632c3.146-.3104 5.785 6.566 9.8508 18.1445 5.4921 15.6402 5.263 27.8391-.6563 33.0312-12.6873 11.1307-26.001-5.0299-20.875-25.3438 4.0987-16.2352 8.1149-25.4802 11.6805-25.832zM4302.5 581.1875c15.7939 232.457-103.3718 411.3-111.8617 416.1791l-40.5476 22.1716-71.1293-38.7449c73.7058-101.0644 117.7647-216.8995 121.1011-351.4183 68.1853 6.62 103.2628-47.9448 102.4375-48.1875zm390.7565.7382c4.9739-1.3636 1.5029 2.9806-3.431 10.0948-5.265 7.5915-12.0996 28.2312-17.5195 31.5377-12.1597 5.8452-25.9189-5.2937-18.542-14.973 6.7927-8.9128 26.7535-23.167 39.4925-26.6595zm72.3373 1.5743c1.9089-.008 5.4741 1.2506 10.6562 3.7813 25.3181 12.3637 37.8042 28.6716 26.9698 36.472-7.6073 5.477-15.7411 1.2283-23.3448-13.1908-2.5805-4.8978-7.2958-12.1674-10.4375-16.1875-5.6977-7.2856-7.0232-10.8622-3.8437-10.875zm142.3437 8.2813c16.2707-.2363 29.6387 12.729 29.875 29 .2363 16.2709-12.7606 29.6699-29.0313 29.9062-16.2709.2363-29.6384-12.7916-29.875-29.0625-.2363-16.271 12.7603-29.6074 29.0313-29.8438zm-8.9645 7.6476c-19.1458 8.4815-13.3789 38.5406 3.1208 42.8836 6.9684 1.95 15.4466-.9498 11.9525-4.3017-21.7981-6.8404-21.9385-22.909-13.1574-34.669 1.411-1.8896-.4814-4.5484-1.9159-3.9129zm-797.5108 41.3459c-.7442 16.9885 2.8765 36.6642-5.181 55.1314-12.356 28.3192-51.8027 41.2965-72.9062 38.7813-4.3956-1.8054-9.5169-3.5162-13.8512-1.6773-2.6221 1.1124-5.8559.9704-8.653-.331-2.698-1.2554-5.2876.389-7.902-.5542-3.0585-2.0663-8.0557-6.7585-7.4688-10.25.9546-4.9234.5744-8.5716-5.1875-10.1875-7.9844-2.2382-9.5997-6.5506-7.25-19.1875.5077-2.7303 1.1198-3.9665-.6563-5.1563-5.8806-3.9413-8.1123-11.2293-4.25-18.9062 2.5182-4.4227 4.1469-6.136.4793-10.5262-2.8422-3.4022-2.0167-6.1197 1.8337-11.2863 4.1031-4.904 4.8187-5.4653 2.1874-9.6563-5.9131-9.4195.7872-16.3696 8.75-20.25 10.6687-4.3761 19.9906-6.6342 31.25-7.9375 4.1881.2357 4.0101 3.9192 6.5313 7.4688 3.7077 5.7658-1.5199 14.1057 1.5 17.0625 4.362 2.0128 6.3447 6.0326 6 9.4688-.152 8.0043.3317 10.7428 2.5 14.0937 2.4013 3.711 3.3052 10.5274 1.0625 15.1605-1.9965 4.1245-1.7789 3.845.8438 6.277 2.5957 2.407 3.8742 14.4747 2.9519 14.2441l10.9501-1.0028c-1.1427 1.2186 4.118-22.565 16.5987-40.9517-.688-14.4049-6.176-27.6506-5.6883-46.6743 27.0512-9.6852 46.5866 13.3123 45.5556 36.847zm420.1628-32.3686c3.9057 3.0664 23.2907 8.462 24 7.8438-.6073 9.2832 5.0435 27.3178 25.25 33.3438.2431 25.8746.031 145.3437.031 145.3437-28.1458-47.1616-45.5907-108.0443-49.2812-186.5313zm-470.8125 4.2188s1.0725 3.4423 2.0625 10.0938c1.7281 13.59-.1362 15.4455-3.75 6.1562-4.2318-10.8779-4.4512-2.4028.3125 22.5 1.1531 6.031 1.1093 7.4314-.375 11.5-.928 2.5503-2.5834 8.478-3.875 13.125-3.8066 13.6713-6.031 17.6001-9.9375 6.7188-1.9918-5.5478-3.659-6.4126-2.237-10.7565 1.7778-5.4382 1.3496-9.5139-2.2318-14.806-.5852-.8646-1.8713-2.846-2.0937-8.4688 1.1005-12.6243-4.5187-12.7432-5.6239-16.0067.1881-4.9386-2.1186-16.909 1.2802-16.587 2.7986.2651 12.925.5452 17.7187-1.2188 2.124-.7816 8.75-2.25 8.75-2.25zm419.5625 1.5625c10.4529-.1518 19.0357 8.2034 19.1875 18.6563.1518 10.4528-8.2034 19.0356-18.6563 19.1875-10.4528.1518-19.0669-8.1722-19.2187-18.625-.1518-10.453 8.2346-19.067 18.6875-19.2188zm-292.25 11.5313 14.3438 2.7187c3.1962 1.0654.8663 198.8302-113.9376 341.5625l-1-33.0625c54.6279-79.0618 93.9654-176.022 100.5938-311.2188zm243.2188 4.1562 2.625 47.25c-8.0762-6.868-28.5892-19.7255-28.4376-20l.094-17.4688c.019.0364 17.63 1.3508 25.7188-9.7812zm-110.5626.6563c3.4592 1.456 6.4752 4.8028 9.4376 7.2187l-9.375 6.3125zm328.625 2.375c61.9313 18.369 122.9183 17.8375 183.2188 4.4062l4.125 11.5625c-65.428 17.736-130.4506 16.7124-195.0625-3.9063zm-299.9374 8.8437 3.3124 20.375-34.9493 22.6218 1.6993-30.9343L4327.75 642Zm309.4062 16.9688c5.6458-.082 10.293 4.4456 10.375 10.0937.082 5.648-4.4479 10.293-10.0938 10.375-5.6481.082-10.2617-4.4457-10.3437-10.0938-.082-5.648 4.4144-10.293 10.0625-10.375zm159.125.8437c5.6481-.082 10.293 4.4457 10.375 10.0938.083 5.648-4.4456 10.293-10.0938 10.375-5.6481.082-10.2617-4.4457-10.3437-10.0938-.083-5.648 4.4144-10.293 10.0625-10.375zm-298.0312 31.789c4.5804 16.1435 3.5824 52.623-2.3126 77.3672-1.7696 7.4303-2.8437 33.805-2.8437 33.805-1.0937 1.3804 35.0794-29.9346 46.7102 11.1316 3.999 14.1196-12.2531 27.5062-23.1316 23.5882-2.1185-.763-1.479-7.7553.5464-11.8685 6.0337-12.2805-11.1677-18.6645-20.9687-7.7813-22.6441 25.1469.6548 88.8154 36.1562 95 29.4718 5.1341 53.1034-24.2041 33.4375-41.6875-8.601-7.6455-22.3597 2.8933-16.0625 12.625 6.7275 10.3976-5.6604 14.5447-15.0312 4.9063-16.3401-16.8065 2.0056-42.1033 26.6874-36.25 39.4559 8.9711 31.3378 70.6522-10.0312 74.125-31.6349 2.6556-52.9335-11.1253-66.3125-35.5625-12.567-23.4818-13.5009-42.1967-7.75-83.375 3.4156-24.447.6056-45.0465-6.1875-44.9063-3.7259.077-6.63 1.8727-7.2188 6.25-1.2045 8.9555-2.2328 10.6281-7.8437 7.375-7.1248-4.1303-11.0844-17.4348.5625-26.4375 11.9405-9.229 27.4132 5.1738 26.7812 7.6563.288-.4568 1.4905-2.7972 3.0938-13.2813 5.2167-34.1105-6.3716-70.1494-20.6875-64.375-3.1416 1.2673-2.7644 2.6884 1.3437 5 9.5374 5.3637 1.1327 19.1088-10.8437 17.7188-16.9601-1.9687-20.8152-25.6293-5.875-36.0938 23.5326-12.6868 42.7047 7.178 47.7813 25.0702zm-115.7813-28.414s30.0868 18.3499 31.6875 23.0625c1.0248 3.0216 2.25 29.3438 2.25 29.3438l-52.2188-32.6875-74.8632 46.2812c1.2248-10.1589 6.6132-36.3125 6.6132-36.3125l39.8126-25.1875c.1973 1.5167 27.5394 19.5635 46.7187-4.5zm373.8437 1.75c5.6482-.082 10.293 4.4457 10.375 10.0938.082 5.648-4.4143 10.293-10.0624 10.375-5.6462.082-10.293-4.4145-10.375-10.0625-.082-5.6481 4.4163-10.3243 10.0624-10.4063zm-79.6874.1563c5.6459-.082 10.3221 4.4144 10.4062 10.0625.082 5.648-4.4791 10.3242-10.125 10.4062-5.6481.082-10.2617-4.4457-10.3438-10.0938-.082-5.648 4.4144-10.293 10.0626-10.375zm40.0624 2.3125c5.6482-.082 10.3243 4.4456 10.4063 10.0937.082 5.648-4.4456 10.293-10.0937 10.375-5.6482.082-10.291-4.4457-10.375-10.0938-.082-5.648 4.4143-10.293 10.0624-10.375zm-100.3124 14.5c27.1113 5.6417 54.2901 11.44 80.2812 14.2812l1.0625 79.7813-7.5937-.4375L4700.75 704c-25.108-1.7968-48.7905-7.186-71.0312-12.9375zm201.5937 2.5937-1.4063 9.375s-46.9067 8.1188-71.4062 11.2813c-.3906 16.0596-.3438 69.7187-.3438 69.7187l-9.375 1.7188-.031-81.2188c27.816-3.0239 55.5968-6.1505 82.5625-10.875zm-453.875 4.5 55.2187 36.5 6.5 38.6875-64.375-42.7813S4314.8015 760.435 4292.9688 775l6.6562-36.4688zm254.9063 7.2188c22.2296 4.7037 44.4578 9.5924 66.6874 11.5l.9376 64.1875-10.2188-2.7188-.8125-52.0938c-17.3613-1.5033-35.1922-4.8669-53.125-8.6562zm196.6562 1.9062-1.875 8.7188s-35.5798 5.3634-53.9375 8.6562c-1.6251.373-1.0313 56.5-1.0313 56.5l-8.7812 1.3438-1.0312-65.5313zm-99.6562 7.1875c5.6481-.082 10.2599 4.4457 10.3437 10.0938.082 5.648-4.4144 10.293-10.0625 10.375-5.6481.082-10.2912-4.4145-10.375-10.0625-.082-5.6481 4.4456-10.3243 10.0938-10.4063zm-352.75 23.1563 65.2812 44.0625s7.568 22.9477 9.1875 35.6562l-75.125-48.5-94 62.3125 10.875-38.5zm-395.6876 1.3437c3.8725.0521 7.7372 2.6424 9.75 8.5938 2.834 8.3763 8.1202 10.851 22.0313 10.5937 27.3116-1.457 55.9398-14.2903 81.7187-4.6563 12.5288 4.6156 16.9913 23.0946 6.5 27.9063-11.3868 5.2225-16.2396 1.9415-20.1874-7-3.6478-3.8009-8.1807-3.2057-32.6563 1-10.7967 1.7513-23.4842 3.3244-34.1563 4.1875-27.2855 2.205-42.3532-6.3917-45.75-22.625-2.1703-10.3797 6.2969-18.087 12.75-18zm747.875 14.9063c5.6482-.082 10.2913 4.4144 10.375 10.0625.082 5.648-4.4456 10.3242-10.0937 10.4062-5.6481.082-10.293-4.4457-10.375-10.0938-.082-5.648 4.4456-10.293 10.0937-10.375zm-200 12.4687c7.3461-.1067 13.3934 5.7784 13.5 13.125.1072 7.3466-5.7789 13.3933-13.125 13.5-7.3466.1067-13.362-5.7784-13.4687-13.125-.1067-7.3466 5.7471-13.3933 13.0937-13.5zm-152.0937 9.3125s53.7232 35.891 78.5937 52.4688l13.75 39.5-91.5-59.5-111.9616 72.8413 13.4304-40.6226zm387.875 12.3438c4.8745 13.1252 13.7128 23.1249 23.0625 33.2812 0 0-5.2066 9.8651-23.7812 9.2813-10.1466-.319-10.6904 1.2742-14.1563 8.1562-5.6909 8.7202-10.3219 14.4179-14 17.25-6.5049 5.0087-18.699-2.4742-28.75-17.6875-3.6624-5.5434-5.1791-6.853-16.2187-6.625-16.9511.35-23.0858-4.3509-14.2813-11.9688 7.6775-9.3532 13.194-19.637 20.0625-29.4687l7.625.875c.3233 1.1315-5.9275 20.0147-14.7188 27.6875-4.4615 5.0375 1.7846 6.864 12.6876 4.5625 6.9155-2.0825 8.6885-1.2656 13.8124 9.3125 10.6726 20.1776 16.2204 19.2036 28.875-1.25 4.4198-9.1302 4.2521-10.0364 16.4063-7.4063 13.0485 1.3136 16.985-.3246 11.625-4.875-10.8352-9.1944-16.8125-30.875-16.8125-30.875zm-387.4063 27.0312s97.1583 63.6348 96.9063 62.25l19.4687 45.875-114.0312-75.8438L4238.5625 928.5l20.8437-45.4063zm3.75 41.7813 33.875 22.2812-.094 40.0938-34.5937-23.25zm-8.6874 1.1562.625 39.5625-30.375 18.0938-1.6876-37.125zm-38.193 25.2319 1.443 37.8618-34.9376 24.2188.125-40.2813zm89.1304.7056 31.8438 21.25 1.3125 42.4375-34.5625-22.625zm39.3126 25.9063 31.9374 22.1875 1.125 42.375L4461.2812 943Zm-169.0313.1562-.1563 39.1563-31.7812 21.8082-1.5-39.6208zm336.125 50.5313c-6.3069 6.5739-8.6346 5.759-14.0313-5.0938-5.6023-11.2613-14.0066-16.525-26.1874-16.3125-15.3655.2676-5.3196-9.8077 10.9687-11 28.1625-1.2403 42.4563 17.6555 29.25 32.4063zm-377.5307-24.4436 1.6557 38.902-32.0078 18.0599-.5859-18.3934L4235.75 936.75Zm-37.0028 45.9164.4238 13.7926-8.1403 5.3785zm377.6272 291.1834c-133.0879 28.474-260.684 18.4136-352.25 1.4688l-41.8437 71.5-2.875-.125-10.7813 18.5 1.1563 2.125s-34.7662 66.7127-49.4063 87.75c171.0427-1.6475 546.4688-2.4688 546.4688-2.4688l-22.875-46 1.25-1.25-22.5938-48.0312-7.3437-8.3126s-4.4855-8.6805-7.8437-18c-3.0889-8.5777-16.3438-32.0624-16.3438-32.0624l-1.875.1562zm-347.4374 10.0625c1.764 1.3992 170.4732 33.1916 345.3437.5313l9.5625 16c-153.0456 35.2214-374.489 1.5774-365.75-1.6876zm2.9062 31.4687c15.4271-.551 31.0582 7.7374 41.5938 21.5626 3.3527 4.3994 8.8437 17.375 8.8437 17.375s7.3829-12.2245 14.625-18.3438c10.9525-9.2545 25.1605-16.9821 45.7187-16.25 18.9254.6741 39.7616 10.9195 58.5626 40.5312 4.7454-17.0858 66.9327-75.1416 118.1562-2.75 5.8583-19.2363 33.271-57.6583 77.6562-30.8124 3.0307 6.4883 6.1563 13.625 6.1563 13.625-26.1962-18.3448-69.3833-6.04-79.5937 22.5937-.9156 3.4872.2433 5.3009 1.5937 8.6875 13.4992 19.2942-21.6246 18.8313-11.2187 3.2188 1.9463-3.5491 2.1059-6.4707-1-11.125-8.237-12.3432-33.0269-27.7064-51.2188-27.3126-21.0082.4567-44.2862 14.3971-52.0625 27.0626-2.8692 4.6731-3.5216 9.3524-1 13.4374 1.8312 4.1191 1.2044 7.5669-1.875 10.0938-7.2358 5.9362-16.3235-.9107-12.8437-9.6875 2.2899-3.8671 1.937-8.6072-2.75-15.1875-9.4138-13.2166-31.3817-27.1448-50.5-26.75-27.3618.6319-55.0007 20.3374-53.25 36.5625.7695 7.1318-1.1808 9.79-7 8.9687-7.0773-.9985-7.8801-7.6813-2.875-13.125.7419-1.7439 1.9407-5.9722-.3438-9.0624-28.8917-39.0736-72.1517-27.685-82.0625-18.9376 9.6294-16.5091 23.0754-23.8887 36.6875-24.375zm-25.7188 27.125c10.8424.089 22.5194 8.2862 26.2188 14.6876 2.6794-2.774 27.2047-14.4717 39.125 2.25-31.2195-2.3513-31.6027 30.7782-8.5312 33.9687-10.5209 31.9618 36.6454 33.8932 33.6562 3.875 35.2403 5.2081 30.8929-39.4654-2.2812-34.75 17.3791-12.656 29.2067-8.5701 50.0937 5.9375 7.0214-9.1415 35.6545-17.6857 42.6875-1.7188-32.8195-2.0246-27.2294 35.9819-2.7188 36.3126-7.2823 26.339 40.9349 36.0275 33.5-3.3126 30.6047 2.1454 26.1734-39.2003-3.1562-35.7812 2.1733-7.5229 31.9401-10.7748 45.0938 3.5938 12.0862-11.0327 25.4297-18.5885 49.5312-2.8126-32.8624-5.4772-33.2707 37.1837-2.75 34.625-2.8483 28.2521 40.3029 28.7275 33.0938-3.9062 32.8529-8.8667 14.788-44.0279-9.3438-34.3438 10.7421-12.7694 28.9825-6.7475 36.2188-4.1562 22.3607-25.5931 41.8437-4.1875 41.8437-4.1875-38.9157-4.064-30.4517 51.4006 7.4687 31.2813-.038 11.4115 4.8614 21.2916 20.3438 22.9062l18.4062 38.0938-521.5866 3.4374 28.7788-50.6156c2.9087.9158 19.5412 2.4281 23.1204-17.0718 34.2755 10.8728 36.5747-29.0354 10.9687-35.3438 3.1027-2.1417 6.6046-2.9983 10.2187-2.9688zm-20.3437 14.4376c3.4082 5.4754.5541 9.0421-5.3125 9.1874 0 0 3.8157-5.5427 5.3125-9.1874zm429.0937 7.0624 3.375 7.0938c-3.6519-1.4799-4.1011-3.0452-3.3752-7.0938z" style="fill:#000000"/>
      </g>
    </g>
    <path style="opacity:1;fill:#000000" d="M3796.8899-810.1461c9.7745-.2123 14.1574-11.2173 6.9184-19.7633-1.0499-1.2465-1.1582-1.962.7646-.7646 4.8738 3.2593 14.2192 1.1167 14.6978-8.8473.5911-12.2769-16.5629-15.8142-19.7837-2.7596-.1701 1.3774-1.2895 1.346-1.0196-.6092.2937-5.3063 1.9509-10.266 4.2287-15.1025h-11.6202c2.2776 4.8365 3.9349 9.7962 4.2286 15.1025.2699 1.9552-.8495 1.9866-1.0195.6092-3.2209-13.0546-20.3749-9.5173-19.7838 2.7596.4785 9.964 9.824 12.1066 14.6979 8.8473 1.9227-1.1973 1.8144-.482.7645.7646-7.239 8.546-2.8561 19.551 6.9183 19.7633 0 0 0-.0001.01 0z"/>
    <path style="opacity:1;fill:#000000;stroke-width:1;stroke-miterlimit:4;stroke-dasharray:none" d="M3693.8191-1055.7791c9.7745.2122 14.1574 11.2172 6.9184 19.7632-1.0499 1.2465-1.1582 1.9618.7645.7645 4.8739-3.2592 14.2193-1.1166 14.6979 8.8473.5911 12.277-16.5629 15.8142-19.7838 2.7596-.17-1.3772-1.2894-1.3458-1.0195.6093.2937 5.3064 1.9509 10.266 4.2287 15.1024h-11.6203c2.2777-4.8364 3.935-9.796 4.2287-15.1024.2699-1.9551-.8495-1.9865-1.0195-.6093-3.2209 13.0546-20.3749 9.5174-19.7838-2.7596.4785-9.9639 9.824-12.1065 14.6979-8.8473 1.9227 1.1973 1.8144.482.7645-.7645-7.239-8.546-2.8561-19.551 6.9183-19.7632 0-.0001 0 0 .01 0z"/>
  </g>
  <g transform="translate(-334.7699 127.8801)" sodipodi:insensitive="true">
    <rect style="opacity:1;vector-effect:none;fill:#006614;fill-opacity:1;stroke:none;stroke-width:1.74801;stroke-linecap:butt;stroke-linejoin:miter;stroke-miterlimit:4;stroke-dasharray:none;stroke-dashoffset:0;stroke-opacity:1" width="1659.9126" height="794.398" x="-356.4728" y="-1029.6816" rx="144.4816" ry="124.6822"/>
    <text y="-935.8134" x="472.1945" style="font-style:normal;font-variant:normal;font-weight:normal;font-stretch:normal;font-size:42.6667px;line-height:125%;font-family:Carlito;-inkscape-font-specification:'Carlito, Normal';text-align:center;letter-spacing:0px;word-spacing:0px;writing-mode:lr-tb;text-anchor:middle;fill:#ffffff;fill-opacity:1;stroke:none;stroke-width:1.06667px;stroke-linecap:butt;stroke-linejoin:miter;stroke-opacity:1" xml:space="preserve"><tspan style="font-style:normal;font-variant:normal;font-weight:normal;font-stretch:normal;font-size:48px;line-height:125%;font-family:Carlito;-inkscape-font-specification:'Carlito, Normal';text-align:center;writing-mode:lr-tb;text-anchor:middle;fill:#ffffff;fill-opacity:1;stroke-width:1.06667px" y="-935.8134" x="472.1945" sodipodi:role="line">Single Playing Card from:</tspan><tspan style="font-style:normal;font-variant:normal;font-weight:normal;font-stretch:normal;font-size:48px;line-height:125%;font-family:Carlito;-inkscape-font-specification:'Carlito, Normal';text-align:center;writing-mode:lr-tb;text-anchor:middle;fill:#ffffff;fill-opacity:1;stroke-width:1.06667px" y="-875.8134" x="472.1945" sodipodi:role="line">Standard Edition - Color Set - Bordered </tspan><tspan style="font-style:normal;font-variant:normal;font-weight:normal;font-stretch:normal;font-size:48px;line-height:125%;font-family:Carlito;-inkscape-font-specification:'Carlito, Normal';text-align:center;writing-mode:lr-tb;text-anchor:middle;fill:#ffaaaa;fill-opacity:1;stroke-width:1.06667px" y="-762.48" x="472.1945" sodipodi:role="line">Copyright 2011, 2020 - Chris Aguilar - conjurenation@gmail.com</tspan><tspan style="font-style:normal;font-variant:normal;font-weight:normal;font-stretch:normal;font-size:48px;line-height:125%;font-family:Carlito;-inkscape-font-specification:'Carlito, Normal';text-align:center;writing-mode:lr-tb;text-anchor:middle;fill:#ffffff;fill-opacity:1;stroke-width:1.06667px" y="-649.1467" x="472.1945" sodipodi:role="line">https://totalnonsense.com/open-source-vector-playing-cards/</tspan><tspan style="font-style:normal;font-variant:normal;font-weight:normal;font-stretch:normal;font-size:48px;line-height:125%;font-family:Carlito;-inkscape-font-specification:'Carlito, Normal';text-align:center;writing-mode:lr-tb;text-anchor:middle;fill:#ffaaaa;fill-opacity:1;stroke-width:1.06667px" y="-535.8133" x="472.1945" sodipodi:role="line">Licensed under:</tspan><tspan style="font-style:normal;font-variant:normal;font-weight:normal;font-stretch:normal;font-size:48px;line-height:125%;font-family:Carlito;-inkscape-font-specification:'Carlito, Normal';text-align:center;writing-mode:lr-tb;text-anchor:middle;fill:#ffaaaa;fill-opacity:1;stroke-width:1.06667px" y="-475.8133" x="472.1945" sodipodi:role="line">LGPL 3.0</tspan><tspan style="font-style:normal;font-variant:normal;font-weight:normal;font-stretch:normal;font-size:48px;line-height:125%;font-family:Carlito;-inkscape-font-specification:'Carlito, Normal';text-align:center;writing-mode:lr-tb;text-anchor:middle;fill:#ffaaaa;fill-opacity:1;stroke-width:1.06667px" y="-415.8133" x="472.1945" sodipodi:role="line">https://www.gnu.org/licenses/lgpl-3.0.html</tspan><tspan style="font-style:normal;font-variant:normal;font-weight:normal;font-stretch:normal;font-size:48px;line-height:125%;font-family:Carlito;-inkscape-font-specification:'Carlito, Normal';text-align:center;writing-mode:lr-tb;text-anchor:middle;fill:#ffffff;fill-opacity:1;stroke-width:1.06667px" y="-302.4799" x="472.1945" sodipodi:role="line">Each Card Measures (63mm x 88mm)</tspan></text>
  </g>
</svg>
