<svg xmlns="http://www.w3.org/2000/svg" xmlns:sodipodi="http://sodipodi.sourceforge.net/DTD/sodipodi-0.dtd" xmlns:inkscape="http://www.inkscape.org/namespaces/inkscape" inkscape:version="1.1-dev (60faa23, 2020-06-06)" sodipodi:docname="CLUB-1.svg" width="261.12" height="355.2" viewBox="0 0 261.12 355.2" version="1.1">
  <sodipodi:namedview inkscape:current-layer="svg8" inkscape:window-maximized="0" inkscape:window-y="109" inkscape:window-x="969" inkscape:cy="-187.6667" inkscape:cx="119.5967" inkscape:zoom=".2001" showgrid="false" inkscape:window-height="809" inkscape:window-width="935" inkscape:pageshadow="2" inkscape:pageopacity="0" guidetolerance="10" gridtolerance="10" objecttolerance="10" borderopacity="1" bordercolor="#666666" pagecolor="#ffffff"/>
  <g transform="matrix(1.17499 0 0 1.1428 -544.6457 1243.7962)">
    <rect ry="10.6299" rx="10.63" style="display:inline;fill:#ffffff;fill-opacity:1;stroke:none;stroke-width:0.996732;stroke-miterlimit:4;stroke-dasharray:none;stroke-opacity:1" width="222.2322" height="310.8137" x="463.5334" y="-1088.3695"/>
    <path d="M574.6454-956.4715c-9.7745.2123-14.1574 11.2173-6.9184 19.7633 1.05 1.2466 1.1582 1.962-.7645.7646-4.8739-3.2592-14.2193-1.1167-14.6979 8.8472-.5911 12.277 16.5629 15.8143 19.7838 2.7597.17-1.3774 1.2894-1.346 1.0195.6092-.2937 5.3064-1.9509 10.266-4.2286 15.1025h11.6201c-2.2776-4.8365-3.935-9.7961-4.2286-15.1025-.2699-1.9551.8495-1.9866 1.0195-.6092 3.2209 13.0546 20.3749 9.5173 19.7838-2.7597-.4785-9.9639-9.824-12.1064-14.6979-8.8472-1.9227 1.1973-1.8144.482-.7645-.7646 7.239-8.546 2.856-19.551-6.9183-19.7632 0-.0001 0 0-.01 0zM668.6274-827.3692c3.9098-.0884 5.663-4.6739 2.7674-8.2347-.42-.5194-.4634-.8174.3058-.3185 1.9496 1.358 5.6877.4652 5.8791-3.6864.2365-5.1154-6.6252-6.5893-7.9135-1.1499-.0677.574-.5158.5608-.4078-.2538.1175-2.211.7803-4.2775 1.6915-6.2927h-4.648c.9112 2.0152 1.574 4.0817 1.6915 6.2927.108.8146-.3398.8277-.4078.2538-1.2883-5.4394-8.15-3.9655-7.9135 1.1499.1914 4.1516 3.9296 5.0444 5.8792 3.6864.7691-.499.7258-.2009.3058.3185-2.8956 3.5608-1.1424 8.1463 2.7673 8.2347.001 0 0 0 0 0zM470.6254-1041.6816v-2.8127h2.6803l5.7098-30.0817h3.2499l6.2896 30.0817h2.1644v2.8127h-7.375v-2.8127h1.9903l-.7948-4.6099h-7.4404l-.5747 4.6099h1.9903v2.8127zm13.2796-10.7064-3.2345-16.1007-3.0296 16.1007zM658.5775-824.2437v2.8127h2.6802l5.7099 30.0818h3.2498l6.2897-30.0818h2.1644v-2.8127h-7.3751v2.8127h1.9903l-.7948 4.6099h-7.4404l-.5747-4.61h1.9903v-2.8126zm13.2795 10.7064-3.2345 16.1007-3.0296-16.1007zM480.6724-1038.5561c-3.9097.088-5.663 4.6738-2.7674 8.2347.42.5194.4634.8174-.3058.3185-1.9495-1.358-5.6877-.4652-5.8791 3.6864-.2365 5.1154 6.6252 6.5893 7.9135 1.1499.0677-.5739.5158-.5608.4078.2538-.1175 2.211-.7803 4.2775-1.6915 6.2927h4.648c-.9112-2.0152-1.574-4.0817-1.6915-6.2927-.108-.8146.3398-.8277.4078-.2538 1.2883 5.4394 8.15 3.9655 7.9135-1.1499-.1914-4.1516-3.9296-5.0444-5.8792-3.6864-.7691.4989-.7258.2009-.3058-.3185 2.8956-3.5609 1.1424-8.1463-2.7673-8.2347-.001 0 0 0 0 0z" style="display:inline;opacity:1"/>
  </g>
  <g sodipodi:insensitive="true" transform="translate(-351.966 143.9373)">
    <rect ry="124.6822" rx="144.4816" y="-1029.6816" x="-356.4728" height="794.398" width="1659.9126" style="opacity:1;vector-effect:none;fill:#006614;fill-opacity:1;stroke:none;stroke-width:1.74801;stroke-linecap:butt;stroke-linejoin:miter;stroke-miterlimit:4;stroke-dasharray:none;stroke-dashoffset:0;stroke-opacity:1"/>
    <text xml:space="preserve" style="font-style:normal;font-variant:normal;font-weight:normal;font-stretch:normal;font-size:42.6667px;line-height:125%;font-family:Carlito;-inkscape-font-specification:'Carlito, Normal';text-align:center;letter-spacing:0px;word-spacing:0px;writing-mode:lr-tb;text-anchor:middle;fill:#ffffff;fill-opacity:1;stroke:none;stroke-width:1.06667px;stroke-linecap:butt;stroke-linejoin:miter;stroke-opacity:1" x="472.1945" y="-935.8134"><tspan sodipodi:role="line" x="472.1945" y="-935.8134" style="font-style:normal;font-variant:normal;font-weight:normal;font-stretch:normal;font-size:48px;line-height:125%;font-family:Carlito;-inkscape-font-specification:'Carlito, Normal';text-align:center;writing-mode:lr-tb;text-anchor:middle;fill:#ffffff;fill-opacity:1;stroke-width:1.06667px">Single Playing Card from:</tspan><tspan sodipodi:role="line" x="472.1945" y="-875.8134" style="font-style:normal;font-variant:normal;font-weight:normal;font-stretch:normal;font-size:48px;line-height:125%;font-family:Carlito;-inkscape-font-specification:'Carlito, Normal';text-align:center;writing-mode:lr-tb;text-anchor:middle;fill:#ffffff;fill-opacity:1;stroke-width:1.06667px">Standard Edition - Color Set - Bordered </tspan><tspan sodipodi:role="line" x="472.1945" y="-762.48" style="font-style:normal;font-variant:normal;font-weight:normal;font-stretch:normal;font-size:48px;line-height:125%;font-family:Carlito;-inkscape-font-specification:'Carlito, Normal';text-align:center;writing-mode:lr-tb;text-anchor:middle;fill:#ffaaaa;fill-opacity:1;stroke-width:1.06667px">Copyright 2011, 2020 - Chris Aguilar - conjurenation@gmail.com</tspan><tspan sodipodi:role="line" x="472.1945" y="-649.1467" style="font-style:normal;font-variant:normal;font-weight:normal;font-stretch:normal;font-size:48px;line-height:125%;font-family:Carlito;-inkscape-font-specification:'Carlito, Normal';text-align:center;writing-mode:lr-tb;text-anchor:middle;fill:#ffffff;fill-opacity:1;stroke-width:1.06667px">https://totalnonsense.com/open-source-vector-playing-cards/</tspan><tspan sodipodi:role="line" x="472.1945" y="-535.8133" style="font-style:normal;font-variant:normal;font-weight:normal;font-stretch:normal;font-size:48px;line-height:125%;font-family:Carlito;-inkscape-font-specification:'Carlito, Normal';text-align:center;writing-mode:lr-tb;text-anchor:middle;fill:#ffaaaa;fill-opacity:1;stroke-width:1.06667px">Licensed under:</tspan><tspan sodipodi:role="line" x="472.1945" y="-475.8133" style="font-style:normal;font-variant:normal;font-weight:normal;font-stretch:normal;font-size:48px;line-height:125%;font-family:Carlito;-inkscape-font-specification:'Carlito, Normal';text-align:center;writing-mode:lr-tb;text-anchor:middle;fill:#ffaaaa;fill-opacity:1;stroke-width:1.06667px">LGPL 3.0</tspan><tspan sodipodi:role="line" x="472.1945" y="-415.8133" style="font-style:normal;font-variant:normal;font-weight:normal;font-stretch:normal;font-size:48px;line-height:125%;font-family:Carlito;-inkscape-font-specification:'Carlito, Normal';text-align:center;writing-mode:lr-tb;text-anchor:middle;fill:#ffaaaa;fill-opacity:1;stroke-width:1.06667px">https://www.gnu.org/licenses/lgpl-3.0.html</tspan><tspan sodipodi:role="line" x="472.1945" y="-302.4799" style="font-style:normal;font-variant:normal;font-weight:normal;font-stretch:normal;font-size:48px;line-height:125%;font-family:Carlito;-inkscape-font-specification:'Carlito, Normal';text-align:center;writing-mode:lr-tb;text-anchor:middle;fill:#ffffff;fill-opacity:1;stroke-width:1.06667px">Each Card Measures (63mm x 88mm)</tspan></text>
  </g>
</svg>
