<svg xmlns="http://www.w3.org/2000/svg" xmlns:sodipodi="http://sodipodi.sourceforge.net/DTD/sodipodi-0.dtd" xmlns:inkscape="http://www.inkscape.org/namespaces/inkscape" inkscape:version="1.1-dev (60faa23, 2020-06-06)" sodipodi:docname="CLUB-4.svg" width="261.12" height="355.2" viewBox="0 0 261.12 355.2" version="1.1">
  <sodipodi:namedview inkscape:current-layer="svg8" inkscape:window-maximized="0" inkscape:window-y="0" inkscape:window-x="0" inkscape:cy="98.5881" inkscape:cx="228.378" inkscape:zoom=".283" showgrid="false" inkscape:window-height="485" inkscape:window-width="774" inkscape:pageshadow="2" inkscape:pageopacity="0" guidetolerance="10" gridtolerance="10" objecttolerance="10" borderopacity="1" bordercolor="#666666" pagecolor="#ffffff"/>
  <g transform="matrix(1.17499 0 0 1.1428 -1476.0288 1243.7962)">
    <rect y="-1088.3695" x="1256.2086" height="310.8137" width="222.2322" style="display:inline;fill:#ffffff;fill-opacity:1;stroke:none;stroke-width:0.996734;stroke-miterlimit:4;stroke-dasharray:none;stroke-opacity:1" rx="10.6299" ry="10.6299"/>
    <path d="M1418.856-1055.3647c-9.7745.2122-14.1574 11.2172-6.9184 19.7632 1.0499 1.2466 1.1583 1.9619-.7645.7646-4.8739-3.2592-14.2193-1.1167-14.6978 8.8473-.5912 12.2769 16.5628 15.8142 19.7837 2.7596.17-1.3773 1.2894-1.3459 1.0195.6092-.2937 5.3064-1.9508 10.266-4.2286 15.1025h11.6202c-2.2777-4.8365-3.935-9.7961-4.2287-15.1025-.2699-1.9551.8495-1.9865 1.0196-.6092 3.2208 13.0546 20.3748 9.5173 19.7837-2.7596-.4785-9.964-9.824-12.1065-14.6978-8.8473-1.9228 1.1973-1.8145.482-.7646-.7646 7.239-8.546 2.8561-19.551-6.9183-19.7632 0-.0001 0 0-.01 0zM1315.7852-1055.3647c-9.7745.2122-14.1574 11.2172-6.9184 19.7632 1.0499 1.2466 1.1582 1.9619-.7645.7646-4.8739-3.2592-14.2193-1.1167-14.6979 8.8473-.5911 12.2769 16.5629 15.8142 19.7838 2.7596.17-1.3773 1.2894-1.3459 1.0195.6092-.2937 5.3064-1.9509 10.266-4.2286 15.1025h11.6202c-2.2777-4.8365-3.935-9.7961-4.2287-15.1025-.2699-1.9551.8495-1.9865 1.0196-.6092 3.2208 13.0546 20.3748 9.5173 19.7837-2.7596-.4785-9.964-9.824-12.1065-14.6978-8.8473-1.9228 1.1973-1.8145.482-.7646-.7646 7.239-8.546 2.8561-19.551-6.9183-19.7632 0-.0001 0 0-.01 0zM1418.856-809.7317c-9.7745-.2122-14.1574-11.2173-6.9184-19.7633 1.0499-1.2465 1.1583-1.9618-.7645-.7645-4.8739 3.2592-14.2193 1.1166-14.6978-8.8473-.5912-12.277 16.5628-15.8142 19.7837-2.7596.17 1.3773 1.2894 1.3459 1.0195-.6092-.2937-5.3064-1.9508-10.266-4.2286-15.1025h11.6202c-2.2777 4.8364-3.935 9.796-4.2287 15.1025-.2699 1.955.8495 1.9865 1.0196.6092 3.2208-13.0546 20.3748-9.5173 19.7837 2.7596-.4785 9.964-9.824 12.1065-14.6978 8.8473-1.9228-1.1973-1.8145-.482-.7646.7645 7.239 8.546 2.8561 19.551-6.9183 19.7633h-.01zM1315.7852-809.7317c-9.7745-.2122-14.1574-11.2173-6.9184-19.7633 1.0499-1.2465 1.1582-1.9618-.7645-.7645-4.8739 3.2592-14.2193 1.1166-14.6979-8.8473-.5911-12.277 16.5629-15.8142 19.7838-2.7596.17 1.3773 1.2894 1.3459 1.0195-.6092-.2937-5.3064-1.9509-10.266-4.2286-15.1025h11.6202c-2.2777 4.8364-3.935 9.796-4.2287 15.1025-.2699 1.955.8495 1.9865 1.0196.6092 3.2208-13.0546 20.3748-9.5173 19.7837 2.7596-.4785 9.964-9.824 12.1065-14.6978 8.8473-1.9228-1.1973-1.8145-.482-.7646.7645 7.239 8.546 2.8561 19.551-6.9183 19.7633h-.01zM1461.3026-827.3692c3.9098-.0884 5.663-4.6738 2.7674-8.2347-.42-.5194-.4633-.8174.3058-.3185 1.9496 1.358 5.6877.4652 5.8792-3.6864.2364-5.1154-6.6252-6.5893-7.9136-1.1499-.068.574-.5158.5608-.4077-.2538.1174-2.211.7803-4.2775 1.6914-6.2927h-4.6479c.9111 2.0152 1.574 4.0817 1.6914 6.2927.108.8146-.3397.8277-.4077.2538-1.2884-5.4394-8.15-3.9655-7.9136 1.1499.1915 4.1516 3.9296 5.0444 5.8792 3.6864.7691-.499.7258-.2009.3058.3185-2.8956 3.5609-1.1424 8.1463 2.7673 8.2347.001 0 0 0 0 0zM1273.3477-1038.5561c-3.9098.088-5.6631 4.6738-2.7674 8.2347.42.5194.4633.8174-.3059.3185-1.9495-1.358-5.6877-.4652-5.8791 3.6864-.2364 5.1154 6.6252 6.5893 7.9135 1.1499.068-.5739.5158-.5608.4078.2538-.1175 2.211-.7803 4.2775-1.6914 6.2927h4.6478c-.9111-2.0152-1.5739-4.0817-1.6914-6.2927-.108-.8146.3398-.8277.4078-.2538 1.2883 5.4394 8.15 3.9655 7.9135-1.1499-.1914-4.1516-3.9296-5.0444-5.8791-3.6864-.7692.4989-.7259.2009-.3059-.3185 2.8957-3.5609 1.1424-8.1463-2.7673-8.2347-.001 0 0 0 0 0z" style="display:inline;opacity:1"/>
    <path d="M1273.5781-1041.6855v-2.9054h2.6187v-4.7926h-13.099v-3.3817l14.1742-21.8108 2.3154.012v21.7991h4.0101v3.3817h-4.0101l-.076 4.7927h2.195v2.9092h-8.1288zm2.6187-24.9055-8.9992 13.8271h8.9992zM1461.0693-824.2397v2.9054h-2.6188v4.7926h13.099v3.3817l-14.1741 21.8109-2.3155-.012v-21.7992h-4.01v-3.3816h4.01l.076-4.7926h-2.1951v-2.9093h8.1289zm-2.6188 24.9055 8.9993-13.8271h-8.9993zm0 0" style="opacity:1"/>
  </g>
  <g transform="translate(-313.5684 127.8801)" sodipodi:insensitive="true">
    <rect ry="124.6822" rx="144.4816" y="-1029.6816" x="-356.4728" height="794.398" width="1659.9126" style="opacity:1;vector-effect:none;fill:#006614;fill-opacity:1;stroke:none;stroke-width:1.74801;stroke-linecap:butt;stroke-linejoin:miter;stroke-miterlimit:4;stroke-dasharray:none;stroke-dashoffset:0;stroke-opacity:1"/>
    <text xml:space="preserve" style="font-style:normal;font-variant:normal;font-weight:normal;font-stretch:normal;font-size:42.6667px;line-height:125%;font-family:Carlito;-inkscape-font-specification:'Carlito, Normal';text-align:center;letter-spacing:0px;word-spacing:0px;writing-mode:lr-tb;text-anchor:middle;fill:#ffffff;fill-opacity:1;stroke:none;stroke-width:1.06667px;stroke-linecap:butt;stroke-linejoin:miter;stroke-opacity:1" x="472.1945" y="-935.8134"><tspan sodipodi:role="line" x="472.1945" y="-935.8134" style="font-style:normal;font-variant:normal;font-weight:normal;font-stretch:normal;font-size:48px;line-height:125%;font-family:Carlito;-inkscape-font-specification:'Carlito, Normal';text-align:center;writing-mode:lr-tb;text-anchor:middle;fill:#ffffff;fill-opacity:1;stroke-width:1.06667px">Single Playing Card from:</tspan><tspan sodipodi:role="line" x="472.1945" y="-875.8134" style="font-style:normal;font-variant:normal;font-weight:normal;font-stretch:normal;font-size:48px;line-height:125%;font-family:Carlito;-inkscape-font-specification:'Carlito, Normal';text-align:center;writing-mode:lr-tb;text-anchor:middle;fill:#ffffff;fill-opacity:1;stroke-width:1.06667px">Standard Edition - Color Set - Bordered </tspan><tspan sodipodi:role="line" x="472.1945" y="-762.48" style="font-style:normal;font-variant:normal;font-weight:normal;font-stretch:normal;font-size:48px;line-height:125%;font-family:Carlito;-inkscape-font-specification:'Carlito, Normal';text-align:center;writing-mode:lr-tb;text-anchor:middle;fill:#ffaaaa;fill-opacity:1;stroke-width:1.06667px">Copyright 2011, 2020 - Chris Aguilar - conjurenation@gmail.com</tspan><tspan sodipodi:role="line" x="472.1945" y="-649.1467" style="font-style:normal;font-variant:normal;font-weight:normal;font-stretch:normal;font-size:48px;line-height:125%;font-family:Carlito;-inkscape-font-specification:'Carlito, Normal';text-align:center;writing-mode:lr-tb;text-anchor:middle;fill:#ffffff;fill-opacity:1;stroke-width:1.06667px">https://totalnonsense.com/open-source-vector-playing-cards/</tspan><tspan sodipodi:role="line" x="472.1945" y="-535.8133" style="font-style:normal;font-variant:normal;font-weight:normal;font-stretch:normal;font-size:48px;line-height:125%;font-family:Carlito;-inkscape-font-specification:'Carlito, Normal';text-align:center;writing-mode:lr-tb;text-anchor:middle;fill:#ffaaaa;fill-opacity:1;stroke-width:1.06667px">Licensed under:</tspan><tspan sodipodi:role="line" x="472.1945" y="-475.8133" style="font-style:normal;font-variant:normal;font-weight:normal;font-stretch:normal;font-size:48px;line-height:125%;font-family:Carlito;-inkscape-font-specification:'Carlito, Normal';text-align:center;writing-mode:lr-tb;text-anchor:middle;fill:#ffaaaa;fill-opacity:1;stroke-width:1.06667px">LGPL 3.0</tspan><tspan sodipodi:role="line" x="472.1945" y="-415.8133" style="font-style:normal;font-variant:normal;font-weight:normal;font-stretch:normal;font-size:48px;line-height:125%;font-family:Carlito;-inkscape-font-specification:'Carlito, Normal';text-align:center;writing-mode:lr-tb;text-anchor:middle;fill:#ffaaaa;fill-opacity:1;stroke-width:1.06667px">https://www.gnu.org/licenses/lgpl-3.0.html</tspan><tspan sodipodi:role="line" x="472.1945" y="-302.4799" style="font-style:normal;font-variant:normal;font-weight:normal;font-stretch:normal;font-size:48px;line-height:125%;font-family:Carlito;-inkscape-font-specification:'Carlito, Normal';text-align:center;writing-mode:lr-tb;text-anchor:middle;fill:#ffffff;fill-opacity:1;stroke-width:1.06667px">Each Card Measures (63mm x 88mm)</tspan></text>
  </g>
</svg>
