<svg xmlns="http://www.w3.org/2000/svg" xmlns:sodipodi="http://sodipodi.sourceforge.net/DTD/sodipodi-0.dtd" xmlns:inkscape="http://www.inkscape.org/namespaces/inkscape" version="1.1" viewBox="0 0 261.12 355.2" height="355.2" width="261.12" sodipodi:docname="CLUB-2.svg" inkscape:version="1.1-dev (60faa23, 2020-06-06)">
  <sodipodi:namedview pagecolor="#ffffff" bordercolor="#666666" borderopacity="1" objecttolerance="10" gridtolerance="10" guidetolerance="10" inkscape:pageopacity="0" inkscape:pageshadow="2" inkscape:window-width="774" inkscape:window-height="485" showgrid="false" inkscape:zoom=".2001" inkscape:cx=".6221" inkscape:cy="130.439" inkscape:window-x="0" inkscape:window-y="0" inkscape:window-maximized="0" inkscape:current-layer="svg8"/>
  <rect ry="10.664" rx="10.6776" style="display:inline;fill:#ffffff;fill-opacity:1;stroke:none;stroke-width:1.00057;stroke-miterlimit:4;stroke-dasharray:none;stroke-opacity:1" width="223.2284" height="311.811" x="260.433" y="370.2756" transform="matrix(1.16974 0 0 1.13915 -304.64 -421.8)"/>
  <path style="display:inline;opacity:1" d="M838.8706-1055.3647c-9.7745.2122-14.1575 11.2173-6.9184 19.7633 1.0499 1.2465 1.1582 1.9619-.7646.7645-4.8739-3.2592-14.2193-1.1166-14.6978 8.8473-.5912 12.2769 16.5628 15.8143 19.7837 2.7597.17-1.3774 1.2894-1.346 1.0195.6091-.2937 5.3064-1.9508 10.2661-4.2286 15.1025h11.6202c-2.2777-4.8364-3.935-9.7961-4.2287-15.1025-.2699-1.9551.8495-1.9865 1.0196-.6091 3.2208 13.0546 20.3748 9.5172 19.7837-2.7597-.4785-9.9639-9.824-12.1065-14.6978-8.8473-1.9228 1.1974-1.8145.482-.7646-.7645 7.239-8.546 2.8561-19.551-6.9183-19.7633 0-.0001 0 0-.01 0zM838.8706-809.7317c-9.7745-.2122-14.1575-11.2172-6.9184-19.7632 1.0499-1.2466 1.1582-1.962-.7646-.7646-4.8739 3.2592-14.2193 1.1167-14.6978-8.8473-.5912-12.2769 16.5629-15.8142 19.7837-2.7596.17 1.3773 1.2894 1.346 1.0195-.6092-.2936-5.3064-1.9508-10.266-4.2286-15.1025h11.6202c-2.2777 4.8365-3.935 9.7961-4.2286 15.1025-.27 1.9551.8494 1.9865 1.0195.6092 3.2209-13.0546 20.3749-9.5173 19.7837 2.7596-.4784 9.964-9.824 12.1065-14.6978 8.8473-1.9228-1.1973-1.8145-.482-.7646.7646 7.239 8.546 2.8561 19.551-6.9183 19.7632 0 .0001 0 0-.01 0zM932.8525-827.3691c3.9098-.0884 5.663-4.6739 2.7674-8.2347-.42-.5194-.4633-.8175.3058-.3186 1.9496 1.358 5.6878.4653 5.8792-3.6864.2364-5.1154-6.6252-6.5892-7.9135-1.1498-.0677.5739-.5158.5608-.4078-.2538.1175-2.211.7803-4.2776 1.6914-6.2928h-4.6479c.9112 2.0152 1.574 4.0818 1.6915 6.2928.108.8146-.3398.8277-.4078.2538-1.2883-5.4394-8.15-3.9656-7.9135 1.1498.1914 4.1517 3.9295 5.0444 5.8791 3.6864.7692-.4989.7258-.2008.3058.3186-2.8956 3.5608-1.1424 8.1462 2.7673 8.2347.001 0 0 0 0 0zM744.8976-1038.5561c-3.9098.088-5.663 4.6739-2.7674 8.2347.42.5194.4633.8175-.3058.3186-1.9496-1.358-5.6877-.4653-5.8792 3.6863-.2364 5.1154 6.6252 6.5893 7.9135 1.1499.0677-.5739.5158-.5608.4078.2538-.1175 2.211-.7803 4.2775-1.6914 6.2927h4.6479c-.9112-2.0152-1.574-4.0817-1.6915-6.2927-.108-.8146.3398-.8277.4078-.2538 1.2883 5.4394 8.15 3.9655 7.9135-1.1499-.1914-4.1516-3.9295-5.0443-5.8791-3.6863-.7692.4989-.7259.2008-.3058-.3186 2.8956-3.5608 1.1423-8.1462-2.7673-8.2347-.001 0 0 0 0 0z" transform="matrix(1.17499 0 0 1.1428 -855.107 1243.796)"/>
  <path style="opacity:1" d="m735.0498-1041.7521.16-2.0284c.5056-6.2682 1.8508-8.3828 9.4806-14.9264 3.7041-3.1719 4.9188-4.737 5.089-6.5527.4852-4.2827-3.2997-5.6194-5.7648-5.639-3.1948-.029-6.8094 1.9175-5.084 6.4418l-3.5852 1.0743c-.7205-4.2202.021-8.1792 3.3753-9.9361 4.4798-2.2909 10.2242-1.3928 13.1246 2.2164 1.9493 2.4214 2.3947 5.7721 1.349 8.3945-3.0552 6.6989-13.419 9.6463-14.274 17.3973h11.4543v-4.3153h3.3752v7.9441l-18.7-.07zM942.1997-824.1731l-.1601 2.0284c-.5055 6.2681-1.8507 8.3827-9.4805 14.9264-3.7042 3.1719-4.9189 4.737-5.0891 6.5527-.4851 4.2828 3.2997 5.6194 5.7648 5.639 3.1948.029 6.8094-1.9175 5.084-6.4418l3.5852-1.0743c.7206 4.2201-.021 8.1792-3.3753 9.9362-4.4798 2.2908-10.2241 1.3927-13.1245-2.2165-1.9494-2.4214-2.3948-5.7721-1.3491-8.3945 3.0552-6.6989 13.419-9.6463 14.274-17.3974H926.875v4.3155h-3.3753v-7.9442l18.7.0708zm0 0" transform="matrix(1.17499 0 0 1.1428 -855.107 1243.796)"/>
  <g transform="translate(-372.0285 139.0621)" sodipodi:insensitive="true">
    <rect style="opacity:1;vector-effect:none;fill:#006614;fill-opacity:1;stroke:none;stroke-width:1.74801;stroke-linecap:butt;stroke-linejoin:miter;stroke-miterlimit:4;stroke-dasharray:none;stroke-dashoffset:0;stroke-opacity:1" width="1659.9126" height="794.398" x="-356.4728" y="-1029.6816" rx="144.4816" ry="124.6822"/>
    <text y="-935.8134" x="472.1945" style="font-style:normal;font-variant:normal;font-weight:normal;font-stretch:normal;font-size:42.6667px;line-height:125%;font-family:Carlito;-inkscape-font-specification:'Carlito, Normal';text-align:center;letter-spacing:0px;word-spacing:0px;writing-mode:lr-tb;text-anchor:middle;fill:#ffffff;fill-opacity:1;stroke:none;stroke-width:1.06667px;stroke-linecap:butt;stroke-linejoin:miter;stroke-opacity:1" xml:space="preserve"><tspan style="font-style:normal;font-variant:normal;font-weight:normal;font-stretch:normal;font-size:48px;line-height:125%;font-family:Carlito;-inkscape-font-specification:'Carlito, Normal';text-align:center;writing-mode:lr-tb;text-anchor:middle;fill:#ffffff;fill-opacity:1;stroke-width:1.06667px" y="-935.8134" x="472.1945" sodipodi:role="line">Single Playing Card from:</tspan><tspan style="font-style:normal;font-variant:normal;font-weight:normal;font-stretch:normal;font-size:48px;line-height:125%;font-family:Carlito;-inkscape-font-specification:'Carlito, Normal';text-align:center;writing-mode:lr-tb;text-anchor:middle;fill:#ffffff;fill-opacity:1;stroke-width:1.06667px" y="-875.8134" x="472.1945" sodipodi:role="line">Standard Edition - Color Set - Bordered </tspan><tspan style="font-style:normal;font-variant:normal;font-weight:normal;font-stretch:normal;font-size:48px;line-height:125%;font-family:Carlito;-inkscape-font-specification:'Carlito, Normal';text-align:center;writing-mode:lr-tb;text-anchor:middle;fill:#ffaaaa;fill-opacity:1;stroke-width:1.06667px" y="-762.48" x="472.1945" sodipodi:role="line">Copyright 2011, 2020 - Chris Aguilar - conjurenation@gmail.com</tspan><tspan style="font-style:normal;font-variant:normal;font-weight:normal;font-stretch:normal;font-size:48px;line-height:125%;font-family:Carlito;-inkscape-font-specification:'Carlito, Normal';text-align:center;writing-mode:lr-tb;text-anchor:middle;fill:#ffffff;fill-opacity:1;stroke-width:1.06667px" y="-649.1467" x="472.1945" sodipodi:role="line">https://totalnonsense.com/open-source-vector-playing-cards/</tspan><tspan style="font-style:normal;font-variant:normal;font-weight:normal;font-stretch:normal;font-size:48px;line-height:125%;font-family:Carlito;-inkscape-font-specification:'Carlito, Normal';text-align:center;writing-mode:lr-tb;text-anchor:middle;fill:#ffaaaa;fill-opacity:1;stroke-width:1.06667px" y="-535.8133" x="472.1945" sodipodi:role="line">Licensed under:</tspan><tspan style="font-style:normal;font-variant:normal;font-weight:normal;font-stretch:normal;font-size:48px;line-height:125%;font-family:Carlito;-inkscape-font-specification:'Carlito, Normal';text-align:center;writing-mode:lr-tb;text-anchor:middle;fill:#ffaaaa;fill-opacity:1;stroke-width:1.06667px" y="-475.8133" x="472.1945" sodipodi:role="line">LGPL 3.0</tspan><tspan style="font-style:normal;font-variant:normal;font-weight:normal;font-stretch:normal;font-size:48px;line-height:125%;font-family:Carlito;-inkscape-font-specification:'Carlito, Normal';text-align:center;writing-mode:lr-tb;text-anchor:middle;fill:#ffaaaa;fill-opacity:1;stroke-width:1.06667px" y="-415.8133" x="472.1945" sodipodi:role="line">https://www.gnu.org/licenses/lgpl-3.0.html</tspan><tspan style="font-style:normal;font-variant:normal;font-weight:normal;font-stretch:normal;font-size:48px;line-height:125%;font-family:Carlito;-inkscape-font-specification:'Carlito, Normal';text-align:center;writing-mode:lr-tb;text-anchor:middle;fill:#ffffff;fill-opacity:1;stroke-width:1.06667px" y="-302.4799" x="472.1945" sodipodi:role="line">Each Card Measures (63mm x 88mm)</tspan></text>
  </g>
</svg>
