<svg xmlns="http://www.w3.org/2000/svg" xmlns:sodipodi="http://sodipodi.sourceforge.net/DTD/sodipodi-0.dtd" xmlns:inkscape="http://www.inkscape.org/namespaces/inkscape" version="1.1" viewBox="0 0 261.12 355.2" height="355.2" width="261.12" sodipodi:docname="CLUB-10.svg" inkscape:version="1.1-dev (60faa23, 2020-06-06)">
  <sodipodi:namedview pagecolor="#ffffff" bordercolor="#666666" borderopacity="1" objecttolerance="10" gridtolerance="10" guidetolerance="10" inkscape:pageopacity="0" inkscape:pageshadow="2" inkscape:window-width="774" inkscape:window-height="485" showgrid="false" inkscape:zoom=".283" inkscape:cx="127.7733" inkscape:cy="128.8279" inkscape:window-x="0" inkscape:window-y="0" inkscape:window-maximized="0" inkscape:current-layer="svg8"/>
  <g transform="matrix(1.17499 0 0 1.1428 -3338.795 1243.7962)">
    <rect y="-1088.3695" x="2841.5591" height="310.8137" width="222.2322" style="display:inline;opacity:1;fill:#ffffff;fill-opacity:1;stroke:none;stroke-width:0.996734;stroke-miterlimit:4;stroke-dasharray:none;stroke-opacity:1" rx="10.6299" ry="10.6299"/>
    <path d="M3004.2066-1055.3648c-9.7745.2123-14.1574 11.2173-6.9184 19.7633 1.0499 1.2466 1.1582 1.9619-.7646.7646-4.8738-3.2592-14.2192-1.1167-14.6978 8.8472-.5911 12.277 16.5629 15.8143 19.7837 2.7597.1701-1.3774 1.2895-1.3459 1.0196.6092-.2937 5.3064-1.9509 10.266-4.2287 15.1025h11.6202c-2.2777-4.8365-3.9349-9.7961-4.2286-15.1025-.2699-1.9551.8495-1.9866 1.0195-.6092 3.2209 13.0546 20.3749 9.5173 19.7837-2.7597-.4784-9.9639-9.8239-12.1064-14.6978-8.8472-1.9228 1.1973-1.8144.482-.7645-.7646 7.239-8.546 2.8561-19.551-6.9183-19.7633 0 0 0 .0001-.01 0zM2901.1358-1055.3648c-9.7745.2123-14.1575 11.2173-6.9184 19.7633 1.0499 1.2466 1.1582 1.9619-.7646.7646-4.8738-3.2592-14.2192-1.1167-14.6978 8.8472-.5911 12.277 16.5629 15.8143 19.7837 2.7597.1701-1.3774 1.2894-1.3459 1.0196.6092-.2937 5.3064-1.9509 10.266-4.2287 15.1025h11.6202c-2.2777-4.8365-3.9349-9.7961-4.2286-15.1025-.2699-1.9551.8495-1.9866 1.0195-.6092 3.2209 13.0546 20.3749 9.5173 19.7837-2.7597-.4784-9.9639-9.8239-12.1064-14.6978-8.8472-1.9228 1.1973-1.8145.482-.7646-.7646 7.2391-8.546 2.8561-19.551-6.9182-19.7633 0 0 0 .0001-.01 0zM3004.2066-809.7317c-9.7745-.2123-14.1574-11.2173-6.9184-19.7633 1.0499-1.2465 1.1582-1.9619-.7646-.7645-4.8738 3.2592-14.2192 1.1166-14.6978-8.8473-.5911-12.277 16.5629-15.8143 19.7837-2.7597.1701 1.3774 1.2895 1.346 1.0196-.6091-.2937-5.3064-1.9509-10.266-4.2287-15.1026h11.6202c-2.2777 4.8365-3.9349 9.7962-4.2286 15.1026-.2699 1.955.8495 1.9865 1.0195.6091 3.2209-13.0546 20.3749-9.5172 19.7837 2.7597-.4784 9.964-9.8239 12.1065-14.6978 8.8473-1.9228-1.1974-1.8144-.482-.7645.7645 7.239 8.546 2.8561 19.551-6.9183 19.7633h-.01zM2901.1358-809.7317c-9.7745-.2123-14.1575-11.2173-6.9184-19.7633 1.0499-1.2465 1.1582-1.9619-.7646-.7645-4.8738 3.2592-14.2192 1.1166-14.6978-8.8473-.5911-12.277 16.5629-15.8143 19.7837-2.7597.1701 1.3774 1.2894 1.346 1.0196-.6091-.2937-5.3064-1.9509-10.266-4.2287-15.1026h11.6202c-2.2777 4.8365-3.9349 9.7962-4.2286 15.1026-.2699 1.955.8495 1.9865 1.0195.6091 3.2209-13.0546 20.3749-9.5172 19.7837 2.7597-.4784 9.964-9.8239 12.1065-14.6978 8.8473-1.9228-1.1974-1.8145-.482-.7646.7645 7.2391 8.546 2.8561 19.551-6.9182 19.7633h-.01zM2952.6711-1022.4001c-9.7745.2123-14.1573 11.2173-6.9184 19.7633 1.0499 1.2465 1.1582 1.9619-.7645.7645-4.8739-3.2592-14.2193-1.1166-14.6979 8.8473-.5911 12.277 16.5629 15.8143 19.7838 2.7597.17-1.3774 1.2894-1.346 1.0195.6091-.2937 5.3065-1.9509 10.266-4.2286 15.1026h11.6202c-2.2777-4.8365-3.935-9.7962-4.2287-15.1026-.2699-1.955.8495-1.9865 1.0195-.6091 3.2209 13.0546 20.3749 9.5173 19.7838-2.7597-.4785-9.9639-9.824-12.1065-14.6978-8.8473-1.9228 1.1974-1.8145.482-.7646-.7645 7.239-8.546 2.8561-19.551-6.9183-19.7633 0 0 0 .0001-.01 0zM2952.6712-842.6961c-9.7745-.2123-14.1575-11.2173-6.9184-19.7633 1.0499-1.2465 1.1582-1.9619-.7646-.7645-4.8738 3.2592-14.2192 1.1166-14.6978-8.8473-.5911-12.277 16.5629-15.8143 19.7837-2.7597.1701 1.3774 1.2895 1.346 1.0196-.6091-.2937-5.3065-1.9509-10.2661-4.2287-15.1026h11.6202c-2.2777 4.8365-3.9349 9.7961-4.2286 15.1026-.2699 1.955.8495 1.9865 1.0195.6091 3.2209-13.0546 20.3749-9.5173 19.7837 2.7597-.4784 9.9639-9.8239 12.1065-14.6978 8.8473-1.9228-1.1974-1.8144-.482-.7646.7645 7.2391 8.546 2.8562 19.551-6.9182 19.7633h-.01zM3046.6532-827.3692c3.9097-.0884 5.663-4.6739 2.7673-8.2347-.42-.5194-.4633-.8174.3059-.3185 1.9495 1.358 5.6877.4652 5.8791-3.6864.2365-5.1154-6.6252-6.5893-7.9135-1.1499-.068.574-.5158.5608-.4078-.2538.1175-2.211.7803-4.2775 1.6914-6.2927h-4.6478c.9111 2.0152 1.5739 4.0817 1.6914 6.2927.108.8146-.3398.8277-.4078.2538-1.2883-5.4394-8.1499-3.9655-7.9135 1.1499.1914 4.1516 3.9296 5.0444 5.8791 3.6864.7692-.499.7259-.2009.3059.3185-2.8957 3.5608-1.1424 8.1463 2.7673 8.2347.001 0 0 0 0 0zM2901.1358-989.4359c-9.7745.2123-14.1574 11.2173-6.9184 19.7633 1.0499 1.2465 1.1582 1.9619-.7646.7645-4.8738-3.2592-14.2192-1.1166-14.6978 8.8473-.5911 12.277 16.5629 15.8143 19.7837 2.7597.1701-1.3774 1.2894-1.346 1.0196.6091-.2937 5.3064-1.9509 10.266-4.2287 15.1026h11.6202c-2.2777-4.8365-3.9349-9.7962-4.2286-15.1026-.2699-1.955.8495-1.9865 1.0195-.6091 3.2209 13.0546 20.3749 9.5173 19.7837-2.7597-.4784-9.964-9.8239-12.1065-14.6978-8.8473-1.9228 1.1974-1.8145.482-.7646-.7645 7.2391-8.546 2.8561-19.551-6.9182-19.7633h-.01zM2901.1358-875.6606c-9.7745-.2122-14.1575-11.2172-6.9184-19.7633 1.0499-1.2465 1.1582-1.9618-.7646-.7645-4.8738 3.2592-14.2192 1.1166-14.6978-8.8473-.5911-12.277 16.5629-15.8142 19.7837-2.7596.1701 1.3773 1.2894 1.3459 1.0196-.6092-.2937-5.3064-1.9509-10.266-4.2287-15.1025h11.6202c-2.2777 4.8364-3.9349 9.796-4.2286 15.1025-.2699 1.9551.8495 1.9865 1.0195.6092 3.2209-13.0546 20.3749-9.5173 19.7837 2.7596-.4784 9.964-9.8239 12.1065-14.6978 8.8473-1.9228-1.1973-1.8145-.482-.7646.7645 7.2391 8.546 2.8561 19.551-6.9182 19.7633h-.01zM3004.2066-989.4359c-9.7745.2123-14.1574 11.2173-6.9184 19.7633 1.0499 1.2465 1.1582 1.9619-.7646.7645-4.8738-3.2592-14.2192-1.1166-14.6978 8.8473-.5911 12.277 16.5629 15.8143 19.7837 2.7597.1701-1.3774 1.2895-1.346 1.0196.6091-.2937 5.3064-1.9509 10.266-4.2287 15.1026h11.6202c-2.2777-4.8365-3.9349-9.7962-4.2286-15.1026-.2699-1.955.8495-1.9865 1.0195-.6091 3.2209 13.0546 20.3749 9.5173 19.7837-2.7597-.4784-9.964-9.8239-12.1065-14.6978-8.8473-1.9228 1.1974-1.8144.482-.7645-.7645 7.239-8.546 2.8561-19.551-6.9183-19.7633h-.01zM3004.2066-875.6606c-9.7745-.2122-14.1574-11.2172-6.9184-19.7633 1.0499-1.2465 1.1582-1.9618-.7646-.7645-4.8738 3.2592-14.2192 1.1166-14.6978-8.8473-.5911-12.277 16.5629-15.8142 19.7837-2.7596.1701 1.3773 1.2895 1.3459 1.0196-.6092-.2937-5.3064-1.9509-10.266-4.2287-15.1025h11.6202c-2.2777 4.8364-3.9349 9.796-4.2286 15.1025-.2699 1.9551.8495 1.9865 1.0195.6092 3.2209-13.0546 20.3749-9.5173 19.7837 2.7596-.4784 9.964-9.8239 12.1065-14.6978 8.8473-1.9228-1.1973-1.8144-.482-.7645.7645 7.239 8.546 2.8561 19.551-6.9183 19.7633h-.01zM2858.6982-1038.5561c-3.9098.088-5.663 4.6738-2.7674 8.2347.42.5194.4633.8174-.3058.3185-1.9496-1.358-5.6877-.4652-5.8791 3.6864-.2365 5.1154 6.6251 6.5893 7.9135 1.1499.068-.5739.5158-.5608.4077.2538-.1174 2.211-.7803 4.2775-1.6914 6.2927h4.6479c-.9111-2.0152-1.574-4.0817-1.6914-6.2927-.108-.8146.3397-.8277.4077-.2538 1.2884 5.4394 8.15 3.9655 7.9136-1.1499-.1915-4.1516-3.9296-5.0444-5.8792-3.6864-.7691.4989-.7258.2009-.3058-.3185 2.8956-3.5609 1.1424-8.1463-2.7673-8.2347-.001 0 0 0 0 0z" style="display:inline;opacity:1"/>
    <path style="opacity:1" d="M2848.7242-1041.6816v-32.8938h3.1846v32.8938zM2861.3484-1074.576c-3.0656 0-5.5295 2.8036-5.5295 6.2859v20.3233c0 3.4823 2.4652 6.2846 5.5295 6.2846h1.7893c3.0655 0 5.5345-2.8023 5.5345-6.2846v-20.3233c0-3.4823-2.4703-6.2859-5.5345-6.2859zm.9253 3.1103c1.8099 0 3.2652 1.39 3.2652 3.1286v20.5922c0 1.7385-1.4553 3.1416-3.2652 3.1416-1.8098 0-3.2702-1.4031-3.2702-3.1416v-20.5922c0-1.7373 1.4604-3.1286 3.2702-3.1286zM3056.6243-824.2437v32.8938h-3.1845v-32.8938zM3044.0002-791.3492c3.0655 0 5.5294-2.8036 5.5294-6.286v-20.3233c0-3.4823-2.4652-6.2845-5.5294-6.2845h-1.7894c-3.0655 0-5.5345 2.8022-5.5345 6.2845v20.3234c0 3.4823 2.4703 6.2858 5.5345 6.2858zm-.9254-3.1103c-1.8099 0-3.2652-1.39-3.2652-3.1286v-20.5923c0-1.7385 1.4553-3.1416 3.2652-3.1416 1.8098 0 3.2703 1.4031 3.2703 3.1416v20.5923c0 1.7372-1.4605 3.1285-3.2703 3.1285zm0 0"/>
  </g>
  <g transform="translate(-366.0699 149.3937)" sodipodi:insensitive="true">
    <rect style="opacity:1;vector-effect:none;fill:#006614;fill-opacity:1;stroke:none;stroke-width:1.74801;stroke-linecap:butt;stroke-linejoin:miter;stroke-miterlimit:4;stroke-dasharray:none;stroke-dashoffset:0;stroke-opacity:1" width="1659.9126" height="794.398" x="-356.4728" y="-1029.6816" rx="144.4816" ry="124.6822"/>
    <text y="-935.8134" x="472.1945" style="font-style:normal;font-variant:normal;font-weight:normal;font-stretch:normal;font-size:42.6667px;line-height:125%;font-family:Carlito;-inkscape-font-specification:'Carlito, Normal';text-align:center;letter-spacing:0px;word-spacing:0px;writing-mode:lr-tb;text-anchor:middle;fill:#ffffff;fill-opacity:1;stroke:none;stroke-width:1.06667px;stroke-linecap:butt;stroke-linejoin:miter;stroke-opacity:1" xml:space="preserve"><tspan style="font-style:normal;font-variant:normal;font-weight:normal;font-stretch:normal;font-size:48px;line-height:125%;font-family:Carlito;-inkscape-font-specification:'Carlito, Normal';text-align:center;writing-mode:lr-tb;text-anchor:middle;fill:#ffffff;fill-opacity:1;stroke-width:1.06667px" y="-935.8134" x="472.1945" sodipodi:role="line">Single Playing Card from:</tspan><tspan style="font-style:normal;font-variant:normal;font-weight:normal;font-stretch:normal;font-size:48px;line-height:125%;font-family:Carlito;-inkscape-font-specification:'Carlito, Normal';text-align:center;writing-mode:lr-tb;text-anchor:middle;fill:#ffffff;fill-opacity:1;stroke-width:1.06667px" y="-875.8134" x="472.1945" sodipodi:role="line">Standard Edition - Color Set - Bordered </tspan><tspan style="font-style:normal;font-variant:normal;font-weight:normal;font-stretch:normal;font-size:48px;line-height:125%;font-family:Carlito;-inkscape-font-specification:'Carlito, Normal';text-align:center;writing-mode:lr-tb;text-anchor:middle;fill:#ffaaaa;fill-opacity:1;stroke-width:1.06667px" y="-762.48" x="472.1945" sodipodi:role="line">Copyright 2011, 2020 - Chris Aguilar - conjurenation@gmail.com</tspan><tspan style="font-style:normal;font-variant:normal;font-weight:normal;font-stretch:normal;font-size:48px;line-height:125%;font-family:Carlito;-inkscape-font-specification:'Carlito, Normal';text-align:center;writing-mode:lr-tb;text-anchor:middle;fill:#ffffff;fill-opacity:1;stroke-width:1.06667px" y="-649.1467" x="472.1945" sodipodi:role="line">https://totalnonsense.com/open-source-vector-playing-cards/</tspan><tspan style="font-style:normal;font-variant:normal;font-weight:normal;font-stretch:normal;font-size:48px;line-height:125%;font-family:Carlito;-inkscape-font-specification:'Carlito, Normal';text-align:center;writing-mode:lr-tb;text-anchor:middle;fill:#ffaaaa;fill-opacity:1;stroke-width:1.06667px" y="-535.8133" x="472.1945" sodipodi:role="line">Licensed under:</tspan><tspan style="font-style:normal;font-variant:normal;font-weight:normal;font-stretch:normal;font-size:48px;line-height:125%;font-family:Carlito;-inkscape-font-specification:'Carlito, Normal';text-align:center;writing-mode:lr-tb;text-anchor:middle;fill:#ffaaaa;fill-opacity:1;stroke-width:1.06667px" y="-475.8133" x="472.1945" sodipodi:role="line">LGPL 3.0</tspan><tspan style="font-style:normal;font-variant:normal;font-weight:normal;font-stretch:normal;font-size:48px;line-height:125%;font-family:Carlito;-inkscape-font-specification:'Carlito, Normal';text-align:center;writing-mode:lr-tb;text-anchor:middle;fill:#ffaaaa;fill-opacity:1;stroke-width:1.06667px" y="-415.8133" x="472.1945" sodipodi:role="line">https://www.gnu.org/licenses/lgpl-3.0.html</tspan><tspan style="font-style:normal;font-variant:normal;font-weight:normal;font-stretch:normal;font-size:48px;line-height:125%;font-family:Carlito;-inkscape-font-specification:'Carlito, Normal';text-align:center;writing-mode:lr-tb;text-anchor:middle;fill:#ffffff;fill-opacity:1;stroke-width:1.06667px" y="-302.4799" x="472.1945" sodipodi:role="line">Each Card Measures (63mm x 88mm)</tspan></text>
  </g>
</svg>
