<svg xmlns="http://www.w3.org/2000/svg" xmlns:sodipodi="http://sodipodi.sourceforge.net/DTD/sodipodi-0.dtd" xmlns:inkscape="http://www.inkscape.org/namespaces/inkscape" inkscape:version="1.1-dev (60faa23, 2020-06-06)" sodipodi:docname="CLUB-8.svg" width="261.12" height="355.2" viewBox="0 0 261.12 355.2" version="1.1">
  <sodipodi:namedview inkscape:current-layer="svg8" inkscape:window-maximized="0" inkscape:window-y="0" inkscape:window-x="0" inkscape:cy="213.4638" inkscape:cx="7.9488" inkscape:zoom=".283" showgrid="false" inkscape:window-height="485" inkscape:window-width="774" inkscape:pageshadow="2" inkscape:pageopacity="0" guidetolerance="10" gridtolerance="10" objecttolerance="10" borderopacity="1" bordercolor="#666666" pagecolor="#ffffff"/>
  <g transform="matrix(1.17499 0 0 1.1428 -2717.8729 1243.7963)">
    <rect y="-1088.3696" x="2313.1089" height="310.8137" width="222.2322" style="display:inline;opacity:1;fill:#ffffff;fill-opacity:1;stroke:none;stroke-width:0.996734;stroke-miterlimit:4;stroke-dasharray:none;stroke-opacity:1" rx="10.6299" ry="10.6299"/>
    <path d="M2475.7563-1055.3647c-9.7745.2122-14.1574 11.2172-6.9184 19.7633 1.0499 1.2465 1.1582 1.9618-.7646.7645-4.8738-3.2592-14.2192-1.1166-14.6978 8.8473-.5911 12.2769 16.5629 15.8142 19.7838 2.7596.17-1.3773 1.2895-1.3459 1.0195.6092-.2937 5.3064-1.9509 10.266-4.2287 15.1025h11.6203c-2.2777-4.8365-3.935-9.7961-4.2287-15.1025-.2699-1.9551.8495-1.9865 1.0195-.6092 3.2209 13.0546 20.3749 9.5173 19.7838-2.7596-.4785-9.9639-9.824-12.1065-14.6979-8.8473-1.9227 1.1973-1.8144.482-.7645-.7645 7.239-8.5461 2.8561-19.5511-6.9183-19.7633 0-.0001 0 0-.01 0zM2372.6855-1055.3647c-9.7745.2122-14.1574 11.2172-6.9184 19.7633 1.0499 1.2465 1.1582 1.9618-.7646.7645-4.8738-3.2592-14.2191-1.1166-14.6978 8.8473-.591 12.2769 16.5629 15.8142 19.7837 2.7596.1701-1.3773 1.2895-1.3459 1.0196.6092-.2937 5.3064-1.9509 10.266-4.2287 15.1025h11.6202c-2.2776-4.8365-3.9349-9.7961-4.2286-15.1025-.2699-1.9551.8495-1.9865 1.0195-.6092 3.2209 13.0546 20.3749 9.5173 19.7838-2.7596-.4785-9.9639-9.824-12.1065-14.6979-8.8473-1.9228 1.1973-1.8144.482-.7645-.7645 7.239-8.5461 2.8561-19.5511-6.9183-19.7633 0-.0001 0 0-.01 0zM2475.7563-809.7317c-9.7745-.2122-14.1574-11.2172-6.9184-19.7633 1.0499-1.2465 1.1582-1.9618-.7646-.7645-4.8738 3.2592-14.2191 1.1166-14.6978-8.8473-.591-12.277 16.5629-15.8142 19.7838-2.7596.17 1.3773 1.2895 1.3459 1.0195-.6092-.2937-5.3064-1.9509-10.266-4.2287-15.1025h11.6203c-2.2777 4.8364-3.935 9.796-4.2287 15.1025-.2699 1.955.8495 1.9865 1.0195.6092 3.2209-13.0546 20.3749-9.5173 19.7838 2.7596-.4785 9.964-9.824 12.1065-14.6979 8.8473-1.9227-1.1973-1.8144-.482-.7645.7645 7.239 8.546 2.8561 19.551-6.9183 19.7633h-.01zM2372.6855-809.7317c-9.7745-.2122-14.1574-11.2172-6.9184-19.7633 1.0499-1.2465 1.1582-1.9618-.7646-.7645-4.8738 3.2592-14.2191 1.1166-14.6978-8.8473-.591-12.277 16.5629-15.8142 19.7837-2.7596.1701 1.3773 1.2895 1.3459 1.0196-.6092-.2937-5.3064-1.9509-10.266-4.2287-15.1025h11.6202c-2.2776 4.8364-3.9349 9.796-4.2286 15.1025-.2699 1.955.8495 1.9865 1.0195.6092 3.2209-13.0546 20.3749-9.5173 19.7838 2.7596-.4785 9.964-9.824 12.1065-14.6979 8.8473-1.9228-1.1973-1.8144-.482-.7645.7645 7.239 8.546 2.8561 19.551-6.9183 19.7633h-.01zM2424.2211-1005.9179c-9.7745.2122-14.1573 11.2172-6.9184 19.7632 1.0499 1.2466 1.1583 1.962-.7646.7646-4.8737-3.2592-14.2191-1.1167-14.6977 8.8472-.5911 12.277 16.5628 15.8143 19.7836 2.7597.1701-1.3774 1.2895-1.346 1.0196.6092-.2937 5.3064-1.9509 10.266-4.2287 15.1025h11.6202c-2.2777-4.8365-3.9349-9.7961-4.2286-15.1025-.2699-1.9551.8495-1.9866 1.0195-.6092 3.2209 13.0546 20.3749 9.5173 19.7837-2.7597-.4784-9.9639-9.8239-12.1064-14.6978-8.8472-1.9228 1.1973-1.8144.482-.7645-.7646 7.239-8.546 2.856-19.551-6.9183-19.7632 0-.0001 0 0-.01 0zM2475.7563-956.4714c-9.7745.2122-14.1574 11.2172-6.9184 19.7632 1.0499 1.2466 1.1582 1.962-.7646.7646-4.8738-3.2592-14.2192-1.1167-14.6978 8.8473-.591 12.2769 16.5629 15.8142 19.7838 2.7596.17-1.3773 1.2894-1.346 1.0195.6092-.2937 5.3064-1.9509 10.266-4.2287 15.1025h11.6203c-2.2777-4.8365-3.935-9.7961-4.2287-15.1025-.2699-1.9551.8495-1.9865 1.0195-.6092 3.2209 13.0546 20.3749 9.5173 19.7838-2.7596-.4785-9.964-9.824-12.1065-14.6979-8.8473-1.9227 1.1973-1.8144.482-.7645-.7646 7.239-8.546 2.8561-19.551-6.9183-19.7632h-.01zM2372.6855-956.4714c-9.7745.2122-14.1574 11.2172-6.9184 19.7632 1.0499 1.2466 1.1582 1.962-.7646.7646-4.8738-3.2592-14.2191-1.1167-14.6977 8.8473-.5911 12.2769 16.5628 15.8142 19.7836 2.7596.1701-1.3773 1.2895-1.346 1.0196.6092-.2937 5.3064-1.9509 10.266-4.2287 15.1025h11.6202c-2.2776-4.8365-3.9349-9.7961-4.2286-15.1025-.2699-1.9551.8495-1.9865 1.0195-.6092 3.2209 13.0546 20.3749 9.5173 19.7838-2.7596-.4785-9.964-9.824-12.1065-14.6979-8.8473-1.9228 1.1973-1.8144.482-.7645-.7646 7.239-8.546 2.8561-19.551-6.9183-19.7632h-.01zM2424.2211-859.1784c-9.7744-.2122-14.1574-11.2172-6.9183-19.7632 1.0499-1.2466 1.1582-1.9619-.7646-.7645-4.8739 3.2591-14.2193 1.1166-14.6979-8.8473-.5911-12.277 16.563-15.8143 19.7837-2.7597.1702 1.3774 1.2895 1.346 1.0196-.6092-.2937-5.3064-1.9508-10.266-4.2286-15.1025h11.6201c-2.2777 4.8365-3.9349 9.7961-4.2286 15.1026-.2698 1.955.8495 1.9865 1.0195.6091 3.2209-13.0546 20.3749-9.5173 19.7837 2.7597-.4784 9.9639-9.8239 12.1065-14.6978 8.8473-1.9228-1.1974-1.8144-.482-.7645.7645 7.239 8.546 2.8561 19.551-6.9182 19.7632 0 .0001 0 0-.01 0zM2518.203-827.3692c3.9097-.0884 5.663-4.6738 2.7674-8.2347-.4201-.5194-.4634-.8174.3058-.3185 1.9495 1.358 5.6877.4652 5.8791-3.6864.2365-5.1154-6.6252-6.5893-7.9135-1.1499-.068.574-.5158.5609-.4078-.2538.1175-2.211.7803-4.2775 1.6914-6.2927h-4.6478c.9111 2.0152 1.5739 4.0817 1.6914 6.2927.108.8147-.3398.8278-.4078.2538-1.2883-5.4394-8.1499-3.9655-7.9135 1.15.1914 4.1515 3.9296 5.0443 5.8791 3.6863.7692-.499.7259-.2009.3059.3185-2.8956 3.5609-1.1424 8.1463 2.7673 8.2347zM2330.248-1038.5561c-3.9098.088-5.663 4.6739-2.7674 8.2347.42.5194.4632.8174-.3058.3185-1.9497-1.358-5.6877-.4652-5.8792 3.6864-.2364 5.1154 6.6252 6.5893 7.9135 1.1499.068-.5739.5159-.5608.4078.2538-.1175 2.211-.7803 4.2775-1.6914 6.2927h4.6479c-.9111-2.0152-1.574-4.0817-1.6915-6.2927-.1079-.8146.3398-.8277.4078-.2538 1.2883 5.4394 8.15 3.9655 7.9135-1.1499-.1914-4.1516-3.9295-5.0444-5.8791-3.6864-.7691.4989-.7258.2009-.3059-.3185 2.8957-3.5608 1.1424-8.1462-2.7672-8.2347z" style="display:inline;opacity:1"/>
    <path d="M2319.5761-1051.3169c.1561-4.4159 1.751-6.0723 4.8907-8.3828-2.5049-1.8091-3.5608-4.4759-3.3458-6.7458.5158-5.4967 4.755-8.2444 9.3808-8.1269 4.6295.1227 8.614 3.7971 8.925 7.7914.2701 3.4721-.7603 5.1482-3.2204 6.9743 2.9196 2.4684 4.7845 4.0896 4.7154 8.4389-.069 4.3493-3.7644 9.5249-10.2051 9.6828-6.4406.1579-11.3006-5.216-11.1406-9.6319zm17.9795.016c.2751-3.9982-3.255-6.6949-7.2395-6.7341-3.8795-.042-7.3495 3.2737-7.3495 6.8634 0 3.8546 4.5144 5.9496 7.4301 5.9587 3.5443.016 6.9194-2.6459 7.1589-6.088zm-1.2749-14.3023c.076-3.3638-3.0246-5.7773-6.2244-5.6807-2.8453.087-5.8545 2.2595-5.8596 5.0737 0 3.5231 3.4252 5.2826 6.3499 5.3505 2.6546.06 5.6739-2.1995 5.7341-4.7435zM2507.5282-814.6083c.1561 4.4159 1.7509 6.0723 4.8907 8.3828-2.5049 1.809-3.5609 4.4758-3.3458 6.7458.5158 5.4967 4.755 8.2443 9.3807 8.1268 4.6296-.1227 8.614-3.797 8.925-7.7914.2701-3.4721-.7603-5.1481-3.2203-6.9743 2.9196-2.4683 4.7844-4.0895 4.7153-8.4388-.069-4.3493-3.7643-9.525-10.205-9.6828-6.4407-.158-11.3007 5.216-11.1406 9.6318zm17.9794-.016c.2752 3.9982-3.2549 6.695-7.2394 6.7342-3.8796.042-7.3495-3.2737-7.3495-6.8633 0-3.8547 4.5144-5.9496 7.4301-5.9588 3.5442-.016 6.9194 2.6459 7.1588 6.088zm-1.2749 14.3025c.076 3.3637-3.0245 5.7772-6.2244 5.6806-2.8452-.0877-5.8544-2.2594-5.8595-5.0737 0-3.523 3.4251-5.2826 6.3498-5.3505 2.6546-.0598 5.674 2.1994 5.7341 4.7436zm0 0" style="opacity:1"/>
  </g>
  <g inkscape:transform-center-y="325.0897" inkscape:transform-center-x="155.4777" transform="translate(-329.7726 156.0626)" sodipodi:insensitive="true">
    <rect ry="124.6822" rx="144.4816" y="-1029.6816" x="-356.4728" height="794.398" width="1659.9126" style="opacity:1;vector-effect:none;fill:#006614;fill-opacity:1;stroke:none;stroke-width:1.74801;stroke-linecap:butt;stroke-linejoin:miter;stroke-miterlimit:4;stroke-dasharray:none;stroke-dashoffset:0;stroke-opacity:1"/>
    <text xml:space="preserve" style="font-style:normal;font-variant:normal;font-weight:normal;font-stretch:normal;font-size:42.6667px;line-height:125%;font-family:Carlito;-inkscape-font-specification:'Carlito, Normal';text-align:center;letter-spacing:0px;word-spacing:0px;writing-mode:lr-tb;text-anchor:middle;fill:#ffffff;fill-opacity:1;stroke:none;stroke-width:1.06667px;stroke-linecap:butt;stroke-linejoin:miter;stroke-opacity:1" x="472.1945" y="-935.8134"><tspan sodipodi:role="line" x="472.1945" y="-935.8134" style="font-style:normal;font-variant:normal;font-weight:normal;font-stretch:normal;font-size:48px;line-height:125%;font-family:Carlito;-inkscape-font-specification:'Carlito, Normal';text-align:center;writing-mode:lr-tb;text-anchor:middle;fill:#ffffff;fill-opacity:1;stroke-width:1.06667px">Single Playing Card from:</tspan><tspan sodipodi:role="line" x="472.1945" y="-875.8134" style="font-style:normal;font-variant:normal;font-weight:normal;font-stretch:normal;font-size:48px;line-height:125%;font-family:Carlito;-inkscape-font-specification:'Carlito, Normal';text-align:center;writing-mode:lr-tb;text-anchor:middle;fill:#ffffff;fill-opacity:1;stroke-width:1.06667px">Standard Edition - Color Set - Bordered </tspan><tspan sodipodi:role="line" x="472.1945" y="-762.48" style="font-style:normal;font-variant:normal;font-weight:normal;font-stretch:normal;font-size:48px;line-height:125%;font-family:Carlito;-inkscape-font-specification:'Carlito, Normal';text-align:center;writing-mode:lr-tb;text-anchor:middle;fill:#ffaaaa;fill-opacity:1;stroke-width:1.06667px">Copyright 2011, 2020 - Chris Aguilar - conjurenation@gmail.com</tspan><tspan sodipodi:role="line" x="472.1945" y="-649.1467" style="font-style:normal;font-variant:normal;font-weight:normal;font-stretch:normal;font-size:48px;line-height:125%;font-family:Carlito;-inkscape-font-specification:'Carlito, Normal';text-align:center;writing-mode:lr-tb;text-anchor:middle;fill:#ffffff;fill-opacity:1;stroke-width:1.06667px">https://totalnonsense.com/open-source-vector-playing-cards/</tspan><tspan sodipodi:role="line" x="472.1945" y="-535.8133" style="font-style:normal;font-variant:normal;font-weight:normal;font-stretch:normal;font-size:48px;line-height:125%;font-family:Carlito;-inkscape-font-specification:'Carlito, Normal';text-align:center;writing-mode:lr-tb;text-anchor:middle;fill:#ffaaaa;fill-opacity:1;stroke-width:1.06667px">Licensed under:</tspan><tspan sodipodi:role="line" x="472.1945" y="-475.8133" style="font-style:normal;font-variant:normal;font-weight:normal;font-stretch:normal;font-size:48px;line-height:125%;font-family:Carlito;-inkscape-font-specification:'Carlito, Normal';text-align:center;writing-mode:lr-tb;text-anchor:middle;fill:#ffaaaa;fill-opacity:1;stroke-width:1.06667px">LGPL 3.0</tspan><tspan sodipodi:role="line" x="472.1945" y="-415.8133" style="font-style:normal;font-variant:normal;font-weight:normal;font-stretch:normal;font-size:48px;line-height:125%;font-family:Carlito;-inkscape-font-specification:'Carlito, Normal';text-align:center;writing-mode:lr-tb;text-anchor:middle;fill:#ffaaaa;fill-opacity:1;stroke-width:1.06667px">https://www.gnu.org/licenses/lgpl-3.0.html</tspan><tspan sodipodi:role="line" x="472.1945" y="-302.4799" style="font-style:normal;font-variant:normal;font-weight:normal;font-stretch:normal;font-size:48px;line-height:125%;font-family:Carlito;-inkscape-font-specification:'Carlito, Normal';text-align:center;writing-mode:lr-tb;text-anchor:middle;fill:#ffffff;fill-opacity:1;stroke-width:1.06667px">Each Card Measures (63mm x 88mm)</tspan></text>
  </g>
</svg>
