<svg xmlns="http://www.w3.org/2000/svg" xmlns:sodipodi="http://sodipodi.sourceforge.net/DTD/sodipodi-0.dtd" xmlns:inkscape="http://www.inkscape.org/namespaces/inkscape" version="1.1" viewBox="0 0 261.12 355.2" height="355.2" width="261.12" sodipodi:docname="CLUB-3.svg" inkscape:version="1.1-dev (60faa23, 2020-06-06)">
  <sodipodi:namedview pagecolor="#ffffff" bordercolor="#666666" borderopacity="1" objecttolerance="10" gridtolerance="10" guidetolerance="10" inkscape:pageopacity="0" inkscape:pageshadow="2" inkscape:window-width="774" inkscape:window-height="485" showgrid="false" inkscape:zoom=".283" inkscape:cx="20.9751" inkscape:cy="-16.2496" inkscape:window-x="0" inkscape:window-y="0" inkscape:window-maximized="0" inkscape:current-layer="svg8"/>
  <rect ry="10.664" rx="10.6776" style="display:inline;fill:#ffffff;fill-opacity:1;stroke:none;stroke-width:1.00057;stroke-miterlimit:4;stroke-dasharray:none;stroke-opacity:1" width="223.2284" height="311.811" x="260.433" y="370.2756" transform="matrix(1.16974 0 0 1.13915 -304.64 -421.8)"/>
  <path style="display:inline;opacity:1" d="M1103.0956-1055.3647c-9.7745.2123-14.1574 11.2173-6.9184 19.7633 1.0499 1.2465 1.1582 1.9619-.7646.7645-4.8738-3.2592-14.2192-1.1166-14.6978 8.8473-.5911 12.2769 16.5629 15.8143 19.7837 2.7597.1701-1.3774 1.2894-1.346 1.0196.6091-.2937 5.3064-1.9509 10.2661-4.2287 15.1025h11.6202c-2.2777-4.8364-3.9349-9.7961-4.2286-15.1025-.2699-1.9551.8495-1.9865 1.0195-.6091 3.2209 13.0546 20.3749 9.5172 19.7837-2.7597-.4784-9.9639-9.8239-12.1065-14.6978-8.8473-1.9228 1.1974-1.8145.482-.7645-.7645 7.239-8.546 2.8561-19.551-6.9183-19.7633 0-.0001 0 0-.01 0zM1103.0956-809.7316c-9.7745-.2123-14.1574-11.2173-6.9184-19.7633 1.0499-1.2466 1.1582-1.962-.7646-.7646-4.8738 3.2592-14.2192 1.1167-14.6978-8.8472-.5911-12.277 16.5629-15.8143 19.7837-2.7597.1701 1.3774 1.2895 1.346 1.0196-.6092-.2937-5.3064-1.9509-10.266-4.2287-15.1025h11.6202c-2.2776 4.8365-3.9349 9.7961-4.2286 15.1025-.2699 1.9551.8495 1.9866 1.0195.6092 3.2209-13.0546 20.3749-9.5173 19.7837 2.7597-.4784 9.9639-9.8239 12.1064-14.6978 8.8472-1.9227-1.1973-1.8144-.482-.7645.7646 7.239 8.546 2.8561 19.551-6.9183 19.7633 0 0 0-.0001-.01 0zM1103.0956-956.4714c-9.7745.2123-14.1574 11.2173-6.9184 19.7633 1.0499 1.2465 1.1582 1.9619-.7646.7645-4.8738-3.2592-14.2192-1.1166-14.6978 8.8473-.5911 12.277 16.5629 15.8143 19.7837 2.7597.1701-1.3774 1.2894-1.346 1.0196.6091-.2937 5.3064-1.9509 10.266-4.2287 15.1025h11.6202c-2.2777-4.8364-3.9349-9.796-4.2286-15.1025-.2699-1.955.8495-1.9865 1.0195-.6092 3.2209 13.0546 20.3749 9.5173 19.7837-2.7596-.4784-9.964-9.8239-12.1065-14.6978-8.8473-1.9228 1.1974-1.8144.482-.7645-.7645 7.239-8.546 2.8561-19.551-6.9183-19.7633h-.01zM1197.0776-827.3691c3.9097-.0884 5.663-4.6739 2.7674-8.2347-.4201-.5194-.4634-.8175.3058-.3186 1.9495 1.358 5.6877.4653 5.8791-3.6864.2365-5.1154-6.6252-6.5892-7.9135-1.1498-.068.5739-.5158.5608-.4078-.2538.1175-2.211.7803-4.2776 1.6914-6.2928h-4.6478c.9111 2.0152 1.5739 4.0818 1.6914 6.2928.108.8146-.3398.8277-.4078.2538-1.2883-5.4394-8.1499-3.9656-7.9135 1.1498.1914 4.1517 3.9296 5.0444 5.8791 3.6864.7692-.4989.7259-.2008.3059.3186-2.8956 3.5608-1.1424 8.1462 2.7673 8.2347.001 0 0 0 0 0zM1009.1226-1038.5561c-3.9098.088-5.663 4.6739-2.7674 8.2347.42.5194.4633.8175-.3058.3186-1.9496-1.358-5.6877-.4653-5.8792 3.6863-.2364 5.1154 6.6252 6.5893 7.9136 1.1499.068-.5739.5158-.5608.4077.2538-.1174 2.211-.7803 4.2775-1.6914 6.2927h4.6479c-.9111-2.0152-1.574-4.0817-1.6914-6.2927-.108-.8146.3397-.8277.4077-.2538 1.2884 5.4394 8.15 3.9655 7.9136-1.1499-.1915-4.1516-3.9296-5.0443-5.8792-3.6863-.7691.4989-.7258.2008-.3058-.3186 2.8956-3.5608 1.1424-8.1462-2.7673-8.2347-.001 0 0 0 0 0z" transform="matrix(1.17499 0 0 1.1428 -1165.568 1243.796)"/>
  <path style="opacity:1" d="m998.461-1048.8921 2.5293-1.8626c2.1951 3.5789 4.65 5.9361 8.4054 5.5315 5.6343-.3876 7.969-6.3015 6.7901-10.7575-1.1403-3.9979-5.8058-5.9452-9.5151-3.8138-.8755.5051-1.7202.9175-1.8854.9175-.389 0-1.2697-1.7542-1.1493-2.2893 2.4894-3.6402 8.5346-10.0175 8.5346-10.0175h-9.4447v4.2707h-3.6248v-7.6629h18.4594v2.6s-4.9458 5.1359-6.5802 7.9487c4.0254.1475 7.2701 2.7018 8.4349 6.7401.6796 2.1262.375 6.9894-.5146 9.0855-1.486 3.4941-5.5448 6.329-9.2552 6.4921-6.2296.419-9.5344-3.9508-11.1843-7.1825zM1207.7369-817.033l-2.5292 1.8624c-2.1951-3.5789-4.65-5.9361-8.4054-5.5314-5.6343.3876-7.9689 6.3015-6.7901 10.7575 1.1404 3.9978 5.8059 5.9452 9.5151 3.8138.8755-.5051 1.7202-.9175 1.8854-.9175.389 0 1.2697 1.7541 1.1493 2.2892-2.4894 3.6404-8.5346 10.0176-8.5346 10.0176h9.4447v-4.2707h3.6248v7.6629h-18.4594v-2.6s4.9458-5.136 6.5802-7.9487c-4.0254-.1475-7.2701-2.7018-8.4348-6.7401-.6797-2.1262-.3751-6.9894.5145-9.0856 1.486-3.494 5.5448-6.329 9.2553-6.492 6.2295-.419 9.5343 3.9508 11.1842 7.1825zm0 0" transform="matrix(1.17499 0 0 1.1428 -1165.568 1243.796)"/>
  <g transform="translate(-334.77 99.6117)">
    <rect style="opacity:1;vector-effect:none;fill:#006614;fill-opacity:1;stroke:none;stroke-width:1.74801;stroke-linecap:butt;stroke-linejoin:miter;stroke-miterlimit:4;stroke-dasharray:none;stroke-dashoffset:0;stroke-opacity:1" width="1659.9126" height="794.398" x="-356.4728" y="-1029.6816" rx="144.4816" ry="124.6822"/>
    <text y="-935.8134" x="472.1945" style="font-style:normal;font-variant:normal;font-weight:normal;font-stretch:normal;font-size:42.6667px;line-height:125%;font-family:Carlito;-inkscape-font-specification:'Carlito, Normal';text-align:center;letter-spacing:0px;word-spacing:0px;writing-mode:lr-tb;text-anchor:middle;fill:#ffffff;fill-opacity:1;stroke:none;stroke-width:1.06667px;stroke-linecap:butt;stroke-linejoin:miter;stroke-opacity:1" xml:space="preserve"><tspan style="font-style:normal;font-variant:normal;font-weight:normal;font-stretch:normal;font-size:48px;line-height:125%;font-family:Carlito;-inkscape-font-specification:'Carlito, Normal';text-align:center;writing-mode:lr-tb;text-anchor:middle;fill:#ffffff;fill-opacity:1;stroke-width:1.06667px" y="-935.8134" x="472.1945" sodipodi:role="line">Single Playing Card from:</tspan><tspan style="font-style:normal;font-variant:normal;font-weight:normal;font-stretch:normal;font-size:48px;line-height:125%;font-family:Carlito;-inkscape-font-specification:'Carlito, Normal';text-align:center;writing-mode:lr-tb;text-anchor:middle;fill:#ffffff;fill-opacity:1;stroke-width:1.06667px" y="-875.8134" x="472.1945" sodipodi:role="line">Standard Edition - Color Set - Bordered </tspan><tspan style="font-style:normal;font-variant:normal;font-weight:normal;font-stretch:normal;font-size:48px;line-height:125%;font-family:Carlito;-inkscape-font-specification:'Carlito, Normal';text-align:center;writing-mode:lr-tb;text-anchor:middle;fill:#ffaaaa;fill-opacity:1;stroke-width:1.06667px" y="-762.48" x="472.1945" sodipodi:role="line">Copyright 2011, 2020 - Chris Aguilar - conjurenation@gmail.com</tspan><tspan style="font-style:normal;font-variant:normal;font-weight:normal;font-stretch:normal;font-size:48px;line-height:125%;font-family:Carlito;-inkscape-font-specification:'Carlito, Normal';text-align:center;writing-mode:lr-tb;text-anchor:middle;fill:#ffffff;fill-opacity:1;stroke-width:1.06667px" y="-649.1467" x="472.1945" sodipodi:role="line">https://totalnonsense.com/open-source-vector-playing-cards/</tspan><tspan style="font-style:normal;font-variant:normal;font-weight:normal;font-stretch:normal;font-size:48px;line-height:125%;font-family:Carlito;-inkscape-font-specification:'Carlito, Normal';text-align:center;writing-mode:lr-tb;text-anchor:middle;fill:#ffaaaa;fill-opacity:1;stroke-width:1.06667px" y="-535.8133" x="472.1945" sodipodi:role="line">Licensed under:</tspan><tspan style="font-style:normal;font-variant:normal;font-weight:normal;font-stretch:normal;font-size:48px;line-height:125%;font-family:Carlito;-inkscape-font-specification:'Carlito, Normal';text-align:center;writing-mode:lr-tb;text-anchor:middle;fill:#ffaaaa;fill-opacity:1;stroke-width:1.06667px" y="-475.8133" x="472.1945" sodipodi:role="line">LGPL 3.0</tspan><tspan style="font-style:normal;font-variant:normal;font-weight:normal;font-stretch:normal;font-size:48px;line-height:125%;font-family:Carlito;-inkscape-font-specification:'Carlito, Normal';text-align:center;writing-mode:lr-tb;text-anchor:middle;fill:#ffaaaa;fill-opacity:1;stroke-width:1.06667px" y="-415.8133" x="472.1945" sodipodi:role="line">https://www.gnu.org/licenses/lgpl-3.0.html</tspan><tspan style="font-style:normal;font-variant:normal;font-weight:normal;font-stretch:normal;font-size:48px;line-height:125%;font-family:Carlito;-inkscape-font-specification:'Carlito, Normal';text-align:center;writing-mode:lr-tb;text-anchor:middle;fill:#ffffff;fill-opacity:1;stroke-width:1.06667px" y="-302.4799" x="472.1945" sodipodi:role="line">Each Card Measures (63mm x 88mm)</tspan></text>
  </g>
</svg>
