<svg xmlns="http://www.w3.org/2000/svg" xmlns:sodipodi="http://sodipodi.sourceforge.net/DTD/sodipodi-0.dtd" xmlns:inkscape="http://www.inkscape.org/namespaces/inkscape" version="1.1" viewBox="0 0 261.12 355.2" height="355.2" width="261.12" sodipodi:docname="CLUB-9.svg" inkscape:version="1.1-dev (60faa23, 2020-06-06)">
  <sodipodi:namedview pagecolor="#ffffff" bordercolor="#666666" borderopacity="1" objecttolerance="10" gridtolerance="10" guidetolerance="10" inkscape:pageopacity="0" inkscape:pageshadow="2" inkscape:window-width="774" inkscape:window-height="485" showgrid="false" inkscape:zoom=".4002" inkscape:cx="102.0544" inkscape:cy="154.6655" inkscape:window-x="0" inkscape:window-y="0" inkscape:window-maximized="0" inkscape:current-layer="svg8"/>
  <g transform="matrix(1.17499 0 0 1.1428 -3028.334 1243.7963)">
    <rect ry="10.6299" rx="10.6299" style="display:inline;opacity:1;fill:#ffffff;fill-opacity:1;stroke:none;stroke-width:0.996734;stroke-miterlimit:4;stroke-dasharray:none;stroke-opacity:1" width="222.2322" height="310.8137" x="2577.334" y="-1088.3696"/>
    <path style="display:inline;opacity:1" d="M2739.9814-1055.3647c-9.7745.2122-14.1575 11.2172-6.9184 19.7632 1.0499 1.2466 1.1582 1.9619-.7646.7646-4.8738-3.2592-14.2192-1.1167-14.6978 8.8472-.5911 12.277 16.5629 15.8143 19.7837 2.7597.1701-1.3773 1.2896-1.3459 1.0196.6092-.2937 5.3064-1.9509 10.266-4.2287 15.1025h11.6202c-2.2777-4.8365-3.9349-9.7961-4.2286-15.1025-.2699-1.9551.8495-1.9865 1.0195-.6092 3.2209 13.0546 20.3749 9.5173 19.7837-2.7597-.4784-9.9639-9.8239-12.1064-14.6978-8.8472-1.9228 1.1973-1.8144.482-.7646-.7646 7.2391-8.546 2.8561-19.551-6.9182-19.7632 0-.0001 0 0-.01 0zM2636.9106-1055.3647c-9.7745.2122-14.1575 11.2172-6.9184 19.7632 1.0499 1.2466 1.1582 1.9619-.7646.7646-4.8738-3.2592-14.2191-1.1167-14.6978 8.8472-.5911 12.277 16.5629 15.8143 19.7837 2.7597.1701-1.3773 1.2894-1.3459 1.0196.6092-.2937 5.3064-1.9509 10.266-4.2287 15.1025h11.6202c-2.2777-4.8365-3.9349-9.7961-4.2286-15.1025-.2699-1.9551.8495-1.9865 1.0195-.6092 3.2209 13.0546 20.3749 9.5173 19.7837-2.7597-.4784-9.9639-9.8239-12.1064-14.6978-8.8472-1.9228 1.1973-1.8145.482-.7646-.7646 7.2391-8.546 2.8561-19.551-6.9183-19.7632 0-.0001 0 0-.01 0zM2739.9814-809.7317c-9.7745-.2123-14.1575-11.2173-6.9184-19.7633 1.0499-1.2465 1.1582-1.9619-.7646-.7645-4.8738 3.2592-14.2192 1.1166-14.6978-8.8473-.591-12.277 16.5629-15.8142 19.7837-2.7596.1701 1.3773 1.2896 1.3459 1.0196-.6092-.2937-5.3064-1.9509-10.266-4.2287-15.1025h11.6202c-2.2777 4.8364-3.9349 9.796-4.2286 15.1025-.2699 1.955.8495 1.9865 1.0195.6092 3.2209-13.0546 20.3749-9.5173 19.7837 2.7596-.4784 9.964-9.8239 12.1065-14.6978 8.8473-1.9228-1.1973-1.8144-.482-.7646.7645 7.2391 8.546 2.8561 19.551-6.9182 19.7633h-.01zM2636.9106-809.7317c-9.7745-.2123-14.1575-11.2173-6.9184-19.7633 1.0499-1.2465 1.1582-1.9619-.7646-.7645-4.8738 3.2592-14.2191 1.1166-14.6978-8.8473-.5911-12.277 16.5629-15.8142 19.7837-2.7596.1701 1.3773 1.2894 1.3459 1.0196-.6092-.2937-5.3064-1.9509-10.266-4.2287-15.1025h11.6202c-2.2777 4.8364-3.9349 9.796-4.2286 15.1025-.2699 1.955.8495 1.9865 1.0195.6092 3.2209-13.0546 20.3749-9.5173 19.7837 2.7596-.4784 9.964-9.8239 12.1065-14.6978 8.8473-1.9228-1.1973-1.8145-.482-.7646.7645 7.2391 8.546 2.8561 19.551-6.9183 19.7633h-.01zM2688.446-956.4714c-9.7745.2122-14.1574 11.2172-6.9184 19.7632 1.05 1.2466 1.1583 1.962-.7646.7646-4.8737-3.2592-14.2192-1.1167-14.6977 8.8472-.5911 12.277 16.5628 15.8143 19.7836 2.7597.1701-1.3774 1.2894-1.346 1.0196.6092-.2937 5.3064-1.9508 10.266-4.2286 15.1025h11.6201c-2.2777-4.8365-3.9349-9.7961-4.2286-15.1025-.2699-1.9551.8495-1.9866 1.0195-.6092 3.2209 13.0546 20.3749 9.5173 19.7837-2.7597-.4784-9.9639-9.8239-12.1064-14.6978-8.8472-1.9228 1.1973-1.8145.482-.7646-.7646 7.2391-8.546 2.8561-19.551-6.9182-19.7632 0-.0001 0 0-.01 0zM2782.428-827.3692c3.9097-.0884 5.6631-4.6738 2.7674-8.2347-.42-.5194-.4633-.8174.3059-.3185 1.9495 1.358 5.6877.4652 5.8791-3.6864.2364-5.1154-6.6253-6.5893-7.9135-1.1499-.068.574-.5158.5608-.4079-.2538.1176-2.211.7804-4.2775 1.6914-6.2927h-4.6477c.9111 2.0152 1.5739 4.0817 1.6914 6.2927.108.8146-.3398.8277-.4079.2538-1.2882-5.4394-8.1499-3.9655-7.9134 1.1499.1914 4.1516 3.9295 5.0444 5.8791 3.6864.7692-.499.7259-.2009.3059.3185-2.8957 3.5609-1.1424 8.1463 2.7672 8.2347zM2636.9106-989.4359c-9.7744.2123-14.1574 11.2173-6.9184 19.7633 1.0499 1.2465 1.1583 1.9619-.7645.7645-4.8738-3.2592-14.2192-1.1166-14.6978 8.8473-.5912 12.277 16.5629 15.8143 19.7837 2.7597.1701-1.3774 1.2893-1.346 1.0196.6091-.2937 5.3065-1.9509 10.266-4.2287 15.1026h11.6201c-2.2777-4.8365-3.9349-9.7962-4.2286-15.1026-.2699-1.955.8495-1.9865 1.0195-.6091 3.2209 13.0546 20.3749 9.5173 19.7837-2.7597-.4784-9.9639-9.8239-12.1065-14.6978-8.8473-1.9228 1.1974-1.8145.482-.7646-.7645 7.2391-8.546 2.8561-19.551-6.9183-19.7633h-.01zM2636.9106-875.6606c-9.7745-.2122-14.1575-11.2172-6.9184-19.7633 1.0499-1.2465 1.1582-1.9618-.7646-.7645-4.8738 3.2592-14.2191 1.1166-14.6978-8.8473-.5911-12.277 16.5629-15.8142 19.7837-2.7596.1701 1.3773 1.2894 1.3459 1.0196-.6092-.2937-5.3064-1.9509-10.266-4.2287-15.1025h11.6202c-2.2777 4.8365-3.9349 9.796-4.2286 15.1025-.2699 1.9551.8495 1.9865 1.0195.6092 3.2209-13.0546 20.3749-9.5173 19.7837 2.7596-.4784 9.964-9.8239 12.1065-14.6978 8.8473-1.9228-1.1973-1.8145-.482-.7646.7645 7.2391 8.546 2.8561 19.551-6.9183 19.7633h-.01zM2739.9814-989.4359c-9.7745.2123-14.1575 11.2173-6.9184 19.7633 1.0499 1.2465 1.1582 1.9619-.7646.7645-4.8738-3.2592-14.2192-1.1166-14.6978 8.8473-.591 12.277 16.5629 15.8143 19.7837 2.7597.1701-1.3774 1.2895-1.346 1.0196.6091-.2937 5.3065-1.9509 10.266-4.2287 15.1026h11.6202c-2.2777-4.8365-3.9349-9.7962-4.2286-15.1026-.2699-1.955.8495-1.9865 1.0195-.6091 3.2209 13.0546 20.3749 9.5173 19.7837-2.7597-.4784-9.9639-9.8239-12.1065-14.6978-8.8473-1.9228 1.1974-1.8144.482-.7646-.7645 7.2391-8.546 2.8561-19.551-6.9182-19.7633h-.01zM2739.9814-875.6606c-9.7745-.2122-14.1575-11.2172-6.9184-19.7633 1.0499-1.2465 1.1582-1.9618-.7646-.7645-4.8738 3.2592-14.2192 1.1166-14.6978-8.8473-.591-12.277 16.5629-15.8142 19.7837-2.7596.1701 1.3773 1.2895 1.3459 1.0196-.6092-.2937-5.3064-1.9509-10.266-4.2287-15.1025h11.6202c-2.2777 4.8365-3.9349 9.796-4.2286 15.1025-.2699 1.9551.8495 1.9865 1.0195.6092 3.2209-13.0546 20.3749-9.5173 19.7837 2.7596-.4784 9.964-9.8239 12.1065-14.6978 8.8473-1.9228-1.1973-1.8144-.482-.7646.7645 7.2391 8.546 2.8561 19.551-6.9182 19.7633h-.01zM2594.4731-1038.5561c-3.9098.088-5.663 4.6738-2.7674 8.2347.42.5194.4632.8174-.3058.3185-1.9497-1.358-5.6877-.4652-5.8792 3.6864-.2364 5.1154 6.6252 6.5893 7.9135 1.1499.068-.5739.5158-.5608.4078.2538-.1175 2.211-.7803 4.2775-1.6914 6.2927h4.6479c-.9111-2.0152-1.574-4.0817-1.6915-6.2927-.108-.8146.3397-.8277.4078-.2538 1.2883 5.4394 8.15 3.9655 7.9135-1.1499-.1914-4.1516-3.9295-5.0444-5.8791-3.6864-.7691.4989-.7258.2009-.3059-.3185 2.8957-3.5609 1.1424-8.1463-2.7672-8.2347z"/>
    <path style="opacity:1" d="m2585.2959-1048.0227 3.0054-.9541c1.1353 3.0333 3.4251 3.9313 5.8493 3.7368 4.3493-.3472 5.7944-5.2156 6.1195-9.5189-1.6947 1.7999-4.2405 2.7135-6.41 2.6209-6.9348-.372-8.71-5.9296-8.774-11.747-.1895-4.905 1.8354-8.4578 5.3092-10.0893 1.8405-.8262 6.0541-.8262 7.9049.1527 4.2494 2.245 5.825 6.1228 5.5396 15.382 0 7.6172-1.6153 16.4887-9.7698 16.6819-4.7089.6526-8.289-3.0176-8.7741-6.265zm11.805-8.3469c1.4144-.8966 2.2105-1.7385 2.8454-2.998.5196-1.0351.7-1.5754.5503-3.716-.3853-5.5223-3.2753-8.6575-7.4697-8.0362-2.3398.3524-3.6197 1.6629-4.3544 4.0997-1.3555 4.5069.3648 9.7787 3.5851 10.9925 1.4489.5508 3.6888.3929 4.8433-.342zM2791.6022-817.9026l-3.0053.9541c-1.1353-3.0332-3.4252-3.9312-5.8494-3.7368-4.3493.3472-5.7943 5.2157-6.1195 9.519 1.6947-1.8 4.2405-2.7136 6.41-2.621 6.9348.372 8.7101 5.9297 8.7741 11.747.1894 4.905-1.8355 8.4578-5.3092 10.0893-1.8406.8262-6.0542.8262-7.905-.1527-4.2495-2.245-5.825-6.1227-5.5396-15.382 0-7.6172 1.6153-16.4887 9.7698-16.6819 4.7089-.6526 8.289 3.0176 8.7741 6.265zm-11.805 8.347c-1.4143.8965-2.2105 1.7384-2.8453 2.998-.5197 1.035-.7002 1.5753-.5504 3.7159.3853 5.5223 3.2754 8.6575 7.4698 8.0362 2.3398-.3524 3.6196-1.6629 4.3543-4.0997 1.3556-4.507-.3647-9.7787-3.5851-10.9925-1.4489-.5508-3.6888-.3928-4.8433.342zm0 0"/>
  </g>
  <g transform="translate(-310.641 72.114)">
    <rect style="opacity:1;vector-effect:none;fill:#006614;fill-opacity:1;stroke:none;stroke-width:1.74801;stroke-linecap:butt;stroke-linejoin:miter;stroke-miterlimit:4;stroke-dasharray:none;stroke-dashoffset:0;stroke-opacity:1" width="1659.9126" height="794.398" x="-356.4728" y="-1029.6816" rx="144.4816" ry="124.6822"/>
    <text y="-935.8134" x="472.1945" style="font-style:normal;font-variant:normal;font-weight:normal;font-stretch:normal;font-size:42.6667px;line-height:125%;font-family:Carlito;-inkscape-font-specification:'Carlito, Normal';text-align:center;letter-spacing:0px;word-spacing:0px;writing-mode:lr-tb;text-anchor:middle;fill:#ffffff;fill-opacity:1;stroke:none;stroke-width:1.06667px;stroke-linecap:butt;stroke-linejoin:miter;stroke-opacity:1" xml:space="preserve"><tspan style="font-style:normal;font-variant:normal;font-weight:normal;font-stretch:normal;font-size:48px;line-height:125%;font-family:Carlito;-inkscape-font-specification:'Carlito, Normal';text-align:center;writing-mode:lr-tb;text-anchor:middle;fill:#ffffff;fill-opacity:1;stroke-width:1.06667px" y="-935.8134" x="472.1945" sodipodi:role="line">Single Playing Card from:</tspan><tspan style="font-style:normal;font-variant:normal;font-weight:normal;font-stretch:normal;font-size:48px;line-height:125%;font-family:Carlito;-inkscape-font-specification:'Carlito, Normal';text-align:center;writing-mode:lr-tb;text-anchor:middle;fill:#ffffff;fill-opacity:1;stroke-width:1.06667px" y="-875.8134" x="472.1945" sodipodi:role="line">Standard Edition - Color Set - Bordered </tspan><tspan style="font-style:normal;font-variant:normal;font-weight:normal;font-stretch:normal;font-size:48px;line-height:125%;font-family:Carlito;-inkscape-font-specification:'Carlito, Normal';text-align:center;writing-mode:lr-tb;text-anchor:middle;fill:#ffaaaa;fill-opacity:1;stroke-width:1.06667px" y="-762.48" x="472.1945" sodipodi:role="line">Copyright 2011, 2020 - Chris Aguilar - conjurenation@gmail.com</tspan><tspan style="font-style:normal;font-variant:normal;font-weight:normal;font-stretch:normal;font-size:48px;line-height:125%;font-family:Carlito;-inkscape-font-specification:'Carlito, Normal';text-align:center;writing-mode:lr-tb;text-anchor:middle;fill:#ffffff;fill-opacity:1;stroke-width:1.06667px" y="-649.1467" x="472.1945" sodipodi:role="line">https://totalnonsense.com/open-source-vector-playing-cards/</tspan><tspan style="font-style:normal;font-variant:normal;font-weight:normal;font-stretch:normal;font-size:48px;line-height:125%;font-family:Carlito;-inkscape-font-specification:'Carlito, Normal';text-align:center;writing-mode:lr-tb;text-anchor:middle;fill:#ffaaaa;fill-opacity:1;stroke-width:1.06667px" y="-535.8133" x="472.1945" sodipodi:role="line">Licensed under:</tspan><tspan style="font-style:normal;font-variant:normal;font-weight:normal;font-stretch:normal;font-size:48px;line-height:125%;font-family:Carlito;-inkscape-font-specification:'Carlito, Normal';text-align:center;writing-mode:lr-tb;text-anchor:middle;fill:#ffaaaa;fill-opacity:1;stroke-width:1.06667px" y="-475.8133" x="472.1945" sodipodi:role="line">LGPL 3.0</tspan><tspan style="font-style:normal;font-variant:normal;font-weight:normal;font-stretch:normal;font-size:48px;line-height:125%;font-family:Carlito;-inkscape-font-specification:'Carlito, Normal';text-align:center;writing-mode:lr-tb;text-anchor:middle;fill:#ffaaaa;fill-opacity:1;stroke-width:1.06667px" y="-415.8133" x="472.1945" sodipodi:role="line">https://www.gnu.org/licenses/lgpl-3.0.html</tspan><tspan style="font-style:normal;font-variant:normal;font-weight:normal;font-stretch:normal;font-size:48px;line-height:125%;font-family:Carlito;-inkscape-font-specification:'Carlito, Normal';text-align:center;writing-mode:lr-tb;text-anchor:middle;fill:#ffffff;fill-opacity:1;stroke-width:1.06667px" y="-302.4799" x="472.1945" sodipodi:role="line">Each Card Measures (63mm x 88mm)</tspan></text>
  </g>
</svg>
